<?xml version="1.0" encoding="utf-8"?>
<!-- Generator: Adobe Illustrator 16.0.0, SVG Export Plug-In . SVG Version: 6.00 Build 0)  -->
<!DOCTYPE svg PUBLIC "-//W3C//DTD SVG 1.1//EN" "http://www.w3.org/Graphics/SVG/1.1/DTD/svg11.dtd">
<svg version="1.1" id="Layer_1" xmlns="http://www.w3.org/2000/svg" xmlns:xlink="http://www.w3.org/1999/xlink" x="0px" y="0px"
	 width="28.883px" height="30.226px" viewBox="0 0 28.883 30.226" enable-background="new 0 0 28.883 30.226" xml:space="preserve">
<g>
	<path fill="#1D1E1C" d="M25.039,0.001c2.154-0.058,3.844,1.456,3.844,3.61c0,1.631-0.932,2.97-2.446,3.669L8.851,15.142
		l17.586,7.861c1.515,0.699,2.446,1.863,2.446,3.552c0,2.097-1.689,3.727-3.552,3.669c-0.815,0-1.457-0.232-2.155-0.583
		L3.552,20.324C1.339,19.276,0,17.646,0,15.375v-0.582c0-2.271,1.339-3.902,3.552-4.95l19.624-9.316
		C23.758,0.235,24.398,0.001,25.039,0.001z"/>
</g>
</svg>
