<?xml version="1.0" encoding="utf-8"?>
<!-- Generator: Adobe Illustrator 16.0.0, SVG Export Plug-In . SVG Version: 6.00 Build 0)  -->
<!DOCTYPE svg PUBLIC "-//W3C//DTD SVG 1.1//EN" "http://www.w3.org/Graphics/SVG/1.1/DTD/svg11.dtd">
<svg version="1.1" id="Layer_1" xmlns="http://www.w3.org/2000/svg" xmlns:xlink="http://www.w3.org/1999/xlink" x="0px" y="0px"
	 width="28.88px" height="30.222px" viewBox="0 0 28.88 30.222" enable-background="new 0 0 28.88 30.222" xml:space="preserve">
<g display="none">
	<g display="inline">
		<path fill="#F5EDD8" d="M-35.892,25.486c0,0-16.479-6.298-17.775,1.383c-1.296,7.682,0,28.229,0,28.229s17.775,3.06,17.775,0"/>
		<path fill="#1D1E1C" d="M-41.059,57.947c-2.807,0-6.898-0.345-12.863-1.372l-1.168-0.201l-0.075-1.183
			c-0.053-0.846-1.292-20.809,0.018-28.572c0.293-1.739,1.241-3.112,2.741-3.969c5.179-2.96,15.849,0.975,17.049,1.434l-1.071,2.803
			c-2.894-1.103-11.137-3.549-14.491-1.631c-0.722,0.413-1.125,1.005-1.271,1.863c-1.076,6.377-0.299,22.226-0.051,26.695
			c6.543,1.046,13.868,1.581,15.083,0.738c-0.074,0.051-0.235,0.26-0.235,0.546h3c0,0.675-0.299,1.299-0.843,1.757
			C-35.74,57.281-37.158,57.947-41.059,57.947z"/>
	</g>
	<g display="inline">
		<g>
			<path fill="#F5EDD8" d="M48.538,106.098h-72.43c-6.6,0-12-5.4-12-12V-2.361c0-6.6,5.4-12,12-12h72.43c6.6,0,12,5.4,12,12v96.459
				C60.538,100.697,55.138,106.098,48.538,106.098z"/>
		</g>
		<g>
			<path fill="#1D1E1C" d="M48.538,107.598h-72.43c-7.444,0-13.5-6.056-13.5-13.5V-2.361c0-7.444,6.056-13.5,13.5-13.5h72.43
				c7.444,0,13.5,6.056,13.5,13.5v96.459C62.038,101.542,55.982,107.598,48.538,107.598z M-23.892-12.861
				c-5.79,0-10.5,4.71-10.5,10.5v96.459c0,5.79,4.71,10.5,10.5,10.5h72.43c5.79,0,10.5-4.71,10.5-10.5V-2.361
				c0-5.79-4.71-10.5-10.5-10.5H-23.892z"/>
		</g>
	</g>
	<g display="inline">
		<path fill="#1D1E1C" d="M4.544,65.307c-2.259,0-4.489-0.468-5.218-0.636c-2.519-0.582-6.771-1.94-6.946-4.498
			c-0.093-1.358,0.859-2.427,2.829-3.176c6.583-2.505,5.994-12.117,5.987-12.213l2.993-0.208C4.223,45.061,4.916,56.512-3.724,59.8
			c-0.282,0.107-0.488,0.205-0.637,0.286c1.067,0.79,4.379,1.989,8.01,2.201c2.561,0.148,3.498-0.354,3.608-0.496
			c1.158-2.012,3.033-2.465,4.153-2.736c0.117-0.028,0.253-0.062,0.377-0.094c-0.097-0.285-0.309-0.776-0.766-1.575
			c-3.466-6.057-0.272-16.859-0.134-17.316l2.873,0.865c-0.03,0.1-2.96,10.024-0.135,14.961c1.009,1.764,1.574,3.19,1.046,4.414
			c-0.502,1.165-1.642,1.44-2.557,1.662c-1.084,0.262-1.777,0.482-2.263,1.324C8.946,64.868,6.731,65.307,4.544,65.307z"/>
	</g>
	<g display="inline">
		<polygon fill="#E85F54" points="-10.339,82.532 -0.315,74.513 3.622,78.522 9.264,74.513 21.07,82.532 3.622,92.969 		"/>
		<path fill="#1D1E1C" d="M3.529,94.772l-16.32-12.2l12.597-10.077l3.99,4.063l5.448-3.873l14.614,9.926L3.529,94.772z
			 M-7.888,82.492l11.603,8.674l14.568-8.714l-9-6.113l-5.835,4.147l-3.884-3.956L-7.888,82.492z"/>
	</g>
	<g display="inline">
		<path fill="#1D1E1C" d="M-34.392,50.08h-3c0-1.214-0.281-1.537-0.367-1.607c-0.515-0.418-2.422-0.022-3.956,0.296
			c-2.211,0.458-4.716,0.979-7.259,0.532c-1.747-0.306-2.892-0.957-3.501-1.99c-0.973-1.65-0.303-3.596,0.545-6.061
			c0.727-2.111,1.631-4.738,1.716-7.821c0.079-2.846,1.384-4.108,2.465-4.666c4.048-2.089,11.283,2.517,12.692,3.461l-1.67,2.492
			c-2.897-1.938-7.804-4.24-9.647-3.288c-0.197,0.102-0.795,0.411-0.841,2.083c-0.098,3.542-1.085,6.41-1.878,8.714
			c-0.476,1.382-1.068,3.103-0.798,3.561c0.034,0.057,0.262,0.353,1.435,0.559c1.979,0.348,4.185-0.111,6.133-0.515
			c2.488-0.515,4.838-1.003,6.458,0.315C-34.874,46.954-34.392,48.24-34.392,50.08z"/>
	</g>
	<g display="inline">
		<polygon fill="#1D1E1C" points="-40.997,44.916 -46.607,37.159 -35.892,37.159 -35.892,40.159 -40.735,40.159 -38.566,43.158 		
			"/>
	</g>
	<g display="inline">
		
			<rect x="-26.802" y="18.885" transform="matrix(0.4351 0.9004 -0.9004 0.4351 4.6456 33.3664)" fill="#1D1E1C" width="5.068" height="3"/>
	</g>
	<g display="inline">
		
			<rect x="-19.731" y="14.827" transform="matrix(0.5014 0.8652 -0.8652 0.5014 5.263 23.5221)" fill="#1D1E1C" width="3.908" height="3"/>
	</g>
	<g display="inline">
		
			<rect x="-9.298" y="12.865" transform="matrix(0.9314 0.364 -0.364 0.9314 5.0489 3.8905)" fill="#1D1E1C" width="3" height="4.953"/>
	</g>
	<g display="inline">
		<rect x="-10.339" y="81.032" fill="#1D1E1C" width="31.41" height="3"/>
	</g>
	<g display="inline">
		<polygon fill="#FFD15C" points="12.323,-14.361 -35.892,25.486 -35.638,-10.153 -33.686,-13.042 -28.669,-14.361 		"/>
		<path fill="#1D1E1C" d="M-37.415,28.69l0.28-39.308l2.521-3.731l5.944-1.513h45.162L-37.415,28.69z M-34.141-9.688l-0.228,31.97
			L8.154-12.861h-36.629l-4.283,1.127L-34.141-9.688z"/>
	</g>
	<g display="inline">
		<g>
			<polygon fill="#E85F54" points="40.645,0.956 41.849,5.745 26.662,4.041 16.169,8.027 16.023,-2.092 			"/>
		</g>
		<g>
			<path fill="#1D1E1C" d="M14.7,10.19L14.498-3.792l27.351,3.386l1.981,7.883L26.855,5.572L14.7,10.19z M17.548-0.392l0.09,6.257
				l8.831-3.355l13.398,1.503l-0.426-1.695L17.548-0.392z"/>
		</g>
	</g>
	<g display="inline">
		<path fill="#FFFFFF" d="M-35.054,26.477c0,0,17.199,19.882,34.552,0"/>
	</g>
	<g display="inline">
		<g>
			<path fill="#FFFFFF" d="M-35.052,26.707c0,0,17.199-19.882,34.551,0"/>
		</g>
		<g>
			<path fill="#1D1E1C" d="M-1.631,27.693c-4.82-5.522-10.049-8.323-15.54-8.323c-0.005,0-0.01,0-0.016,0
				c-9.4,0.009-16.659,8.236-16.731,8.319l-2.268-1.964c0.33-0.381,8.195-9.331,18.973-9.355c0.014,0,0.029,0,0.043,0
				c6.396,0,12.384,3.146,17.799,9.35L-1.631,27.693z"/>
		</g>
	</g>
	<g display="inline">
		<circle fill="#1D1E1C" cx="-17.15" cy="26.707" r="4.935"/>
		<path fill="#42B18A" d="M-17.15,33.142c-3.548,0-6.435-2.887-6.435-6.435s2.887-6.436,6.435-6.436s6.436,2.887,6.436,6.436
			S-13.602,33.142-17.15,33.142z M-17.15,23.271c-1.894,0-3.435,1.541-3.435,3.436c0,1.894,1.541,3.435,3.435,3.435
			c1.895,0,3.436-1.541,3.436-3.435C-13.715,24.812-15.256,23.271-17.15,23.271z"/>
	</g>
	<g display="inline">
		<path fill="#FFFFFF" d="M16.023,26.477c0,0,17.199,19.882,34.551,0"/>
	</g>
	<g display="inline">
		<g>
			<path fill="#FFFFFF" d="M16.023,26.707c0,0,17.199-19.882,34.552,0"/>
		</g>
		<g>
			<path fill="#1D1E1C" d="M49.445,27.693c-4.82-5.522-10.049-8.323-15.541-8.323c-0.012,0-0.023,0-0.036,0
				c-9.425,0.021-16.64,8.235-16.711,8.318l-2.269-1.963c0.33-0.381,8.196-9.331,18.974-9.355c0.014,0,0.029,0,0.043,0
				c6.396,0,12.384,3.146,17.799,9.35L49.445,27.693z"/>
		</g>
	</g>
	<g display="inline">
		<circle fill="#1D1E1C" cx="33.926" cy="26.707" r="4.936"/>
		<path fill="#42B18A" d="M33.926,33.142c-3.548,0-6.436-2.887-6.436-6.435s2.887-6.436,6.436-6.436s6.436,2.887,6.436,6.436
			S37.474,33.142,33.926,33.142z M33.926,23.271c-1.895,0-3.436,1.541-3.436,3.436c0,1.894,1.541,3.435,3.436,3.435
			s3.436-1.541,3.436-3.435C37.361,24.812,35.82,23.271,33.926,23.271z"/>
	</g>
	<g display="inline">
		<g>
			<path fill="#E85F54" d="M6.686-28.413c0,0-16.118,6.853-29.852,3.159c-13.734-3.694-35.527-8.496-36.266,4.802
				C-60.17-7.155-57.215-6.469-57.215,5.562s-1.108,16.654-5.171,30.78c-4.062,14.125,7.465,21.882,10.936,33.702
				s-0.962,15.916-7.242,28.089c-6.279,12.172-3.694,32.807-2.955,37.634s5.541,12.087,5.541,12.087s0.739-24.99,8.126-37.179
				c7.387-12.189,21.211-9.234,22.61-23.271c1.399-14.036,0.806-26.261,1.103-37.324C-23.972,39.017,6.879,1.71,12.323-5.308
				c5.444-7.018,19.479-5.171,19.479-5.171S62.907,6.122,60.538,24.65V89.99c0,0,8.159,10.711-3.27,26.594
				c-11.429,15.883,3.894,15.145,3.894,15.145s14.097,9.35,7.144,16.125c-6.953,6.776,17.795-22.035,17.795-22.035
				s3.324-29.488,0-42.077c-3.324-12.589-2.955-20.013-2.955-33.661c0-13.649,9.234-25.214,2.216-36.792
				C78.344,1.71,89.487-17.128,71.726-23.407C53.965-29.687,12.965-35.634,6.686-28.413z"/>
		</g>
		<g>
			<path fill="#1D1E1C" d="M-54.748,152.628l-2.61-3.947c-0.204-0.308-4.993-7.594-5.772-12.688
				c-0.641-4.189-3.504-25.736,3.105-38.548c1.125-2.181,2.204-4.128,3.156-5.847c4.432-7.998,6.657-12.012,3.979-21.132
				c-1.163-3.961-3.344-7.561-5.454-11.041c-4.082-6.735-8.302-13.7-5.484-23.498c3.969-13.796,5.113-18.31,5.113-30.365
				c0-5.346-0.604-8.411-1.187-11.374c-0.708-3.594-1.439-7.309-1.027-14.724c0.258-4.648,3.028-10.189,14.757-10.189
				c7.481,0,16.433,2.149,23.396,4.022c2.57,0.691,5.431,1.042,8.502,1.042c9.527,0,18.41-3.348,20.089-4.017
				c2.377-2.384,7.644-3.543,16.072-3.543c16.417,0,38.913,4.36,50.339,8.4c11.907,4.209,11.914,13.98,11.92,22.602
				c0.004,5.461,0.007,10.621,2.499,14.73c4.711,7.772,2.671,15.332,0.511,23.334c-1.234,4.573-2.51,9.301-2.51,14.235l-0.006,3.707
				c-0.031,11.449-0.049,18.359,2.912,29.572c3.357,12.714,0.177,41.413,0.041,42.628l-0.052,0.459l-0.301,0.351
				c-0.104,0.122-10.407,12.118-15.764,18.707c-0.354,1.246-1.066,2.396-2.122,3.425c-0.84,0.819-1.302,1.234-1.78,1.387
				l-0.34,0.419l0.082-0.362c-0.07,0.009-0.142,0.013-0.216,0.013h-0.947l-0.429-0.866c-0.462-0.969-0.272-1.345,2.974-5.354
				c0.555-4.037-5.226-9.005-7.99-10.932c-1.7-0.02-6.625-0.403-8.489-4.039c-1.643-3.207-0.39-7.618,3.833-13.486
				c10.588-14.714,3.593-24.409,3.291-24.815l-0.298-0.399l-0.004-0.504l0.012-65.53C61.155,7.994,34.207-7.433,31.34-9.022
				c-0.546-0.058-1.886-0.177-3.616-0.177c-3.916,0-10.969,0.625-14.216,4.811c-0.637,0.821-1.619,2.054-2.859,3.61
				C2.445,9.517-22.52,40.847-22.769,50.12c-0.091,3.406-0.098,6.895-0.104,10.589c-0.015,8.006-0.031,17.08-1.005,26.844
				c-0.862,8.653-6.274,11.58-11.508,14.411c-4.067,2.2-8.273,4.474-11.312,9.488c-7.101,11.716-7.902,36.2-7.91,36.446
				L-54.748,152.628z M-46.172-27.725c-11.354,0-11.661,5.536-11.762,7.355c-0.391,7.039,0.273,10.409,0.976,13.978
				c0.611,3.104,1.243,6.314,1.243,11.953c0,12.422-1.257,17.383-5.23,31.194c-2.455,8.536,1.248,14.646,5.167,21.113
				c2.209,3.646,4.493,7.415,5.767,11.751c3.031,10.323,0.296,15.257-4.234,23.431c-0.942,1.7-2.01,3.627-3.114,5.768
				c-6.184,11.988-3.422,32.691-2.805,36.719c0.336,2.197,1.623,5.008,2.846,7.299c0.62-8.022,2.507-23.788,8.055-32.941
				c3.461-5.71,8.237-8.293,12.45-10.572c5.166-2.794,9.246-5,9.95-12.07c0.959-9.618,0.975-18.227,0.99-26.551
				c0.007-3.713,0.013-7.221,0.105-10.664c0.245-9.109,18.336-32.942,34.071-52.688c1.229-1.543,2.204-2.766,2.835-3.58
				c3.828-4.936,11.133-5.972,16.586-5.972c2.48,0,4.202,0.223,4.274,0.232l0.27,0.036l0.24,0.128
				c1.305,0.696,31.888,17.255,29.529,36.546v64.78c1.487,2.288,7.224,12.961-3.553,27.937c-3.355,4.664-4.633,8.345-3.598,10.366
				c1.174,2.292,5.177,2.408,5.967,2.408c0.139,0,0.223-0.003,0.238-0.004l0.488-0.021l0.41,0.27
				c6.021,3.993,8.361,7.826,9.223,10.582l1.759-2.168l-0.027,0.12c4.731-5.665,10.358-12.236,11.714-13.817
				c0.397-3.762,2.984-29.737-0.009-41.071c-3.062-11.593-3.042-19.053-3.011-30.346l0.006-3.698c0-5.332,1.329-10.255,2.614-15.017
				c2.075-7.685,3.866-14.323-0.18-20.998C81.154,9.24,81.15,3.415,81.146-2.218c-0.006-8.731-0.011-16.272-9.92-19.775
				c-11.24-3.974-33.748-8.228-49.339-8.228c-10.507,0-13.339,1.953-14.07,2.793l-0.227,0.261l-0.318,0.135
				c-0.42,0.179-10.411,4.371-21.546,4.372c-3.335,0-6.458-0.385-9.282-1.145C-30.34-25.63-39.042-27.725-46.172-27.725z"/>
		</g>
	</g>
	<g display="inline">
		<path fill="#F5EDD8" d="M57.268,25.887c0,0,16.479-7.339,17.775,1.613c1.296,8.951,0,32.894,0,32.894s-17.775,3.565-17.775,0"/>
		<path fill="#1D1E1C" d="M62.437,63.454c-3.9,0-5.283-0.75-5.718-1.106c-0.613-0.502-0.951-1.197-0.951-1.954h3
			c0-0.173-0.096-0.324-0.147-0.366c1.055,0.864,7.896,0.444,14.984-0.883c0.236-4.897,1.053-23.845-0.045-31.43
			c-0.175-1.209-0.682-2.007-1.594-2.511c-3.463-1.913-11.344,0.834-14.087,2.054l-1.22-2.741c1.147-0.512,11.372-4.911,16.755-1.94
			c1.73,0.954,2.807,2.582,3.115,4.708c1.303,8.995,0.067,32.206,0.013,33.189l-0.062,1.161l-1.14,0.229
			C69.349,63.066,65.242,63.454,62.437,63.454z"/>
	</g>
	<g display="inline">
		<path fill="#1D1E1C" d="M62.662,54.217h-3c0-1.337,0.153-3.227,1.474-4.205c1.358-1.005,3.018-0.499,4.623-0.009
			c1.282,0.392,2.607,0.797,3.734,0.506c0.823-0.212,1.072-0.276,0.134-4.291c-0.532-2.277-1.194-5.11-1.259-8.582
			c-0.03-1.596-0.401-2.166-0.593-2.244c-0.892-0.363-3.72,1.467-5.56,3.283l-2.107-2.135c1.262-1.248,5.627-5.218,8.798-3.927
			c1.583,0.645,2.412,2.315,2.461,4.967c0.059,3.154,0.681,5.815,1.181,7.955c0.789,3.377,1.605,6.869-2.306,7.878
			c-1.942,0.499-3.837-0.077-5.359-0.542c-0.675-0.206-1.695-0.516-1.995-0.429C62.903,52.456,62.662,52.83,62.662,54.217z"/>
	</g>
	<g display="inline">
		<path fill="#1D1E1C" d="M61.113,49.923l-1.151-2.77c2.752-1.147,5.04-2.926,4.982-3.578c0-0.01-0.361-1.06-4.729-2.023l0.646-2.93
			c2.915,0.644,6.818,1.829,7.071,4.689C68.231,46.695,62.789,49.228,61.113,49.923z"/>
	</g>
</g>
<g display="none">
	<g display="inline">
		<g>
			<path fill="#F5EDD8" d="M-34.083,29.812c0,0-16.479-6.298-17.775,1.383c-1.296,7.682,0,28.229,0,28.229s17.775,3.06,17.775,0"/>
			<path fill="#1D1E1C" d="M-39.25,62.274c-2.807,0-6.898-0.345-12.863-1.372l-1.168-0.201l-0.075-1.183
				c-0.053-0.846-1.292-20.809,0.018-28.572c0.293-1.739,1.241-3.112,2.741-3.969c5.181-2.96,15.849,0.976,17.049,1.434
				l-1.071,2.803c-2.894-1.104-11.136-3.548-14.491-1.631c-0.722,0.413-1.125,1.005-1.271,1.863
				c-1.076,6.377-0.299,22.226-0.051,26.695c6.543,1.046,13.868,1.581,15.083,0.738c-0.074,0.051-0.235,0.26-0.235,0.546h3
				c0,0.675-0.299,1.299-0.843,1.757C-33.931,61.608-35.349,62.274-39.25,62.274z"/>
		</g>
		<g>
			<path fill="#1D1E1C" d="M-32.583,54.406h-3c0-1.214-0.281-1.537-0.367-1.606c-0.515-0.419-2.422-0.022-3.956,0.295
				c-2.21,0.458-4.718,0.978-7.259,0.533c-1.747-0.306-2.892-0.957-3.501-1.99c-0.973-1.65-0.303-3.596,0.545-6.061
				c0.727-2.111,1.631-4.738,1.716-7.821c0.078-2.846,1.384-4.108,2.465-4.666c4.052-2.09,11.283,2.517,12.692,3.461l-1.67,2.492
				c-2.896-1.938-7.805-4.238-9.647-3.288c-0.196,0.102-0.795,0.411-0.841,2.083c-0.098,3.542-1.085,6.411-1.878,8.715
				c-0.476,1.382-1.068,3.103-0.798,3.56c0.034,0.058,0.262,0.354,1.435,0.559c1.977,0.346,4.185-0.111,6.132-0.515
				c2.488-0.516,4.838-1.003,6.458,0.315C-33.064,51.28-32.583,52.566-32.583,54.406z"/>
		</g>
		<g>
			<path fill="#1D1E1C" d="M-34.532,50.897c-3.401-1.069-9.073-3.344-8.849-6.574c0.162-2.323,2.868-3.754,9.051-4.787l0.494,2.959
				c-5.107,0.853-6.28,1.789-6.52,2.055c0.445,0.857,3.611,2.508,6.722,3.485L-34.532,50.897z"/>
		</g>
	</g>
	<g display="inline">
		<path fill="#1D1E1C" d="M-40.994,25.092c0,0-13.005-1.891-11.902-14.909c1.104-13.018,1.104-13.018,1.104-13.018
			s-3.19-11.743,12.982-16.197c16.173-4.455,16.471,8.728,33.329,1.934c16.858-6.793,15.319-9.223,28.844-8.413
			c13.525,0.81,24.053-1.62,25.268-2.834s7.289,6.884,7.289,6.884L66.79-7.29l10.178,19.437l-5.134,19.359"/>
	</g>
	<g display="inline">
		<path fill="#F5EDD8" d="M59.256,29.157c0,0,16.479-7.339,17.775,1.612s0,32.894,0,32.894s-17.775,3.565-17.775,0"/>
		<path fill="#1D1E1C" d="M64.425,66.724c-3.9,0-5.283-0.75-5.718-1.106c-0.613-0.502-0.951-1.197-0.951-1.954h3
			c0-0.173-0.096-0.324-0.147-0.366c1.055,0.864,7.896,0.443,14.984-0.883c0.236-4.897,1.053-23.845-0.045-31.43
			c-0.175-1.209-0.682-2.007-1.594-2.51c-3.461-1.912-11.344,0.834-14.087,2.054l-1.22-2.741c1.148-0.512,11.372-4.909,16.755-1.941
			c1.73,0.954,2.807,2.582,3.115,4.708c1.303,8.996,0.067,32.207,0.013,33.19l-0.062,1.161l-1.14,0.229
			C71.337,66.335,67.23,66.723,64.425,66.724z"/>
	</g>
	<g display="inline">
		<path fill="#1D1E1C" d="M64.65,57.486h-3c0-1.337,0.153-3.227,1.474-4.205c1.358-1.006,3.018-0.499,4.624-0.009
			c1.282,0.391,2.607,0.798,3.734,0.506c0.823-0.212,1.072-0.276,0.134-4.291c-0.532-2.277-1.194-5.11-1.259-8.582
			c-0.03-1.596-0.401-2.166-0.593-2.244c-0.887-0.36-3.72,1.468-5.56,3.283l-2.107-2.135c1.262-1.247,5.631-5.217,8.798-3.927
			c1.584,0.645,2.412,2.315,2.461,4.966c0.059,3.154,0.681,5.816,1.181,7.955c0.789,3.377,1.605,6.869-2.306,7.878
			c-1.942,0.5-3.837-0.078-5.359-0.542c-0.676-0.207-1.698-0.517-1.995-0.43C64.891,55.725,64.65,56.1,64.65,57.486z"/>
	</g>
	<g display="inline">
		<path fill="#1D1E1C" d="M63.277,52.796l-1.151-2.77c2.752-1.147,5.04-2.926,4.982-3.578c0-0.01-0.361-1.06-4.729-2.023l0.646-2.93
			c2.915,0.644,6.818,1.83,7.071,4.689C70.396,49.568,64.953,52.101,63.277,52.796z"/>
	</g>
	<g display="inline">
		<g>
			<path fill="#F5EDD8" d="M49.885,106.04h-72.43c-6.6,0-12-5.4-12-12V-2.419c0-6.6,5.4-12,12-12h72.43c6.6,0,12,5.4,12,12V94.04
				C61.885,100.64,56.485,106.04,49.885,106.04z"/>
		</g>
		<g>
			<path fill="#1D1E1C" d="M49.885,107.54h-72.43c-7.444,0-13.5-6.056-13.5-13.5V-2.419c0-7.444,6.056-13.5,13.5-13.5h72.43
				c7.444,0,13.5,6.056,13.5,13.5V94.04C63.385,101.483,57.329,107.54,49.885,107.54z M-22.544-12.919c-5.79,0-10.5,4.71-10.5,10.5
				V94.04c0,5.79,4.71,10.5,10.5,10.5h72.43c5.79,0,10.5-4.71,10.5-10.5V-2.419c0-5.79-4.71-10.5-10.5-10.5H-22.544z"/>
		</g>
	</g>
	<g display="inline">
		<g>
			<path fill="#1D1E1C" d="M3.592,8.332v9.366c0,0-20.654-4.563-25.938,0c-5.284,4.563-5.284,4.563-5.284,4.563V6.171
				C-27.629,6.171,3.592,6.411,3.592,8.332z"/>
		</g>
		<g>
			<path fill="#1D1E1C" d="M-27.629,6.171c0,0,31.222,0.24,31.222,2.161v9.366"/>
		</g>
	</g>
	<g display="inline">
		<g>
			<path fill="#1D1E1C" d="M19.322,8.332v9.366c0,0,20.654-4.563,25.938,0c5.283,4.563,5.283,4.563,5.283,4.563V6.171
				C50.543,6.171,19.322,6.411,19.322,8.332z"/>
		</g>
		<g>
			<path fill="#1D1E1C" d="M50.543,6.171c0,0-31.221,0.24-31.221,2.161v9.366"/>
		</g>
	</g>
	<g display="inline">
		<rect x="-2.522" y="-8.463" fill="#1D1E1C" width="25.293" height="3"/>
	</g>
	<g display="inline">
		<rect x="-14.817" y="-2.885" fill="#1D1E1C" width="49.037" height="3"/>
	</g>
	<g display="inline">
		<g>
			<polygon fill="#F5EDD8" points="-7.876,82.475 2.148,74.455 6.085,78.465 11.727,74.455 23.534,82.475 6.085,92.911 			"/>
		</g>
		<g>
			<path fill="#1D1E1C" d="M5.993,94.714l-16.321-12.2L2.269,72.438l3.99,4.063l5.448-3.873l14.614,9.926L5.993,94.714z
				 M-5.425,82.435l11.603,8.673l14.567-8.713l-8.999-6.113l-5.835,4.147l-3.885-3.956L-5.425,82.435z"/>
		</g>
	</g>
	<g display="inline">
		<path fill="#1D1E1C" d="M-5.135,98.764c0,0-13.034,13.654,0,21.723c13.034,8.068,19.24,14.896,12.413,19.55s-7.7,7.758-7.7,7.758
			l20.777-7.758c0,0,1.905-3.724,0-15.206c-1.905-11.482,2.365-24.516,5.971-26.067C29.932,97.212-5.135,98.764-5.135,98.764z"/>
	</g>
	<g display="inline">
		<rect x="-7.876" y="80.975" fill="#1D1E1C" width="31.41" height="3"/>
	</g>
	<g display="inline">
		<path fill="#1D1E1C" d="M12.71,65.254c-2.255,0-4.322-0.421-5.21-1.731c-0.464-0.685-1.2-0.879-2.27-1.099
			c-0.961-0.197-2.158-0.442-2.642-1.627c-0.509-1.248,0.246-2.643,1.138-3.966c2.258-3.348,0.643-10.051-0.17-12.351l2.828-1.003
			c0.14,0.395,3.398,9.743-0.17,15.032c-0.276,0.41-0.457,0.715-0.574,0.937c0.067,0.014,0.132,0.027,0.193,0.04
			c1.181,0.242,2.966,0.608,4.15,2.353c0.15,0.128,1.293,0.557,4.078,0.37c3.108-0.211,5.81-0.973,7.145-1.582
			c-0.037-0.013-0.076-0.025-0.116-0.039c-6.985-2.254-8.276-9.613-7.984-13.188l2.99,0.245l-1.495-0.123l1.495,0.119
			c-0.025,0.326-0.538,8.01,5.916,10.093c0.723,0.233,2.925,0.944,2.907,2.816c-0.014,1.501-1.434,2.627-4.468,3.543
			C19.181,64.477,15.773,65.254,12.71,65.254z"/>
	</g>
	<g display="inline">
		<path fill="#1D1E1C" d="M-22.85-14.419c0,0-2.65-5.854,13.7-10.191c16.35-4.338,20.354-13.347,20.688-14.682
			c0.334-1.335,24.025,17.018,24.025,17.018"/>
	</g>
	<g display="inline">
		<polygon fill="#1D1E1C" points="-17.206,-14.419 -10.291,-19.044 -2.761,-19.044 -4.298,-13.973 		"/>
	</g>
	<g display="inline">
		<path fill="#1D1E1C" d="M-13.476,51.099c-8.062,0-14.282-2.61-18.485-7.759c-8.965-10.982-5.319-29.46-5.16-30.242l0.327-1.6
			H9.841l0.327,1.6c0.16,0.781,3.806,19.259-5.16,30.242C0.805,48.488-5.414,51.099-13.476,51.099z M-33.46,15.498
			c-0.632,4.516-1.767,17.526,4.606,25.321c3.406,4.167,8.581,6.28,15.378,6.28c6.803,0,11.979-2.116,15.386-6.289
			c6.381-7.816,5.237-20.802,4.6-25.312H-33.46z"/>
	</g>
	<g display="inline">
		<path fill="#1D1E1C" d="M37.481,51.099c-8.062,0-14.281-2.61-18.484-7.759c-8.966-10.982-5.319-29.46-5.16-30.242l0.327-1.6
			h46.635l0.327,1.6c0.16,0.781,3.806,19.259-5.16,30.242C51.763,48.488,45.543,51.099,37.481,51.099z M17.497,15.498
			c-0.632,4.516-1.768,17.526,4.605,25.321c3.406,4.167,8.581,6.279,15.378,6.279s11.972-2.113,15.378-6.28
			c6.373-7.795,5.238-20.805,4.606-25.321H17.497z"/>
	</g>
	<g display="inline">
		<rect x="5.53" y="11.498" fill="#1D1E1C" width="25.407" height="4"/>
	</g>
	<g display="inline">
		<path fill="#FFFFFF" d="M-30.752,27.835c0,0,17.199,19.882,34.551,0"/>
	</g>
	<g display="inline">
		<g>
			<path fill="#FFFFFF" d="M-30.751,28.064c0,0,17.199-19.881,34.551,0"/>
		</g>
		<g>
			<path fill="#1D1E1C" d="M2.67,29.051c-4.82-5.522-10.049-8.322-15.54-8.322c-0.006,0-0.011,0-0.017,0
				c-9.4,0.009-16.659,8.235-16.731,8.319l-2.268-1.964c0.33-0.381,8.195-9.331,18.973-9.354c0.014,0,0.029,0,0.043,0
				c6.396,0,12.384,3.145,17.799,9.35L2.67,29.051z"/>
		</g>
	</g>
	<g display="inline">
		<circle fill="#1D1E1C" cx="-12.849" cy="28.064" r="4.935"/>
		<path fill="#E86156" d="M-12.849,34.5c-3.548,0-6.436-2.887-6.436-6.436s2.887-6.436,6.436-6.436s6.435,2.887,6.435,6.436
			S-9.301,34.5-12.849,34.5z M-12.849,24.629c-1.895,0-3.436,1.541-3.436,3.436s1.541,3.436,3.436,3.436
			c1.894,0,3.435-1.541,3.435-3.436S-10.955,24.629-12.849,24.629z"/>
	</g>
	<g display="inline">
		<path fill="#FFFFFF" d="M20.205,27.835c0,0,17.199,19.882,34.551,0"/>
	</g>
	<g display="inline">
		<g>
			<path fill="#FFFFFF" d="M20.207,28.064c0,0,17.198-19.881,34.551,0"/>
		</g>
		<g>
			<path fill="#1D1E1C" d="M53.627,29.051c-4.82-5.522-10.049-8.322-15.54-8.322c-0.012,0-0.024,0-0.036,0
				c-9.424,0.021-16.639,8.234-16.71,8.317l-2.269-1.963c0.33-0.381,8.195-9.331,18.973-9.354c0.014,0,0.029,0,0.043,0
				c6.396,0,12.384,3.145,17.799,9.35L53.627,29.051z"/>
		</g>
	</g>
	<g display="inline">
		<circle fill="#1D1E1C" cx="38.108" cy="28.064" r="4.935"/>
		<path fill="#E86156" d="M38.108,34.5c-3.548,0-6.436-2.887-6.436-6.436s2.887-6.436,6.436-6.436s6.435,2.887,6.435,6.436
			S41.657,34.5,38.108,34.5z M38.108,24.629c-1.895,0-3.436,1.541-3.436,3.436s1.541,3.436,3.436,3.436
			c1.894,0,3.435-1.541,3.435-3.436S40.002,24.629,38.108,24.629z"/>
	</g>
	<g display="inline">
		<path fill="#1D1E1C" d="M-38.423,28.806c0,0-17.629-5.374-12.48-16.872s14.152,1.563,14.152,1.563l0.786,10.148"/>
	</g>
</g>
<g display="none">
	<g display="inline">
		<polygon fill="#E85F54" points="1.047,-40.315 16.7,-40.602 18.519,-15.088 -2.064,-15.088 1.047,-40.602 		"/>
	</g>
	<g display="inline">
		<path fill="#E85F54" d="M7.89-39.96c0,0-74.08-15.203-74.08,62.321c0,77.523-33.26,67.697-33.26,67.697l64.242,8.167"/>
		<path fill="#1D1E1C" d="M-35.397,99.711l-60.991-7.753c-2.048-0.053-3.356-0.424-3.487-0.463l0.614-2.926l3.167,0.402
			c2.645,0.046,6.764-0.587,11.067-3.832c7.909-5.964,17.337-21.697,17.337-62.78c0-23.667,6.832-41.239,20.307-52.229
			C-25.143-48.01,6.84-41.707,8.191-41.43l-0.603,2.939c-0.318-0.065-31.97-6.284-53.09,10.958
			C-58.234-17.139-64.69-0.353-64.69,22.36c0,34.058-6.264,56.008-18.617,65.239c-1.4,1.046-2.788,1.854-4.13,2.473l52.417,6.664
			L-35.397,99.711z"/>
	</g>
	<g display="inline">
		<path fill="#E85F54" d="M6.914-39.96c0,0,74.08-15.203,74.08,62.321c0,77.523,33.26,67.697,33.26,67.697l-64.242,8.167"/>
		<path fill="#1D1E1C" d="M50.201,99.711l-0.378-2.976l52.417-6.664c-1.342-0.619-2.73-1.426-4.13-2.473
			C85.758,78.368,79.494,56.418,79.494,22.36c0-22.722-6.461-39.512-19.203-49.905C39.143-44.794,7.531-38.556,7.216-38.491
			L6.612-41.43c1.352-0.276,33.334-6.58,55.575,11.561C75.662-18.879,82.494-1.307,82.494,22.36c0,41.18,9.469,56.9,17.413,62.836
			c4.306,3.218,8.443,3.813,11.087,3.763l3.071-0.39l0.614,2.926c-0.131,0.039-1.439,0.41-3.487,0.463L50.201,99.711z"/>
	</g>
	<g display="inline">
		<path fill="#F5EDD8" d="M-35.838,25.179c0,0-16.479-6.298-17.775,1.384c-1.297,7.682,0,28.229,0,28.229s17.775,3.06,17.775,0"/>
		<path fill="#1D1E1C" d="M-41.005,57.641c-2.807,0-6.898-0.345-12.863-1.372l-1.168-0.201l-0.075-1.183
			c-0.053-0.846-1.292-20.81,0.018-28.573c0.293-1.739,1.241-3.112,2.741-3.969c5.179-2.959,15.85,0.975,17.049,1.434l-1.071,2.803
			c-2.894-1.104-11.14-3.55-14.491-1.631c-0.722,0.413-1.125,1.005-1.271,1.863c-1.077,6.377-0.3,22.226-0.051,26.695
			c6.544,1.046,13.868,1.581,15.083,0.738c-0.074,0.051-0.235,0.26-0.235,0.546h3c0,0.675-0.299,1.299-0.843,1.757
			C-35.687,56.975-37.105,57.641-41.005,57.641z"/>
	</g>
	<g display="inline">
		<g>
			<path fill="#F5EDD8" d="M48.59,105.791h-72.429c-6.601,0-12-5.4-12-12V-2.668c0-6.6,5.399-12,12-12H48.59c6.6,0,12,5.4,12,12
				v96.459C60.59,100.391,55.19,105.791,48.59,105.791z"/>
		</g>
		<g>
			<path fill="#1D1E1C" d="M48.59,107.291h-72.429c-7.444,0-13.5-6.056-13.5-13.5V-2.668c0-7.444,6.056-13.5,13.5-13.5H48.59
				c7.444,0,13.5,6.056,13.5,13.5v96.459C62.09,101.234,56.034,107.291,48.59,107.291z M-23.838-13.168c-5.79,0-10.5,4.71-10.5,10.5
				v96.459c0,5.79,4.71,10.5,10.5,10.5H48.59c5.79,0,10.5-4.71,10.5-10.5V-2.668c0-5.79-4.71-10.5-10.5-10.5H-23.838z"/>
		</g>
	</g>
	<g display="inline">
		<path fill="#1D1E1C" d="M4.597,65c-2.26,0-4.49-0.468-5.219-0.637c-2.519-0.582-6.77-1.939-6.945-4.498
			c-0.093-1.358,0.859-2.427,2.829-3.176c6.554-2.494,5.993-12.119,5.987-12.216l2.993-0.206c0.034,0.486,0.727,11.938-7.913,15.225
			c-0.282,0.107-0.489,0.205-0.638,0.287c1.068,0.79,4.38,1.989,8.01,2.2c2.562,0.149,3.498-0.353,3.608-0.496
			c1.158-2.012,3.033-2.465,4.153-2.736c0.117-0.028,0.253-0.061,0.377-0.094c-0.098-0.285-0.309-0.775-0.766-1.575
			c-3.466-6.057-0.272-16.859-0.134-17.316l2.873,0.865c-0.03,0.1-2.959,10.024-0.135,14.961c1.01,1.764,1.574,3.189,1.046,4.414
			c-0.502,1.165-1.641,1.44-2.557,1.662c-1.084,0.262-1.777,0.482-2.263,1.325C8.999,64.561,6.784,65,4.597,65z"/>
	</g>
	<g display="inline">
		<polygon fill="#E85F54" points="-10.287,82.226 -0.262,74.206 3.675,78.216 9.317,74.206 21.124,82.226 3.675,92.662 		"/>
		<path fill="#1D1E1C" d="M3.583,94.465l-16.321-12.2l12.597-10.077l3.99,4.063l5.448-3.873l14.614,9.926L3.583,94.465z
			 M-7.835,82.186l11.603,8.673l14.567-8.713l-8.999-6.113L3.501,80.18l-3.885-3.956L-7.835,82.186z"/>
	</g>
	<g display="inline">
		<path fill="#1D1E1C" d="M-34.338,49.773h-3c0-1.214-0.281-1.537-0.367-1.607c-0.513-0.416-2.421-0.022-3.956,0.296
			c-2.21,0.458-4.715,0.978-7.259,0.533c-1.747-0.306-2.892-0.957-3.501-1.99c-0.973-1.65-0.303-3.596,0.545-6.061
			c0.727-2.111,1.631-4.738,1.716-7.821c0.079-2.846,1.384-4.108,2.465-4.666c4.046-2.089,11.283,2.517,12.692,3.461l-1.67,2.492
			c-2.897-1.938-7.806-4.24-9.647-3.288c-0.197,0.102-0.795,0.411-0.841,2.083c-0.098,3.542-1.085,6.41-1.878,8.714
			c-0.476,1.382-1.068,3.103-0.798,3.56c0.034,0.058,0.262,0.354,1.435,0.559c1.978,0.347,4.185-0.112,6.132-0.515
			c2.489-0.516,4.84-1.002,6.459,0.315C-34.82,46.646-34.338,47.933-34.338,49.773z"/>
	</g>
	<g display="inline">
		<rect x="-10.287" y="80.726" fill="#1D1E1C" width="31.41" height="3"/>
	</g>
	<g display="inline">
		<path fill="#F5EDD8" d="M57.321,25.581c0,0,16.479-7.339,17.775,1.612c1.297,8.951,0,32.894,0,32.894s-17.775,3.566-17.775,0"/>
		<path fill="#1D1E1C" d="M62.49,63.147c-3.899,0-5.283-0.75-5.718-1.106c-0.613-0.502-0.951-1.196-0.951-1.954h3
			c0-0.173-0.096-0.324-0.147-0.366c1.055,0.865,7.895,0.444,14.983-0.883c0.236-4.897,1.053-23.845-0.045-31.43
			c-0.175-1.21-0.682-2.008-1.595-2.511c-3.471-1.912-11.345,0.833-14.085,2.054l-1.221-2.74c1.148-0.512,11.371-4.908,16.755-1.941
			c1.73,0.954,2.807,2.582,3.115,4.708c1.303,8.995,0.067,32.206,0.013,33.189l-0.062,1.161l-1.14,0.229
			C69.401,62.759,65.294,63.147,62.49,63.147z"/>
	</g>
	<g display="inline">
		<path fill="#1D1E1C" d="M62.715,53.91h-3c0-1.337,0.153-3.228,1.474-4.206c1.358-1.006,3.018-0.498,4.623-0.009
			c1.283,0.392,2.609,0.795,3.733,0.505c0.824-0.212,1.073-0.276,0.134-4.291c-0.532-2.277-1.194-5.11-1.259-8.581
			c-0.03-1.597-0.401-2.166-0.593-2.244c-0.894-0.361-3.72,1.467-5.56,3.283l-2.107-2.135c1.263-1.248,5.628-5.217,8.798-3.927
			c1.583,0.645,2.411,2.316,2.46,4.967c0.06,3.153,0.681,5.815,1.181,7.954c0.79,3.377,1.605,6.87-2.306,7.879
			c-1.944,0.501-3.838-0.078-5.358-0.542c-0.676-0.206-1.697-0.519-1.995-0.429C62.956,52.148,62.715,52.523,62.715,53.91z"/>
	</g>
	<g display="inline">
		<polyline fill="#E85F54" points="-35.838,-25.042 -35.838,7.699 27.502,7.699 37.936,-8.671 37.936,7.699 60.59,7.699 
			60.59,-25.042 		"/>
		<polygon fill="#1D1E1C" points="62.09,9.199 36.436,9.199 36.436,-3.527 28.325,9.199 -37.338,9.199 -37.338,-25.042 
			-34.338,-25.042 -34.338,6.199 26.679,6.199 39.436,-13.815 39.436,6.199 59.09,6.199 59.09,-25.042 62.09,-25.042 		"/>
	</g>
	<g display="inline">
		<rect x="-39.669" y="-26.226" fill="#E85F54" width="7.363" height="32.339"/>
	</g>
	<g display="inline">
		<rect x="56.909" y="-23.664" fill="#E85F54" width="7.363" height="29.777"/>
	</g>
	<g display="inline">
		<polygon fill="#E85F54" points="58.427,-25.845 60.977,-25.845 62.325,-25.298 63.089,-23.664 57.699,-21.948 		"/>
	</g>
	<g display="inline">
		<path fill="#FFFFFF" d="M-32.306,27.01c0,0,17.199,19.882,34.551,0"/>
	</g>
	<g display="inline">
		<path fill="#FFFFFF" d="M18.519,27.01c0,0,17.199,19.882,34.551,0"/>
	</g>
	<g display="inline">
		<g>
			<path fill="#FFFFFF" d="M-32.305,27.24c0,0,17.199-19.881,34.551,0"/>
		</g>
		<g>
			<path fill="#1D1E1C" d="M1.116,28.226c-4.82-5.522-10.048-8.322-15.54-8.322c-0.005,0-0.011,0-0.016,0
				c-9.4,0.009-16.66,8.235-16.732,8.319l-2.268-1.964c0.33-0.381,8.196-9.331,18.974-9.354c0.014,0,0.028,0,0.042,0
				c6.396,0,12.384,3.145,17.799,9.35L1.116,28.226z"/>
		</g>
	</g>
	<g display="inline">
		<circle fill="#1D1E1C" cx="-14.403" cy="27.24" r="4.935"/>
		<path fill="#42B18A" d="M-14.403,33.675c-3.548,0-6.436-2.887-6.436-6.436s2.887-6.435,6.436-6.435s6.435,2.887,6.435,6.435
			S-10.854,33.675-14.403,33.675z M-14.403,23.805c-1.895,0-3.436,1.541-3.436,3.435c0,1.895,1.541,3.436,3.436,3.436
			c1.894,0,3.435-1.541,3.435-3.436C-10.968,25.346-12.509,23.805-14.403,23.805z"/>
	</g>
	<g display="inline">
		<g>
			<path fill="#FFFFFF" d="M18.52,27.24c0,0,17.199-19.881,34.551,0"/>
		</g>
		<g>
			<path fill="#1D1E1C" d="M51.941,28.226c-4.82-5.522-10.049-8.322-15.54-8.322c-0.005,0-0.01,0-0.016,0
				c-9.4,0.009-16.659,8.235-16.731,8.319l-2.268-1.964c0.33-0.381,8.195-9.331,18.973-9.354c0.014,0,0.029,0,0.043,0
				c6.396,0,12.384,3.145,17.799,9.35L51.941,28.226z"/>
		</g>
	</g>
	<g display="inline">
		<circle fill="#1D1E1C" cx="36.422" cy="27.24" r="4.935"/>
		<path fill="#42B18A" d="M36.422,33.675c-3.548,0-6.435-2.887-6.435-6.436s2.887-6.435,6.435-6.435s6.435,2.887,6.435,6.435
			S39.97,33.675,36.422,33.675z M36.422,23.805c-1.894,0-3.435,1.541-3.435,3.435c0,1.895,1.541,3.436,3.435,3.436
			s3.435-1.541,3.435-3.436C39.857,25.346,38.316,23.805,36.422,23.805z"/>
	</g>
	<g display="inline">
		<path fill="#1D1E1C" d="M-36.288,46.264c-3.401-1.069-9.074-3.344-8.849-6.574c0.162-2.323,2.869-3.754,9.052-4.787l0.494,2.959
			c-5.107,0.853-6.28,1.789-6.52,2.055c0.445,0.854,3.61,2.505,6.723,3.486L-36.288,46.264z"/>
	</g>
	<g display="inline">
		<path fill="#1D1E1C" d="M61.342,49.22l-1.151-2.77c2.752-1.147,5.04-2.926,4.982-3.578c0-0.01-0.361-1.06-4.729-2.023l0.646-2.93
			c2.915,0.644,6.818,1.829,7.071,4.689C68.46,45.992,63.018,48.524,61.342,49.22z"/>
	</g>
</g>
<g>
	<path fill="#1D1E1C" d="M5.707,0.526l19.622,9.316c2.212,1.048,3.551,2.679,3.551,4.949v0.582c0,2.271-1.339,3.901-3.551,4.949
		L5.707,29.638c-0.698,0.35-1.34,0.583-2.155,0.583C1.689,30.279,0,28.648,0,26.553C0,24.864,0.932,23.7,2.446,23l17.584-7.86
		L2.446,7.28C0.932,6.581,0,5.242,0,3.611c0-2.154,1.689-3.668,3.843-3.61C4.484,0.001,5.124,0.234,5.707,0.526z"/>
</g>
</svg>
