<?xml version="1.0" encoding="utf-8"?>
<!-- Generator: Adobe Illustrator 16.0.0, SVG Export Plug-In . SVG Version: 6.00 Build 0)  -->
<!DOCTYPE svg PUBLIC "-//W3C//DTD SVG 1.1//EN" "http://www.w3.org/Graphics/SVG/1.1/DTD/svg11.dtd">
<svg version="1.1" id="Layer_1" xmlns="http://www.w3.org/2000/svg" xmlns:xlink="http://www.w3.org/1999/xlink" x="0px" y="0px"
	 width="28.883px" height="30.226px" viewBox="0 0 28.883 30.226" enable-background="new 0 0 28.883 30.226" xml:space="preserve">
<g>
	<path fill="#1D1E1C" d="M5.707,0.526l19.624,9.316c2.213,1.048,3.552,2.68,3.552,4.95v0.582c0,2.271-1.339,3.901-3.552,4.949
		L5.707,29.641c-0.698,0.351-1.34,0.583-2.155,0.583C1.689,30.282,0,28.652,0,26.555c0-1.688,0.932-2.853,2.446-3.552l17.586-7.861
		L2.446,7.281C0.932,6.582,0,5.243,0,3.612c0-2.154,1.689-3.668,3.844-3.61C4.484,0.001,5.125,0.235,5.707,0.526z"/>
</g>
</svg>
