<?xml version="1.0" encoding="utf-8"?>
<!-- Generator: Adobe Illustrator 16.0.0, SVG Export Plug-In . SVG Version: 6.00 Build 0)  -->
<!DOCTYPE svg PUBLIC "-//W3C//DTD SVG 1.1//EN" "http://www.w3.org/Graphics/SVG/1.1/DTD/svg11.dtd">
<svg version="1.1" id="Layer_1" xmlns="http://www.w3.org/2000/svg" xmlns:xlink="http://www.w3.org/1999/xlink" x="0px" y="0px"
	 width="155.804px" height="108.284px" viewBox="0 0 155.804 108.284" enable-background="new 0 0 155.804 108.284"
	 xml:space="preserve">
<g>
	<g>
		<path fill="#42B18A" d="M155.804,98.284c0,5.5-4.502,10-10,10H23.293c-5.5,0-10-4.5-10-10V23.295c0-5.5,4.5-10,10-10h122.511
			c5.498,0,10,4.5,10,10V98.284z"/>
	</g>
	<g>
		<path fill="#FFD15D" d="M142.51,84.99c0,5.5-4.5,10-10,10H10c-5.5,0-10-4.5-10-10V10C0,4.5,4.5,0,10,0h122.51c5.5,0,10,4.5,10,10
			V84.99z"/>
	</g>
	<path fill="#E86156" d="M111.941,72.554H17.309c-2.442,0-4.442-1.999-4.442-4.442l0,0c0-2.444,2-4.443,4.442-4.443h94.633
		c2.443,0,4.442,1.999,4.442,4.443l0,0C116.384,70.555,114.385,72.554,111.941,72.554z"/>
	<g>
		<path fill="#E86156" d="M91.279,35.705l17.133-17.91c1.688-1.766,4.514-1.828,6.28-0.14l0,0c1.766,1.688,1.829,4.516,0.14,6.281
			L97.7,41.847c-1.69,1.766-4.516,1.829-6.283,0.14l0,0C89.651,40.297,89.59,37.471,91.279,35.705z"/>
		<path fill="#E86156" d="M132.279,35.705l-17.133-17.91c-1.689-1.766-4.517-1.828-6.282-0.14l0,0
			c-1.766,1.688-1.828,4.516-0.139,6.281l17.132,17.91c1.688,1.766,4.516,1.829,6.281,0.14l0,0
			C133.903,40.297,133.968,37.471,132.279,35.705z"/>
	</g>
	<path fill="#E96156" d="M107.498,68.111V29.553c0-2.443,1.999-4.442,4.443-4.442l0,0c2.443,0,4.442,1.999,4.442,4.442v38.559
		c0,2.443-1.999,4.442-4.442,4.442l0,0C109.497,72.554,107.498,70.555,107.498,68.111z"/>
</g>
</svg>
