<?xml version="1.0" encoding="utf-8"?>
<!-- Generator: Adobe Illustrator 16.0.0, SVG Export Plug-In . SVG Version: 6.00 Build 0)  -->
<!DOCTYPE svg PUBLIC "-//W3C//DTD SVG 1.1//EN" "http://www.w3.org/Graphics/SVG/1.1/DTD/svg11.dtd">
<svg version="1.1" id="Layer_1" xmlns="http://www.w3.org/2000/svg" xmlns:xlink="http://www.w3.org/1999/xlink" x="0px" y="0px"
	 width="203.447px" height="371.093px" viewBox="0 0 203.447 371.093" enable-background="new 0 0 203.447 371.093"
	 xml:space="preserve">
<g>
	<path fill="#FFD15C" stroke="#1D1E1C" stroke-width="5" stroke-miterlimit="10" d="M2.592,174.896h144.74v168.863
		c0,0-5.646,24.834-25.527,24.834s-88.703,0-88.703,0s-30.51-4.258-30.51-26.252C2.592,320.345,2.592,174.896,2.592,174.896z"/>
	<path fill="#FFFFFF" stroke="#1D1E1C" stroke-width="5" stroke-miterlimit="10" d="M2.592,174.896c0,0-3.766-39.856,36.777-36.279
		c0,0,24.445-33.984,54.257-4.174c0,0,34.165-7.154,30.794,22.656c0,0,22.912-9.124,22.912,17.797H2.592z"/>
	<circle fill="#FFFFFF" stroke="#1D1E1C" stroke-width="5" stroke-miterlimit="10" cx="25.657" cy="94.495" r="12.521"/>
	<circle fill="#FFFFFF" stroke="#1D1E1C" stroke-width="5" stroke-miterlimit="10" cx="31.021" cy="20.503" r="12.521"/>
	<circle fill="#FFFFFF" stroke="#1D1E1C" stroke-width="5" stroke-miterlimit="10" cx="103.166" cy="60.511" r="12.521"/>
	<circle fill="#FFFFFF" stroke="#1D1E1C" stroke-width="5" stroke-miterlimit="10" cx="137.289" cy="94.843" r="12.869"/>
	<path fill="#FFFFFF" stroke="#1D1E1C" stroke-width="5" stroke-miterlimit="10" d="M147.333,210.76h33.343
		c0,0,20.271,1.192,20.271,22.656s0,73.336,0,73.336s-2.981,20.868-20.271,20.868h-33.343v-28.023h26.808v-64.392h-26.808V210.76z"
		/>
	
		<rect x="2.592" y="174.896" fill="#FFFFFF" stroke="#1D1E1C" stroke-width="5" stroke-miterlimit="10" width="144.74" height="40.037"/>
	<g>
		<line fill="none" stroke="#1D1E1C" stroke-width="5" stroke-miterlimit="10" x1="169.854" y1="0" x2="169.854" y2="24.177"/>
		<line fill="none" stroke="#1D1E1C" stroke-width="5" stroke-miterlimit="10" x1="196.305" y1="14.761" x2="176.411" y2="28.497"/>
		<line fill="none" stroke="#1D1E1C" stroke-width="5" stroke-miterlimit="10" x1="168.513" y1="65.194" x2="168.513" y2="41.019"/>
		<line fill="none" stroke="#1D1E1C" stroke-width="5" stroke-miterlimit="10" x1="193.504" y1="56.435" x2="176.411" y2="39.339"/>
		<line fill="none" stroke="#1D1E1C" stroke-width="5" stroke-miterlimit="10" x1="160.151" y1="28.497" x2="141.787" y2="12.774"/>
		<line fill="none" stroke="#1D1E1C" stroke-width="5" stroke-miterlimit="10" x1="141.022" y1="51.259" x2="160.917" y2="37.522"/>
	</g>
</g>
</svg>
