<?xml version="1.0" encoding="utf-8"?>
<!-- Generator: Adobe Illustrator 16.0.0, SVG Export Plug-In . SVG Version: 6.00 Build 0)  -->
<!DOCTYPE svg PUBLIC "-//W3C//DTD SVG 1.1//EN" "http://www.w3.org/Graphics/SVG/1.1/DTD/svg11.dtd">
<svg version="1.1" id="Layer_1" xmlns="http://www.w3.org/2000/svg" xmlns:xlink="http://www.w3.org/1999/xlink" x="0px" y="0px"
	 width="486.818px" height="366.005px" viewBox="0 0 486.818 366.005" enable-background="new 0 0 486.818 366.005"
	 xml:space="preserve">
<g>
	
		<rect x="3.5" y="80.979" fill="#57C1EB" stroke="#1D1E1C" stroke-width="7" stroke-miterlimit="10" width="479.818" height="281.525"/>
	<path fill="none" stroke="#FFFFFF" stroke-width="3" stroke-miterlimit="10" d="M43.75,127.681
		c-3.273,73.074-1.227,146.385,6.116,219.162c25.508-13.756,54.666-20.67,83.634-19.832c-4.818-20.256-6.096-41.162-7.356-61.944
		c-2.746-45.286-5.491-90.572-8.237-135.858c-25.977,0.623-51.982,0.084-77.911-1.615"/>
	<path fill="none" stroke="#FFFFFF" stroke-width="3" stroke-miterlimit="10" d="M47.621,188.214
		c24.282,1.203,48.676,0.145,72.763-3.158"/>
	<path fill="none" stroke="#FFFFFF" stroke-width="3" stroke-miterlimit="10" d="M43.105,245.489
		c27.817,2.423,55.952,1.176,83.445-3.701"/>
	<path fill="none" stroke="#FFFFFF" stroke-width="3" stroke-miterlimit="10" d="M40.032,289.931c28.816,0,57.633,0,86.449,0"/>
	<path fill="none" stroke="#FFFFFF" stroke-width="3" stroke-miterlimit="10" d="M118.898,115.517
		c0.082,3.689,0.163,7.379,0.244,11.068c-1.116-6.641-2.231-13.279-3.347-19.918c43.134-0.556,86.275-0.463,129.406,0.275
		c-3.877,76.525-4.918,153.195-3.118,229.798c-33.537,0.139-67.074,0.276-100.61,0.415c-2.649,0.012-5.514-0.047-7.615-1.66
		c-2.101-1.613-2.615-5.407-0.304-6.7"/>
	<path fill="none" stroke="#FFFFFF" stroke-width="3" stroke-miterlimit="10" d="M123.448,183.765
		c0.029-2.463,0.057-4.927,0.085-7.391c38.123-2.646,76.245-5.291,114.367-7.936c1.232,11.512,2.465,23.022,3.698,34.534
		c-38.923,2.058-77.816,4.677-116.663,7.856"/>
	<path fill="none" stroke="#FFFFFF" stroke-width="3" stroke-miterlimit="10" d="M126.521,251.589
		c25.971,1.038,52.136,2.066,77.82-1.918c14.978-2.322,29.912-6.354,45.037-5.367"/>
	<path fill="none" stroke="#FFFFFF" stroke-width="3" stroke-miterlimit="10" d="M123.45,288.544
		c38.979-0.728,77.99,0.28,116.878,3.02"/>
	<path fill="none" stroke="#FFFFFF" stroke-width="3" stroke-miterlimit="10" d="M49.132,142.816
		c-0.005,5.415-0.01,10.831-0.016,16.247c0.038-6.99,0.077-13.979,0.115-20.969c4.234-0.229,8.128,3.975,7.579,8.179
		c3.136-0.796,6.406-1.597,9.572-0.932c3.167,0.665,6.177,3.268,6.169,6.503c-0.004,1.643-0.763,3.22-0.714,4.86
		c0.049,1.642,1.578,3.458,3.087,2.811c2.657-2.839,3.647-7.134,2.5-10.851c5.847,2.358,12.722,2.014,18.302-0.919
		c-1.878-0.188-3.756-0.376-5.634-0.563"/>
	<path fill="none" stroke="#FFFFFF" stroke-width="3" stroke-miterlimit="10" d="M57.465,218.229
		c-3.188-5.723-0.904-13.826,4.803-17.041c0.171,4.281,0.343,8.562,0.514,12.844c-1.479-0.037-2.959-0.074-4.439-0.111
		c2.164-3.387,7.673-1.305,9.982,1.984c2.31,3.288,3.614,7.63,7.186,9.471c2.021-6.711,3.859-13.479,5.512-20.29
		c0.036,5.498,0.073,10.996,0.109,16.494c3.925,0.022,7.519-3.519,7.556-7.443c4.043-0.009,8.087,0.501,12.001,1.512"/>
	<path fill="none" stroke="#FFFFFF" stroke-width="3" stroke-miterlimit="10" d="M65.019,260.452
		c-2.849,2.876-8.823-0.244-8.089-4.226c6.846,5.464,11.685,13.39,13.417,21.978c3.863-2.63,5.317-7.559,8.167-11.264
		c2.849-3.703,9.287-5.768,11.78-1.816c-6.108,0.506-12.217,1.012-18.325,1.518c12.18,1.531,24.36,3.061,36.54,4.592
		c-4.102-4.875-8.203-9.752-12.304-14.627c1.224,6.455,2.447,12.909,3.671,19.363c2.866,0.926,5.732,1.853,8.599,2.777"/>
	<path fill="none" stroke="#FFFFFF" stroke-width="3" stroke-miterlimit="10" d="M70.351,306.613
		c-1.629-0.12-3.258-0.241-4.887-0.362c4.872-7.415,14.312-11.532,23.061-10.057c-0.078,4.841-0.157,9.682-0.235,14.523
		c2.6-0.695,4.324-3.225,6.823-4.224c2.499-0.998,6.286,1.733,4.486,3.733"/>
	<path fill="none" stroke="#FFFFFF" stroke-width="3" stroke-miterlimit="10" d="M67.387,326.917
		c-1.578-1.926,0.657-4.965,3.131-5.248c2.474-0.285,4.807,1.027,7.154,1.86c6.48,2.301,14.164,0.787,19.287-3.8"/>
	<path fill="none" stroke="#FFFFFF" stroke-width="3" stroke-miterlimit="10" d="M131.031,139.783c8.594,0,17.188,0,25.783,0"/>
	<path fill="none" stroke="#FFFFFF" stroke-width="3" stroke-miterlimit="10" d="M173.498,138.267c2.022,0,4.044,0,6.066,0"/>
	<path fill="none" stroke="#FFFFFF" stroke-width="3" stroke-miterlimit="10" d="M193.214,138.267c4.55,0,9.1,0,13.65,0"/>
	<path fill="none" stroke="#FFFFFF" stroke-width="3" stroke-miterlimit="10" d="M226.58,138.267c4.044,0,8.088,0,12.133,0"/>
	<path fill="none" stroke="#FFFFFF" stroke-width="3" stroke-miterlimit="10" d="M124.964,123.101
		c2.473-0.077,4.945-0.153,7.418-0.23c-0.007-1.853-0.014-3.705-0.02-5.558c1.786,5.754,7.36,9.397,12.76,12.069
		c4.176,2.066,8.959,3.878,13.396,2.455c4.436-1.423,7.327-7.621,4.059-10.94c15.333-0.765,30.594-2.964,45.518-6.561"/>
	<path fill="none" stroke="#FFFFFF" stroke-width="3" stroke-miterlimit="10" d="M131.052,156.04
		c11.348,0.527,22.695,1.057,34.043,1.584c1.583,0.074,3.347,0.087,4.525-0.975c1.445-1.301,1.376-3.65,2.61-5.152
		c1.587-1.933,4.566-1.726,7.011-1.204c8.122,1.731,15.908,5.023,22.809,9.644"/>
	<path fill="none" stroke="#FFFFFF" stroke-width="3" stroke-miterlimit="10" d="M135.746,181.753
		c-0.242,4.082-0.484,8.164-0.727,12.245c-0.03,0.517-0.04,1.097,0.312,1.478c0.361,0.391,0.959,0.416,1.491,0.415
		c4.324-0.011,8.649-0.022,12.974-0.034"/>
	<path fill="none" stroke="#FFFFFF" stroke-width="3" stroke-miterlimit="10" d="M129.606,192.455
		c3.283-2.189,7.05-3.649,10.951-4.244"/>
	<path fill="none" stroke="#FFFFFF" stroke-width="3" stroke-miterlimit="10" d="M149.245,192.025c3.028,0.211,6.8-0.827,7.39-3.804
		c0.493-2.488-2.054-4.944-4.577-4.686c-2.523,0.26-4.47,2.783-4.455,5.32c0.015,2.536,1.723,4.88,3.967,6.062
		c2.244,1.182,4.931,1.316,7.417,0.811"/>
	<path fill="none" stroke="#FFFFFF" stroke-width="3" stroke-miterlimit="10" d="M169.877,182.86
		c-3.662-0.411-7.452,0.409-10.617,2.299c1.871,1.139,4.025,1.727,5.951,2.771c1.925,1.043,3.716,2.756,3.921,4.937
		s-1.969,4.508-4.028,3.765"/>
	<path fill="none" stroke="#FFFFFF" stroke-width="3" stroke-miterlimit="10" d="M182.422,179.06
		c-1.562,3.258-2.869,6.637-3.906,10.096c-0.135,0.449-0.259,0.959-0.028,1.367c0.211,0.372,0.65,0.539,1.058,0.666
		c4.306,1.336,9.036,1.269,13.302-0.189"/>
	<path fill="none" stroke="#FFFFFF" stroke-width="3" stroke-miterlimit="10" d="M171.509,186.636c5.067,0,10.134,0,15.2,0"/>
	<path fill="none" stroke="#FFFFFF" stroke-width="3" stroke-miterlimit="10" d="M204.625,176.865c0,4.343,0,8.686,0,13.028"/>
	<path fill="none" stroke="#FFFFFF" stroke-width="3" stroke-miterlimit="10" d="M202.453,196.951c0.905,0,1.81,0,2.715,0"/>
	<path fill="none" stroke="#FFFFFF" stroke-width="3" stroke-miterlimit="10" d="M253.793,195.253
		c7.02,0.219,13.089-5.807,14.94-12.58c1.083-3.969,0.898-8.568-1.708-11.752c-2.606-3.183-8.076-4.037-10.817-0.97"/>
	<path fill="none" stroke="#FFFFFF" stroke-width="3" stroke-miterlimit="10" d="M251.762,181.356
		c-1.347-7.826-2.694-15.653-4.041-23.48c8.677-0.029,17.353-0.058,26.029-0.086"/>
	<path fill="none" stroke="#FFFFFF" stroke-width="3" stroke-miterlimit="10" d="M135.863,225.887
		c6.472,2.066,14.193-0.962,17.533-6.879c-0.06,6.904-0.12,13.808-0.18,20.712c3.397,1.264,6.934-1.248,9.69-3.603
		c6.252-5.337,12.504-10.675,18.756-16.013c-5.604-0.059-11.207-0.117-16.811-0.176c3.625-1.106,6.708,2.591,9.171,5.472
		c2.463,2.88,7.399,5.204,9.58,2.106c2.699,6.777,13.807,7.737,17.629,1.521c5.942-5.872,15.657-4.533,23.826-2.782
		c0.062-1.983,0.124-3.968,0.186-5.952c0.461,2.051,0.208,4.253-0.706,6.145"/>
	<path fill="none" stroke="#FFFFFF" stroke-width="3" stroke-miterlimit="10" d="M146.955,268.452
		c7.36-0.01,14.72-0.018,22.08-0.026c-1.67-0.153-3.344,1.15-3.606,2.807c6.127-0.448,12.253-0.897,18.38-1.347
		c1.954-0.143,4.018-0.266,5.77,0.609c1.753,0.875,2.974,3.133,2.033,4.852c-2.187-2.878-3.004-6.752-2.166-10.269
		c12.614,1.923,24.354,9.058,31.867,19.372"/>
	<path fill="none" stroke="#FFFFFF" stroke-width="3" stroke-miterlimit="10" d="M154.414,293.313
		c0.018,3.928,0.035,7.856,0.053,11.785c25.26-1.975,50.52-3.95,75.78-5.926c2.085-0.162,4.337-0.395,5.884-1.803
		c1.546-1.408,1.693-4.432-0.215-5.287"/>
	<path fill="none" stroke="#FFFFFF" stroke-width="3" stroke-miterlimit="10" d="M288.536,138.495
		c-0.92-9.758,1.31-19.787,6.278-28.236c1.562,11.504,4.098,22.875,7.568,33.953c7.232-7.156,2.975-21.388,10.869-27.805
		c0.747-0.607,1.719-1.134,2.638-0.846c1.066,0.333,1.522,1.561,1.835,2.633c2.651,9.122,5.304,18.244,7.955,27.366"/>
	<path fill="none" stroke="#FFFFFF" stroke-width="3" stroke-miterlimit="10" d="M344.244,115.812
		c-1.867-1.773-4.274,1.608-4.521,4.172c-0.712,7.354-0.029,15.396,4.736,21.043s14.693,7.192,19.354,1.458
		c2.976-3.661,2.967-8.831,2.814-13.548c-0.08-2.455-0.184-5.007-1.318-7.188c-3.298-6.333-12.405-5.764-19.39-4.273"/>
	<path fill="none" stroke="#FFFFFF" stroke-width="3" stroke-miterlimit="10" d="M386.683,113.933
		c-0.877,4.973-1.444,9.998-1.7,15.041c-0.205,4.057-0.04,8.572,2.771,11.506c4.154,4.334,12.084,2.357,15.557-2.539
		c3.472-4.896,3.525-11.422,2.668-17.363c-0.23-1.598-0.54-3.247-1.472-4.566c-1.423-2.018-4.008-2.861-6.459-3.152
		c-4.876-0.58-9.94,0.566-14.092,3.189"/>
	<path fill="none" stroke="#FFFFFF" stroke-width="3" stroke-miterlimit="10" d="M438.655,109.462
		c-6.36-0.387-7.376-0.826-13.565,0.688c-3.906,0.955-5.188,5.77-5.756,9.75c-0.834,5.85-1.042,13.124,4.012,16.185
		c2.01,1.218,4.456,1.435,6.805,1.502c6.557,0.187,13.141-0.573,19.482-2.25"/>
	<path fill="none" stroke="#FFFFFF" stroke-width="3" stroke-miterlimit="10" d="M347.814,217.831
		c5.059-6.328,13.993-9.266,21.819-7.174c1.481,3.062-0.851,7.258-4.233,7.615s-6.541-3.258-5.732-6.562
		c0.927-3.784,5.491-5.344,9.385-5.452c4.239-0.119,9.196,1.277,10.678,5.25c0.327-3.402,4.885-4.818,8.092-3.637
		c3.206,1.184,5.545,3.917,8.336,5.89c2.792,1.973,6.844,3.101,9.482,0.927"/>
	<path fill="none" stroke="#FFFFFF" stroke-width="3" stroke-miterlimit="10" d="M368.982,237.946
		c3.36-2.105,8.407,1.998,7.032,5.717c11.63-1.352,23.323-2.156,35.028-2.41"/>
	<path fill="none" stroke="#FFFFFF" stroke-width="3" stroke-miterlimit="10" d="M359.695,268.8
		c5.677-1.787,11.805-2.122,17.643-0.964c0.622,0.845-0.062,2.272-1.111,2.315c-1.979-2.447-2.258-6.134-0.67-8.85
		c1.588-2.717,4.938-4.282,8.041-3.758c0.02,1.154,0.038,2.309,0.058,3.463c6.572-1.082,13.185,4.389,19.566,2.479
		c5.409-1.619,10.099-8.26,15.17-5.777"/>
	<path fill="none" stroke="#FFFFFF" stroke-width="3" stroke-miterlimit="10" d="M346.96,181.427
		c-1.692-0.973-0.705-4.006,1.222-4.311c1.928-0.307,3.708,1.386,4.239,3.264c0.405,1.434,0.286,2.983,0.758,4.396
		c0.471,1.414,1.922,2.725,3.33,2.236c1.956-0.68,1.599-3.666,2.932-5.25c1.251-1.487,4.066-1.036,4.791,0.768
		c2.115-2.207,5.589-2.184,8.642-2.004c7.307,0.429,14.614,0.857,21.922,1.286"/>
	<path fill="none" stroke="#FFFFFF" stroke-width="3" stroke-miterlimit="10" d="M323.636,183.413
		c0.023-0.898,0.046-1.798,0.068-2.697c1.033,0.011,2.065,0.021,3.098,0.031c0.271,1.797-0.863,3.705-2.57,4.326
		c-0.604,0.221-1.357,0.26-1.814-0.191s-0.209-1.457,0.433-1.427"/>
	<path fill="none" stroke="#FFFFFF" stroke-width="3" stroke-miterlimit="10" d="M325.966,215.979
		c0.022-0.899,0.045-1.799,0.068-2.697c1.032,0.01,2.065,0.021,3.098,0.031c0.271,1.796-0.864,3.705-2.571,4.326
		c-0.604,0.22-1.356,0.26-1.813-0.191c-0.458-0.451-0.209-1.459,0.433-1.428"/>
	<path fill="none" stroke="#FFFFFF" stroke-width="3" stroke-miterlimit="10" d="M324.803,244.679
		c0.022-0.899,0.046-1.799,0.068-2.697c1.032,0.01,2.065,0.021,3.098,0.031c0.271,1.796-0.864,3.705-2.571,4.326
		c-0.604,0.219-1.356,0.259-1.813-0.191c-0.457-0.451-0.209-1.459,0.433-1.428"/>
	<path fill="none" stroke="#FFFFFF" stroke-width="3" stroke-miterlimit="10" d="M325.966,270.591
		c0.022-0.9,0.045-1.799,0.068-2.698c1.032,0.011,2.065,0.021,3.098,0.03c0.271,1.797-0.864,3.706-2.571,4.327
		c-0.604,0.22-1.356,0.259-1.813-0.192c-0.458-0.45-0.209-1.457,0.433-1.426"/>
	<line fill="none" stroke="#1D1E1C" stroke-width="7" stroke-miterlimit="10" x1="187.95" y1="80.979" x2="241.598" y2="10.884"/>
	<line fill="none" stroke="#1D1E1C" stroke-width="7" stroke-miterlimit="10" x1="301.181" y1="80.979" x2="247.533" y2="10.884"/>
	<circle fill="#1D1E1C" cx="244.097" cy="12.517" r="12.517"/>
</g>
</svg>
