<?xml version="1.0" encoding="utf-8"?>
<!-- Generator: Adobe Illustrator 16.0.0, SVG Export Plug-In . SVG Version: 6.00 Build 0)  -->
<!DOCTYPE svg PUBLIC "-//W3C//DTD SVG 1.1//EN" "http://www.w3.org/Graphics/SVG/1.1/DTD/svg11.dtd">
<svg version="1.1" id="Layer_1" xmlns="http://www.w3.org/2000/svg" xmlns:xlink="http://www.w3.org/1999/xlink" x="0px" y="0px"
	 width="326.442px" height="285.004px" viewBox="0 0 326.442 285.004" enable-background="new 0 0 326.442 285.004"
	 xml:space="preserve">
<g>
	<g>
		<g>
			<g>
				<path fill="#57C1EB" d="M317.227,138.441c-43.219,22.257-85.614,44.089-129.15,66.509c-8.61-19.508-16.873-38.227-26.584-60.229
					c-10.618,24.428-19.826,45.609-29.609,68.115c-40.959-17.66-81.341-35.072-123.239-53.138
					c11.222-17.19,21.524-33.854,32.789-49.84c5.323-7.553,5.423-12.009-2.641-17.587C27.436,84.417,17.018,75.208,4.887,65.531
					c12.581-5.152,23.902-9.794,35.226-14.425c26.684-10.912,53.434-21.667,80.001-32.854c5.725-2.41,9.84-2.197,14.904,1.74
					c9.429,7.329,19.646,19.17,29.357,19c9.051-0.159,18.094-13.245,26.706-21.115c5.131-4.689,9.788-5.828,16.752-3.705
					c35.22,10.74,70.64,20.821,105.981,31.163c2.036,0.597,3.995,1.457,7.934,2.913c-11.31,10.439-21.282,20.396-32.089,29.347
					c-6.885,5.702-6.954,10.103-1.832,17.134C297.899,108.556,306.993,123.094,317.227,138.441z M273.3,85.659
					c-2.512-2.15-3.2-3.162-4.125-3.472c-33.518-11.226-67.008-22.542-100.666-33.332c-3.625-1.161-8.639-0.132-12.345,1.444
					c-28.521,12.127-56.889,24.618-85.277,37.059c-4.239,1.857-8.338,4.036-14.182,6.886c5.313,2.545,8.797,4.399,12.422,5.919
					c21.858,9.162,44.439,16.91,65.421,27.758c18.745,9.69,34.517,8.758,52.881-1.217C214.875,111.799,243.787,99.592,273.3,85.659z
					"/>
			</g>
		</g>
		<g>
			<g>
				<path fill="#1D1E1C" d="M133.183,216.119l-128.255-55.3l1.624-2.486c3.289-5.039,6.499-10.032,9.678-14.977
					c7.801-12.136,15.17-23.598,23.161-34.937c2.571-3.648,3.564-6.137,3.222-8.067c-0.332-1.865-1.997-3.779-5.242-6.023
					c-7.959-5.505-15.421-11.634-23.32-18.123c-3.45-2.834-7.018-5.765-10.723-8.72L0,64.831l15.411-6.312
					c8.19-3.355,15.972-6.543,23.756-9.727c7.128-2.915,14.261-5.819,21.394-8.723c19.235-7.831,39.126-15.928,58.584-24.121
					c2.857-1.203,5.256-1.763,7.55-1.763c3.362,0,6.495,1.218,9.858,3.833c2.399,1.865,4.871,4.035,7.262,6.134
					c6.912,6.067,14.059,12.342,20.354,12.342l0.163-0.001c5.562-0.098,11.833-6.759,17.896-13.201
					c2.352-2.498,4.782-5.081,7.168-7.261c4.076-3.725,7.887-5.386,12.355-5.386c2.078,0,4.307,0.372,6.812,1.136
					c25.228,7.693,50.991,15.174,75.906,22.408c10.019,2.909,20.036,5.817,30.048,8.747c1.399,0.41,2.714,0.917,4.534,1.617
					c0.996,0.383,2.151,0.828,3.564,1.351l3.826,1.415l-2.998,2.767c-3.415,3.153-6.736,6.288-9.949,9.32
					c-7.531,7.109-14.645,13.824-22.24,20.115c-5.654,4.683-5.943,7.508-1.406,13.736c7.112,9.765,13.657,19.756,20.586,30.333
					c2.894,4.418,5.833,8.905,8.873,13.464l1.553,2.329l-133.998,69.005l-25.352-57.436L133.183,216.119z M12.358,158.578
					l118.226,50.977l30.891-71.064l27.816,63.022l124.307-64.014c-2.502-3.771-4.94-7.494-7.347-11.168
					c-6.894-10.524-13.405-20.464-20.444-30.129c-6.102-8.375-5.469-14.132,2.258-20.531c7.471-6.188,14.527-12.848,21.998-19.9
					c2.289-2.161,4.634-4.374,7.032-6.612c-1.626-0.626-2.82-1.083-3.983-1.423c-10.007-2.928-20.021-5.836-30.036-8.744
					c-24.932-7.239-50.711-14.724-75.972-22.427c-2.025-0.618-3.777-0.918-5.354-0.918c-3.169,0-5.855,1.22-8.982,4.077
					c-2.247,2.053-4.507,4.455-6.899,6.997c-6.774,7.197-13.778,14.638-21.449,14.773l-0.251,0.002
					c-8.178,0-16.045-6.906-23.652-13.584c-2.443-2.145-4.751-4.171-7.032-5.944c-2.474-1.923-4.567-2.781-6.79-2.781
					c-1.605,0-3.388,0.436-5.61,1.371c-19.486,8.205-39.39,16.308-58.639,24.144c-7.13,2.902-14.261,5.805-21.386,8.719
					c-7.783,3.183-15.563,6.37-23.753,9.725l-7.55,3.093c2.555,2.068,5.04,4.109,7.468,6.104
					c7.817,6.421,15.201,12.487,22.99,17.875c4.414,3.053,6.74,5.996,7.32,9.261c0.758,4.268-1.625,8.372-4.058,11.822
					c-7.929,11.252-15.271,22.671-23.042,34.761C17.774,150.199,15.091,154.372,12.358,158.578z M159.728,137.208
					C159.728,137.208,159.728,137.208,159.728,137.208c-8.518,0-17.129-2.312-26.328-7.067
					c-14.303-7.395-29.668-13.461-44.527-19.328c-6.808-2.688-13.847-5.467-20.712-8.345c-2.455-1.029-4.872-2.22-7.67-3.598
					c-1.461-0.719-3.057-1.505-4.866-2.372l-4.665-2.235l4.649-2.267c1.972-0.961,3.745-1.847,5.391-2.668
					c3.232-1.613,6.023-3.007,8.884-4.26l10.349-4.537c24.525-10.754,49.886-21.874,74.954-32.533
					c3.2-1.361,6.764-2.142,9.778-2.142c1.58,0,3.029,0.208,4.308,0.617c28.746,9.215,57.839,18.972,85.975,28.407l14.723,4.935
					c1.09,0.365,1.818,1.055,2.828,2.011c0.535,0.507,1.201,1.138,2.129,1.932l2.934,2.511l-3.492,1.648
					c-8.902,4.203-17.852,8.295-26.506,12.253c-20.641,9.438-40.136,18.354-59.239,28.728
					C178.331,134.491,168.878,137.208,159.728,137.208z M62.38,94.228c0.107,0.053,0.214,0.105,0.319,0.157
					c2.838,1.398,5.08,2.502,7.394,3.472c6.817,2.857,13.832,5.627,20.615,8.305c14.975,5.913,30.46,12.027,44.987,19.538
					c8.472,4.379,16.333,6.508,24.031,6.509c8.411,0,16.835-2.447,26.509-7.702c19.255-10.457,38.826-19.406,59.546-28.881
					c7.546-3.451,15.316-7.004,23.074-10.64c-0.239-0.221-0.446-0.402-0.543-0.457l-14.656-4.908
					c-28.12-9.43-57.197-19.181-85.91-28.386c-2.535-0.812-6.832-0.24-10.604,1.364C132.1,63.248,106.753,74.362,82.24,85.11
					l-10.35,4.537c-2.746,1.204-5.485,2.571-8.657,4.154C62.953,93.942,62.668,94.084,62.38,94.228z"/>
			</g>
		</g>
	</g>
	<g>
		<g>
			<path fill="#57C1EB" d="M54.496,193.758c28.948,12.35,56.21,23.979,84.324,35.971c7.529-17.318,14.473-33.289,22.628-52.045
				c7.173,16.002,13.4,29.894,20.166,44.988c35.005-17.916,68.873-35.25,104.938-53.709c0,18.244,0.347,34.246-0.309,50.207
				c-0.123,2.999-3.628,7.078-6.613,8.557c-36.603,18.13-73.317,36.041-110.264,53.455c-3.925,1.85-10.172,1.701-14.21-0.082
				c-31.361-13.849-62.529-28.148-93.488-42.875c-3.279-1.559-6.532-6.621-6.848-10.311
				C53.905,217.236,54.496,206.428,54.496,193.758z"/>
		</g>
		<g>
			<path fill="#1D1E1C" d="M162.546,285.004c-3.055,0-6.038-0.574-8.4-1.617c-31.071-13.721-62.547-28.156-93.552-42.904
				c-4.002-1.902-7.865-7.676-8.265-12.355c-0.659-7.695-0.548-15.505-0.431-23.774c0.048-3.404,0.098-6.926,0.098-10.595v-3.784
				l85.521,36.481l23.896-54.961l21.405,47.753l106.234-54.372v4.088c0,4.802,0.024,9.448,0.048,13.979
				c0.064,12.608,0.127,24.518-0.358,36.331c-0.166,4.049-4.351,8.886-8.002,10.694c-42.229,20.917-77.279,37.909-110.308,53.477
				C167.694,284.734,164.632,285.004,162.546,285.004z M56.98,197.536c-0.019,2.355-0.051,4.647-0.083,6.889
				c-0.115,8.141-0.224,15.83,0.413,23.277c0.247,2.879,3.038,7.128,5.431,8.266c30.964,14.729,62.396,29.145,93.425,42.846
				c1.715,0.758,4.041,1.191,6.381,1.191c2.227,0,4.271-0.385,5.754-1.084c32.997-15.553,68.021-32.531,110.22-53.434
				c2.414-1.195,5.148-4.555,5.225-6.419c0.48-11.698,0.419-23.551,0.354-36.1c-0.017-3.243-0.034-6.544-0.043-9.92l-103.647,53.049
				l-18.927-42.224l-21.36,49.129L56.98,197.536z"/>
		</g>
	</g>
	<g>
		<polygon fill="#1D1E1C" points="263.02,96.458 258.375,94.608 283.349,31.868 209.042,6.401 195.207,51.231 190.429,49.756 
			205.785,0 289.937,28.84 		"/>
	</g>
	<g>
		<polygon fill="#1D1E1C" points="77.077,105.192 70.441,102.965 89.262,46.907 243.535,43.789 240.132,85.354 233.156,84.783 
			235.925,50.944 94.329,53.807 		"/>
	</g>
	<g>
		<polygon fill="#1D1E1C" points="87.304,111.711 81.965,107.184 158.816,16.558 253.966,95.968 249.482,101.342 159.663,26.382 		
			"/>
	</g>
	<g>
		<polyline fill="#FFD15C" points="82.988,87.845 94.346,53.974 127.78,53.155 106.189,78.549 		"/>
	</g>
	<g>
		<polygon fill="#FFD15C" points="200.753,51.682 235.947,50.879 233.697,79.323 		"/>
	</g>
	<g>
		<polygon fill="#FFD15C" points="198.244,44.812 209.744,7.739 282.042,32.508 257.821,92.859 252.976,95.083 240.142,84.379 
			243.44,43.847 		"/>
	</g>
	<g>
		<polyline fill="#57C1EB" points="82.988,108.563 89.973,111.057 86.48,119.737 		"/>
	</g>
	<g>
		<polyline fill="#57C1EB" points="246.417,100.643 268.767,90.444 268.767,100.643 241.536,119.954 		"/>
	</g>
	<g>
		<path fill="#FFFFFF" d="M91.926,106.738l67.62-80.479l84.563,70.495l-66.712,32.221c0,0-15.128,6.506-31.012,1.211L91.926,106.738
			z"/>
	</g>
	<g>
		<polygon fill="#FFFFFF" points="94.346,53.974 78.006,101.182 84.634,104.079 127.78,53.155 		"/>
	</g>
	<g>
		<polygon fill="#FFFFFF" points="200.753,51.682 235.947,50.879 233.697,79.323 		"/>
	</g>
	<g>
		<g>
			<polygon fill="#FFFFFF" points="198.244,44.812 209.744,7.739 282.042,32.508 257.821,92.859 252.976,95.083 240.142,84.379 
				243.44,43.847 			"/>
		</g>
		<g>
			<path fill="#FFFFFF" d="M252.82,96.254l-13.717-11.439l3.25-39.945l-45.476,0.971l12.216-39.382l74.269,25.444L258.6,93.602
				L252.82,96.254z M241.181,83.943l11.951,9.967l3.909-1.794l23.68-59.003L210.394,9.019L199.61,43.783l44.917-0.959
				L241.181,83.943z"/>
		</g>
	</g>
	<g>
		<polygon fill="#57C1EB" points="62.239,94.33 75.496,87.845 71.953,98.787 		"/>
	</g>
	<g>
		
			<rect x="256.597" y="76.574" transform="matrix(0.4192 0.9079 -0.9079 0.4192 234.2141 -181.6719)" fill="#1D1E1C" width="5" height="31.291"/>
	</g>
</g>
</svg>
