<?xml version="1.0" encoding="utf-8"?>
<!-- Generator: Adobe Illustrator 16.0.0, SVG Export Plug-In . SVG Version: 6.00 Build 0)  -->
<!DOCTYPE svg PUBLIC "-//W3C//DTD SVG 1.1//EN" "http://www.w3.org/Graphics/SVG/1.1/DTD/svg11.dtd">
<svg version="1.1" id="Layer_1" xmlns="http://www.w3.org/2000/svg" xmlns:xlink="http://www.w3.org/1999/xlink" x="0px" y="0px"
	 width="464.198px" height="397.791px" viewBox="0 0 464.198 397.791" enable-background="new 0 0 464.198 397.791"
	 xml:space="preserve">
<g>
	<g>
		<polygon fill="#FFFFFF" points="34.035,156.716 89.035,104.716 148.035,50.716 271.035,36.716 384.035,67.716 406.035,107.716 
			434.035,165.716 429.035,256.716 400.035,295.716 347.035,328.716 334.041,395.257 293.958,395.086 284.035,298.716 
			284.035,232.716 181.035,205.716 64.035,198.896 28.035,198.896 		"/>
	</g>
	<g>
		<path fill="#41B189" d="M316.136,395.258c0-5.365,0-9.85,0-14.333c0.002-22.331-0.081-44.663,0.035-66.993
			c0.069-13.256,0.926-26.555,8.639-37.917c3.668-5.403,8.499-10.206,13.498-14.465c5.549-4.728,11.797-8.671,17.959-12.616
			c1.334-0.854,3.845-0.876,5.383-0.239c10.277,4.257,18.428,11.206,24.637,20.431c0.932,1.382,1.748,2.847,2.76,4.166
			c3.115,4.063,7.604,5.012,11.404,2.489c3.9-2.589,4.796-6.929,2.201-11.401c-6.937-11.957-16.486-21.262-28.602-27.931
			c-1.42-0.782-2.828-1.583-4.582-2.565c11.043-18.725,12.811-38.509,8.11-59.542c2.756-0.85,5.399-1.662,8.042-2.48
			c12.039-3.727,22.352-10.243,31.08-19.294c4.294-4.453,4.69-9.223,1.138-12.746c-3.548-3.519-8.312-3.125-12.72,1.304
			c-8.574,8.618-18.595,14.595-30.654,16.636c-1.602,0.271-4.322-0.786-5.164-2.099c-12.585-19.641-30.18-31.562-53.252-35.315
			c-0.475-0.078-0.918-0.349-1.754-0.679c1.299-11.374,5.887-21.28,13.217-30.013c1.07-1.276,2.297-2.428,3.305-3.75
			c2.982-3.917,2.732-8.182-0.571-11.229c-3.22-2.971-7.836-3.07-11.269,0.27c-7.883,7.671-13.686,16.764-17.205,27.198
			c-1.746,5.178-3.045,10.507-4.668,16.192c-7.174,0.055-13.797-2.779-19.865-6.302c-18.066-10.488-28.395-26.162-29.957-47.258
			c-0.124-1.66-0.237-3.337-0.576-4.96c-0.902-4.341-4.535-7.278-8.451-6.973c-4.077,0.317-7.326,3.567-7.455,7.988
			c-0.101,3.479-0.115,7.075,0.648,10.434c0.771,3.397-0.408,5.16-2.958,7.059c-21.096,15.705-50.592,14.95-71.464-1.969
			c-1.552-1.258-2.983-2.666-4.532-3.927c-3.882-3.16-8.46-2.919-11.595,0.56c-2.97,3.294-3.108,7.91,0.586,11.149
			c5.107,4.479,10.426,8.94,16.312,12.229c4.229,2.363,4.674,5.076,3.79,8.866c-3.808,16.315-12.458,29.236-24.66,36.804
			c-6.531-5.457-12.172-10.953-18.584-15.314c-6.826-4.643-14.212-8.571-21.678-12.13c-5.551-2.646-10.286-0.646-12.125,3.979
			c-1.832,4.608,0.457,9.047,6.256,11.131c9.289,3.338,17.328,8.472,24.018,15.707c1.188,1.285,2.191,2.742,4.003,5.035
			c-4.624,0.583-8.164,1.338-11.72,1.423c-15.585,0.371-30.501,3.131-43.692,12.007c-3.991,2.686-7.788,5.721-11.383,8.921
			c-3.896,3.468-4.159,8.007-1.131,11.526c2.96,3.441,7.965,4.021,11.584,0.641c12.777-11.933,27.996-16.146,45.201-16.795
			c34.688-1.309,62.434-25.515,69.666-59.597c0.563-2.655,1.257-4.16,4.501-3.625c19.285,3.185,37.055-0.946,53.441-11.443
			c0.531-0.34,1.171-0.509,1.052-0.458c7.035,9.046,13.827,17.779,21.051,27.066c-7.717,10.334-13.367,22.75-15.023,37.283
			c-7.896,0-15.51-0.957-22.758,0.26c-7.763,1.303-15.323,4.297-22.703,7.229c-5.281,2.098-6.915,7.143-4.684,11.399
			c2.088,3.984,6.816,5.364,11.659,3.092c10.788-5.062,21.961-7.61,33.938-6.085c3.243,0.413,4.697,1.499,5.259,5.097
			c2.184,13.992,8.259,26.289,17.594,36.945c4.642,5.299,9.337,6.174,13.292,2.595c3.768-3.409,3.456-7.981-0.899-13.189
			c-17.877-21.38-19.771-49.248-5.049-71.343c2.527-3.793,4.42-4.892,9.483-3.27c9.081,2.909,18.702,4.808,28.22,5.549
			c23.713,1.847,41.685,12.172,52.034,33.827c3.364,7.038,4.693,15.049,7.356,23.964c-4.48-0.685-7.182-1.167-9.9-1.501
			c-12.271-1.505-24.291-0.524-35.894,3.955c-5.988,2.312-8.266,6.265-6.586,11.013c1.761,4.975,6.063,6.56,12.378,4.259
			c10.617-3.87,21.42-4.515,32.441-2.278c0.811,0.165,1.61,0.418,2.389,0.702c0.451,0.165,0.852,0.474,1.488,0.843
			c-1.643,9.796-6.776,17.623-13.969,24.086c-4.066,3.656-8.493,7.048-13.18,9.853c-22.852,13.676-33.228,34.699-34.093,60.308
			c-0.949,28.133-0.473,56.318-0.344,84.48c0.021,4.615-1.275,6.242-5.877,5.902c-4.641-0.342-9.354-0.39-13.985,0.01
			c-5.015,0.432-6.086-1.63-6.043-6.287c0.215-22.996,0.088-45.995,0.099-68.993c0.007-14.417-2.931-28.084-10.058-40.756
			c-7.755-13.788-18.469-24.39-33.086-30.687c-10.068-4.336-19.239-9.949-26.891-17.827c-1.955-2.013-3.42-1.765-5.605-0.505
			c-25.585,14.75-51.257,14.815-76.817-0.005c-2.721-1.577-4.505-0.8-6.793,0.495c-30.878,17.464-68.124,11.779-92.382-14.036
			c-30.515-32.474-25.232-85.826,11.06-111.719c1.492-1.064,2.811-2.63,4.467-3.163c8.597-2.764,11.342-9.475,14.248-17.391
			c10.099-27.506,38.977-46.506,68.669-46.094c3.574,0.049,5.727-1.008,7.908-3.767c21.506-27.206,57.635-35.73,89.119-21.402
			c1.846,0.84,4.938,0.731,6.684-0.271c27.083-15.538,59.347-13.237,83.771,6.442c2.901,2.338,5.43,2.89,9.041,2.188
			c29.44-5.726,62.345,10.27,76.165,37.01c1.945,3.765,4.388,6.148,8.4,7.784c34.412,14.024,52.331,47.458,45.466,83.991
			c-0.405,2.156,0.146,5.023,1.331,6.866c18.852,29.29,17.035,62.793-4.9,89.608c-1.48,1.812-2.553,4.312-2.913,6.63
			c-3.995,25.732-17.751,44.067-40.594,56.516c-25.371,13.826-42.343,35.1-51.384,62.539c-2.077,6.303-3.232,12.904-5.095,19.287
			c-0.413,1.414-1.979,3.504-3.081,3.546C332.806,395.4,324.837,395.258,316.136,395.258z"/>
		<path fill="#1D1E1C" d="M328.304,397.791c-1.941,0-3.904-0.008-5.899-0.017c-2.052-0.008-4.139-0.017-6.269-0.017h-2.5v-16.833
			c0.001-6.675-0.007-13.349-0.014-20.023c-0.016-15.397-0.032-31.319,0.049-46.982c0.069-13.23,0.826-27.164,9.07-39.309
			c3.34-4.92,7.901-9.814,13.945-14.964c5.434-4.629,11.524-8.526,17.415-12.296l0.817-0.522c1.086-0.695,2.586-1.077,4.225-1.077
			c1.245,0,2.475,0.225,3.462,0.634c10.478,4.34,19.143,11.521,25.755,21.345c0.356,0.529,0.699,1.071,1.04,1.614
			c0.546,0.866,1.061,1.685,1.629,2.426c2.255,2.94,5.356,3.708,8.038,1.928c3.832-2.543,2.535-6.144,1.422-8.063
			c-6.661-11.482-15.962-20.564-27.645-26.995c-0.949-0.522-1.892-1.053-2.934-1.64l-3.896-2.185l1.299-2.201
			c10.113-17.148,12.672-36.031,7.824-57.727l-0.504-2.254l10.246-3.16c11.392-3.526,21.492-9.798,30.02-18.641
			c1.915-1.986,4.615-5.827,1.177-9.235c-2.604-2.583-5.893-2.017-9.188,1.292c-9.596,9.645-20.066,15.316-32.009,17.337
			c-0.305,0.052-0.629,0.078-0.964,0.078c-2.267,0-5.401-1.232-6.722-3.293c-12.424-19.389-29.285-30.575-51.549-34.197
			c-0.624-0.102-1.12-0.322-1.6-0.535c-0.19-0.084-0.408-0.182-0.67-0.285l-1.784-0.704l0.218-1.906
			c1.308-11.453,5.945-21.996,13.785-31.337c0.475-0.565,0.979-1.109,1.482-1.652c0.636-0.686,1.236-1.333,1.749-2.005
			c1.272-1.671,2.929-4.917-0.278-7.876c-2.296-2.117-5.488-2.053-7.83,0.224c-7.646,7.44-13.224,16.257-16.579,26.205
			c-1.169,3.465-2.133,6.998-3.153,10.739c-0.477,1.749-0.962,3.526-1.479,5.341l-0.514,1.799l-2.097,0.016
			c-8.492,0-16.003-3.79-20.914-6.641c-19.102-11.088-29.597-27.654-31.195-49.236l-0.019-0.247
			c-0.115-1.546-0.224-3.006-0.512-4.387c-0.632-3.039-3.118-5.204-5.81-4.991c-2.943,0.229-5.062,2.519-5.15,5.568
			c-0.094,3.243-0.126,6.671,0.587,9.807c1.149,5.059-1.328,7.701-3.903,9.619c-10.339,7.697-22.694,11.765-35.729,11.765
			c-14.046,0-27.826-4.9-38.803-13.797c-0.833-0.676-1.624-1.383-2.388-2.067c-0.735-0.657-1.429-1.278-2.148-1.864
			c-2.771-2.256-5.944-2.164-8.159,0.295c-1.085,1.203-1.638,2.619-1.558,3.986c0.078,1.319,0.747,2.568,1.936,3.61
			c4.854,4.256,10.079,8.684,15.883,11.926c6.05,3.38,5.853,7.984,5.005,11.617c-3.937,16.87-13.092,30.494-25.777,38.361
			l-1.535,0.952l-1.386-1.158c-2.053-1.715-4.022-3.438-5.928-5.104c-4.2-3.673-8.167-7.142-12.459-10.061
			c-5.917-4.025-12.701-7.819-21.348-11.94c-1.307-0.623-2.557-0.939-3.717-0.939c-2.311,0-4.09,1.273-5.009,3.584
			c-0.578,1.455-0.59,2.816-0.035,4.046c0.722,1.6,2.431,2.953,4.812,3.809c9.815,3.527,18.229,9.032,25.008,16.362
			c0.853,0.922,1.584,1.879,2.51,3.09c0.471,0.616,0.996,1.304,1.619,2.092l2.747,3.477l-4.396,0.554
			c-1.519,0.191-2.918,0.402-4.24,0.6c-2.792,0.419-5.204,0.782-7.733,0.842c-17.782,0.423-31.241,4.103-42.356,11.582
			c-3.658,2.461-7.294,5.312-11.116,8.714c-2.768,2.464-3.104,5.465-0.898,8.028c1.11,1.29,2.642,2.03,4.204,2.03
			c1.362,0,2.668-0.548,3.779-1.585c11.951-11.162,26.826-16.711,46.813-17.466c33.216-1.253,60.268-24.408,67.314-57.618
			c0.362-1.709,1.211-5.713,5.764-5.713c0.495,0,1.015,0.046,1.59,0.141c4.084,0.675,8.172,1.017,12.149,1.017
			c13.203,0,26.033-3.778,38.16-11.235l-0.189-0.244l1.871-0.798c0.461-0.252,1.357-0.684,2.106-0.684h2.041l0.301,1.462
			l21.841,28.082l-1.141,1.526c-8.169,10.939-13.062,23.075-14.542,36.071l-0.253,2.217h-2.231c-2.49,0-4.955-0.093-7.339-0.184
			c-2.356-0.089-4.582-0.174-6.805-0.174c-3.225,0-5.831,0.186-8.201,0.583c-7.542,1.266-14.99,4.226-22.194,7.087
			c-1.891,0.751-3.194,1.968-3.769,3.518c-0.515,1.39-0.381,2.952,0.376,4.397c0.962,1.836,2.677,2.847,4.827,2.847
			c1.146,0,2.343-0.289,3.555-0.857c9.697-4.55,18.89-6.761,28.103-6.761c2.395,0,4.821,0.154,7.213,0.459
			c4.56,0.581,6.707,2.664,7.413,7.192c2.051,13.138,7.771,25.144,17.005,35.683c2.235,2.552,4.424,3.901,6.33,3.901
			c1.165,0,2.278-0.495,3.403-1.513c1.09-0.986,3.984-3.605-1.14-9.732c-18.507-22.133-20.552-51.31-5.211-74.333
			c1.646-2.472,3.741-5.109,7.774-5.109c1.306,0,2.752,0.269,4.552,0.845c8.986,2.879,18.289,4.708,27.651,5.437
			c25.675,2,43.875,13.857,54.096,35.242c2.375,4.97,3.764,10.336,5.232,16.018c0.694,2.683,1.412,5.458,2.264,8.309l1.13,3.783
			l-3.903-0.597c-1.566-0.239-2.917-0.454-4.126-0.646c-2.221-0.353-3.974-0.632-5.701-0.844c-3.457-0.424-6.875-0.639-10.16-0.639
			c-8.636,0-16.888,1.496-24.528,4.445c-6.956,2.686-5.581,6.57-5.13,7.847c0.876,2.475,2.423,3.628,4.867,3.628
			c1.242,0,2.688-0.298,4.299-0.884c10.806-3.938,22.165-4.738,33.794-2.38c0.845,0.172,1.718,0.428,2.749,0.804
			c0.548,0.2,0.976,0.468,1.39,0.727c0.148,0.093,0.311,0.194,0.495,0.302l1.498,0.869l-0.286,1.707
			c-1.63,9.719-6.459,18.07-14.764,25.532c-4.455,4.006-9.021,7.417-13.566,10.139c-20.934,12.527-31.996,32.125-32.878,58.246
			c-0.762,22.568-0.601,45.572-0.445,67.819c0.039,5.522,0.077,11.044,0.103,16.565c0.01,2.152-0.207,4.851-1.979,6.632
			c-1.223,1.229-2.957,1.825-5.3,1.825c-0.401,0-0.827-0.017-1.282-0.05c-4.834-0.355-9.401-0.353-13.586,0.008
			c-0.51,0.044-0.985,0.064-1.428,0.064c-2.342,0-4.083-0.607-5.323-1.859c-1.809-1.825-2.029-4.566-2.007-7.007
			c0.153-16.379,0.132-33.041,0.112-49.153c-0.009-6.606-0.017-13.212-0.014-19.817c0.007-14.938-3.178-27.867-9.736-39.529
			c-7.93-14.099-18.363-23.786-31.896-29.616c-11.384-4.902-20.443-10.915-27.695-18.381c-0.44-0.453-0.824-0.724-1.028-0.724
			c-0.192,0-0.614,0.111-1.536,0.643c-13.144,7.577-26.503,11.42-39.706,11.421c-13.207,0-26.534-3.846-39.614-11.429
			c-1.568-0.908-2.295-0.632-4.308,0.508c-12,6.786-25.422,10.374-38.817,10.374c-21.438,0-41.545-8.833-56.618-24.874
			C5.541,202.209-1.818,180.245,0.383,157.945c2.203-22.317,13.728-42.438,31.62-55.204c0.401-0.286,0.819-0.645,1.262-1.024
			c1.079-0.924,2.302-1.972,3.892-2.483c7.216-2.32,9.7-7.791,12.666-15.873c10.32-28.108,39.133-47.74,70.068-47.74
			c0.329,0,0.654,0.002,0.983,0.007l0.201,0.001c2.637,0,4.024-0.685,5.711-2.818c14.681-18.572,36.465-29.224,59.767-29.224
			c11.118,0,22.002,2.387,32.349,7.096c1.042,0.474,3.444,0.387,4.404-0.164C235.302,3.638,248.69,0,262.023,0
			c17.362,0,33.914,5.942,47.866,17.184c1.691,1.363,3.082,1.919,4.801,1.919c0.652,0,1.37-0.078,2.194-0.239
			c4.109-0.799,8.372-1.204,12.67-1.204c27.375,0,53.977,15.882,66.193,39.52c1.727,3.341,3.79,5.258,7.123,6.617
			c17.401,7.091,31.049,19.084,39.469,34.682c8.395,15.552,10.991,33.562,7.511,52.085c-0.288,1.534,0.141,3.752,0.977,5.051
			c19.476,30.26,17.581,64.856-5.067,92.544c-1.168,1.429-2.08,3.511-2.378,5.431c-4.053,26.104-17.748,45.183-41.868,58.327
			c-24.316,13.251-41.208,33.816-50.206,61.126c-1.145,3.475-2.028,7.153-2.883,10.712c-0.67,2.787-1.362,5.67-2.186,8.493
			c-0.53,1.812-2.653,5.239-5.386,5.344C336.286,397.769,331.748,397.791,328.304,397.791z M318.636,392.762
			c1.277,0.003,2.539,0.008,3.789,0.013c1.988,0.009,3.944,0.017,5.879,0.017c3.305,0,7.627-0.021,11.984-0.181
			c0.369-0.331,0.979-1.174,1.15-1.763c0.789-2.707,1.468-5.53,2.123-8.26c0.879-3.657,1.787-7.438,2.997-11.108
			c9.408-28.557,27.093-50.072,52.562-63.952c22.66-12.349,35.521-30.242,39.319-54.704c0.435-2.791,1.723-5.718,3.448-7.828
			c21.208-25.927,22.978-58.328,4.733-86.673c-1.535-2.387-2.213-5.875-1.686-8.681c3.267-17.384,0.848-34.254-6.997-48.787
			c-7.862-14.565-20.641-25.778-36.955-32.427c-4.427-1.804-7.411-4.565-9.678-8.952c-11.382-22.021-36.197-36.815-61.752-36.815
			c-3.979,0-7.92,0.374-11.715,1.112c-1.143,0.222-2.173,0.331-3.149,0.331c-2.894,0-5.342-0.933-7.938-3.026
			C293.699,10.56,278.232,5,262.023,5c-12.461,0-24.989,3.408-36.229,9.857c-1.31,0.751-3.059,1.165-4.926,1.165
			c-1.053,0-2.608-0.136-4.038-0.787c-9.693-4.411-19.88-6.647-30.278-6.647c-21.763,0-42.117,9.959-55.845,27.324
			c-2.614,3.307-5.495,4.718-9.633,4.718l-0.27-0.002c-28.723-0.375-56.727,18.416-66.288,44.457
			c-2.695,7.344-5.75,15.668-15.829,18.909c-0.631,0.203-1.378,0.843-2.169,1.521c-0.506,0.434-1.029,0.882-1.612,1.297
			c-16.717,11.928-27.487,30.744-29.548,51.625c-2.059,20.864,4.814,41.401,18.859,56.347
			c14.118,15.024,32.931,23.298,52.974,23.298c12.535,0,25.106-3.363,36.355-9.726c1.519-0.86,3.167-1.699,5.142-1.699
			c1.37,0,2.723,0.398,4.136,1.217c12.308,7.137,24.792,10.755,37.106,10.755c12.314-0.001,24.833-3.618,37.208-10.753
			c1.125-0.648,2.483-1.311,4.033-1.311c1.641,0,3.151,0.732,4.615,2.239c6.784,6.985,15.317,12.636,26.086,17.273
			c14.375,6.192,25.907,16.877,34.275,31.757c6.991,12.431,10.387,26.163,10.379,41.982c-0.003,6.603,0.005,13.206,0.014,19.809
			c0.02,16.126,0.041,32.801-0.112,49.207c-0.023,2.48,0.34,3.221,0.559,3.44c0.321,0.326,1.395,0.453,2.77,0.332
			c4.447-0.383,9.283-0.388,14.384-0.012c0.324,0.023,0.628,0.036,0.914,0.036c1.268,0,1.65-0.247,1.756-0.353
			c0.161-0.162,0.533-0.785,0.523-3.082c-0.025-5.517-0.063-11.035-0.103-16.553c-0.156-22.297-0.317-45.353,0.447-68.022
			c0.944-27.929,12.823-48.913,35.308-62.369c4.271-2.556,8.575-5.774,12.792-9.566c6.917-6.215,11.13-13.062,12.837-20.883
			c-0.588-0.2-1.097-0.342-1.572-0.438c-10.725-2.179-21.144-1.448-31.086,2.177c-7.582,2.764-13.37,0.503-15.591-5.773
			c-2.159-6.102,0.848-11.402,8.042-14.179c8.217-3.172,17.075-4.78,26.329-4.78c3.487,0,7.111,0.228,10.77,0.676
			c1.815,0.223,3.607,0.508,5.877,0.869c0.081,0.013,0.163,0.026,0.246,0.039c-0.435-1.599-0.839-3.163-1.236-4.698
			c-1.406-5.44-2.735-10.579-4.903-15.113c-9.526-19.934-25.873-30.536-49.973-32.413c-9.748-0.759-19.434-2.664-28.788-5.661
			c-1.274-0.409-2.265-0.607-3.026-0.607c-1.023,0-1.827,0.201-3.614,2.882c-14.081,21.132-12.163,47.962,4.887,68.353
			c7.408,8.858,2.929,14.593,0.659,16.646c-2.058,1.861-4.331,2.806-6.759,2.806c-3.438,0-6.833-1.887-10.092-5.606
			c-9.866-11.264-15.984-24.118-18.183-38.208c-0.38-2.431-0.891-2.72-3.105-3.002c-10.641-1.354-21.216,0.546-32.56,5.869
			c-1.882,0.883-3.793,1.331-5.679,1.331c-3.982,0-7.442-2.065-9.256-5.525c-1.424-2.718-1.65-5.721-0.636-8.457
			c1.065-2.874,3.414-5.157,6.611-6.427c7.446-2.958,15.147-6.017,23.212-7.371c2.65-0.445,5.52-0.652,9.029-0.652
			c2.317,0,4.694,0.09,6.994,0.177c1.624,0.062,3.286,0.125,4.953,0.157c1.781-12.435,6.514-24.094,14.09-34.712l-18.609-23.928
			c-16.94,10.556-35.199,14.322-54.211,11.182c-0.298-0.049-0.559-0.074-0.775-0.074c-0.272,0-0.372,0.04-0.372,0.04
			c-0.017,0.039-0.216,0.367-0.501,1.71c-7.53,35.49-36.472,60.235-72.017,61.576c-18.716,0.707-32.567,5.83-43.589,16.124
			c-2.024,1.89-4.578,2.931-7.192,2.931c-3.02,0-5.934-1.374-7.994-3.769c-4.025-4.677-3.477-10.715,1.364-15.024
			c3.992-3.554,7.802-6.54,11.649-9.128c11.942-8.035,26.25-11.985,45.028-12.432c2.215-0.053,4.483-0.394,7.109-0.788
			c0.021-0.003,0.042-0.006,0.062-0.01c-0.428-0.544-0.825-1.025-1.23-1.464c-6.316-6.829-13.848-11.752-23.028-15.051
			c-3.722-1.337-6.377-3.57-7.68-6.458c-1.117-2.478-1.136-5.226-0.054-7.949c1.677-4.219,5.287-6.738,9.655-6.738
			c1.91,0,3.885,0.479,5.869,1.425c8.882,4.234,15.875,8.148,22.008,12.319c4.544,3.09,8.622,6.657,12.939,10.432
			c1.441,1.26,2.92,2.553,4.435,3.843c10.766-7.294,18.557-19.387,22.03-34.267c0.712-3.053,0.43-4.436-2.575-6.115
			c-6.229-3.48-11.908-8.294-16.742-12.532c-2.217-1.945-3.472-4.392-3.63-7.077c-0.159-2.713,0.848-5.422,2.835-7.626
			c2.095-2.324,4.844-3.604,7.741-3.604c2.535,0,5.056,0.961,7.29,2.78c0.81,0.66,1.58,1.349,2.325,2.016
			c0.753,0.673,1.464,1.31,2.203,1.909c10.089,8.178,22.751,12.681,35.654,12.681c11.951,0,23.273-3.726,32.744-10.776
			c2.086-1.554,2.482-2.437,2.013-4.5c-0.842-3.705-0.808-7.651-0.709-11.06c0.164-5.604,4.269-9.981,9.76-10.409
			c5.198-0.401,9.956,3.485,11.093,8.957c0.355,1.702,0.481,3.397,0.604,5.036l0.019,0.247
			c1.469,19.838,11.132,35.073,28.719,45.282c6.311,3.663,11.679,5.564,16.733,5.908c0.32-1.152,0.63-2.289,0.938-3.415
			c1.04-3.813,2.023-7.416,3.238-11.021c3.612-10.708,9.611-20.192,17.831-28.191c2.127-2.07,4.804-3.21,7.537-3.21
			c2.601,0,5.146,1.028,7.17,2.895c4.27,3.939,4.609,9.663,0.865,14.581c-0.66,0.866-1.373,1.634-2.062,2.376
			c-0.447,0.482-0.896,0.963-1.317,1.466c-6.844,8.154-10.908,16.913-12.387,26.718c23.105,3.895,41.415,16.121,54.365,36.333
			c0.279,0.364,1.606,0.991,2.513,0.991c0.046,0,0.089-0.001,0.13-0.008c10.879-1.841,20.463-7.053,29.299-15.934
			c2.867-2.881,6.032-4.403,9.152-4.403c2.608,0,5.063,1.067,7.101,3.087c4.526,4.489,4.096,10.87-1.099,16.256
			c-9.12,9.457-19.934,16.168-32.141,19.947l-5.859,1.808c4.281,21.135,1.785,39.789-7.615,56.879
			c0.826,0.464,1.597,0.896,2.371,1.323c12.49,6.875,22.435,16.587,29.558,28.865c3.247,5.597,2.077,11.382-2.98,14.739
			c-1.784,1.184-3.784,1.81-5.785,1.81c-3.392,0-6.583-1.727-8.986-4.86c-0.709-0.925-1.311-1.881-1.893-2.805
			c-0.313-0.499-0.627-0.997-0.956-1.485c-6.055-8.995-13.968-15.562-23.521-19.519c-0.383-0.158-0.962-0.253-1.549-0.253
			c-0.854,0-1.374,0.188-1.529,0.288l-0.817,0.523c-5.749,3.679-11.694,7.482-16.868,11.891c-5.697,4.854-9.966,9.422-13.051,13.966
			c-7.454,10.981-8.142,24.065-8.207,36.525c-0.081,15.647-0.064,31.562-0.049,46.952c0.007,6.676,0.015,13.353,0.014,20.028
			V392.762z"/>
	</g>
</g>
</svg>
