<?xml version="1.0" encoding="utf-8"?>
<!-- Generator: Adobe Illustrator 16.0.0, SVG Export Plug-In . SVG Version: 6.00 Build 0)  -->
<!DOCTYPE svg PUBLIC "-//W3C//DTD SVG 1.1//EN" "http://www.w3.org/Graphics/SVG/1.1/DTD/svg11.dtd">
<svg version="1.1" id="Layer_1" xmlns="http://www.w3.org/2000/svg" xmlns:xlink="http://www.w3.org/1999/xlink" x="0px" y="0px"
	 width="462.377px" height="347.57px" viewBox="0 0 462.377 347.57" enable-background="new 0 0 462.377 347.57"
	 xml:space="preserve">
<g>
	<g>
		
			<ellipse transform="matrix(-0.9925 -0.1222 0.1222 -0.9925 716.7963 223.6227)" fill="#FFD15C" cx="365.254" cy="89.835" rx="95.18" ry="87.669"/>
		<path fill="#1D1E1C" d="M367.273,179.669c-0.002,0,0.001,0-0.002,0c-4.305,0-8.671-0.269-12.978-0.799
			c-53.204-6.55-91.572-51.819-85.529-100.913C274.236,33.515,314.851,0,363.239,0c4.303,0,8.668,0.269,12.976,0.799
			c25.742,3.169,48.813,15.391,64.965,34.413c16.192,19.07,23.495,42.688,20.563,66.501
			C456.272,146.154,415.656,179.669,367.273,179.669z M363.239,4.076c-46.333,0-85.209,31.977-90.429,74.38
			c-5.769,46.863,31.008,90.094,81.981,96.37c4.142,0.51,8.34,0.769,12.479,0.769c46.331,0.001,85.206-31.975,90.426-74.379
			c2.792-22.669-4.178-45.173-19.624-63.365c-15.488-18.24-37.633-29.961-62.356-33.004C371.574,4.334,367.376,4.076,363.239,4.076z
			"/>
	</g>
	<g>
		<g>
			<path fill="#1E1E1C" d="M307.679,80.133l25.826,12.262c2.912,1.379,4.675,3.525,4.675,6.513v0.767
				c0,2.989-1.763,5.135-4.675,6.514l-25.826,12.262c-0.919,0.459-1.763,0.767-2.835,0.767c-2.453,0.077-4.675-2.07-4.675-4.828
				c0-2.223,1.226-3.755,3.219-4.674l23.144-10.346l-23.144-10.346c-1.993-0.919-3.219-2.682-3.219-4.829
				c0-2.835,2.222-4.828,5.058-4.75C306.069,79.444,306.913,79.75,307.679,80.133z"/>
		</g>
		<g>
			<path fill="#1E1E1C" d="M356.722,80.133l25.826,12.262c2.912,1.379,4.675,3.525,4.675,6.513v0.767
				c0,2.989-1.763,5.135-4.675,6.514l-25.826,12.262c-0.919,0.459-1.763,0.767-2.836,0.767c-2.452,0.077-4.675-2.07-4.675-4.828
				c0-2.223,1.227-3.755,3.22-4.674l23.144-10.346l-23.144-10.346c-1.993-0.919-3.22-2.682-3.22-4.829
				c0-2.835,2.223-4.828,5.059-4.75C355.112,79.444,355.956,79.75,356.722,80.133z"/>
		</g>
		<g>
			<path fill="#1E1E1C" d="M410.744,108.487c-2.223,0-3.83-1.685-4.138-3.755l-0.766-5.211c-0.384-2.528,1.073-4.292,3.525-4.598
				c6.666-0.843,9.732-2.912,9.732-6.667v-0.153c0-3.449-2.606-5.441-7.05-5.441c-3.296,0-6.132,0.996-8.891,3.065
				c-0.919,0.69-2.146,1.227-3.449,1.227c-2.911,0-5.363-2.453-5.363-5.365c0-1.456,0.612-2.988,1.991-4.138
				c4.062-3.372,9.196-5.518,15.94-5.518c11.035,0,18.546,5.67,18.546,15.863v0.153c0,9.733-6.744,13.718-15.097,15.404
				l-0.229,1.379c-0.308,1.993-1.917,3.755-4.14,3.755H410.744z M410.744,113.546c3.833,0,6.668,2.835,6.668,6.513v0.154
				c0,3.679-2.835,6.514-6.668,6.514c-3.83,0-6.666-2.835-6.666-6.514v-0.154C404.078,116.381,406.914,113.546,410.744,113.546z"/>
		</g>
	</g>
</g>
<g>
	<g>
		
			<ellipse transform="matrix(0.5166 0.8562 -0.8562 0.5166 375.6962 -126.8014)" fill="#FFD15C" cx="300.142" cy="269.312" rx="75.495" ry="80.529"/>
		<path fill="#1D1E1C" d="M295.697,348.691c-27.948,0-52.863-13.641-66.648-36.49c-22.215-36.823-8.396-86.022,30.804-109.672
			c13.66-8.241,29.13-12.597,44.736-12.597c27.948,0,52.863,13.641,66.647,36.489c10.778,17.865,13.493,39.125,7.646,59.864
			c-5.831,20.68-19.486,38.369-38.45,49.81C326.772,344.336,311.303,348.691,295.697,348.691z M304.588,194.932
			c-14.696,0-29.272,4.107-42.153,11.878c-36.84,22.226-49.896,68.346-29.105,102.809c12.872,21.335,36.187,34.072,62.367,34.072
			c14.695,0,29.271-4.107,42.151-11.878c17.873-10.782,30.736-27.433,36.22-46.886c5.468-19.394,2.942-39.255-7.114-55.923
			C354.083,207.669,330.769,194.932,304.588,194.932z"/>
	</g>
	<g>
		<polyline fill="#FFD15C" points="257.047,222.787 259.903,135.702 318.435,205.076 		"/>
		<polygon fill="#1D1E1C" points="259.546,222.869 254.549,222.705 257.617,129.117 320.346,203.464 316.524,206.688 
			262.188,142.288 		"/>
	</g>
	<g>
		<g>
			<path fill="#1E1E1C" d="M276.702,241.924c-0.281-2.727,1.223-4.795,3.761-4.795h9.213c2.538,0,4.042,2.068,3.761,4.795
				l-4.043,35.348c-0.282,2.538-1.974,4.136-4.324,4.136s-4.042-1.598-4.324-4.136L276.702,241.924z M285.069,287.612
				c4.7,0,8.179,3.479,8.179,7.99v0.188c0,4.513-3.479,7.991-8.179,7.991s-8.179-3.479-8.179-7.991v-0.188
				C276.89,291.091,280.369,287.612,285.069,287.612z"/>
		</g>
		<g>
			<path fill="#1E1E1C" d="M307.158,241.924c-0.281-2.727,1.223-4.795,3.761-4.795h9.213c2.538,0,4.042,2.068,3.761,4.795
				l-4.043,35.348c-0.282,2.538-1.974,4.136-4.324,4.136s-4.042-1.598-4.324-4.136L307.158,241.924z M315.525,287.612
				c4.7,0,8.179,3.479,8.179,7.99v0.188c0,4.513-3.479,7.991-8.179,7.991s-8.179-3.479-8.179-7.991v-0.188
				C307.346,291.091,310.825,287.612,315.525,287.612z"/>
		</g>
	</g>
</g>
<g>
	<g>
		<polyline fill="#FFD15D" points="168.935,161.189 221.527,204.037 227.681,131.981 		"/>
		<polygon fill="#1D1E1C" points="223.163,207.897 167.698,162.708 170.174,159.669 219.889,200.176 225.728,131.814 
			229.634,132.147 		"/>
	</g>
	<g>
		<g>
			<ellipse fill="#FFD15D" cx="125.125" cy="101.323" rx="123.165" ry="76.387"/>
			<path fill="#1D1E1C" d="M125.124,179.669c-33.259,0-64.554-8.051-88.124-22.669c-23.859-14.798-37-34.572-37-55.678
				c0-21.108,13.141-40.881,37.001-55.679c23.568-14.618,54.865-22.667,88.123-22.667s64.554,8.05,88.123,22.667
				c23.86,14.797,37,34.571,37,55.679c0,21.106-13.141,40.88-37,55.678C189.678,171.619,158.381,179.669,125.124,179.669z
				 M125.124,26.895c-66.833,0-121.205,33.388-121.205,74.428c0,41.039,54.372,74.428,121.205,74.428s121.205-33.389,121.205-74.428
				C246.328,60.283,191.956,26.895,125.124,26.895z"/>
		</g>
		<g>
			<g>
				<path fill="#1E1E1C" d="M75.097,131.096l-4.347-4.348c-4.2,3.611-9.21,5.969-15.328,5.969c-9.873,0-17.315-5.747-17.315-14.884
					v-0.146c0-6.557,3.537-11.2,10.021-14.147c-2.579-3.537-3.61-6.778-3.61-10.315v-0.148c0-7.073,5.674-13.558,15.622-13.558
					c8.768,0,14.516,5.747,14.516,12.968v0.148c0,6.926-4.421,10.979-10.758,13.484l6.777,6.705c1.18-1.768,2.285-3.61,3.39-5.601
					c0.516-1.031,1.989-2.58,4.2-2.58c2.579,0,4.716,2.138,4.716,4.717c0,0.811-0.221,1.621-0.664,2.358
					c-1.474,2.579-3.168,5.231-4.936,7.737l4.715,4.641c1.031,1.032,1.695,2.137,1.695,3.685c0,2.8-2.137,4.937-4.937,4.937
					C77.307,132.719,76.276,132.276,75.097,131.096z M64.265,120.338l-9.873-9.947c-3.464,1.843-4.864,4.274-4.864,6.852v0.148
					c0,3.61,3.021,6.042,7.221,6.042C59.402,123.434,61.908,122.255,64.265,120.338z M64.781,93.298v-0.147
					c0-2.949-1.99-4.79-4.863-4.79c-3.021,0-5.01,2.136-5.01,5.231v0.148c0,2.284,0.884,3.978,3.021,6.41
					C62.424,98.455,64.781,96.613,64.781,93.298z"/>
			</g>
			<g>
				<path fill="#1E1E1C" d="M100.882,95.728l-5.01,3.833c-0.737,0.589-1.4,0.884-2.138,0.884c-1.547,0-2.799-1.326-2.799-2.874
					c0-1.326,0.958-2.284,1.989-2.653l5.967-2.505l-5.967-2.505c-1.105-0.44-1.989-1.399-1.989-2.726c0-1.548,1.325-2.8,2.873-2.8
					c0.737,0,1.326,0.295,2.063,0.885l5.01,3.831l-0.809-5.967c-0.221-1.843,0.884-3.316,2.652-3.316s2.874,1.4,2.653,3.242
					l-0.811,6.042l5.011-3.831c0.735-0.59,1.399-0.884,2.137-0.884c1.547,0,2.8,1.326,2.8,2.874c0,1.327-0.959,2.21-1.99,2.652
					l-5.968,2.505l5.968,2.505c1.105,0.441,1.99,1.4,1.99,2.726c0,1.549-1.327,2.8-2.875,2.8c-0.736,0-1.326-0.295-2.063-0.884
					l-5.011-3.832l0.811,5.969c0.22,1.842-0.885,3.315-2.653,3.315s-2.873-1.4-2.652-3.243L100.882,95.728z"/>
			</g>
			<g>
				<path fill="#1E1E1C" d="M127.111,120.928h-1.693c-2.58,0-4.716-2.137-4.716-4.715c0-2.579,2.137-4.717,4.716-4.717h3.314
					l1.843-10.905h-2.58c-2.578,0-4.716-2.137-4.716-4.716c0-2.579,2.138-4.716,4.716-4.716h4.199l1.254-7.295
					c0.369-2.358,2.357-3.905,4.717-3.905c2.873,0,5.157,2.726,4.715,5.526l-0.958,5.674h9.948l1.253-7.295
					c0.368-2.358,2.357-3.905,4.715-3.905c2.873,0,5.157,2.726,4.716,5.526l-0.958,5.674h1.694c2.58,0,4.717,2.137,4.717,4.716
					c0,2.579-2.137,4.716-4.717,4.716h-3.315l-1.842,10.905h2.578c2.579,0,4.716,2.138,4.716,4.717c0,2.578-2.137,4.715-4.716,4.715
					h-4.199l-1.326,7.592c-0.369,2.283-2.357,3.903-4.716,3.903c-2.874,0-5.232-2.726-4.717-5.526l1.032-5.969h-9.947l-1.326,7.592
					c-0.369,1.988-2.062,3.903-4.716,3.903c-2.874,0-5.231-2.431-4.715-5.526L127.111,120.928z M148.406,111.496l1.842-10.905
					h-9.947l-1.842,10.905H148.406z"/>
			</g>
			<g>
				<path fill="#1E1E1C" d="M188.191,114.886c-2.138,0-3.685-1.621-3.979-3.609l-0.738-5.011c-0.368-2.431,1.031-4.126,3.389-4.421
					c6.412-0.811,9.358-2.8,9.358-6.411v-0.147c0-3.315-2.504-5.231-6.779-5.231c-3.169,0-5.894,0.957-8.547,2.947
					c-0.884,0.664-2.063,1.179-3.315,1.179c-2.8,0-5.157-2.358-5.157-5.158c0-1.4,0.589-2.874,1.915-3.979
					c3.905-3.242,8.842-5.305,15.327-5.305c10.61,0,17.831,5.452,17.831,15.253v0.146c0,9.358-6.484,13.19-14.517,14.811
					l-0.219,1.326c-0.296,1.915-1.843,3.61-3.98,3.61h-0.589V114.886z M188.191,119.749c3.683,0,6.409,2.729,6.409,6.263v0.146
					c0,3.538-2.726,6.264-6.409,6.264c-3.685,0-6.411-2.726-6.411-6.264v-0.146C181.78,122.476,184.506,119.749,188.191,119.749z"/>
			</g>
		</g>
	</g>
</g>
</svg>
