<?xml version="1.0" encoding="utf-8"?>
<!-- Generator: Adobe Illustrator 16.0.0, SVG Export Plug-In . SVG Version: 6.00 Build 0)  -->
<!DOCTYPE svg PUBLIC "-//W3C//DTD SVG 1.1//EN" "http://www.w3.org/Graphics/SVG/1.1/DTD/svg11.dtd">
<svg version="1.1" id="Layer_1" xmlns="http://www.w3.org/2000/svg" xmlns:xlink="http://www.w3.org/1999/xlink" x="0px" y="0px"
	 width="242.033px" height="114.826px" viewBox="0 0 242.033 114.826" enable-background="new 0 0 242.033 114.826"
	 xml:space="preserve">
<g>
	<path fill="#42B18A" d="M230.033,114.826H12c-6.6,0-12-5.4-12-12V12C0,5.4,5.4,0,12,0h218.033c6.6,0,12,5.4,12,12v90.826
		C242.033,109.426,236.632,114.826,230.033,114.826z"/>
	<g enable-background="new    ">
		<path fill="#F5EDD8" d="M107.424,43.158c-1.999,0-3.664-1.888-3.442-3.664c-1.554,0.666-2.665,1.998-4.219,4.885L76.892,89.565
			c-5.44,10.547-12.323,18.319-18.985,18.319c-3.331,0-4.885-2.665-4.441-4.996c0.444-2.332,2.665-4.22,4.996-4.22
			c1.999,0,3.997,1.999,3.331,4.441c3.109-0.555,9.215-8.327,12.324-15.1l3.997-7.771V42.714c0-4.219-1.776-4.996-3.108-4.996
			c-3.553,0-6.439,5.218-7.883,13.545c-0.222,1.221-0.999,2.221-2.109,2.221s-1.554-1-1.443-2.221
			c1.333-7.105,5.107-17.431,13.434-17.431c4.33,0,8.215,2.331,8.215,9.104v23.426l11.547-22.648
			c2.442-4.885,6.217-9.659,11.213-9.659c3.442,0,4.774,2.665,4.441,4.996C111.864,41.271,109.755,43.158,107.424,43.158z"/>
		<path fill="#F5EDD8" d="M128.187,76.243c5.219,0,9.882-2.776,12.99-9.215c0.444-0.889,1.221-1.888,2.221-1.888
			c0.889,0,1.443,0.666,1.443,1.665c0,0.444-0.334,1.443-0.555,1.888c-5.552,9.326-11.77,11.436-17.986,11.436
			c-9.77,0-16.099-9.659-13.656-23.648c2.553-14.655,13.767-23.536,22.871-23.536c6.994,0,11.324,4.329,10.325,9.991
			c-2.109,11.769-16.432,15.433-25.757,16.32C118.75,70.025,121.415,76.243,128.187,76.243z M139.179,43.158
			c0.666-3.886-1-6.661-4.219-6.661c-7.439,0-12.102,7.549-14.322,19.317C128.409,55.148,137.624,51.484,139.179,43.158z"/>
		<path fill="#F5EDD8" d="M165.603,76.687c4.886,0,9.438-3.108,9.438-8.549c0-2.997-2.554-5.772-8.771-8.771
			c-6.105-3.108-9.547-7.105-9.547-13.322c0-9.771,8.881-13.212,14.321-13.212c7.327,0,11.436,4.33,11.436,8.438
			c0,3.108-2.109,4.996-4.33,4.996c-2.109,0-3.663-1.665-3.22-3.441c0.111-1.443,1.222-2.665,2.887-3.442
			c-0.555-1.554-3.22-3.22-7.217-3.22c-4.885,0-8.438,3.109-8.438,7.772c0,3.22,2.221,5.662,7.55,8.104
			c5.884,2.775,10.88,6.994,10.88,14.1c0,8.993-7.327,14.1-15.21,14.1c-9.215,0-14.321-6.439-14.321-11.213
			c0-4.219,2.664-5.773,5.106-5.773c2.109,0,3.331,1.776,3.331,3.331c0,2.331-2.221,4.107-3.997,4.33
			C157.165,74.577,161.162,76.687,165.603,76.687z"/>
	</g>
</g>
</svg>
