<?xml version="1.0" encoding="utf-8"?>
<!-- Generator: Adobe Illustrator 16.0.0, SVG Export Plug-In . SVG Version: 6.00 Build 0)  -->
<!DOCTYPE svg PUBLIC "-//W3C//DTD SVG 1.1//EN" "http://www.w3.org/Graphics/SVG/1.1/DTD/svg11.dtd">
<svg version="1.1" id="Layer_1" xmlns="http://www.w3.org/2000/svg" xmlns:xlink="http://www.w3.org/1999/xlink" x="0px" y="0px"
	 width="242.033px" height="114.826px" viewBox="0 0 242.033 114.826" enable-background="new 0 0 242.033 114.826"
	 xml:space="preserve">
<g>
	<path fill="#E86156" d="M230.033,114.826H12c-6.6,0-12-5.4-12-12V12C0,5.4,5.4,0,12,0h218.033c6.6,0,12,5.4,12,12v90.827
		C242.033,109.426,236.632,114.826,230.033,114.826z"/>
	<g enable-background="new    ">
		<path fill="#F5EDD8" d="M101.182,35.546c8.66,0,10.88,6.994,9.215,16.431l-3.664,20.872c-0.888,4.663,1.221,4.996,2.221,4.996
			c3.553,0,6.328-5.218,7.882-13.544c0.111-1.222,1-2.11,2.109-2.11c1.11,0,1.555,0.889,1.333,2.11
			c-1.221,7.105-4.996,17.431-13.323,17.431c-4.33,0-8.216-2.887-7.105-8.993l4.219-24.092c1.11-5.995-0.111-8.438-4.33-8.438
			c-6.661,0-15.21,9.771-17.208,20.983l-3.441,19.43c0,0.443-0.444,0.555-0.777,0.555c-0.888,0-1.332-0.333-2.665-0.333
			c-1.443,0-2.109,0.333-2.887,0.333c-0.444,0-0.666-0.111-0.666-0.555L79.2,40.764c-5.44,0-6.106,0.333-7.216,0.333
			c-0.777,0-1.554-0.777-1.221-1.998c0.111-1.222,1.11-1.888,1.887-1.888c1.11,0,1.776,0.11,7.105,0.11
			c1.776,0,4.441-0.443,5.44-0.443c0.777,0,1.443,0.777,1.222,1.998l-1.666,9.215C87.859,42.207,94.632,35.546,101.182,35.546z"/>
		<path fill="#F5EDD8" d="M142.152,82.73c-10.103,0-16.765-9.548-14.321-23.648c2.441-14.1,12.545-23.536,22.648-23.536
			c10.103,0,16.764,9.437,14.322,23.536C162.358,73.183,152.255,82.73,142.152,82.73z M149.924,39.099
			c-7.438,0-11.657,5.328-14.321,19.983c-2.555,14.767-0.223,19.984,7.216,19.984c7.327,0,11.546-5.218,14.101-19.984
			C159.472,44.427,157.251,39.099,149.924,39.099z"/>
	</g>
</g>
</svg>
