<?xml version="1.0" encoding="utf-8"?>
<!-- Generator: Adobe Illustrator 16.0.0, SVG Export Plug-In . SVG Version: 6.00 Build 0)  -->
<!DOCTYPE svg PUBLIC "-//W3C//DTD SVG 1.1//EN" "http://www.w3.org/Graphics/SVG/1.1/DTD/svg11.dtd">
<svg version="1.1" id="Layer_1" xmlns="http://www.w3.org/2000/svg" xmlns:xlink="http://www.w3.org/1999/xlink" x="0px" y="0px"
	 width="386.791px" height="331.356px" viewBox="0 0 386.791 331.356" enable-background="new 0 0 386.791 331.356"
	 xml:space="preserve">
<g>
	<path fill="#FFFFFF" stroke="#1D1E1C" stroke-width="7" stroke-miterlimit="10" d="M242.105,118.861
		c-22.141-0.213-39.646-18.148-39.371-40.334c0.266-21.541,18.265-39.213,39.843-39.119c22.003,0.094,39.725,18.119,39.568,40.246
		C281.992,101.489,264.034,119.074,242.105,118.861z M223.271,81.15c3.504,0.077,6.375-2.627,6.494-6.117
		c0.119-3.512-2.525-6.455-5.99-6.665c-3.52-0.214-6.778,2.845-6.797,6.384C216.958,78.169,219.816,81.073,223.271,81.15z
		 M262.658,92.246c-0.056-3.467-2.991-6.229-6.561-6.174c-3.603,0.057-6.344,2.865-6.268,6.424c0.076,3.512,2.977,6.27,6.521,6.205
		C259.853,98.636,262.715,95.707,262.658,92.246z M238.769,51.289c-3.613-0.057-6.399,2.623-6.456,6.209
		c-0.056,3.618,2.622,6.369,6.239,6.408c3.584,0.041,6.471-2.693,6.541-6.195C245.163,54.239,242.312,51.343,238.769,51.289z
		 M232.216,102.707c3.418,0.125,6.418-2.756,6.508-6.25c0.092-3.565-2.617-6.479-6.125-6.586c-3.503-0.108-6.43,2.676-6.519,6.199
		C225.992,99.583,228.762,102.58,232.216,102.707z M258.777,63.4c-3.641-0.104-6.444,2.512-6.541,6.104
		c-0.1,3.63,2.521,6.425,6.118,6.526c3.628,0.102,6.448-2.52,6.562-6.102C265.03,66.335,262.369,63.503,258.777,63.4z"/>
	<path fill="#FFFFFF" stroke="#1D1E1C" stroke-width="7" stroke-miterlimit="10" d="M68.353,100.083
		c-0.009-17.84,14.268-32.169,32.059-32.173c17.775-0.003,32.231,14.348,32.289,32.056c0.056,17.6-14.479,32.17-32.175,32.251
		C82.861,132.298,68.362,117.818,68.353,100.083z M113.295,87.193c-2.88,0.112-5.047,2.553-4.876,5.491
		c0.158,2.706,2.436,4.886,5.102,4.881c2.776-0.006,5.237-2.542,5.17-5.327C118.622,89.376,116.166,87.08,113.295,87.193z
		 M116.786,110.476c-0.112-2.838-2.632-5.104-5.482-4.932c-2.691,0.164-4.803,2.426-4.8,5.142c0.002,2.871,2.41,5.268,5.223,5.198
		C114.517,115.817,116.896,113.274,116.786,110.476z M90.194,96.377c-0.044-2.893-2.403-5.116-5.321-5.016
		c-2.686,0.093-4.932,2.315-5.002,4.953c-0.075,2.761,2.37,5.267,5.161,5.288C87.891,101.625,90.238,99.25,90.194,96.377z
		 M92.427,118.929c2.822-0.041,4.952-2.157,5.012-4.977c0.063-3.02-2.17-5.238-5.214-5.181c-2.802,0.053-5.014,2.208-5.075,4.947
		C87.085,116.595,89.492,118.973,92.427,118.929z M97.452,77.488c-2.909-0.027-5.308,2.293-5.276,5.102
		c0.032,2.748,2.612,5.229,5.353,5.145c2.675-0.081,4.875-2.296,4.964-4.996C102.59,79.789,100.408,77.515,97.452,77.488z"/>
	<path fill="#FFFFFF" stroke="#1D1E1C" stroke-width="7" stroke-miterlimit="10" d="M295.324,256.58
		c0.058,4.062-3.033,7.158-7.09,7.104c-3.812-0.051-6.879-3.104-6.934-6.898c-0.056-3.877,3.309-7.248,7.166-7.178
		C292.255,249.678,295.271,252.742,295.324,256.58z"/>
	<g>
		<g>
			<g>
				<g>
					<g>
						<path fill="#57C1EB" d="M294.255,141.617c6.035,0,11.068,0,15.986,0c0.924,3.508,1.166,129.584,0.294,135.276
							c-65.685,0-131.445,0-197.575,0c-0.911,5.211-1.756,10.031-2.594,14.852c-0.224,1.287-0.444,2.574-0.637,3.865
							c-0.871,5.832-0.209,4.582-5.757,5.82c-15.157,3.383-30.347,6.619-45.551,9.787c-2.408,0.502-4.454,1.352-5.908,3.291
							c-4.073,5.426-9.501,7.852-16.209,8.773c-9.478,1.301-18.838,3.463-28.252,5.238c-0.679,0.129-1.386,0.107-2.518,0.184
							c-0.921-7.35-1.817-14.492-2.765-22.061c5.245-1.041,10.174-2.045,15.113-2.996c7.27-1.4,14.556-2.713,21.814-4.176
							c1.95-0.393,3.772-0.512,5.41,0.705c5.569,4.145,11.449,4.117,18.062,2.6c12.44-2.855,25.069-4.891,37.617-7.283
							c0.697-0.135,1.363-0.434,2.345-0.756c0.75-5.676,1.502-11.375,2.339-17.711c-7.07,0-13.677,0-20.788,0
							c0-27.381,0-54.186,0-81.502c-3.954,0-7.407-0.156-10.832,0.096c-1.045,0.076-2.491,1.059-2.925,2.006
							c-1.688,3.686-4.703,4.83-8.928,5.127c-5.537-11.514-11.157-23.201-17.002-35.355c5.605-0.221,10.454-0.82,15.194,1.311
							c3.567,1.604,7.247,2.998,10.97,4.195c1.734,0.557,3.688,0.514,5.548,0.582c2.447,0.09,4.9,0.021,7.67,0.021
							c0-2.422,0-4.535,0-6.759c-33.545-11.964-51.895-35.072-48.527-71.571c2.528-27.408,22.088-48.389,48.146-55.229
							c23.224-6.096,53.682,0.547,72.613,29.806c2.918-0.554,6-1.138,8.895-1.687c9.591-37.941,32.593-61.38,71.896-65.186
							c36.775-3.561,65.041,18.367,77.504,44.914C327.599,74.838,325.558,112.947,294.255,141.617z M242.105,118.861
							c21.929,0.213,39.887-17.372,40.04-39.207c0.156-22.127-17.565-40.152-39.568-40.246
							C220.999,39.314,203,56.986,202.734,78.527C202.458,100.712,219.964,118.648,242.105,118.861z M68.353,100.083
							c0.009,17.734,14.508,32.215,32.173,32.134c17.696-0.081,32.231-14.651,32.175-32.251
							c-0.058-17.708-14.514-32.059-32.289-32.056C82.621,67.915,68.344,82.244,68.353,100.083z M163.127,122.271
							c-3.224,6.522-6.271,12.689-9.321,18.861c5.614,1.035,35.522,0.698,37.692-0.234c-5.507-6.671-11.098-13.443-17.086-20.699
							C170.944,120.835,166.85,121.587,163.127,122.271z M295.324,256.58c-0.053-3.838-3.068-6.902-6.857-6.973
							c-3.857-0.07-7.222,3.301-7.166,7.178c0.055,3.795,3.121,6.848,6.934,6.898C292.291,263.738,295.381,260.643,295.324,256.58z"
							/>
					</g>
				</g>
				<g>
					<g>
						<path fill="#1D1E1C" d="M3.348,331.356L0,304.644l7.26-1.446c3.447-0.689,6.796-1.359,10.15-2.006
							c2.683-0.517,5.368-1.021,8.053-1.526c4.51-0.848,9.173-1.725,13.74-2.646c1.104-0.222,1.962-0.32,2.784-0.32
							c1.771,0,3.28,0.48,4.611,1.47c2.791,2.077,5.756,3.044,9.334,3.044c1.93,0,4.115-0.286,6.678-0.874
							c8.721-2.002,17.654-3.625,26.293-5.194c3.807-0.691,7.615-1.384,11.415-2.108c0.15-0.028,0.328-0.082,0.536-0.152
							l1.764-13.358H82.183v-81.518c-0.266-0.003-0.53-0.007-0.792-0.01c-0.988-0.011-1.951-0.022-2.896-0.022
							c-1.799,0-3.175,0.042-4.461,0.137c-0.21,0.045-0.723,0.392-0.861,0.603c-2.409,5.268-7.146,6.26-11,6.531l-1.693,0.119
							l-19.388-40.317l3.805-0.15c0.733-0.029,1.454-0.064,2.163-0.099c1.577-0.078,3.067-0.151,4.565-0.151
							c2.622,0,6.082,0.202,9.589,1.778c3.379,1.52,6.983,2.897,10.71,4.096c1.119,0.359,2.5,0.396,3.961,0.436l0.913,0.028
							c1.653,0.06,3.311,0.046,5.069,0.032c0.003,0,0.006,0,0.01,0v-2.523c-16.81-6.272-29.47-15.314-37.648-26.891
							c-8.905-12.607-12.562-28.306-10.869-46.658c2.543-27.575,22.17-50.112,50-57.417c5.436-1.427,11.104-2.15,16.846-2.15
							c23.069,0,43.96,11.497,57.569,31.608l5.705-1.082c10.535-39.758,35.316-61.798,73.677-65.513
							C239.846,0.132,242.553,0,245.205,0c36.882,0,61.356,24.14,71.962,46.732c11.174,23.802,13.017,61.6-16.757,92.385h11.759
							l0.491,1.863c1.003,3.811,1.324,129.912,0.347,136.292l-0.324,2.121H115.061l-0.437,2.501
							c-0.615,3.517-1.207,6.897-1.795,10.279c-0.22,1.267-0.438,2.534-0.627,3.806l-0.187,1.289
							c-0.613,4.324-1.177,5.412-5.309,6.167c-0.588,0.107-1.307,0.238-2.189,0.435c-13.624,3.041-28.108,6.153-45.585,9.795
							c-2.24,0.467-3.52,1.146-4.417,2.344c-4.166,5.549-9.844,8.647-17.87,9.75c-6.463,0.888-13.018,2.209-19.357,3.487
							c-2.922,0.59-5.845,1.179-8.772,1.731c-0.621,0.117-1.187,0.142-1.842,0.17c-0.287,0.013-0.605,0.026-0.971,0.051
							L3.348,331.356z M5.54,308.639l2.181,17.399c2.865-0.541,5.722-1.118,8.579-1.694c6.415-1.293,13.047-2.631,19.666-3.539
							c6.707-0.922,11.194-3.327,14.55-7.798c2.123-2.831,5.068-3.752,7.397-4.237c17.453-3.637,31.917-6.744,45.517-9.78
							c0.959-0.214,1.74-0.356,2.38-0.474c0.34-0.062,0.708-0.129,0.981-0.189c0.086-0.424,0.182-1.101,0.276-1.761l0.191-1.325
							c0.196-1.311,0.42-2.617,0.647-3.924c0.588-3.384,1.18-6.767,1.795-10.284l1.161-6.64h197.346
							c0.663-16.4,0.467-114.382-0.264-130.276h-20.117l4.742-4.344c32.392-29.667,31.058-67.518,20.074-90.916
							C302.687,27.655,279.745,5,245.205,5c-2.491,0-5.036,0.124-7.563,0.369c-36.533,3.538-59.987,24.838-69.713,63.31
							l-0.391,1.546l-12.113,2.297l-0.914-1.412c-12.637-19.531-32.429-30.732-54.302-30.732c-5.314,0-10.555,0.668-15.577,1.986
							C58.858,49.13,40.688,69.949,38.34,95.405c-3.098,33.578,12.674,56.789,46.878,68.987l1.66,0.592v11.022h-2.5
							c-0.851,0-1.671,0.007-2.47,0.013c-1.836,0.015-3.564,0.028-5.292-0.036l-0.865-0.025c-1.667-0.046-3.556-0.097-5.355-0.674
							c-3.905-1.256-7.683-2.701-11.231-4.296c-2.088-0.938-4.343-1.339-7.539-1.339c-0.888,0-1.798,0.029-2.739,0.07l14.601,30.36
							c2.796-0.428,4.222-1.433,5.166-3.495c0.807-1.764,3.058-3.315,5.016-3.458c1.412-0.104,2.901-0.15,4.827-0.15
							c0.964,0,1.945,0.012,2.954,0.023c1.045,0.012,2.119,0.024,3.233,0.024h2.5v81.502h21.139l-2.917,22.096l-1.493,0.49
							c-0.309,0.102-0.584,0.201-0.839,0.292c-0.597,0.215-1.162,0.418-1.811,0.543c-3.82,0.729-7.642,1.423-11.464,2.117
							c-8.583,1.56-17.459,3.172-26.069,5.148c-2.935,0.674-5.484,1.001-7.796,1.001c-4.644,0-8.673-1.319-12.318-4.031
							c-0.767-0.57-1.572-0.634-3.423-0.26c-4.599,0.927-9.278,1.807-13.804,2.657c-2.678,0.503-5.355,1.007-8.031,1.522
							c-3.342,0.644-6.68,1.312-10.114,1.998L5.54,308.639z M288.34,266.185C288.339,266.185,288.339,266.185,288.34,266.185
							l-0.141-0.001c-5.195-0.069-9.324-4.182-9.399-9.362c-0.035-2.496,0.985-4.984,2.802-6.827
							c1.81-1.835,4.269-2.888,6.746-2.888l0.164,0.001c5.15,0.096,9.24,4.241,9.312,9.438c0.037,2.622-0.919,5.058-2.692,6.856
							C293.362,265.196,290.95,266.185,288.34,266.185z M288.348,252.106c-1.148,0-2.31,0.51-3.186,1.398
							c-0.883,0.896-1.379,2.078-1.362,3.244c0.035,2.454,1.997,4.402,4.467,4.435c0.001,0,0.002,0,0.003,0
							c1.333,0,2.479-0.459,3.301-1.292c0.826-0.838,1.271-2.002,1.253-3.276c-0.034-2.483-1.969-4.463-4.404-4.508L288.348,252.106
							z M170.357,144.269c-4.008,0-13.688-0.066-17.004-0.678l-3.253-0.6l11.342-22.952l13.964-2.564l20.145,24.404l-3.064,1.316
							C190.108,144.217,173.635,144.269,170.357,144.269z M157.65,138.997c3.005,0.173,7.47,0.272,12.707,0.272
							c6.601,0,12.509-0.155,16.262-0.355l-13.199-15.99l-8.606,1.581L157.65,138.997z M100.378,134.718
							c-19.028-0.001-34.516-15.537-34.525-34.633c-0.005-9.295,3.576-18.01,10.083-24.541c6.509-6.533,15.201-10.131,24.475-10.133
							h0.006c19.117,0,34.721,15.498,34.784,34.547c0.061,19.079-15.489,34.671-34.664,34.759L100.378,134.718z M100.417,67.911
							l-0.005,2.5c-7.935,0.002-15.37,3.078-20.934,8.663c-5.566,5.586-8.629,13.047-8.625,21.009
							c0.008,16.341,13.253,29.635,29.525,29.636l0.136,0c16.421-0.075,29.738-13.418,29.686-29.743
							c-0.053-16.301-13.415-29.563-29.784-29.563V67.911z M242.5,121.363C242.499,121.363,242.5,121.363,242.5,121.363
							l-0.419-0.002c-11.36-0.109-21.952-4.601-29.824-12.648c-7.895-8.07-12.164-18.801-12.022-30.217
							c0.283-22.932,19.201-41.588,42.172-41.588l0.182,0c11.269,0.048,21.845,4.495,29.781,12.522
							c7.997,8.088,12.356,18.828,12.276,30.242C284.484,102.659,265.576,121.363,242.5,121.363z M242.406,41.907
							c-20.247,0-36.923,16.441-37.172,36.65c-0.125,10.078,3.638,19.545,10.597,26.658c6.936,7.091,16.275,11.049,26.299,11.145
							l0.369,0.002c20.341,0,37.004-16.475,37.146-36.727c0.071-10.075-3.775-19.554-10.832-26.691
							c-6.995-7.076-16.317-10.995-26.247-11.038L242.406,41.907z"/>
					</g>
				</g>
			</g>
			<g>
				<path d="M315.886,175.152c2.033,0,3.746,0,5.459,0c6.968,0,13.938-0.1,20.901,0.047c3.022,0.062,5.595-0.639,8.185-2.246
					c10.477-6.503,21.061-12.833,31.611-19.215c1.228-0.741,2.493-1.418,3.613-2.054c0.346,0.159,0.478,0.2,0.588,0.274
					c0.119,0.08,0.304,0.182,0.313,0.287c0.099,1.006,0.235,2.014,0.233,3.021c-0.031,34.252-0.078,68.504-0.144,102.756
					c-0.001,0.225-0.31,0.447-0.638,0.889c-1.197-0.674-2.447-1.334-3.654-2.062c-10.675-6.457-21.367-12.889-31.996-19.422
					c-2.303-1.416-4.6-2.139-7.34-2.09c-7.545,0.139-15.096,0.059-22.643,0.039c-1.418-0.004-2.836-0.129-4.49-0.209
					C315.886,215.227,315.886,195.555,315.886,175.152z"/>
			</g>
		</g>
		<path d="M223.271,81.15c-3.455-0.077-6.312-2.98-6.293-6.398c0.019-3.539,3.277-6.598,6.797-6.384
			c3.465,0.21,6.109,3.153,5.99,6.665C229.646,78.523,226.775,81.227,223.271,81.15z"/>
		<path d="M262.658,92.246c0.058,3.461-2.805,6.391-6.307,6.455c-3.545,0.064-6.445-2.693-6.521-6.205
			c-0.076-3.559,2.665-6.367,6.268-6.424C259.667,86.017,262.602,88.779,262.658,92.246z"/>
		<path d="M238.769,51.289c3.543,0.055,6.394,2.95,6.324,6.422c-0.07,3.502-2.957,6.236-6.541,6.195
			c-3.617-0.039-6.295-2.79-6.239-6.408C232.37,53.912,235.156,51.232,238.769,51.289z"/>
		<path d="M232.216,102.707c-3.454-0.127-6.225-3.123-6.136-6.637c0.089-3.523,3.016-6.308,6.519-6.199
			c3.508,0.107,6.217,3.021,6.125,6.586C238.634,99.951,235.634,102.832,232.216,102.707z"/>
		<path d="M258.777,63.4c3.592,0.104,6.253,2.936,6.139,6.529c-0.113,3.582-2.934,6.203-6.562,6.102
			c-3.597-0.102-6.218-2.896-6.118-6.526C252.333,65.912,255.136,63.295,258.777,63.4z"/>
		<path d="M113.295,87.193c2.871-0.113,5.327,2.184,5.396,5.045c0.067,2.785-2.394,5.321-5.17,5.327
			c-2.666,0.005-4.943-2.175-5.102-4.881C108.249,89.746,110.416,87.305,113.295,87.193z"/>
		<path d="M116.786,110.476c0.111,2.798-2.269,5.341-5.06,5.408c-2.813,0.069-5.221-2.327-5.223-5.198
			c-0.003-2.716,2.109-4.978,4.8-5.142C114.154,105.372,116.674,107.638,116.786,110.476z"/>
		<path d="M90.194,96.377c0.044,2.872-2.303,5.247-5.163,5.226c-2.791-0.021-5.236-2.527-5.161-5.288
			c0.071-2.638,2.316-4.86,5.002-4.953C87.791,91.261,90.149,93.485,90.194,96.377z"/>
		<path d="M92.427,118.929c-2.935,0.044-5.342-2.334-5.277-5.21c0.062-2.739,2.273-4.895,5.075-4.947
			c3.044-0.058,5.277,2.161,5.214,5.181C97.379,116.772,95.249,118.888,92.427,118.929z"/>
		<path d="M97.452,77.488c2.956,0.027,5.138,2.301,5.04,5.25c-0.088,2.7-2.289,4.915-4.964,4.996
			c-2.741,0.084-5.321-2.396-5.353-5.145C92.145,79.781,94.543,77.46,97.452,77.488z"/>
	</g>
	<path fill="#57C1EB" stroke="#1D1E1C" stroke-width="5" stroke-miterlimit="10" d="M304.232,130.983"/>
</g>
</svg>
