<?xml version="1.0" encoding="utf-8"?>
<!-- Generator: Adobe Illustrator 16.0.0, SVG Export Plug-In . SVG Version: 6.00 Build 0)  -->
<!DOCTYPE svg PUBLIC "-//W3C//DTD SVG 1.1//EN" "http://www.w3.org/Graphics/SVG/1.1/DTD/svg11.dtd">
<svg version="1.1" id="Layer_1" xmlns="http://www.w3.org/2000/svg" xmlns:xlink="http://www.w3.org/1999/xlink" x="0px" y="0px"
	 width="100.682px" height="111.45px" viewBox="0 0 100.682 111.45" enable-background="new 0 0 100.682 111.45"
	 xml:space="preserve">
<g>
	<path fill="#E85F54" d="M93.397,24.255c-3.231-2.337-6.497-4.7-9.726-7.036c-2.717,2.477-2.717,2.477-0.185,4.836
		c23.094,21.508,22.467,55.456-1.451,76.056c-1.295,1.116-1.589,1.975-0.569,3.38c0.79,1.09,1.491,2.283,2.01,3.523
		c0.936,2.236,0.092,4.602-1.841,5.631c-1.929,1.027-4.315,0.383-5.738-1.536c-1.11-1.497-1.99-3.834-3.417-4.243
		c-1.48-0.422-3.492,1.036-5.276,1.658c-12.899,4.486-25.606,3.85-38.011-1.723c-2.275-1.022-3.454-0.699-4.535,1.385
		c-0.62,1.194-1.402,2.333-2.267,3.366c-1.433,1.711-4.206,2.111-5.879,0.83c-1.883-1.443-2.403-3.383-1.315-5.527
		c0.69-1.363,1.536-2.675,2.487-3.87c1.286-1.615,1.043-2.72-0.499-4.086C7.964,88.737,2.277,78.545,0.748,66.315
		c-2.182-17.449,3.324-32.224,16.238-44.201c0.529-0.491,1.089-0.951,1.608-1.453c0.183-0.179,0.288-0.439,0.553-0.857
		c-0.581-0.811-1.191-1.662-1.999-2.788c-3.404,2.476-6.663,4.847-9.883,7.189C2.338,19.966,2.354,11.196,7.194,7.342
		c1.908-1.519,3.915-2.914,5.884-4.354c6.334-4.634,13.587-3.167,17.919,3.771c-3.29,2.446-6.595,4.906-10.037,7.465
		c0.825,1.081,1.518,1.99,1.923,2.521c5.287-2.035,10.284-3.834,15.146-5.948c0.862-0.375,1.59-2.046,1.62-3.139
		c0.058-2.193,0.763-3.055,3.022-2.993c4.606,0.125,9.22,0.104,13.826,0.005c2.051-0.044,3.123,0.595,2.857,2.771
		c-0.256,2.11,0.77,2.84,2.759,3.481c5.124,1.65,10.112,3.718,15.581,5.779c0.336-0.435,1.023-1.326,1.918-2.486
		c-3.442-2.542-6.746-4.981-10.017-7.396c4.083-6.792,11.439-8.435,17.49-4.117c1.839,1.312,3.672,2.633,5.465,4.007
		C97.985,10.874,98.46,18.939,93.397,24.255z M93.23,59.664c0.03-24.035-19.205-43.402-43.089-43.382
		C26.698,16.3,7.13,35.794,7.222,59.37c0.092,23.771,18.63,43.072,43.034,43.1C75.125,102.498,93.355,82.358,93.23,59.664z"/>
	<path fill="#F6EFD9" d="M93.23,59.664c0.125,22.694-18.105,42.834-42.975,42.806c-24.404-0.028-42.942-19.329-43.034-43.1
		C7.13,35.794,26.698,16.3,50.142,16.282C74.026,16.262,93.261,35.629,93.23,59.664z M81.113,71.284
		c0.163-0.34,0.326-0.681,0.489-1.021c-0.944-0.483-1.85-1.073-2.839-1.433c-6.611-2.412-13.206-4.873-19.879-7.101
		c-2.336-0.78-3.54-1.894-4.4-4.348c-0.661-1.886-3.001-3.17-4.541-4.774c-0.28-0.292-0.309-0.834-0.435-1.267
		c-1.991-6.842-3.975-13.687-5.972-20.527c-0.429-1.469-0.783-2.98-1.417-4.359c-0.26-0.565-1.17-0.833-1.785-1.235
		c-0.341,0.641-0.853,1.252-0.969,1.931c-0.098,0.565,0.257,1.214,0.433,1.82c2.247,7.706,4.498,15.41,6.747,23.115
		c0.854,2.93-0.536,7.135-2.984,8.948c-4.426,3.276-8.853,6.55-13.3,9.796c-1.593,1.161-2.937,2.468-1.408,4.439
		c1.386,1.787,2.975,1.049,4.492-0.083c3.475-2.588,6.991-5.119,10.479-7.689c2.224-1.638,4.209-3.7,7.403-3.28
		c0.67,0.088,1.414-0.747,2.178-0.935c1.182-0.29,2.555-0.831,3.595-0.492c5.143,1.679,10.196,3.627,15.292,5.448
		C75.222,69.284,78.172,70.271,81.113,71.284z"/>
	<ellipse fill="#F6EFD9" cx="52.663" cy="57.228" rx="33.052" ry="34.917"/>
</g>
<g>
	<path fill="#010101" d="M39.923,69.925l2.073-2.273c2.433,2.353,5.104,3.828,7.936,3.828c3.987,0,6.739-2.632,6.739-6.18v-0.081
		c0-3.469-2.871-5.861-6.938-5.861c-2.353,0-4.227,0.718-5.861,1.596l-2.114-1.396l0.798-13.598h16.069v2.911H45.307l-0.598,8.932
		c1.635-0.718,3.19-1.236,5.502-1.236c5.423,0,9.65,3.23,9.65,8.533v0.08c0,5.463-4.147,9.172-9.969,9.172
		C45.904,74.351,42.435,72.437,39.923,69.925z"/>
</g>
</svg>
