<?xml version="1.0" encoding="utf-8"?>
<!-- Generator: Adobe Illustrator 16.0.0, SVG Export Plug-In . SVG Version: 6.00 Build 0)  -->
<!DOCTYPE svg PUBLIC "-//W3C//DTD SVG 1.1//EN" "http://www.w3.org/Graphics/SVG/1.1/DTD/svg11.dtd">
<svg version="1.1" id="Layer_1" xmlns="http://www.w3.org/2000/svg" xmlns:xlink="http://www.w3.org/1999/xlink" x="0px" y="0px"
	 width="258.684px" height="253.684px" viewBox="0 0 258.684 253.684" enable-background="new 0 0 258.684 253.684"
	 xml:space="preserve">
<path id="XMLID_62_" fill="#FFFFFF" stroke="#1D1E1C" stroke-width="10" stroke-miterlimit="10" d="M253.38,127.994
	c-1.881,11.334-3.151,20.687-5.157,29.877c-0.491,2.246-3.04,4.851-5.263,5.732c-3.861,1.535-8.212,1.824-12.343,2.694
	c-19.909,4.201-26.246,14.896-20.338,34.277c4.473,14.676,3.726,13.785-7.606,23.269c-11.254,9.42-20.885,10.139-32.511,1.301
	c-3.959-3.01-10.012-4.373-15.153-4.49c-10.735-0.244-17.451,5.775-19.975,16.26c-2.561,10.646-9.375,13.553-19.381,10.783
	c-0.624-0.174-1.281-0.219-1.923-0.334c-21.479-3.789-21.479-3.789-23.799-25.869c-1.329-12.646-16.592-21.781-28.424-17.01
	c-23.757,9.582-23.479,9.402-37.119-11.812c-4.182-6.502-4.941-11.602,0.479-17.252c1.117-1.164,1.722-2.889,2.956-3.858
	c13.266-10.443,8.124-22.781,2.112-33.773c-2.429-4.438-9.596-7.051-15.14-8.83c-7.044-2.259-11.531-4.427-9.154-13.251
	c1.667-6.183,2.146-12.883,1.959-19.315c-0.234-7.923,4.099-10.136,10.646-10.847c10.757-1.17,19.931-3.122,26.242-14.613
	c5.618-10.229,2.519-18.105-1.052-26.53c-3.473-8.188-1.372-12.904,6.7-15.613c0.612-0.205,1.258-0.444,1.758-0.835
	c11.936-9.312,22.647-8.724,34.334,1.657c9.044,8.033,24.359,3.549,30.454-7.133c11.207-19.648,11.096-18.49,33.234-16.34
	c11.853,1.15,16.024,6.035,15.845,16.408c-0.221,12.623,8.963,17.689,18.05,21.625c3.776,1.636,9.825-0.902,14.479-2.556
	c20.938-7.43,14.462-9.131,27.41,8.292c0.387,0.523,0.791,1.035,1.146,1.58c12.568,19.327,12.838,12.572,0.222,31.515
	c-9.226,13.853-5.562,27.342,9.346,33.924c4.164,1.838,8.535,3.347,12.379,5.712C251.025,124.01,252.392,126.786,253.38,127.994z
	 M187.748,126.84c0.04-31.623-25.652-56.629-58.295-56.729c-32.479-0.103-58.845,25.16-58.836,56.372
	c0.009,30.905,26.989,56.741,58.949,56.446C161.621,182.633,187.708,157.486,187.748,126.84z"/>
<ellipse id="XMLID_2_" fill="#FFFFFF" cx="126.556" cy="129.693" rx="71.728" ry="67.779"/>
<circle id="XMLID_3_" fill="#E85F55" stroke="#1D1E1C" stroke-width="10" stroke-miterlimit="10" cx="127.543" cy="125.658" r="43.922"/>
</svg>
