<?xml version="1.0" encoding="utf-8"?>
<!-- Generator: Adobe Illustrator 16.0.0, SVG Export Plug-In . SVG Version: 6.00 Build 0)  -->
<!DOCTYPE svg PUBLIC "-//W3C//DTD SVG 1.1//EN" "http://www.w3.org/Graphics/SVG/1.1/DTD/svg11.dtd">
<svg version="1.1" id="Layer_1" xmlns="http://www.w3.org/2000/svg" xmlns:xlink="http://www.w3.org/1999/xlink" x="0px" y="0px"
	 width="460.719px" height="321.488px" viewBox="0 0 460.719 321.488" enable-background="new 0 0 460.719 321.488"
	 xml:space="preserve">
<g>
	<polyline fill="#FFD15C" stroke="#1D1E1C" stroke-width="5" stroke-miterlimit="10" points="272.705,17.584 254.517,2.5 2.5,2.5 
		2.5,175.941 15.297,185.121 	"/>
	
		<rect x="15.297" y="17.584" fill="#FFD15C" stroke="#1D1E1C" stroke-width="5" stroke-miterlimit="10" width="257.408" height="167.537"/>
	<path fill="#1D1E1C" d="M228.733,162.224H52.513c-6.6,0-12-5.399-12-12V49.086c0-6.6,5.4-12,12-12h176.22c6.6,0,12,5.4,12,12
		v101.138C240.732,156.824,235.333,162.224,228.733,162.224z"/>
	<path fill="#FFD15C" d="M179.59,77.172H80.545c-2.616,0-4.757-2.141-4.757-4.756l0,0c0-2.617,2.141-4.758,4.757-4.758h99.045
		c2.617,0,4.758,2.141,4.758,4.758l0,0C184.348,75.031,182.207,77.172,179.59,77.172z"/>
	<path fill="#FFD15C" d="M159.551,93.67H60.506c-2.616,0-4.757-2.141-4.757-4.757l0,0c0-2.616,2.141-4.757,4.757-4.757h99.045
		c2.616,0,4.757,2.141,4.757,4.757l0,0C164.308,91.529,162.167,93.67,159.551,93.67z"/>
	<path fill="#FFD15C" d="M159.551,110.654H60.506c-2.616,0-4.757-2.141-4.757-4.756l0,0c0-2.617,2.141-4.758,4.757-4.758h99.045
		c2.616,0,4.757,2.141,4.757,4.758l0,0C164.308,108.514,162.167,110.654,159.551,110.654z"/>
	<path fill="#FFD15C" d="M192.592,127.986H93.547c-2.617,0-4.757-2.141-4.757-4.758l0,0c0-2.615,2.14-4.756,4.757-4.756h99.045
		c2.616,0,4.757,2.141,4.757,4.756l0,0C197.349,125.846,195.208,127.986,192.592,127.986z"/>
	<path fill="#FFD15C" d="M159.551,145.317H60.506c-2.616,0-4.757-2.14-4.757-4.757l0,0c0-2.617,2.141-4.758,4.757-4.758h99.045
		c2.616,0,4.757,2.141,4.757,4.758l0,0C164.308,143.178,162.167,145.317,159.551,145.317z"/>
	
		<ellipse transform="matrix(0.8836 -0.4682 0.4682 0.8836 -68.8693 231.8274)" fill="#FFD15C" stroke="#1D1E1C" stroke-width="5" stroke-miterlimit="10" cx="431.89" cy="254.445" rx="23.619" ry="34.279"/>
	<circle fill="#1D1E1C" cx="421.808" cy="235.207" r="4.884"/>
	<path fill="#FFD15C" stroke="#1D1E1C" stroke-width="5" stroke-miterlimit="10" d="M49.212,185.121"/>
	<line fill="none" stroke="#1D1E1C" stroke-width="5" stroke-miterlimit="10" x1="2.667" y1="2.5" x2="15.464" y2="19.707"/>
	<path fill="#FFD15C" stroke="#1D1E1C" stroke-width="5" stroke-miterlimit="10" d="M288.331,215.66
		c0,0-17.021-24.582,10.619-26.886s55.279,13.423,53.634-3.653c-1.645-17.076,26.324-28.264,41.131-21.354s3.29,20.4,3.29,20.4
		s-18.426,5.594-7.567,26.981c0,0,12.931,10.845,22.061,12.86c1.592,0.352,3.068,0.435,4.341,0.145l-10.279,12.338
		c0,0-29.61-15.002-29.474-24.82s-5.728-17.184,4.228-24.002c9.956-6.818,8.456-16.229,8.456-16.229s-17.457-9.137-27.821,13.365
		c0,0,4.638,16.229-11.455,18.547s-45.276-9.949-50.187-2.247c0,0-8.331,1.194-8.12,17.948"/>
	<polyline fill="#FFD15C" stroke="#1D1E1C" stroke-width="5" stroke-miterlimit="10" points="12.271,191.906 12.271,217.443 
		89.697,318.988 358.188,318.988 358.188,297.537 	"/>
	<polygon fill="#FFD15C" stroke="#1D1E1C" stroke-width="5" stroke-miterlimit="10" points="15.297,194.547 94.49,295.266 
		355.261,295.266 270.58,194.547 	"/>
	<path fill="#1D1E1C" d="M262.568,284.223H158.734c-3.694,0-6.717-3.021-6.717-6.716l0,0c0-3.694,3.022-6.716,6.717-6.716h103.834
		c3.693,0,6.717,3.021,6.717,6.716l0,0C269.285,281.201,266.262,284.223,262.568,284.223z"/>
	<path fill="#1D1E1C" d="M48.439,220.99L48.439,220.99c-3.266,0-5.939-2.673-5.939-5.939l0,0c0-3.266,2.673-5.938,5.938-5.938h0
		c3.266,0,5.938,2.672,5.938,5.938l0,0C54.377,218.317,51.705,220.99,48.439,220.99z"/>
	<path fill="#1D1E1C" d="M64.32,220.99L64.32,220.99c-3.266,0-5.938-2.673-5.938-5.939l0,0c0-3.266,2.673-5.938,5.939-5.938h0
		c3.267,0,5.938,2.672,5.938,5.938l0,0C70.259,218.317,67.587,220.99,64.32,220.99z"/>
	<path fill="#1D1E1C" d="M79.602,220.99L79.602,220.99c-3.266,0-5.938-2.673-5.938-5.939l0,0c0-3.266,2.672-5.938,5.938-5.938l0,0
		c3.267,0,5.938,2.672,5.938,5.938l0,0C85.54,218.317,82.868,220.99,79.602,220.99z"/>
	<path fill="#1D1E1C" d="M95.483,220.99L95.483,220.99c-3.266,0-5.938-2.673-5.938-5.939l0,0c0-3.266,2.672-5.938,5.938-5.938l0,0
		c3.267,0,5.938,2.672,5.938,5.938l0,0C101.422,218.317,98.75,220.99,95.483,220.99z"/>
	<path fill="#1D1E1C" d="M111.074,220.99L111.074,220.99c-3.266,0-5.938-2.673-5.938-5.939l0,0c0-3.266,2.672-5.938,5.938-5.938l0,0
		c3.267,0,5.938,2.672,5.938,5.938l0,0C117.013,218.317,114.341,220.99,111.074,220.99z"/>
	<path fill="#1D1E1C" d="M126.956,220.99L126.956,220.99c-3.266,0-5.938-2.673-5.938-5.939l0,0c0-3.266,2.672-5.938,5.938-5.938l0,0
		c3.266,0,5.938,2.672,5.938,5.938l0,0C132.895,218.317,130.222,220.99,126.956,220.99z"/>
	<path fill="#1D1E1C" d="M142.238,220.99L142.238,220.99c-3.266,0-5.938-2.673-5.938-5.939l0,0c0-3.266,2.672-5.938,5.938-5.938l0,0
		c3.266,0,5.938,2.672,5.938,5.938l0,0C148.176,218.317,145.504,220.99,142.238,220.99z"/>
	<path fill="#1D1E1C" d="M158.119,220.99L158.119,220.99c-3.266,0-5.938-2.673-5.938-5.939l0,0c0-3.266,2.673-5.938,5.938-5.938l0,0
		c3.266,0,5.938,2.672,5.938,5.938l0,0C164.058,218.317,161.385,220.99,158.119,220.99z"/>
	<path fill="#1D1E1C" d="M173.302,220.99L173.302,220.99c-3.266,0-5.938-2.673-5.938-5.939l0,0c0-3.266,2.672-5.938,5.938-5.938l0,0
		c3.266,0,5.938,2.672,5.938,5.938l0,0C179.24,218.317,176.568,220.99,173.302,220.99z"/>
	<path fill="#1D1E1C" d="M189.184,220.99L189.184,220.99c-3.266,0-5.938-2.673-5.938-5.939l0,0c0-3.266,2.673-5.938,5.938-5.938l0,0
		c3.266,0,5.938,2.672,5.938,5.938l0,0C195.122,218.317,192.45,220.99,189.184,220.99z"/>
	<path fill="#1D1E1C" d="M204.465,220.99L204.465,220.99c-3.266,0-5.938-2.673-5.938-5.939l0,0c0-3.266,2.673-5.938,5.938-5.938l0,0
		c3.266,0,5.938,2.672,5.938,5.938l0,0C210.403,218.317,207.731,220.99,204.465,220.99z"/>
	<path fill="#1D1E1C" d="M220.347,220.99L220.347,220.99c-3.266,0-5.938-2.673-5.938-5.939l0,0c0-3.266,2.673-5.938,5.938-5.938l0,0
		c3.267,0,5.938,2.672,5.938,5.938l0,0C226.285,218.317,223.613,220.99,220.347,220.99z"/>
	<path fill="#1D1E1C" d="M236.224,220.99L236.224,220.99c-3.267,0-5.938-2.673-5.938-5.939l0,0c0-3.266,2.672-5.938,5.938-5.938l0,0
		c3.266,0,5.938,2.672,5.938,5.938l0,0C242.161,218.317,239.489,220.99,236.224,220.99z"/>
	<path fill="#1D1E1C" d="M116.119,284.223L116.119,284.223c-3.267,0-5.938-2.672-5.938-5.938v-1.557
		c0-3.266,2.672-5.938,5.938-5.938l0,0c3.266,0,5.938,2.672,5.938,5.938v1.557C122.057,281.551,119.385,284.223,116.119,284.223z"/>
	<path fill="#1D1E1C" d="M100.805,284.223L100.805,284.223c-3.266,0-5.938-2.672-5.938-5.938v-1.557
		c0-3.266,2.672-5.938,5.938-5.938l0,0c3.267,0,5.938,2.672,5.938,5.938v1.557C106.743,281.551,104.071,284.223,100.805,284.223z"/>
	<path fill="#1D1E1C" d="M130.942,284.223L130.942,284.223c-3.266,0-5.938-2.672-5.938-5.938v-1.557
		c0-3.266,2.672-5.938,5.938-5.938l0,0c3.266,0,5.938,2.672,5.938,5.938v1.557C136.88,281.551,134.208,284.223,130.942,284.223z"/>
	<path fill="#1D1E1C" d="M145.065,284.223L145.065,284.223c-3.266,0-5.938-2.672-5.938-5.938v-1.557
		c0-3.266,2.672-5.938,5.938-5.938l0,0c3.266,0,5.938,2.672,5.938,5.938v1.557C151.003,281.551,148.331,284.223,145.065,284.223z"/>
	<path fill="#1D1E1C" d="M95.198,267.877h-4.815c-3.266,0-5.938-2.672-5.938-5.938v-1.557c0-3.266,2.672-5.938,5.938-5.938h4.815
		c3.266,0,5.938,2.672,5.938,5.938v1.557C101.136,265.205,98.464,267.877,95.198,267.877z"/>
	<path fill="#1D1E1C" d="M88.887,251.555h-14.82c-3.267,0-5.938-2.672-5.938-5.938v-1.557c0-3.266,2.672-5.938,5.938-5.938h14.82
		c3.266,0,5.938,2.672,5.938,5.938v1.557C94.825,248.883,92.153,251.555,88.887,251.555z"/>
	<path fill="#1D1E1C" d="M71.664,236.039H60.207c-3.267,0-5.938-2.672-5.938-5.938v-1.556c0-3.266,2.672-5.938,5.938-5.938h11.457
		c3.266,0,5.938,2.672,5.938,5.938v1.556C77.602,233.367,74.93,236.039,71.664,236.039z"/>
	<path fill="#1D1E1C" d="M266.347,221.051h-13.872c-3.266,0-5.938-2.672-5.938-5.938l0,0c0-3.266,2.672-5.939,5.938-5.939h13.872
		c3.266,0,5.938,2.674,5.938,5.939l0,0C272.285,218.379,269.612,221.051,266.347,221.051z"/>
	<path fill="#1D1E1C" d="M303.219,267.877h-26.444c-3.267,0-5.938-2.672-5.938-5.938v-1.557c0-3.266,2.672-5.938,5.938-5.938h26.444
		c3.266,0,5.938,2.672,5.938,5.938v1.557C309.157,265.205,306.484,267.877,303.219,267.877z"/>
	<path fill="#1D1E1C" d="M278.062,236.98h-10.621c-3.266,0-5.938-2.672-5.938-5.938v-1.096c0-3.266,2.672-5.938,5.938-5.938h10.621
		c3.266,0,5.938,2.673,5.938,5.938v1.096C284,234.309,281.328,236.98,278.062,236.98z"/>
	<path fill="#1D1E1C" d="M111.789,267.877L111.789,267.877c-3.266,0-5.938-2.672-5.938-5.938v-1.557
		c0-3.266,2.672-5.938,5.938-5.938l0,0c3.267,0,5.938,2.672,5.938,5.938v1.557C117.728,265.205,115.056,267.877,111.789,267.877z"/>
	<path fill="#1D1E1C" d="M86.54,236.039L86.54,236.039c-3.266,0-5.938-2.672-5.938-5.938v-1.556c0-3.266,2.673-5.938,5.938-5.938
		l0,0c3.266,0,5.938,2.672,5.938,5.938v1.556C92.479,233.367,89.806,236.039,86.54,236.039z"/>
	<path fill="#1D1E1C" d="M101.422,236.039L101.422,236.039c-3.266,0-5.938-2.672-5.938-5.938v-1.556
		c0-3.266,2.672-5.938,5.938-5.938l0,0c3.266,0,5.938,2.672,5.938,5.938v1.556C107.36,233.367,104.688,236.039,101.422,236.039z"/>
	<path fill="#1D1E1C" d="M117.116,236.039L117.116,236.039c-3.266,0-5.938-2.672-5.938-5.938v-1.556
		c0-3.266,2.672-5.938,5.938-5.938l0,0c3.266,0,5.938,2.672,5.938,5.938v1.556C123.054,233.367,120.382,236.039,117.116,236.039z"/>
	<path fill="#1D1E1C" d="M132.998,236.039L132.998,236.039c-3.267,0-5.938-2.672-5.938-5.938v-1.556
		c0-3.266,2.672-5.938,5.938-5.938l0,0c3.266,0,5.938,2.672,5.938,5.938v1.556C138.936,233.367,136.264,236.039,132.998,236.039z"/>
	<path fill="#1D1E1C" d="M148.062,236.039L148.062,236.039c-3.267,0-5.938-2.672-5.938-5.938v-1.556
		c0-3.266,2.672-5.938,5.938-5.938l0,0c3.266,0,5.938,2.672,5.938,5.938v1.556C154,233.367,151.328,236.039,148.062,236.039z"/>
	<path fill="#1D1E1C" d="M163.944,236.039L163.944,236.039c-3.266,0-5.938-2.672-5.938-5.938v-1.556
		c0-3.266,2.672-5.938,5.938-5.938l0,0c3.266,0,5.938,2.672,5.938,5.938v1.556C169.882,233.367,167.21,236.039,163.944,236.039z"/>
	<path fill="#1D1E1C" d="M179.305,236.039L179.305,236.039c-3.266,0-5.938-2.672-5.938-5.938v-1.556
		c0-3.266,2.673-5.938,5.938-5.938l0,0c3.266,0,5.938,2.672,5.938,5.938v1.556C185.243,233.367,182.57,236.039,179.305,236.039z"/>
	<path fill="#1D1E1C" d="M193.187,236.039L193.187,236.039c-3.267,0-5.938-2.672-5.938-5.938v-1.556
		c0-3.266,2.672-5.938,5.938-5.938l0,0c3.266,0,5.938,2.672,5.938,5.938v1.556C199.125,233.367,196.452,236.039,193.187,236.039z"/>
	<path fill="#1D1E1C" d="M206.71,236.039L206.71,236.039c-3.266,0-5.938-2.672-5.938-5.938v-1.556c0-3.266,2.672-5.938,5.938-5.938
		l0,0c3.266,0,5.938,2.672,5.938,5.938v1.556C212.648,233.367,209.976,236.039,206.71,236.039z"/>
	<path fill="#1D1E1C" d="M220.592,236.039L220.592,236.039c-3.266,0-5.938-2.672-5.938-5.938v-1.556
		c0-3.266,2.672-5.938,5.938-5.938l0,0c3.267,0,5.938,2.672,5.938,5.938v1.556C226.53,233.367,223.858,236.039,220.592,236.039z"/>
	<path fill="#1D1E1C" d="M234.697,236.039L234.697,236.039c-3.267,0-5.938-2.672-5.938-5.938v-1.556
		c0-3.266,2.672-5.938,5.938-5.938l0,0c3.266,0,5.938,2.672,5.938,5.938v1.556C240.635,233.367,237.963,236.039,234.697,236.039z"/>
	<path fill="#1D1E1C" d="M248.579,236.039L248.579,236.039c-3.267,0-5.938-2.672-5.938-5.938v-1.556
		c0-3.266,2.672-5.938,5.938-5.938l0,0c3.266,0,5.938,2.672,5.938,5.938v1.556C254.517,233.367,251.845,236.039,248.579,236.039z"/>
	<path fill="#1D1E1C" d="M104.275,251.555L104.275,251.555c-3.266,0-5.938-2.672-5.938-5.938v-1.557
		c0-3.266,2.672-5.938,5.938-5.938l0,0c3.266,0,5.938,2.672,5.938,5.938v1.557C110.213,248.883,107.541,251.555,104.275,251.555z"/>
	<path fill="#1D1E1C" d="M118.157,251.555L118.157,251.555c-3.267,0-5.938-2.672-5.938-5.938v-1.557
		c0-3.266,2.672-5.938,5.938-5.938l0,0c3.266,0,5.938,2.672,5.938,5.938v1.557C124.096,248.883,121.423,251.555,118.157,251.555z"/>
	<path fill="#1D1E1C" d="M132.852,251.555L132.852,251.555c-3.267,0-5.938-2.672-5.938-5.938v-1.557
		c0-3.266,2.672-5.938,5.938-5.938h0c3.266,0,5.938,2.672,5.938,5.938v1.557C138.789,248.883,136.117,251.555,132.852,251.555z"/>
	<path fill="#1D1E1C" d="M146.733,251.555L146.733,251.555c-3.266,0-5.938-2.672-5.938-5.938v-1.557
		c0-3.266,2.672-5.938,5.938-5.938l0,0c3.266,0,5.938,2.672,5.938,5.938v1.557C152.671,248.883,149.999,251.555,146.733,251.555z"/>
	<path fill="#1D1E1C" d="M161.797,251.555L161.797,251.555c-3.266,0-5.938-2.672-5.938-5.938v-1.557
		c0-3.266,2.672-5.938,5.938-5.938l0,0c3.266,0,5.938,2.672,5.938,5.938v1.557C167.736,248.883,165.063,251.555,161.797,251.555z"/>
	<path fill="#1D1E1C" d="M175.68,251.555L175.68,251.555c-3.267,0-5.938-2.672-5.938-5.938v-1.557c0-3.266,2.672-5.938,5.938-5.938
		l0,0c3.266,0,5.938,2.672,5.938,5.938v1.557C181.617,248.883,178.945,251.555,175.68,251.555z"/>
	<path fill="#1D1E1C" d="M189.04,251.555L189.04,251.555c-3.267,0-5.938-2.672-5.938-5.938v-1.557c0-3.266,2.672-5.938,5.938-5.938
		l0,0c3.266,0,5.938,2.672,5.938,5.938v1.557C194.978,248.883,192.306,251.555,189.04,251.555z"/>
	<path fill="#1D1E1C" d="M202.922,251.555L202.922,251.555c-3.267,0-5.938-2.672-5.938-5.938v-1.557
		c0-3.266,2.672-5.938,5.938-5.938l0,0c3.266,0,5.938,2.672,5.938,5.938v1.557C208.86,248.883,206.188,251.555,202.922,251.555z"/>
	<path fill="#1D1E1C" d="M216.445,251.555L216.445,251.555c-3.266,0-5.938-2.672-5.938-5.938v-1.557
		c0-3.266,2.672-5.938,5.938-5.938l0,0c3.266,0,5.938,2.672,5.938,5.938v1.557C222.384,248.883,219.711,251.555,216.445,251.555z"/>
	<path fill="#1D1E1C" d="M230.327,251.555L230.327,251.555c-3.266,0-5.938-2.672-5.938-5.938v-1.557
		c0-3.266,2.673-5.938,5.938-5.938l0,0c3.266,0,5.938,2.672,5.938,5.938v1.557C236.266,248.883,233.593,251.555,230.327,251.555z"/>
	<path fill="#1D1E1C" d="M244.432,251.555L244.432,251.555c-3.266,0-5.938-2.672-5.938-5.938v-1.557
		c0-3.266,2.672-5.938,5.938-5.938l0,0c3.267,0,5.939,2.672,5.939,5.938v1.557C250.371,248.883,247.698,251.555,244.432,251.555z"/>
	<path fill="#1D1E1C" d="M260.313,251.555L260.313,251.555c-3.266,0-5.938-2.672-5.938-5.938v-1.557
		c0-3.266,2.672-5.938,5.938-5.938l0,0c3.267,0,5.938,2.672,5.938,5.938v1.557C266.252,248.883,263.58,251.555,260.313,251.555z"/>
	<path fill="#1D1E1C" d="M126.613,267.877L126.613,267.877c-3.266,0-5.938-2.672-5.938-5.938v-1.557
		c0-3.266,2.672-5.938,5.938-5.938l0,0c3.266,0,5.938,2.672,5.938,5.938v1.557C132.551,265.205,129.879,267.877,126.613,267.877z"/>
	<path fill="#1D1E1C" d="M140.736,267.877L140.736,267.877c-3.266,0-5.938-2.672-5.938-5.938v-1.557
		c0-3.266,2.672-5.938,5.938-5.938l0,0c3.266,0,5.938,2.672,5.938,5.938v1.557C146.674,265.205,144.002,267.877,140.736,267.877z"/>
	<path fill="#1D1E1C" d="M157.054,267.877L157.054,267.877c-3.266,0-5.938-2.672-5.938-5.938v-1.557
		c0-3.266,2.672-5.938,5.938-5.938l0,0c3.267,0,5.938,2.672,5.938,5.938v1.557C162.992,265.205,160.32,267.877,157.054,267.877z"/>
	<path fill="#1D1E1C" d="M172.41,267.877L172.41,267.877c-3.267,0-5.938-2.672-5.938-5.938v-1.557c0-3.266,2.672-5.938,5.938-5.938
		l0,0c3.266,0,5.938,2.672,5.938,5.938v1.557C178.348,265.205,175.676,267.877,172.41,267.877z"/>
	<path fill="#1D1E1C" d="M187.233,267.877L187.233,267.877c-3.266,0-5.938-2.672-5.938-5.938v-1.557
		c0-3.266,2.672-5.938,5.938-5.938l0,0c3.266,0,5.938,2.672,5.938,5.938v1.557C193.171,265.205,190.499,267.877,187.233,267.877z"/>
	<path fill="#1D1E1C" d="M201.355,267.877L201.355,267.877c-3.266,0-5.938-2.672-5.938-5.938v-1.557
		c0-3.266,2.673-5.938,5.938-5.938l0,0c3.267,0,5.938,2.672,5.938,5.938v1.557C207.294,265.205,204.622,267.877,201.355,267.877z"/>
	<path fill="#1D1E1C" d="M217.285,267.877L217.285,267.877c-3.266,0-5.938-2.672-5.938-5.938v-1.557
		c0-3.266,2.672-5.938,5.938-5.938l0,0c3.266,0,5.938,2.672,5.938,5.938v1.557C223.224,265.205,220.551,267.877,217.285,267.877z"/>
	<path fill="#1D1E1C" d="M232.641,267.877L232.641,267.877c-3.266,0-5.938-2.672-5.938-5.938v-1.557
		c0-3.266,2.672-5.938,5.938-5.938l0,0c3.266,0,5.938,2.672,5.938,5.938v1.557C238.579,265.205,235.906,267.877,232.641,267.877z"/>
	<path fill="#1D1E1C" d="M247.464,267.877L247.464,267.877c-3.267,0-5.938-2.672-5.938-5.938v-1.557
		c0-3.266,2.672-5.938,5.938-5.938l0,0c3.266,0,5.938,2.672,5.938,5.938v1.557C253.402,265.205,250.729,267.877,247.464,267.877z"/>
	<path fill="#1D1E1C" d="M261.587,267.877L261.587,267.877c-3.267,0-5.938-2.672-5.938-5.938v-1.557
		c0-3.266,2.672-5.938,5.938-5.938l0,0c3.266,0,5.938,2.672,5.938,5.938v1.557C267.525,265.205,264.853,267.877,261.587,267.877z"/>
	<path fill="#1D1E1C" d="M289.855,249.183L289.855,249.183c-3.254,1.679-7.359,0.519-9.123-2.577l-7.491-13.146
		c-1.765-3.095-0.546-7.002,2.708-8.68l0,0c3.254-1.68,7.359-0.52,9.123,2.576l7.492,13.146
		C294.328,243.598,293.109,247.504,289.855,249.183z"/>
	<path fill="#1D1E1C" d="M276.502,284.223L276.502,284.223c-3.266,0-5.938-2.672-5.938-5.938v-1.557
		c0-3.266,2.672-5.938,5.938-5.938l0,0c3.267,0,5.939,2.672,5.939,5.938v1.557C282.441,281.551,279.769,284.223,276.502,284.223z"/>
	<path fill="#1D1E1C" d="M290.625,284.223L290.625,284.223c-3.266,0-5.938-2.672-5.938-5.938v-1.557
		c0-3.266,2.672-5.938,5.938-5.938l0,0c3.267,0,5.938,2.672,5.938,5.938v1.557C296.563,281.551,293.892,284.223,290.625,284.223z"/>
	<path fill="#1D1E1C" d="M41.619,206.665h-7.849c-1.528,0-2.779-1.251-2.779-2.778l0,0c0-1.529,1.251-2.78,2.779-2.78h7.849
		c1.528,0,2.779,1.251,2.779,2.78l0,0C44.398,205.414,43.147,206.665,41.619,206.665z"/>
	<path fill="#1D1E1C" d="M58.568,206.665h-7.849c-1.529,0-2.779-1.251-2.779-2.778l0,0c0-1.529,1.25-2.78,2.779-2.78h7.849
		c1.528,0,2.779,1.251,2.779,2.78l0,0C61.348,205.414,60.097,206.665,58.568,206.665z"/>
	<path fill="#1D1E1C" d="M75.126,206.665h-7.848c-1.529,0-2.78-1.251-2.78-2.778l0,0c0-1.529,1.251-2.78,2.78-2.78h7.848
		c1.529,0,2.78,1.251,2.78,2.78l0,0C77.906,205.414,76.655,206.665,75.126,206.665z"/>
	<path fill="#1D1E1C" d="M92.075,206.665h-7.849c-1.529,0-2.779-1.251-2.779-2.778l0,0c0-1.529,1.25-2.78,2.779-2.78h7.849
		c1.528,0,2.779,1.251,2.779,2.78l0,0C94.854,205.414,93.604,206.665,92.075,206.665z"/>
	<path fill="#1D1E1C" d="M108.177,206.665h-7.849c-1.529,0-2.779-1.251-2.779-2.778l0,0c0-1.529,1.25-2.78,2.779-2.78h7.849
		c1.528,0,2.779,1.251,2.779,2.78l0,0C110.956,205.414,109.705,206.665,108.177,206.665z"/>
	<path fill="#1D1E1C" d="M125.125,206.665h-7.849c-1.528,0-2.779-1.251-2.779-2.778l0,0c0-1.529,1.251-2.78,2.779-2.78h7.849
		c1.529,0,2.779,1.251,2.779,2.78l0,0C127.904,205.414,126.654,206.665,125.125,206.665z"/>
	<path fill="#1D1E1C" d="M141.684,206.665h-7.849c-1.529,0-2.779-1.251-2.779-2.778l0,0c0-1.529,1.25-2.78,2.779-2.78h7.849
		c1.528,0,2.779,1.251,2.779,2.78l0,0C144.463,205.414,143.212,206.665,141.684,206.665z"/>
	<path fill="#1D1E1C" d="M158.632,206.665h-7.848c-1.529,0-2.78-1.251-2.78-2.778l0,0c0-1.529,1.251-2.78,2.78-2.78h7.848
		c1.529,0,2.779,1.251,2.779,2.78l0,0C161.411,205.414,160.161,206.665,158.632,206.665z"/>
	<path fill="#1D1E1C" d="M173.954,206.665h-7.849c-1.529,0-2.779-1.251-2.779-2.778l0,0c0-1.529,1.25-2.78,2.779-2.78h7.849
		c1.529,0,2.779,1.251,2.779,2.78l0,0C176.733,205.414,175.483,206.665,173.954,206.665z"/>
	<path fill="#1D1E1C" d="M190.902,206.665h-7.848c-1.529,0-2.78-1.251-2.78-2.778l0,0c0-1.529,1.251-2.78,2.78-2.78h7.848
		c1.529,0,2.779,1.251,2.779,2.78l0,0C193.682,205.414,192.432,206.665,190.902,206.665z"/>
	<path fill="#1D1E1C" d="M207.461,206.665h-7.849c-1.528,0-2.779-1.251-2.779-2.778l0,0c0-1.529,1.251-2.78,2.779-2.78h7.849
		c1.528,0,2.779,1.251,2.779,2.78l0,0C210.24,205.414,208.989,206.665,207.461,206.665z"/>
	<path fill="#1D1E1C" d="M224.41,206.665h-7.849c-1.529,0-2.779-1.251-2.779-2.778l0,0c0-1.529,1.25-2.78,2.779-2.78h7.849
		c1.528,0,2.779,1.251,2.779,2.78l0,0C227.189,205.414,225.938,206.665,224.41,206.665z"/>
	<path fill="#1D1E1C" d="M241.858,206.665h-7.849c-1.528,0-2.779-1.251-2.779-2.778l0,0c0-1.529,1.251-2.78,2.779-2.78h7.849
		c1.529,0,2.779,1.251,2.779,2.78l0,0C244.638,205.414,243.388,206.665,241.858,206.665z"/>
	<path fill="#1D1E1C" d="M258.808,206.665h-7.849c-1.529,0-2.779-1.251-2.779-2.778l0,0c0-1.529,1.25-2.78,2.779-2.78h7.849
		c1.528,0,2.779,1.251,2.779,2.78l0,0C261.587,205.414,260.336,206.665,258.808,206.665z"/>
	<path fill="#1D1E1C" d="M306.844,282.971h-1.806c-1.528,0-2.779-1.25-2.779-2.779l0,0c0-1.527,1.251-2.778,2.779-2.778h1.806
		c1.528,0,2.779,1.251,2.779,2.778l0,0C309.623,281.721,308.372,282.971,306.844,282.971z"/>
	<path fill="#1D1E1C" d="M316.427,282.971h-1.805c-1.529,0-2.779-1.25-2.779-2.779l0,0c0-1.527,1.25-2.778,2.779-2.778h1.805
		c1.528,0,2.779,1.251,2.779,2.778l0,0C319.206,281.721,317.955,282.971,316.427,282.971z"/>
	<path fill="#1D1E1C" d="M313.745,276.35h-1.806c-1.528,0-2.778-1.251-2.778-2.779l0,0c0-1.529,1.25-2.779,2.778-2.779h1.806
		c1.528,0,2.779,1.25,2.779,2.779l0,0C316.524,275.099,315.273,276.35,313.745,276.35z"/>
	<path fill="#1D1E1C" d="M325.735,282.971h-1.806c-1.527,0-2.779-1.25-2.779-2.779l0,0c0-1.527,1.252-2.778,2.779-2.778h1.806
		c1.528,0,2.779,1.251,2.779,2.778l0,0C328.515,281.721,327.264,282.971,325.735,282.971z"/>
	<polyline fill="#FFD15C" stroke="#1D1E1C" stroke-width="5" stroke-miterlimit="10" points="12.036,191.906 12.036,217.443 
		89.463,318.988 357.953,318.988 357.953,297.537 	"/>
	<polygon fill="#FFD15C" stroke="#1D1E1C" stroke-width="5" stroke-miterlimit="10" points="15.063,194.547 94.257,295.266 
		355.026,295.266 270.346,194.547 	"/>
	<path fill="#1D1E1C" d="M262.334,284.223H158.5c-3.694,0-6.716-3.021-6.716-6.716l0,0c0-3.694,3.022-6.716,6.716-6.716h103.834
		c3.694,0,6.717,3.021,6.717,6.716l0,0C269.051,281.201,266.028,284.223,262.334,284.223z"/>
	<path fill="#1D1E1C" d="M48.205,220.99L48.205,220.99c-3.266,0-5.938-2.673-5.938-5.939l0,0c0-3.266,2.672-5.938,5.938-5.938l0,0
		c3.266,0,5.938,2.672,5.938,5.938l0,0C54.143,218.317,51.471,220.99,48.205,220.99z"/>
	<path fill="#1D1E1C" d="M64.087,220.99L64.087,220.99c-3.267,0-5.938-2.673-5.938-5.939l0,0c0-3.266,2.672-5.938,5.938-5.938l0,0
		c3.266,0,5.938,2.672,5.938,5.938l0,0C70.024,218.317,67.353,220.99,64.087,220.99z"/>
	<path fill="#1D1E1C" d="M79.368,220.99L79.368,220.99c-3.266,0-5.938-2.673-5.938-5.939l0,0c0-3.266,2.672-5.938,5.938-5.938l0,0
		c3.266,0,5.938,2.672,5.938,5.938l0,0C85.306,218.317,82.634,220.99,79.368,220.99z"/>
	<path fill="#1D1E1C" d="M95.25,220.99L95.25,220.99c-3.267,0-5.938-2.673-5.938-5.939l0,0c0-3.266,2.672-5.938,5.938-5.938l0,0
		c3.266,0,5.938,2.672,5.938,5.938l0,0C101.188,218.317,98.516,220.99,95.25,220.99z"/>
	<path fill="#1D1E1C" d="M110.84,220.99L110.84,220.99c-3.266,0-5.938-2.673-5.938-5.939l0,0c0-3.266,2.672-5.938,5.938-5.938l0,0
		c3.267,0,5.939,2.672,5.939,5.938l0,0C116.779,218.317,114.106,220.99,110.84,220.99z"/>
	<path fill="#1D1E1C" d="M126.722,220.99L126.722,220.99c-3.266,0-5.938-2.673-5.938-5.939l0,0c0-3.266,2.672-5.938,5.938-5.938l0,0
		c3.266,0,5.938,2.672,5.938,5.938l0,0C132.66,218.317,129.988,220.99,126.722,220.99z"/>
	<path fill="#1D1E1C" d="M142.003,220.99L142.003,220.99c-3.266,0-5.938-2.673-5.938-5.939l0,0c0-3.266,2.672-5.938,5.938-5.938l0,0
		c3.266,0,5.938,2.672,5.938,5.938l0,0C147.941,218.317,145.27,220.99,142.003,220.99z"/>
	<path fill="#1D1E1C" d="M157.885,220.99L157.885,220.99c-3.266,0-5.938-2.673-5.938-5.939l0,0c0-3.266,2.672-5.938,5.938-5.938l0,0
		c3.266,0,5.938,2.672,5.938,5.938l0,0C163.823,218.317,161.151,220.99,157.885,220.99z"/>
	<path fill="#1D1E1C" d="M173.068,220.99L173.068,220.99c-3.266,0-5.938-2.673-5.938-5.939l0,0c0-3.266,2.672-5.938,5.938-5.938l0,0
		c3.266,0,5.938,2.672,5.938,5.938l0,0C179.006,218.317,176.334,220.99,173.068,220.99z"/>
	<path fill="#1D1E1C" d="M188.95,220.99L188.95,220.99c-3.266,0-5.938-2.673-5.938-5.939l0,0c0-3.266,2.672-5.938,5.938-5.938l0,0
		c3.266,0,5.938,2.672,5.938,5.938l0,0C194.888,218.317,192.216,220.99,188.95,220.99z"/>
	<path fill="#1D1E1C" d="M204.231,220.99L204.231,220.99c-3.266,0-5.939-2.673-5.939-5.939l0,0c0-3.266,2.673-5.938,5.939-5.938l0,0
		c3.266,0,5.938,2.672,5.938,5.938l0,0C210.169,218.317,207.497,220.99,204.231,220.99z"/>
	<path fill="#1D1E1C" d="M220.112,220.99L220.112,220.99c-3.266,0-5.938-2.673-5.938-5.939l0,0c0-3.266,2.672-5.938,5.938-5.938
		h-0.001c3.267,0,5.938,2.672,5.938,5.938l0,0C226.051,218.317,223.379,220.99,220.112,220.99z"/>
	<path fill="#1D1E1C" d="M235.989,220.99L235.989,220.99c-3.267,0-5.938-2.673-5.938-5.939l0,0c0-3.266,2.672-5.938,5.938-5.938l0,0
		c3.266,0,5.938,2.672,5.938,5.938l0,0C241.928,218.317,239.255,220.99,235.989,220.99z"/>
	<path fill="#1D1E1C" d="M115.885,284.223L115.885,284.223c-3.266,0-5.938-2.672-5.938-5.938v-1.557
		c0-3.266,2.673-5.938,5.938-5.938l0,0c3.266,0,5.938,2.672,5.938,5.938v1.557C121.823,281.551,119.15,284.223,115.885,284.223z"/>
	<path fill="#1D1E1C" d="M100.571,284.223L100.571,284.223c-3.267,0-5.938-2.672-5.938-5.938v-1.557
		c0-3.266,2.672-5.938,5.938-5.938l0,0c3.266,0,5.938,2.672,5.938,5.938v1.557C106.509,281.551,103.837,284.223,100.571,284.223z"/>
	<path fill="#1D1E1C" d="M130.708,284.223L130.708,284.223c-3.267,0-5.938-2.672-5.938-5.938v-1.557
		c0-3.266,2.672-5.938,5.938-5.938l0,0c3.266,0,5.938,2.672,5.938,5.938v1.557C136.646,281.551,133.974,284.223,130.708,284.223z"/>
	<path fill="#1D1E1C" d="M144.831,284.223L144.831,284.223c-3.267,0-5.938-2.672-5.938-5.938v-1.557
		c0-3.266,2.672-5.938,5.938-5.938l0,0c3.266,0,5.938,2.672,5.938,5.938v1.557C150.769,281.551,148.097,284.223,144.831,284.223z"/>
	<path fill="#1D1E1C" d="M94.964,267.877h-4.815c-3.266,0-5.938-2.672-5.938-5.938v-1.557c0-3.266,2.672-5.938,5.938-5.938h4.815
		c3.266,0,5.938,2.672,5.938,5.938v1.557C100.902,265.205,98.229,267.877,94.964,267.877z"/>
	<path fill="#1D1E1C" d="M88.652,251.555h-14.82c-3.266,0-5.938-2.672-5.938-5.938v-1.557c0-3.266,2.672-5.938,5.938-5.938h14.82
		c3.266,0,5.938,2.672,5.938,5.938v1.557C94.591,248.883,91.918,251.555,88.652,251.555z"/>
	<path fill="#1D1E1C" d="M71.43,236.039H59.973c-3.267,0-5.938-2.672-5.938-5.938v-1.556c0-3.266,2.672-5.938,5.938-5.938H71.43
		c3.266,0,5.938,2.672,5.938,5.938v1.556C77.368,233.367,74.696,236.039,71.43,236.039z"/>
	<path fill="#1D1E1C" d="M266.112,221.051h-13.871c-3.267,0-5.938-2.672-5.938-5.938l0,0c0-3.266,2.672-5.939,5.938-5.939h13.871
		c3.266,0,5.938,2.674,5.938,5.939l0,0C272.051,218.379,269.378,221.051,266.112,221.051z"/>
	<path fill="#1D1E1C" d="M302.984,267.877H276.54c-3.267,0-5.938-2.672-5.938-5.938v-1.557c0-3.266,2.672-5.938,5.938-5.938h26.444
		c3.267,0,5.939,2.672,5.939,5.938v1.557C308.924,265.205,306.251,267.877,302.984,267.877z"/>
	<path fill="#1D1E1C" d="M277.828,236.98h-10.62c-3.267,0-5.938-2.672-5.938-5.938v-1.096c0-3.266,2.672-5.938,5.938-5.938h10.62
		c3.266,0,5.938,2.673,5.938,5.938v1.096C283.766,234.309,281.094,236.98,277.828,236.98z"/>
	<path fill="#1D1E1C" d="M111.556,267.877L111.556,267.877c-3.267,0-5.938-2.672-5.938-5.938v-1.557
		c0-3.266,2.672-5.938,5.938-5.938l0,0c3.266,0,5.938,2.672,5.938,5.938v1.557C117.494,265.205,114.821,267.877,111.556,267.877z"/>
	<path fill="#1D1E1C" d="M86.306,236.039L86.306,236.039c-3.266,0-5.938-2.672-5.938-5.938v-1.556c0-3.266,2.672-5.938,5.938-5.938
		l0,0c3.267,0,5.938,2.672,5.938,5.938v1.556C92.244,233.367,89.572,236.039,86.306,236.039z"/>
	<path fill="#1D1E1C" d="M101.188,236.039L101.188,236.039c-3.266,0-5.938-2.672-5.938-5.938v-1.556
		c0-3.266,2.672-5.938,5.938-5.938l0,0c3.267,0,5.938,2.672,5.938,5.938v1.556C107.126,233.367,104.454,236.039,101.188,236.039z"/>
	<path fill="#1D1E1C" d="M116.882,236.039L116.882,236.039c-3.266,0-5.938-2.672-5.938-5.938v-1.556
		c0-3.266,2.672-5.938,5.938-5.938l0,0c3.266,0,5.938,2.672,5.938,5.938v1.556C122.82,233.367,120.147,236.039,116.882,236.039z"/>
	<path fill="#1D1E1C" d="M132.764,236.039L132.764,236.039c-3.266,0-5.938-2.672-5.938-5.938v-1.556
		c0-3.266,2.672-5.938,5.938-5.938l0,0c3.266,0,5.938,2.672,5.938,5.938v1.556C138.702,233.367,136.03,236.039,132.764,236.039z"/>
	<path fill="#1D1E1C" d="M147.828,236.039L147.828,236.039c-3.266,0-5.938-2.672-5.938-5.938v-1.556
		c0-3.266,2.673-5.938,5.938-5.938l0,0c3.266,0,5.938,2.672,5.938,5.938v1.556C153.766,233.367,151.094,236.039,147.828,236.039z"/>
	<path fill="#1D1E1C" d="M163.71,236.039L163.71,236.039c-3.266,0-5.938-2.672-5.938-5.938v-1.556c0-3.266,2.672-5.938,5.938-5.938
		l0,0c3.266,0,5.938,2.672,5.938,5.938v1.556C169.648,233.367,166.976,236.039,163.71,236.039z"/>
	<path fill="#1D1E1C" d="M179.07,236.039L179.07,236.039c-3.266,0-5.938-2.672-5.938-5.938v-1.556c0-3.266,2.673-5.938,5.938-5.938
		l0,0c3.267,0,5.938,2.672,5.938,5.938v1.556C185.009,233.367,182.337,236.039,179.07,236.039z"/>
	<path fill="#1D1E1C" d="M192.952,236.039L192.952,236.039c-3.267,0-5.938-2.672-5.938-5.938v-1.556
		c0-3.266,2.671-5.938,5.938-5.938l0,0c3.266,0,5.938,2.672,5.938,5.938v1.556C198.891,233.367,196.218,236.039,192.952,236.039z"/>
	<path fill="#1D1E1C" d="M206.476,236.039L206.476,236.039c-3.266,0-5.938-2.672-5.938-5.938v-1.556
		c0-3.266,2.672-5.938,5.938-5.938l0,0c3.266,0,5.938,2.672,5.938,5.938v1.556C212.415,233.367,209.742,236.039,206.476,236.039z"/>
	<path fill="#1D1E1C" d="M220.357,236.039L220.357,236.039c-3.266,0-5.938-2.672-5.938-5.938v-1.556
		c0-3.266,2.672-5.938,5.938-5.938l0,0c3.267,0,5.938,2.672,5.938,5.938v1.556C226.296,233.367,223.624,236.039,220.357,236.039z"/>
	<path fill="#1D1E1C" d="M234.463,236.039L234.463,236.039c-3.266,0-5.938-2.672-5.938-5.938v-1.556
		c0-3.266,2.673-5.938,5.938-5.938l0,0c3.266,0,5.938,2.672,5.938,5.938v1.556C240.4,233.367,237.729,236.039,234.463,236.039z"/>
	<path fill="#1D1E1C" d="M248.345,236.039L248.345,236.039c-3.266,0-5.938-2.672-5.938-5.938v-1.556
		c0-3.266,2.673-5.938,5.938-5.938l0,0c3.266,0,5.938,2.672,5.938,5.938v1.556C254.283,233.367,251.61,236.039,248.345,236.039z"/>
	<path fill="#1D1E1C" d="M104.041,251.555L104.041,251.555c-3.266,0-5.938-2.672-5.938-5.938v-1.557
		c0-3.266,2.672-5.938,5.938-5.938l0,0c3.266,0,5.938,2.672,5.938,5.938v1.557C109.979,248.883,107.307,251.555,104.041,251.555z"/>
	<path fill="#1D1E1C" d="M117.923,251.555L117.923,251.555c-3.266,0-5.938-2.672-5.938-5.938v-1.557
		c0-3.266,2.673-5.938,5.938-5.938l0,0c3.266,0,5.938,2.672,5.938,5.938v1.557C123.861,248.883,121.189,251.555,117.923,251.555z"/>
	<path fill="#1D1E1C" d="M132.617,251.555L132.617,251.555c-3.266,0-5.938-2.672-5.938-5.938v-1.557
		c0-3.266,2.672-5.938,5.938-5.938l0,0c3.266,0,5.938,2.672,5.938,5.938v1.557C138.556,248.883,135.883,251.555,132.617,251.555z"/>
	<path fill="#1D1E1C" d="M146.499,251.555L146.499,251.555c-3.266,0-5.938-2.672-5.938-5.938v-1.557
		c0-3.266,2.672-5.938,5.938-5.938l0,0c3.266,0,5.938,2.672,5.938,5.938v1.557C152.437,248.883,149.765,251.555,146.499,251.555z"/>
	<path fill="#1D1E1C" d="M161.563,251.555L161.563,251.555c-3.267,0-5.938-2.672-5.938-5.938v-1.557
		c0-3.266,2.672-5.938,5.938-5.938l0,0c3.266,0,5.938,2.672,5.938,5.938v1.557C167.501,248.883,164.829,251.555,161.563,251.555z"/>
	<path fill="#1D1E1C" d="M175.445,251.555L175.445,251.555c-3.267,0-5.938-2.672-5.938-5.938v-1.557
		c0-3.266,2.672-5.938,5.938-5.938l0,0c3.266,0,5.938,2.672,5.938,5.938v1.557C181.383,248.883,178.711,251.555,175.445,251.555z"/>
	<path fill="#1D1E1C" d="M188.806,251.555L188.806,251.555c-3.266,0-5.938-2.672-5.938-5.938v-1.557
		c0-3.266,2.673-5.938,5.938-5.938l0,0c3.266,0,5.938,2.672,5.938,5.938v1.557C194.744,248.883,192.072,251.555,188.806,251.555z"/>
	<path fill="#1D1E1C" d="M202.688,251.555L202.688,251.555c-3.266,0-5.938-2.672-5.938-5.938v-1.557
		c0-3.266,2.672-5.938,5.938-5.938l0,0c3.266,0,5.938,2.672,5.938,5.938v1.557C208.626,248.883,205.953,251.555,202.688,251.555z"/>
	<path fill="#1D1E1C" d="M216.211,251.555L216.211,251.555c-3.266,0-5.938-2.672-5.938-5.938v-1.557
		c0-3.266,2.672-5.938,5.938-5.938l0,0c3.266,0,5.938,2.672,5.938,5.938v1.557C222.149,248.883,219.478,251.555,216.211,251.555z"/>
	<path fill="#1D1E1C" d="M230.093,251.555L230.093,251.555c-3.266,0-5.938-2.672-5.938-5.938v-1.557
		c0-3.266,2.672-5.938,5.938-5.938l0,0c3.267,0,5.938,2.672,5.938,5.938v1.557C236.031,248.883,233.359,251.555,230.093,251.555z"/>
	<path fill="#1D1E1C" d="M244.197,251.555L244.197,251.555c-3.266,0-5.938-2.672-5.938-5.938v-1.557
		c0-3.266,2.672-5.938,5.938-5.938l0,0c3.267,0,5.939,2.672,5.939,5.938v1.557C250.137,248.883,247.464,251.555,244.197,251.555z"/>
	<path fill="#1D1E1C" d="M260.08,251.555L260.08,251.555c-3.267,0-5.938-2.672-5.938-5.938v-1.557c0-3.266,2.672-5.938,5.938-5.938
		l0,0c3.266,0,5.938,2.672,5.938,5.938v1.557C266.018,248.883,263.346,251.555,260.08,251.555z"/>
	<path fill="#1D1E1C" d="M126.379,267.877L126.379,267.877c-3.266,0-5.938-2.672-5.938-5.938v-1.557
		c0-3.266,2.672-5.938,5.938-5.938l0,0c3.266,0,5.938,2.672,5.938,5.938v1.557C132.316,265.205,129.645,267.877,126.379,267.877z"/>
	<path fill="#1D1E1C" d="M140.501,267.877L140.501,267.877c-3.266,0-5.938-2.672-5.938-5.938v-1.557
		c0-3.266,2.672-5.938,5.938-5.938l0,0c3.266,0,5.938,2.672,5.938,5.938v1.557C146.439,265.205,143.768,267.877,140.501,267.877z"/>
	<path fill="#1D1E1C" d="M156.82,267.877L156.82,267.877c-3.266,0-5.938-2.672-5.938-5.938v-1.557c0-3.266,2.672-5.938,5.938-5.938
		l0,0c3.266,0,5.938,2.672,5.938,5.938v1.557C162.758,265.205,160.086,267.877,156.82,267.877z"/>
	<path fill="#1D1E1C" d="M172.175,267.877L172.175,267.877c-3.266,0-5.938-2.672-5.938-5.938v-1.557
		c0-3.266,2.672-5.938,5.938-5.938l0,0c3.266,0,5.938,2.672,5.938,5.938v1.557C178.114,265.205,175.441,267.877,172.175,267.877z"/>
	<path fill="#1D1E1C" d="M186.999,267.877L186.999,267.877c-3.266,0-5.938-2.672-5.938-5.938v-1.557
		c0-3.266,2.672-5.938,5.938-5.938l0,0c3.266,0,5.938,2.672,5.938,5.938v1.557C192.937,265.205,190.265,267.877,186.999,267.877z"/>
	<path fill="#1D1E1C" d="M201.121,267.877L201.121,267.877c-3.266,0-5.938-2.672-5.938-5.938v-1.557
		c0-3.266,2.672-5.938,5.938-5.938l0,0c3.267,0,5.938,2.672,5.938,5.938v1.557C207.06,265.205,204.388,267.877,201.121,267.877z"/>
	<path fill="#1D1E1C" d="M217.051,267.877L217.051,267.877c-3.266,0-5.938-2.672-5.938-5.938v-1.557
		c0-3.266,2.673-5.938,5.938-5.938l0,0c3.266,0,5.938,2.672,5.938,5.938v1.557C222.989,265.205,220.317,267.877,217.051,267.877z"/>
	<path fill="#1D1E1C" d="M232.406,267.877L232.406,267.877c-3.266,0-5.938-2.672-5.938-5.938v-1.557
		c0-3.266,2.672-5.938,5.938-5.938l0,0c3.266,0,5.938,2.672,5.938,5.938v1.557C238.345,265.205,235.672,267.877,232.406,267.877z"/>
	<path fill="#1D1E1C" d="M247.229,267.877L247.229,267.877c-3.266,0-5.938-2.672-5.938-5.938v-1.557
		c0-3.266,2.673-5.938,5.938-5.938l0,0c3.267,0,5.938,2.672,5.938,5.938v1.557C253.168,265.205,250.496,267.877,247.229,267.877z"/>
	<path fill="#1D1E1C" d="M261.353,267.877L261.353,267.877c-3.266,0-5.938-2.672-5.938-5.938v-1.557
		c0-3.266,2.673-5.938,5.938-5.938l0,0c3.267,0,5.938,2.672,5.938,5.938v1.557C267.291,265.205,264.619,267.877,261.353,267.877z"/>
	<path fill="#1D1E1C" d="M289.622,249.183L289.622,249.183c-3.254,1.679-7.36,0.519-9.124-2.577l-7.491-13.146
		c-1.765-3.095-0.546-7.002,2.708-8.68l0,0c3.254-1.68,7.359-0.52,9.124,2.576l7.491,13.146
		C294.094,243.598,292.875,247.504,289.622,249.183z"/>
	<path fill="#1D1E1C" d="M276.269,284.223L276.269,284.223c-3.267,0-5.938-2.672-5.938-5.938v-1.557
		c0-3.266,2.672-5.938,5.938-5.938l0,0c3.267,0,5.938,2.672,5.938,5.938v1.557C282.207,281.551,279.535,284.223,276.269,284.223z"/>
	<path fill="#1D1E1C" d="M290.392,284.223L290.392,284.223c-3.267,0-5.938-2.672-5.938-5.938v-1.557
		c0-3.266,2.672-5.938,5.938-5.938l0,0c3.266,0,5.938,2.672,5.938,5.938v1.557C296.33,281.551,293.657,284.223,290.392,284.223z"/>
	<path fill="#1D1E1C" d="M41.385,206.665h-7.849c-1.529,0-2.779-1.251-2.779-2.778l0,0c0-1.529,1.25-2.78,2.779-2.78h7.849
		c1.529,0,2.779,1.251,2.779,2.78l0,0C44.165,205.414,42.914,206.665,41.385,206.665z"/>
	<path fill="#1D1E1C" d="M58.334,206.665h-7.849c-1.529,0-2.779-1.251-2.779-2.778l0,0c0-1.529,1.25-2.78,2.779-2.78h7.849
		c1.528,0,2.779,1.251,2.779,2.78l0,0C61.113,205.414,59.862,206.665,58.334,206.665z"/>
	<path fill="#1D1E1C" d="M74.892,206.665h-7.848c-1.529,0-2.779-1.251-2.779-2.778l0,0c0-1.529,1.25-2.78,2.779-2.78h7.848
		c1.529,0,2.78,1.251,2.78,2.78l0,0C77.671,205.414,76.421,206.665,74.892,206.665z"/>
	<path fill="#1D1E1C" d="M91.841,206.665h-7.849c-1.528,0-2.779-1.251-2.779-2.778l0,0c0-1.529,1.251-2.78,2.779-2.78h7.849
		c1.528,0,2.779,1.251,2.779,2.78l0,0C94.62,205.414,93.369,206.665,91.841,206.665z"/>
	<path fill="#1D1E1C" d="M107.942,206.665h-7.849c-1.529,0-2.779-1.251-2.779-2.778l0,0c0-1.529,1.25-2.78,2.779-2.78h7.849
		c1.528,0,2.779,1.251,2.779,2.78l0,0C110.722,205.414,109.471,206.665,107.942,206.665z"/>
	<path fill="#1D1E1C" d="M124.891,206.665h-7.849c-1.528,0-2.779-1.251-2.779-2.778l0,0c0-1.529,1.251-2.78,2.779-2.78h7.849
		c1.529,0,2.78,1.251,2.78,2.78l0,0C127.67,205.414,126.42,206.665,124.891,206.665z"/>
	<path fill="#1D1E1C" d="M141.449,206.665h-7.849c-1.528,0-2.779-1.251-2.779-2.778l0,0c0-1.529,1.251-2.78,2.779-2.78h7.849
		c1.529,0,2.779,1.251,2.779,2.78l0,0C144.229,205.414,142.978,206.665,141.449,206.665z"/>
	<path fill="#1D1E1C" d="M158.398,206.665h-7.849c-1.529,0-2.779-1.251-2.779-2.778l0,0c0-1.529,1.25-2.78,2.779-2.78h7.849
		c1.528,0,2.779,1.251,2.779,2.78l0,0C161.177,205.414,159.927,206.665,158.398,206.665z"/>
	<path fill="#1D1E1C" d="M173.72,206.665h-7.849c-1.528,0-2.779-1.251-2.779-2.778l0,0c0-1.529,1.251-2.78,2.779-2.78h7.849
		c1.528,0,2.779,1.251,2.779,2.78l0,0C176.499,205.414,175.248,206.665,173.72,206.665z"/>
	<path fill="#1D1E1C" d="M190.669,206.665h-7.849c-1.529,0-2.779-1.251-2.779-2.778l0,0c0-1.529,1.25-2.78,2.779-2.78h7.849
		c1.528,0,2.779,1.251,2.779,2.78l0,0C193.448,205.414,192.197,206.665,190.669,206.665z"/>
	<path fill="#1D1E1C" d="M207.227,206.665h-7.849c-1.528,0-2.779-1.251-2.779-2.778l0,0c0-1.529,1.251-2.78,2.779-2.78h7.849
		c1.529,0,2.779,1.251,2.779,2.78l0,0C210.006,205.414,208.755,206.665,207.227,206.665z"/>
	<path fill="#1D1E1C" d="M224.175,206.665h-7.848c-1.529,0-2.779-1.251-2.779-2.778l0,0c0-1.529,1.25-2.78,2.779-2.78h7.848
		c1.529,0,2.779,1.251,2.779,2.78l0,0C226.955,205.414,225.704,206.665,224.175,206.665z"/>
	<path fill="#1D1E1C" d="M241.625,206.665h-7.85c-1.528,0-2.779-1.251-2.779-2.778l0,0c0-1.529,1.25-2.78,2.779-2.78h7.85
		c1.527,0,2.779,1.251,2.779,2.78l0,0C244.404,205.414,243.152,206.665,241.625,206.665z"/>
	<path fill="#1D1E1C" d="M258.573,206.665h-7.849c-1.528,0-2.779-1.251-2.779-2.778l0,0c0-1.529,1.251-2.78,2.779-2.78h7.849
		c1.528,0,2.779,1.251,2.779,2.78l0,0C261.353,205.414,260.102,206.665,258.573,206.665z"/>
	<path fill="#1D1E1C" d="M306.609,282.971h-1.805c-1.529,0-2.779-1.25-2.779-2.779l0,0c0-1.527,1.25-2.778,2.779-2.778h1.805
		c1.528,0,2.779,1.251,2.779,2.778l0,0C309.389,281.721,308.138,282.971,306.609,282.971z"/>
	<path fill="#1D1E1C" d="M316.192,282.971h-1.805c-1.529,0-2.779-1.25-2.779-2.779l0,0c0-1.527,1.25-2.778,2.779-2.778h1.805
		c1.528,0,2.779,1.251,2.779,2.778l0,0C318.972,281.721,317.721,282.971,316.192,282.971z"/>
	<path fill="#1D1E1C" d="M313.511,276.35h-1.805c-1.529,0-2.779-1.251-2.779-2.779l0,0c0-1.529,1.25-2.779,2.779-2.779h1.805
		c1.528,0,2.779,1.25,2.779,2.779l0,0C316.29,275.099,315.039,276.35,313.511,276.35z"/>
	<path fill="#1D1E1C" d="M325.501,282.971h-1.805c-1.529,0-2.779-1.25-2.779-2.779l0,0c0-1.527,1.25-2.778,2.779-2.778h1.805
		c1.528,0,2.779,1.251,2.779,2.778l0,0C328.28,281.721,327.029,282.971,325.501,282.971z"/>
	<polyline fill="#FFD15C" stroke="#1D1E1C" stroke-width="5" stroke-miterlimit="10" points="12.036,191.906 12.036,217.443 
		89.463,318.988 357.953,318.988 357.953,297.537 	"/>
	<polygon fill="#FFD15C" stroke="#1D1E1C" stroke-width="5" stroke-miterlimit="10" points="15.063,194.547 94.257,295.266 
		355.026,295.266 270.346,194.547 	"/>
	<path fill="#1D1E1C" d="M262.334,284.223H158.5c-3.694,0-6.716-3.021-6.716-6.716l0,0c0-3.694,3.022-6.716,6.716-6.716h103.834
		c3.694,0,6.717,3.021,6.717,6.716l0,0C269.051,281.201,266.028,284.223,262.334,284.223z"/>
	<path fill="#1D1E1C" d="M48.205,220.99L48.205,220.99c-3.266,0-5.938-2.673-5.938-5.939l0,0c0-3.266,2.672-5.938,5.938-5.938l0,0
		c3.266,0,5.938,2.672,5.938,5.938l0,0C54.143,218.317,51.471,220.99,48.205,220.99z"/>
	<path fill="#1D1E1C" d="M64.087,220.99L64.087,220.99c-3.267,0-5.938-2.673-5.938-5.939l0,0c0-3.266,2.672-5.938,5.938-5.938l0,0
		c3.266,0,5.938,2.672,5.938,5.938l0,0C70.024,218.317,67.353,220.99,64.087,220.99z"/>
	<path fill="#1D1E1C" d="M79.368,220.99L79.368,220.99c-3.266,0-5.938-2.673-5.938-5.939l0,0c0-3.266,2.672-5.938,5.938-5.938l0,0
		c3.266,0,5.938,2.672,5.938,5.938l0,0C85.306,218.317,82.634,220.99,79.368,220.99z"/>
	<path fill="#1D1E1C" d="M95.25,220.99L95.25,220.99c-3.267,0-5.938-2.673-5.938-5.939l0,0c0-3.266,2.672-5.938,5.938-5.938l0,0
		c3.266,0,5.938,2.672,5.938,5.938l0,0C101.188,218.317,98.516,220.99,95.25,220.99z"/>
	<path fill="#1D1E1C" d="M110.84,220.99L110.84,220.99c-3.266,0-5.938-2.673-5.938-5.939l0,0c0-3.266,2.672-5.938,5.938-5.938l0,0
		c3.267,0,5.939,2.672,5.939,5.938l0,0C116.779,218.317,114.106,220.99,110.84,220.99z"/>
	<path fill="#1D1E1C" d="M126.722,220.99L126.722,220.99c-3.266,0-5.938-2.673-5.938-5.939l0,0c0-3.266,2.672-5.938,5.938-5.938l0,0
		c3.266,0,5.938,2.672,5.938,5.938l0,0C132.66,218.317,129.988,220.99,126.722,220.99z"/>
	<path fill="#1D1E1C" d="M142.003,220.99L142.003,220.99c-3.266,0-5.938-2.673-5.938-5.939l0,0c0-3.266,2.672-5.938,5.938-5.938l0,0
		c3.266,0,5.938,2.672,5.938,5.938l0,0C147.941,218.317,145.27,220.99,142.003,220.99z"/>
	<path fill="#1D1E1C" d="M157.885,220.99L157.885,220.99c-3.266,0-5.938-2.673-5.938-5.939l0,0c0-3.266,2.672-5.938,5.938-5.938l0,0
		c3.266,0,5.938,2.672,5.938,5.938l0,0C163.823,218.317,161.151,220.99,157.885,220.99z"/>
	<path fill="#1D1E1C" d="M173.068,220.99L173.068,220.99c-3.266,0-5.938-2.673-5.938-5.939l0,0c0-3.266,2.672-5.938,5.938-5.938l0,0
		c3.266,0,5.938,2.672,5.938,5.938l0,0C179.006,218.317,176.334,220.99,173.068,220.99z"/>
	<path fill="#1D1E1C" d="M188.95,220.99L188.95,220.99c-3.266,0-5.938-2.673-5.938-5.939l0,0c0-3.266,2.672-5.938,5.938-5.938l0,0
		c3.266,0,5.938,2.672,5.938,5.938l0,0C194.888,218.317,192.216,220.99,188.95,220.99z"/>
	<path fill="#1D1E1C" d="M204.231,220.99L204.231,220.99c-3.266,0-5.939-2.673-5.939-5.939l0,0c0-3.266,2.673-5.938,5.939-5.938l0,0
		c3.266,0,5.938,2.672,5.938,5.938l0,0C210.169,218.317,207.497,220.99,204.231,220.99z"/>
	<path fill="#1D1E1C" d="M220.112,220.99L220.112,220.99c-3.266,0-5.938-2.673-5.938-5.939l0,0c0-3.266,2.672-5.938,5.938-5.938
		h-0.001c3.267,0,5.938,2.672,5.938,5.938l0,0C226.051,218.317,223.379,220.99,220.112,220.99z"/>
	<path fill="#1D1E1C" d="M235.989,220.99L235.989,220.99c-3.267,0-5.938-2.673-5.938-5.939l0,0c0-3.266,2.672-5.938,5.938-5.938l0,0
		c3.266,0,5.938,2.672,5.938,5.938l0,0C241.928,218.317,239.255,220.99,235.989,220.99z"/>
	<path fill="#1D1E1C" d="M115.885,284.223L115.885,284.223c-3.266,0-5.938-2.672-5.938-5.938v-1.557
		c0-3.266,2.673-5.938,5.938-5.938l0,0c3.266,0,5.938,2.672,5.938,5.938v1.557C121.823,281.551,119.15,284.223,115.885,284.223z"/>
	<path fill="#1D1E1C" d="M100.571,284.223L100.571,284.223c-3.267,0-5.938-2.672-5.938-5.938v-1.557
		c0-3.266,2.672-5.938,5.938-5.938l0,0c3.266,0,5.938,2.672,5.938,5.938v1.557C106.509,281.551,103.837,284.223,100.571,284.223z"/>
	<path fill="#1D1E1C" d="M130.708,284.223L130.708,284.223c-3.267,0-5.938-2.672-5.938-5.938v-1.557
		c0-3.266,2.672-5.938,5.938-5.938l0,0c3.266,0,5.938,2.672,5.938,5.938v1.557C136.646,281.551,133.974,284.223,130.708,284.223z"/>
	<path fill="#1D1E1C" d="M144.831,284.223L144.831,284.223c-3.267,0-5.938-2.672-5.938-5.938v-1.557
		c0-3.266,2.672-5.938,5.938-5.938l0,0c3.266,0,5.938,2.672,5.938,5.938v1.557C150.769,281.551,148.097,284.223,144.831,284.223z"/>
	<path fill="#1D1E1C" d="M94.964,267.877h-4.815c-3.266,0-5.938-2.672-5.938-5.938v-1.557c0-3.266,2.672-5.938,5.938-5.938h4.815
		c3.266,0,5.938,2.672,5.938,5.938v1.557C100.902,265.205,98.229,267.877,94.964,267.877z"/>
	<path fill="#1D1E1C" d="M88.652,251.555h-14.82c-3.266,0-5.938-2.672-5.938-5.938v-1.557c0-3.266,2.672-5.938,5.938-5.938h14.82
		c3.266,0,5.938,2.672,5.938,5.938v1.557C94.591,248.883,91.918,251.555,88.652,251.555z"/>
	<path fill="#1D1E1C" d="M71.43,236.039H59.973c-3.267,0-5.938-2.672-5.938-5.938v-1.556c0-3.266,2.672-5.938,5.938-5.938H71.43
		c3.266,0,5.938,2.672,5.938,5.938v1.556C77.368,233.367,74.696,236.039,71.43,236.039z"/>
	<path fill="#1D1E1C" d="M266.112,221.051h-13.871c-3.267,0-5.938-2.672-5.938-5.938l0,0c0-3.266,2.672-5.939,5.938-5.939h13.871
		c3.266,0,5.938,2.674,5.938,5.939l0,0C272.051,218.379,269.378,221.051,266.112,221.051z"/>
	<path fill="#1D1E1C" d="M302.984,267.877H276.54c-3.267,0-5.938-2.672-5.938-5.938v-1.557c0-3.266,2.672-5.938,5.938-5.938h26.444
		c3.267,0,5.939,2.672,5.939,5.938v1.557C308.924,265.205,306.251,267.877,302.984,267.877z"/>
	<path fill="#1D1E1C" d="M277.828,236.98h-10.62c-3.267,0-5.938-2.672-5.938-5.938v-1.096c0-3.266,2.672-5.938,5.938-5.938h10.62
		c3.266,0,5.938,2.673,5.938,5.938v1.096C283.766,234.309,281.094,236.98,277.828,236.98z"/>
	<path fill="#1D1E1C" d="M111.556,267.877L111.556,267.877c-3.267,0-5.938-2.672-5.938-5.938v-1.557
		c0-3.266,2.672-5.938,5.938-5.938l0,0c3.266,0,5.938,2.672,5.938,5.938v1.557C117.494,265.205,114.821,267.877,111.556,267.877z"/>
	<path fill="#1D1E1C" d="M86.306,236.039L86.306,236.039c-3.266,0-5.938-2.672-5.938-5.938v-1.556c0-3.266,2.672-5.938,5.938-5.938
		l0,0c3.267,0,5.938,2.672,5.938,5.938v1.556C92.244,233.367,89.572,236.039,86.306,236.039z"/>
	<path fill="#1D1E1C" d="M101.188,236.039L101.188,236.039c-3.266,0-5.938-2.672-5.938-5.938v-1.556
		c0-3.266,2.672-5.938,5.938-5.938l0,0c3.267,0,5.938,2.672,5.938,5.938v1.556C107.126,233.367,104.454,236.039,101.188,236.039z"/>
	<path fill="#1D1E1C" d="M116.882,236.039L116.882,236.039c-3.266,0-5.938-2.672-5.938-5.938v-1.556
		c0-3.266,2.672-5.938,5.938-5.938l0,0c3.266,0,5.938,2.672,5.938,5.938v1.556C122.82,233.367,120.147,236.039,116.882,236.039z"/>
	<path fill="#1D1E1C" d="M132.764,236.039L132.764,236.039c-3.266,0-5.938-2.672-5.938-5.938v-1.556
		c0-3.266,2.672-5.938,5.938-5.938l0,0c3.266,0,5.938,2.672,5.938,5.938v1.556C138.702,233.367,136.03,236.039,132.764,236.039z"/>
	<path fill="#1D1E1C" d="M147.828,236.039L147.828,236.039c-3.266,0-5.938-2.672-5.938-5.938v-1.556
		c0-3.266,2.673-5.938,5.938-5.938l0,0c3.266,0,5.938,2.672,5.938,5.938v1.556C153.766,233.367,151.094,236.039,147.828,236.039z"/>
	<path fill="#1D1E1C" d="M163.71,236.039L163.71,236.039c-3.266,0-5.938-2.672-5.938-5.938v-1.556c0-3.266,2.672-5.938,5.938-5.938
		l0,0c3.266,0,5.938,2.672,5.938,5.938v1.556C169.648,233.367,166.976,236.039,163.71,236.039z"/>
	<path fill="#1D1E1C" d="M179.07,236.039L179.07,236.039c-3.266,0-5.938-2.672-5.938-5.938v-1.556c0-3.266,2.673-5.938,5.938-5.938
		l0,0c3.267,0,5.938,2.672,5.938,5.938v1.556C185.009,233.367,182.337,236.039,179.07,236.039z"/>
	<path fill="#1D1E1C" d="M192.952,236.039L192.952,236.039c-3.267,0-5.938-2.672-5.938-5.938v-1.556
		c0-3.266,2.671-5.938,5.938-5.938l0,0c3.266,0,5.938,2.672,5.938,5.938v1.556C198.891,233.367,196.218,236.039,192.952,236.039z"/>
	<path fill="#1D1E1C" d="M206.476,236.039L206.476,236.039c-3.266,0-5.938-2.672-5.938-5.938v-1.556
		c0-3.266,2.672-5.938,5.938-5.938l0,0c3.266,0,5.938,2.672,5.938,5.938v1.556C212.415,233.367,209.742,236.039,206.476,236.039z"/>
	<path fill="#1D1E1C" d="M220.357,236.039L220.357,236.039c-3.266,0-5.938-2.672-5.938-5.938v-1.556
		c0-3.266,2.672-5.938,5.938-5.938l0,0c3.267,0,5.938,2.672,5.938,5.938v1.556C226.296,233.367,223.624,236.039,220.357,236.039z"/>
	<path fill="#1D1E1C" d="M234.463,236.039L234.463,236.039c-3.266,0-5.938-2.672-5.938-5.938v-1.556
		c0-3.266,2.673-5.938,5.938-5.938l0,0c3.266,0,5.938,2.672,5.938,5.938v1.556C240.4,233.367,237.729,236.039,234.463,236.039z"/>
	<path fill="#1D1E1C" d="M248.345,236.039L248.345,236.039c-3.266,0-5.938-2.672-5.938-5.938v-1.556
		c0-3.266,2.673-5.938,5.938-5.938l0,0c3.266,0,5.938,2.672,5.938,5.938v1.556C254.283,233.367,251.61,236.039,248.345,236.039z"/>
	<path fill="#1D1E1C" d="M104.041,251.555L104.041,251.555c-3.266,0-5.938-2.672-5.938-5.938v-1.557
		c0-3.266,2.672-5.938,5.938-5.938l0,0c3.266,0,5.938,2.672,5.938,5.938v1.557C109.979,248.883,107.307,251.555,104.041,251.555z"/>
	<path fill="#1D1E1C" d="M117.923,251.555L117.923,251.555c-3.266,0-5.938-2.672-5.938-5.938v-1.557
		c0-3.266,2.673-5.938,5.938-5.938l0,0c3.266,0,5.938,2.672,5.938,5.938v1.557C123.861,248.883,121.189,251.555,117.923,251.555z"/>
	<path fill="#1D1E1C" d="M132.617,251.555L132.617,251.555c-3.266,0-5.938-2.672-5.938-5.938v-1.557
		c0-3.266,2.672-5.938,5.938-5.938l0,0c3.266,0,5.938,2.672,5.938,5.938v1.557C138.556,248.883,135.883,251.555,132.617,251.555z"/>
	<path fill="#1D1E1C" d="M146.499,251.555L146.499,251.555c-3.266,0-5.938-2.672-5.938-5.938v-1.557
		c0-3.266,2.672-5.938,5.938-5.938l0,0c3.266,0,5.938,2.672,5.938,5.938v1.557C152.437,248.883,149.765,251.555,146.499,251.555z"/>
	<path fill="#1D1E1C" d="M161.563,251.555L161.563,251.555c-3.267,0-5.938-2.672-5.938-5.938v-1.557
		c0-3.266,2.672-5.938,5.938-5.938l0,0c3.266,0,5.938,2.672,5.938,5.938v1.557C167.501,248.883,164.829,251.555,161.563,251.555z"/>
	<path fill="#1D1E1C" d="M175.445,251.555L175.445,251.555c-3.267,0-5.938-2.672-5.938-5.938v-1.557
		c0-3.266,2.672-5.938,5.938-5.938l0,0c3.266,0,5.938,2.672,5.938,5.938v1.557C181.383,248.883,178.711,251.555,175.445,251.555z"/>
	<path fill="#1D1E1C" d="M188.806,251.555L188.806,251.555c-3.266,0-5.938-2.672-5.938-5.938v-1.557
		c0-3.266,2.673-5.938,5.938-5.938l0,0c3.266,0,5.938,2.672,5.938,5.938v1.557C194.744,248.883,192.072,251.555,188.806,251.555z"/>
	<path fill="#1D1E1C" d="M202.688,251.555L202.688,251.555c-3.266,0-5.938-2.672-5.938-5.938v-1.557
		c0-3.266,2.672-5.938,5.938-5.938l0,0c3.266,0,5.938,2.672,5.938,5.938v1.557C208.626,248.883,205.953,251.555,202.688,251.555z"/>
	<path fill="#1D1E1C" d="M216.211,251.555L216.211,251.555c-3.266,0-5.938-2.672-5.938-5.938v-1.557
		c0-3.266,2.672-5.938,5.938-5.938l0,0c3.266,0,5.938,2.672,5.938,5.938v1.557C222.149,248.883,219.478,251.555,216.211,251.555z"/>
	<path fill="#1D1E1C" d="M230.093,251.555L230.093,251.555c-3.266,0-5.938-2.672-5.938-5.938v-1.557
		c0-3.266,2.672-5.938,5.938-5.938l0,0c3.267,0,5.938,2.672,5.938,5.938v1.557C236.031,248.883,233.359,251.555,230.093,251.555z"/>
	<path fill="#1D1E1C" d="M244.197,251.555L244.197,251.555c-3.266,0-5.938-2.672-5.938-5.938v-1.557
		c0-3.266,2.672-5.938,5.938-5.938l0,0c3.267,0,5.939,2.672,5.939,5.938v1.557C250.137,248.883,247.464,251.555,244.197,251.555z"/>
	<path fill="#1D1E1C" d="M260.08,251.555L260.08,251.555c-3.267,0-5.938-2.672-5.938-5.938v-1.557c0-3.266,2.672-5.938,5.938-5.938
		l0,0c3.266,0,5.938,2.672,5.938,5.938v1.557C266.018,248.883,263.346,251.555,260.08,251.555z"/>
	<path fill="#1D1E1C" d="M126.379,267.877L126.379,267.877c-3.266,0-5.938-2.672-5.938-5.938v-1.557
		c0-3.266,2.672-5.938,5.938-5.938l0,0c3.266,0,5.938,2.672,5.938,5.938v1.557C132.316,265.205,129.645,267.877,126.379,267.877z"/>
	<path fill="#1D1E1C" d="M140.501,267.877L140.501,267.877c-3.266,0-5.938-2.672-5.938-5.938v-1.557
		c0-3.266,2.672-5.938,5.938-5.938l0,0c3.266,0,5.938,2.672,5.938,5.938v1.557C146.439,265.205,143.768,267.877,140.501,267.877z"/>
	<path fill="#1D1E1C" d="M156.82,267.877L156.82,267.877c-3.266,0-5.938-2.672-5.938-5.938v-1.557c0-3.266,2.672-5.938,5.938-5.938
		l0,0c3.266,0,5.938,2.672,5.938,5.938v1.557C162.758,265.205,160.086,267.877,156.82,267.877z"/>
	<path fill="#1D1E1C" d="M172.175,267.877L172.175,267.877c-3.266,0-5.938-2.672-5.938-5.938v-1.557
		c0-3.266,2.672-5.938,5.938-5.938l0,0c3.266,0,5.938,2.672,5.938,5.938v1.557C178.114,265.205,175.441,267.877,172.175,267.877z"/>
	<path fill="#1D1E1C" d="M186.999,267.877L186.999,267.877c-3.266,0-5.938-2.672-5.938-5.938v-1.557
		c0-3.266,2.672-5.938,5.938-5.938l0,0c3.266,0,5.938,2.672,5.938,5.938v1.557C192.937,265.205,190.265,267.877,186.999,267.877z"/>
	<path fill="#1D1E1C" d="M201.121,267.877L201.121,267.877c-3.266,0-5.938-2.672-5.938-5.938v-1.557
		c0-3.266,2.672-5.938,5.938-5.938l0,0c3.267,0,5.938,2.672,5.938,5.938v1.557C207.06,265.205,204.388,267.877,201.121,267.877z"/>
	<path fill="#1D1E1C" d="M217.051,267.877L217.051,267.877c-3.266,0-5.938-2.672-5.938-5.938v-1.557
		c0-3.266,2.673-5.938,5.938-5.938l0,0c3.266,0,5.938,2.672,5.938,5.938v1.557C222.989,265.205,220.317,267.877,217.051,267.877z"/>
	<path fill="#1D1E1C" d="M232.406,267.877L232.406,267.877c-3.266,0-5.938-2.672-5.938-5.938v-1.557
		c0-3.266,2.672-5.938,5.938-5.938l0,0c3.266,0,5.938,2.672,5.938,5.938v1.557C238.345,265.205,235.672,267.877,232.406,267.877z"/>
	<path fill="#1D1E1C" d="M247.229,267.877L247.229,267.877c-3.266,0-5.938-2.672-5.938-5.938v-1.557
		c0-3.266,2.673-5.938,5.938-5.938l0,0c3.267,0,5.938,2.672,5.938,5.938v1.557C253.168,265.205,250.496,267.877,247.229,267.877z"/>
	<path fill="#1D1E1C" d="M261.353,267.877L261.353,267.877c-3.266,0-5.938-2.672-5.938-5.938v-1.557
		c0-3.266,2.673-5.938,5.938-5.938l0,0c3.267,0,5.938,2.672,5.938,5.938v1.557C267.291,265.205,264.619,267.877,261.353,267.877z"/>
	<path fill="#1D1E1C" d="M289.622,249.183L289.622,249.183c-3.254,1.679-7.36,0.519-9.124-2.577l-7.491-13.146
		c-1.765-3.095-0.546-7.002,2.708-8.68l0,0c3.254-1.68,7.359-0.52,9.124,2.576l7.491,13.146
		C294.094,243.598,292.875,247.504,289.622,249.183z"/>
	<path fill="#1D1E1C" d="M276.269,284.223L276.269,284.223c-3.267,0-5.938-2.672-5.938-5.938v-1.557
		c0-3.266,2.672-5.938,5.938-5.938l0,0c3.267,0,5.938,2.672,5.938,5.938v1.557C282.207,281.551,279.535,284.223,276.269,284.223z"/>
	<path fill="#1D1E1C" d="M290.392,284.223L290.392,284.223c-3.267,0-5.938-2.672-5.938-5.938v-1.557
		c0-3.266,2.672-5.938,5.938-5.938l0,0c3.266,0,5.938,2.672,5.938,5.938v1.557C296.33,281.551,293.657,284.223,290.392,284.223z"/>
	<path fill="#1D1E1C" d="M41.385,206.665h-7.849c-1.529,0-2.779-1.251-2.779-2.778l0,0c0-1.529,1.25-2.78,2.779-2.78h7.849
		c1.529,0,2.779,1.251,2.779,2.78l0,0C44.165,205.414,42.914,206.665,41.385,206.665z"/>
	<path fill="#1D1E1C" d="M58.334,206.665h-7.849c-1.529,0-2.779-1.251-2.779-2.778l0,0c0-1.529,1.25-2.78,2.779-2.78h7.849
		c1.528,0,2.779,1.251,2.779,2.78l0,0C61.113,205.414,59.862,206.665,58.334,206.665z"/>
	<path fill="#1D1E1C" d="M74.892,206.665h-7.848c-1.529,0-2.779-1.251-2.779-2.778l0,0c0-1.529,1.25-2.78,2.779-2.78h7.848
		c1.529,0,2.78,1.251,2.78,2.78l0,0C77.671,205.414,76.421,206.665,74.892,206.665z"/>
	<path fill="#1D1E1C" d="M91.841,206.665h-7.849c-1.528,0-2.779-1.251-2.779-2.778l0,0c0-1.529,1.251-2.78,2.779-2.78h7.849
		c1.528,0,2.779,1.251,2.779,2.78l0,0C94.62,205.414,93.369,206.665,91.841,206.665z"/>
	<path fill="#1D1E1C" d="M107.942,206.665h-7.849c-1.529,0-2.779-1.251-2.779-2.778l0,0c0-1.529,1.25-2.78,2.779-2.78h7.849
		c1.528,0,2.779,1.251,2.779,2.78l0,0C110.722,205.414,109.471,206.665,107.942,206.665z"/>
	<path fill="#1D1E1C" d="M124.891,206.665h-7.849c-1.528,0-2.779-1.251-2.779-2.778l0,0c0-1.529,1.251-2.78,2.779-2.78h7.849
		c1.529,0,2.78,1.251,2.78,2.78l0,0C127.67,205.414,126.42,206.665,124.891,206.665z"/>
	<path fill="#1D1E1C" d="M141.449,206.665h-7.849c-1.528,0-2.779-1.251-2.779-2.778l0,0c0-1.529,1.251-2.78,2.779-2.78h7.849
		c1.529,0,2.779,1.251,2.779,2.78l0,0C144.229,205.414,142.978,206.665,141.449,206.665z"/>
	<path fill="#1D1E1C" d="M158.398,206.665h-7.849c-1.529,0-2.779-1.251-2.779-2.778l0,0c0-1.529,1.25-2.78,2.779-2.78h7.849
		c1.528,0,2.779,1.251,2.779,2.78l0,0C161.177,205.414,159.927,206.665,158.398,206.665z"/>
	<path fill="#1D1E1C" d="M173.72,206.665h-7.849c-1.528,0-2.779-1.251-2.779-2.778l0,0c0-1.529,1.251-2.78,2.779-2.78h7.849
		c1.528,0,2.779,1.251,2.779,2.78l0,0C176.499,205.414,175.248,206.665,173.72,206.665z"/>
	<path fill="#1D1E1C" d="M190.669,206.665h-7.849c-1.529,0-2.779-1.251-2.779-2.778l0,0c0-1.529,1.25-2.78,2.779-2.78h7.849
		c1.528,0,2.779,1.251,2.779,2.78l0,0C193.448,205.414,192.197,206.665,190.669,206.665z"/>
	<path fill="#1D1E1C" d="M207.227,206.665h-7.849c-1.528,0-2.779-1.251-2.779-2.778l0,0c0-1.529,1.251-2.78,2.779-2.78h7.849
		c1.529,0,2.779,1.251,2.779,2.78l0,0C210.006,205.414,208.755,206.665,207.227,206.665z"/>
	<path fill="#1D1E1C" d="M224.175,206.665h-7.848c-1.529,0-2.779-1.251-2.779-2.778l0,0c0-1.529,1.25-2.78,2.779-2.78h7.848
		c1.529,0,2.779,1.251,2.779,2.78l0,0C226.955,205.414,225.704,206.665,224.175,206.665z"/>
	<path fill="#1D1E1C" d="M241.625,206.665h-7.85c-1.528,0-2.779-1.251-2.779-2.778l0,0c0-1.529,1.25-2.78,2.779-2.78h7.85
		c1.527,0,2.779,1.251,2.779,2.78l0,0C244.404,205.414,243.152,206.665,241.625,206.665z"/>
	<path fill="#1D1E1C" d="M258.573,206.665h-7.849c-1.528,0-2.779-1.251-2.779-2.778l0,0c0-1.529,1.251-2.78,2.779-2.78h7.849
		c1.528,0,2.779,1.251,2.779,2.78l0,0C261.353,205.414,260.102,206.665,258.573,206.665z"/>
	<path fill="#1D1E1C" d="M306.609,282.971h-1.805c-1.529,0-2.779-1.25-2.779-2.779l0,0c0-1.527,1.25-2.778,2.779-2.778h1.805
		c1.528,0,2.779,1.251,2.779,2.778l0,0C309.389,281.721,308.138,282.971,306.609,282.971z"/>
	<path fill="#1D1E1C" d="M316.192,282.971h-1.805c-1.529,0-2.779-1.25-2.779-2.779l0,0c0-1.527,1.25-2.778,2.779-2.778h1.805
		c1.528,0,2.779,1.251,2.779,2.778l0,0C318.972,281.721,317.721,282.971,316.192,282.971z"/>
	<path fill="#1D1E1C" d="M313.511,276.35h-1.805c-1.529,0-2.779-1.251-2.779-2.779l0,0c0-1.529,1.25-2.779,2.779-2.779h1.805
		c1.528,0,2.779,1.25,2.779,2.779l0,0C316.29,275.099,315.039,276.35,313.511,276.35z"/>
	<path fill="#1D1E1C" d="M325.501,282.971h-1.805c-1.529,0-2.779-1.25-2.779-2.779l0,0c0-1.527,1.25-2.778,2.779-2.778h1.805
		c1.528,0,2.779,1.251,2.779,2.778l0,0C328.28,281.721,327.029,282.971,325.501,282.971z"/>
	<path fill="#FFFFFF" d="M227.854,51.775H90.826c-2.249,0-4.089-1.84-4.089-4.09l0,0c0-2.248,1.84-4.088,4.089-4.088h137.029
		c2.249,0,4.089,1.84,4.089,4.088l0,0C231.943,49.936,230.104,51.775,227.854,51.775z"/>
	<circle fill="#FFFFFF" cx="75.515" cy="47.686" r="4.089"/>
	<circle fill="#FFFFFF" cx="63.698" cy="47.686" r="4.089"/>
	<circle fill="#FFFFFF" cx="52.368" cy="47.686" r="4.089"/>
</g>
</svg>
