<?xml version="1.0" encoding="utf-8"?>
<!-- Generator: Adobe Illustrator 16.0.0, SVG Export Plug-In . SVG Version: 6.00 Build 0)  -->
<!DOCTYPE svg PUBLIC "-//W3C//DTD SVG 1.1//EN" "http://www.w3.org/Graphics/SVG/1.1/DTD/svg11.dtd">
<svg version="1.1" id="Layer_1" xmlns="http://www.w3.org/2000/svg" xmlns:xlink="http://www.w3.org/1999/xlink" x="0px" y="0px"
	 width="386.031px" height="367.318px" viewBox="0 0 386.031 367.318" enable-background="new 0 0 386.031 367.318"
	 xml:space="preserve">
<g>
	<g>
		<polygon fill="#F6EFD9" points="383.531,33.166 367.325,2.514 13.069,5.686 2.5,33.166 2.5,279.353 383.531,279.353 		"/>
		<path fill="#1D1E1C" d="M386.031,281.853H0V32.702L11.347,3.201L368.824,0l17.207,32.546V281.853z M5,276.853h376.031V33.786
			L365.826,5.027L14.792,8.17L5,33.63V276.853z"/>
	</g>
	<g>
		<rect x="2.5" y="30.666" fill="#1D1E1C" width="381.031" height="5"/>
	</g>
	<g>
		<path fill="#F6EFD9" d="M150.796,295.058c28.638,0,56.767,0,85.028,0c1.062,7.078,1.461,14.227,3.312,20.979
			c2.62,9.547,6.188,18.848,9.666,28.137c0.605,1.617,2.576,3.004,4.24,3.887c3.593,1.912,5.799,5.523,5.18,9.359
			c-0.644,3.99-3.614,6.814-7.74,7.242c-1.491,0.154-3.003,0.15-4.505,0.15c-35.271,0.008-70.542,0.01-105.813-0.004
			c-1.773,0-3.57,0.012-5.316-0.246c-3.845-0.566-6.824-3.986-7.087-7.912c-0.248-3.697,2.271-7.092,5.67-8.67
			c1.911-0.889,4.002-2.352,4.984-4.125c7.553-13.643,10.396-28.629,11.967-43.934C150.533,298.449,150.634,296.97,150.796,295.058z
			"/>
		<path fill="#1D1E1C" d="M195.285,367.318c-18.376,0-36.745-0.003-55.122-0.01h-0.443c-1.854,0-3.527-0.021-5.237-0.272
			c-4.993-0.736-8.869-5.033-9.216-10.219c-0.303-4.525,2.555-8.988,7.112-11.104c1.786-0.831,3.262-2.007,3.849-3.068
			c7.849-14.176,10.302-29.681,11.667-42.978c0.099-0.962,0.176-1.926,0.263-3.017l0.34-4.092h89.479l0.32,2.129
			c0.334,2.226,0.605,4.474,0.867,6.648c0.594,4.914,1.154,9.556,2.384,14.04c2.389,8.704,5.646,17.387,8.795,25.782l0.802,2.139
			c0.215,0.575,1.248,1.589,3.07,2.556c4.704,2.503,7.245,7.2,6.476,11.966c-0.826,5.127-4.732,8.789-9.95,9.33
			c-1.582,0.164-3.156,0.164-4.545,0.164h-0.218c-16.823,0.004-33.652,0.006-50.477,0.006
			C195.431,367.318,195.356,367.318,195.285,367.318z M140.164,362.308c18.376,0.007,36.747,0.01,55.121,0.01
			c0.072,0,0.145,0,0.216,0c16.824,0,33.652-0.002,50.476-0.006h0.219c1.268,0,2.705,0,4.03-0.137
			c2.991-0.311,5.059-2.237,5.529-5.154c0.423-2.621-1.103-5.272-3.887-6.754c-1.964-1.042-4.5-2.795-5.406-5.217l-0.801-2.136
			c-3.188-8.501-6.486-17.292-8.936-26.216c-1.327-4.842-1.937-9.886-2.525-14.765c-0.174-1.438-0.352-2.91-0.547-4.376h-80.553
			c-0.075,0.927-0.146,1.773-0.232,2.619c-1.417,13.8-3.982,29.925-12.267,44.889c-1.571,2.84-4.801,4.569-6.117,5.181
			c-2.655,1.232-4.394,3.797-4.23,6.236c0.188,2.808,2.319,5.217,4.957,5.605c1.377,0.204,2.796,0.22,4.508,0.22H140.164z"/>
	</g>
	<g>
		<path fill="#57C1EB" d="M367.325,240.632c-116.219,0-232.163,0-348.473,0c0-66.048,0-131.985,0-198.192
			c116.13,0,232.155,0,348.473,0C367.325,108.426,367.325,174.271,367.325,240.632z"/>
	</g>
	<g>
		<rect x="55.746" y="77.008" fill="#FFD15C" width="78.047" height="52.938"/>
	</g>
	<g>
		<rect x="154.991" y="77.008" fill="#FFD15C" width="78.046" height="52.938"/>
	</g>
	<g>
		<rect x="252.386" y="77.008" fill="#FFD15C" width="78.047" height="52.938"/>
	</g>
	<g>
		<rect x="55.746" y="154.465" fill="#FFD15C" width="78.047" height="52.937"/>
	</g>
	<g>
		<rect x="154.991" y="154.465" fill="#FFD15C" width="78.046" height="52.937"/>
	</g>
	<g>
		<rect x="252.386" y="154.465" fill="#FFD15C" width="78.047" height="52.937"/>
	</g>
	<g>
		<path d="M259.24,118.354c0-0.586,0-1.172,0-1.76c0.586,0,1.172,0,1.759,0c0.16,0.09,0.314,0.191,0.481,0.262
			c16.969,7.205,33.939,14.405,50.91,21.605c1.434,0.607,1.613,1.645,0.442,2.668c-3.546,3.1-7.095,6.197-10.642,9.297
			c-0.165,0.145-0.32,0.301-0.491,0.461c0.144,0.152,0.241,0.261,0.345,0.363c6.788,6.742,13.578,13.483,20.363,20.229
			c0.41,0.408,0.781,0.856,1.17,1.286c0,0.293,0,0.586,0,0.879c-0.346,0.381-0.677,0.775-1.04,1.139
			c-1.812,1.812-3.628,3.62-5.454,5.419c-0.276,0.274-0.611,0.489-0.92,0.731c-0.251,0-0.502,0-0.754,0
			c-0.305-0.248-0.633-0.473-0.91-0.748c-6.85-6.799-13.693-13.602-20.54-20.404c-0.13-0.128-0.271-0.244-0.44-0.398
			c-0.307,0.338-0.586,0.645-0.864,0.952c-2.946,3.263-5.888,6.528-8.841,9.784c-0.89,0.982-1.947,0.798-2.467-0.414
			c-6.573-15.305-13.143-30.611-19.718-45.916C260.849,121.971,260.037,120.166,259.24,118.354z"/>
	</g>
	<g>
		<path d="M89.229,158.537c0-0.586,0-1.172,0-1.759c-0.586,0-1.173,0-1.759,0c-0.16,0.088-0.314,0.19-0.481,0.262
			c-16.969,7.203-33.939,14.404-50.91,21.604c-1.434,0.607-1.612,1.645-0.442,2.668c3.546,3.101,7.095,6.197,10.642,9.296
			c0.165,0.145,0.32,0.301,0.491,0.461c-0.144,0.152-0.241,0.262-0.344,0.363c-6.788,6.742-13.578,13.484-20.363,20.23
			c-0.411,0.408-0.782,0.855-1.171,1.285c0,0.293,0,0.586,0,0.881c0.346,0.379,0.678,0.773,1.041,1.137
			c1.812,1.812,3.628,3.621,5.454,5.42c0.277,0.273,0.612,0.488,0.92,0.73c0.251,0,0.502,0,0.754,0
			c0.305-0.248,0.633-0.473,0.911-0.748c6.85-6.799,13.694-13.602,20.54-20.402c0.129-0.129,0.27-0.246,0.44-0.4
			c0.307,0.338,0.586,0.645,0.863,0.951c2.946,3.264,5.889,6.529,8.841,9.785c0.89,0.982,1.947,0.799,2.467-0.414
			c6.573-15.305,13.142-30.611,19.718-45.915C87.62,162.154,88.431,160.35,89.229,158.537z"/>
	</g>
	<g>
		<circle fill="#1D1E1C" cx="193.089" cy="257.632" r="12.838"/>
		<path fill="#FFFFFF" d="M193.09,272.97c-8.458,0-15.339-6.881-15.339-15.338s6.881-15.338,15.339-15.338
			c8.457,0,15.338,6.881,15.338,15.338S201.547,272.97,193.09,272.97z M193.09,247.294c-5.701,0-10.339,4.638-10.339,10.338
			s4.638,10.338,10.339,10.338c5.7,0,10.338-4.638,10.338-10.338S198.79,247.294,193.09,247.294z"/>
	</g>
</g>
</svg>
