<?xml version="1.0" encoding="utf-8"?>
<!-- Generator: Adobe Illustrator 16.0.0, SVG Export Plug-In . SVG Version: 6.00 Build 0)  -->
<!DOCTYPE svg PUBLIC "-//W3C//DTD SVG 1.1//EN" "http://www.w3.org/Graphics/SVG/1.1/DTD/svg11.dtd">
<svg version="1.1" id="Layer_1" xmlns="http://www.w3.org/2000/svg" xmlns:xlink="http://www.w3.org/1999/xlink" x="0px" y="0px"
	 width="63.979px" height="73.711px" viewBox="0 0 63.979 73.711" enable-background="new 0 0 63.979 73.711" xml:space="preserve">
<g>
	<path d="M2.381,60.253l19.566-24.018L3.52,13.771c-1.244-1.555-2.381-3.625-2.381-5.901C1.138,3.415,4.451,0,9.007,0
		c3.414,0,5.383,1.345,7.351,3.933l15.84,21.122L47.932,4.346C50.108,1.551,52.177,0,55.701,0c3.52,0,7.246,2.794,7.246,7.351
		c0,2.276-0.831,4.139-2.382,6.107L42.137,36.03l19.465,23.915c1.239,1.552,2.377,3.621,2.377,5.901
		c0,4.451-3.312,7.865-7.865,7.865c-3.418,0-5.387-1.345-7.351-3.933L31.785,47.52L15.009,69.366
		c-2.17,2.795-4.244,4.346-7.764,4.346S0,70.917,0,66.361C0,64.084,0.826,62.221,2.381,60.253z"/>
</g>
</svg>
