<?xml version="1.0" encoding="utf-8"?>
<!-- Generator: Adobe Illustrator 16.0.0, SVG Export Plug-In . SVG Version: 6.00 Build 0)  -->
<!DOCTYPE svg PUBLIC "-//W3C//DTD SVG 1.1//EN" "http://www.w3.org/Graphics/SVG/1.1/DTD/svg11.dtd">
<svg version="1.1" id="Layer_1" xmlns="http://www.w3.org/2000/svg" xmlns:xlink="http://www.w3.org/1999/xlink" x="0px" y="0px"
	 width="402.617px" height="257.013px" viewBox="0 0 402.617 257.013" enable-background="new 0 0 402.617 257.013"
	 xml:space="preserve">
<g>
	<g>
		<g>
			<path fill="#57C1EB" d="M9.145,166.29c0,0,131.164-202.504,333.668,0"/>
		</g>
		<g>
			<path fill="#1D1E1C" d="M341.045,168.058c-65.19-65.189-129.605-94.93-191.457-88.39c-45.075,4.765-80.292,28.436-101.898,47.454
				c-23.45,20.641-36.32,40.331-36.447,40.528l-4.196-2.718c0.535-0.826,13.377-20.47,37.34-41.563
				c22.151-19.498,58.293-43.77,104.677-48.673c63.428-6.702,129.208,23.518,195.517,89.827L341.045,168.058z"/>
		</g>
	</g>
	<g>
		<g>
			<path fill="#57C1EB" d="M9.145,164.511c0,0,131.164,202.504,333.668,0"/>
		</g>
		<g>
			<path fill="#1D1E1C" d="M166.412,257.02c-5.802,0-11.584-0.305-17.349-0.914c-46.384-4.903-82.525-29.175-104.677-48.673
				C20.423,186.34,7.581,166.695,7.046,165.87l4.196-2.719c0.128,0.198,13.083,19.992,36.574,40.64
				c21.594,18.979,56.786,42.601,101.818,47.347c61.839,6.526,126.237-23.222,191.41-88.395l3.535,3.535
				C284.297,226.562,224.449,257.02,166.412,257.02z"/>
		</g>
	</g>
	<g>
		<circle fill="#FFFFFF" cx="167.046" cy="161.511" r="49.301"/>
		<path fill="#1D1E1C" d="M167.045,213.312c-28.562,0-51.8-23.237-51.8-51.801c0-28.563,23.237-51.801,51.8-51.801
			c28.563,0,51.802,23.238,51.802,51.801C218.847,190.074,195.608,213.312,167.045,213.312z M167.045,114.71
			c-25.806,0-46.8,20.995-46.8,46.801c0,25.806,20.994,46.801,46.8,46.801c25.807,0,46.802-20.995,46.802-46.801
			C213.847,135.705,192.852,114.71,167.045,114.71z"/>
	</g>
	<g>
		<circle fill="#1D1E1C" cx="167.045" cy="161.511" r="25.658"/>
	</g>
	<g>
		<g>
			<path fill="#57C1EB" d="M9.145,165.401c0,0,131.164-202.504,333.668,0"/>
		</g>
		<g>
			<path fill="#1D1E1C" d="M341.045,167.169c-65.19-65.189-129.605-94.929-191.457-88.39
				c-45.075,4.765-80.292,28.436-101.898,47.454c-23.45,20.641-36.32,40.331-36.447,40.528l-4.196-2.718
				c0.535-0.826,13.377-20.47,37.34-41.563c22.151-19.498,58.293-43.77,104.677-48.673c63.428-6.7,129.208,23.518,195.517,89.827
				L341.045,167.169z"/>
		</g>
	</g>
	<g>
		<g>
			<path fill="#57C1EB" d="M342.812,163.621c-202.504,202.504-333.668,0-333.668,0"/>
		</g>
		<g>
			<path fill="#1D1E1C" d="M166.412,256.13c-5.802,0-11.584-0.305-17.349-0.914c-46.384-4.903-82.525-29.175-104.677-48.673
				C20.423,185.45,7.581,165.806,7.046,164.98l4.196-2.719c0.128,0.198,13.083,19.992,36.574,40.64
				c21.594,18.979,56.786,42.601,101.818,47.347c61.839,6.525,126.237-23.222,191.41-88.395l3.535,3.535
				C284.297,225.672,224.449,256.13,166.412,256.13z"/>
		</g>
	</g>
	<g>
		<rect x="96.981" y="100.229" fill="#57C1EB" width="135.489" height="61.588"/>
	</g>
	<g>
		<g>
			<path fill="#57C1EB" d="M10.981,165.401c0,0,131.164-202.504,333.668,0"/>
		</g>
		<g>
			<path fill="#1D1E1C" d="M342.882,167.169c-65.19-65.189-129.607-94.929-191.457-88.39
				c-45.075,4.765-80.292,28.436-101.898,47.454c-23.45,20.641-36.32,40.331-36.447,40.528l-4.196-2.718
				c0.535-0.826,13.377-20.47,37.34-41.563c22.151-19.498,58.293-43.77,104.677-48.673c63.43-6.7,129.208,23.518,195.517,89.827
				L342.882,167.169z"/>
		</g>
	</g>
	<g>
		<g>
			<path fill="#57C1EB" d="M344.649,163.621c-202.504,202.504-333.668,0-333.668,0"/>
		</g>
		<g>
			<path fill="#1D1E1C" d="M168.249,256.13c-5.802,0-11.584-0.305-17.349-0.914c-46.384-4.903-82.525-29.175-104.677-48.673
				C22.26,185.45,9.418,165.806,8.883,164.98l4.196-2.719c0.128,0.198,13.083,19.992,36.574,40.64
				c21.594,18.979,56.786,42.601,101.818,47.347c61.843,6.525,126.238-23.222,191.41-88.395l3.535,3.535
				C286.134,225.672,226.286,256.13,168.249,256.13z"/>
		</g>
	</g>
	<g>
		<circle fill="#FFFFFF" cx="168.882" cy="160.621" r="49.301"/>
		<path fill="#1D1E1C" d="M168.883,212.423c-28.563,0-51.802-23.238-51.802-51.802c0-28.563,23.238-51.801,51.802-51.801
			c28.563,0,51.801,23.238,51.801,51.801C220.684,189.185,197.446,212.423,168.883,212.423z M168.883,113.82
			c-25.807,0-46.802,20.995-46.802,46.801c0,25.807,20.995,46.802,46.802,46.802c25.806,0,46.801-20.995,46.801-46.802
			C215.684,134.815,194.689,113.82,168.883,113.82z"/>
	</g>
	<g>
		<circle fill="#1D1E1C" cx="168.883" cy="160.621" r="25.658"/>
	</g>
	<g>
		
			<rect x="351.633" y="-15.131" transform="matrix(0.6755 0.7374 -0.7374 0.6755 149.2419 -246.0316)" fill="#1D1E1C" width="4.999" height="123.332"/>
	</g>
	<g>
		<rect x="175.315" fill="#1D1E1C" width="5" height="42.198"/>
	</g>
	<g>
		
			<rect x="-13.309" y="59.677" transform="matrix(0.5516 0.8341 -0.8341 0.5516 61.2891 10.3483)" fill="#1D1E1C" width="68.658" height="5"/>
	</g>
</g>
</svg>
