<?xml version="1.0" encoding="utf-8"?>
<!-- Generator: Adobe Illustrator 16.0.0, SVG Export Plug-In . SVG Version: 6.00 Build 0)  -->
<!DOCTYPE svg PUBLIC "-//W3C//DTD SVG 1.1//EN" "http://www.w3.org/Graphics/SVG/1.1/DTD/svg11.dtd">
<svg version="1.1" id="Layer_1" xmlns="http://www.w3.org/2000/svg" xmlns:xlink="http://www.w3.org/1999/xlink" x="0px" y="0px"
	 width="214.554px" height="226.43px" viewBox="0 0 214.554 226.43" enable-background="new 0 0 214.554 226.43"
	 xml:space="preserve">
<g display="none">
	<g display="inline">
		<path fill="#FFD15C" d="M57.452,61.164c0,0-10.475-18.786,3.89-31.252s22.99-10.084,30.589-19.137
			c7.599-9.053,26.425-14.771,27.494-5.241c1.069,9.529-4.43,16.2-0.251,17.153c4.18,0.953,12.549,1.153,13.844,8.2"/>
		<path fill="#1D1E1C" d="M56.142,61.895c-0.111-0.198-10.894-20.002,4.217-33.116c7.516-6.522,13.63-9.133,18.543-11.231
			c4.689-2.002,8.394-3.584,11.88-7.738c6.036-7.191,18.541-12.261,25.244-10.235c2.83,0.854,4.567,2.911,4.89,5.791
			c0.529,4.718-0.459,8.764-1.18,11.718c-0.384,1.574-0.862,3.532-0.575,3.997c0.018,0.029,0.127,0.093,0.347,0.143
			c0.624,0.142,1.345,0.266,2.123,0.401c4.611,0.798,11.58,2.005,12.863,8.99l-2.95,0.542c-0.837-4.557-5.217-5.674-10.425-6.576
			c-0.834-0.145-1.607-0.279-2.277-0.432c-1.012-0.231-1.763-0.732-2.232-1.491c-0.947-1.533-0.46-3.526,0.213-6.285
			c0.706-2.889,1.583-6.483,1.113-10.672c-0.191-1.706-1.073-2.74-2.776-3.254c-5.537-1.674-16.885,3.105-22.079,9.292
			c-3.947,4.703-8.143,6.494-13,8.568c-4.966,2.12-10.595,4.523-17.754,10.737c-5.553,4.819-7.851,11.203-6.828,18.973
			c0.777,5.902,3.24,10.372,3.265,10.417L56.142,61.895z"/>
	</g>
	<g display="inline">
		<polygon fill="#1D1E1C" points="91.163,44.527 103.485,41.219 123.999,39.041 146.114,51.839 146.114,66.06 83.065,62.362 		"/>
	</g>
	<g display="inline">
		<g>
			<path fill="#F6EFD9" d="M148.4,179.038H75.971c-6.6,0-12-5.4-12-12V70.579c0-6.6,5.4-12,12-12H148.4c6.601,0,12,5.4,12,12v96.459
				C160.4,173.638,155.001,179.038,148.4,179.038z"/>
		</g>
		<g>
			<path fill="#1D1E1C" d="M148.4,180.538H75.971c-7.444,0-13.5-6.056-13.5-13.5V70.579c0-7.444,6.056-13.5,13.5-13.5H148.4
				c7.444,0,13.5,6.056,13.5,13.5v96.459C161.9,174.481,155.844,180.538,148.4,180.538z M75.971,60.079c-5.79,0-10.5,4.71-10.5,10.5
				v96.459c0,5.79,4.71,10.5,10.5,10.5H148.4c5.79,0,10.5-4.71,10.5-10.5V70.579c0-5.79-4.71-10.5-10.5-10.5H75.971z"/>
		</g>
	</g>
	<g display="inline">
		<path fill="#1D1E1C" d="M107.494,138.247c-2.187,0-4.402-0.438-5.307-2.012c-0.485-0.843-1.178-1.062-2.262-1.325
			c-0.916-0.221-2.055-0.497-2.557-1.662c-0.528-1.224,0.036-2.65,1.046-4.414c2.825-4.937-0.105-14.861-0.135-14.96l2.873-0.865
			c0.138,0.457,3.332,11.258-0.134,17.315c-0.458,0.799-0.668,1.29-0.766,1.575c0.125,0.033,0.261,0.066,0.378,0.094
			c1.12,0.271,2.995,0.724,4.158,2.744c0.105,0.134,1.041,0.635,3.604,0.488c3.63-0.211,6.942-1.411,8.009-2.2
			c-0.149-0.082-0.355-0.179-0.638-0.287c-8.639-3.288-7.946-14.739-7.912-15.225l2.993,0.206
			c-0.006,0.097-0.567,9.722,5.986,12.215c1.97,0.75,2.922,1.818,2.829,3.177c-0.175,2.558-4.427,3.916-6.946,4.498
			C111.984,137.779,109.753,138.247,107.494,138.247z"/>
	</g>
	<g display="inline">
		<polygon fill="#E85F54" points="89.523,155.473 99.548,147.453 103.485,151.463 109.127,147.453 120.934,155.473 103.485,165.909 
					"/>
		<path fill="#1D1E1C" d="M103.393,167.712l-16.321-12.2l12.597-10.077l3.99,4.063l5.448-3.873l14.614,9.926L103.393,167.712z
			 M91.975,155.433l11.603,8.673l14.567-8.713l-8.999-6.113l-5.835,4.147l-3.885-3.956L91.975,155.433z"/>
	</g>
	<g display="inline">
		
			<rect x="73.061" y="91.826" transform="matrix(0.435 0.9004 -0.9004 0.435 126.7405 -15.3402)" fill="#1D1E1C" width="5.068" height="3"/>
	</g>
	<g display="inline">
		
			<rect x="80.131" y="87.768" transform="matrix(0.5015 0.8652 -0.8652 0.5015 118.1524 -26.5162)" fill="#1D1E1C" width="3.908" height="3"/>
	</g>
	<g display="inline">
		<path fill="#F5EDD8" d="M157.131,98.828c0,0,16.478-7.339,17.775,1.612s0,32.894,0,32.894s-17.775,3.566-17.775,0"/>
		<path fill="#1D1E1C" d="M162.3,136.394c-3.899,0-5.283-0.75-5.718-1.106c-0.613-0.502-0.951-1.196-0.951-1.954h3
			c0-0.173-0.096-0.324-0.147-0.366c1.054,0.864,7.894,0.445,14.983-0.883c0.236-4.896,1.053-23.845-0.045-31.43
			c-0.175-1.209-0.682-2.007-1.594-2.51c-3.462-1.912-11.343,0.834-14.087,2.054l-1.22-2.741c1.147-0.512,11.371-4.911,16.754-1.941
			c1.73,0.954,2.807,2.582,3.115,4.708c1.303,8.996,0.067,32.206,0.013,33.189l-0.062,1.161l-1.14,0.229
			C169.211,136.006,165.104,136.394,162.3,136.394z"/>
	</g>
	<g display="inline">
		<polygon fill="#1D1E1C" points="164.192,122.526 162.008,120.468 164.694,117.619 158.032,117.619 158.032,114.619 
			171.644,114.619 		"/>
	</g>
	<g display="inline">
		<path fill="#1D1E1C" d="M162.525,127.157h-3c0-1.337,0.153-3.228,1.474-4.206c1.359-1.006,3.018-0.5,4.624-0.009
			c1.282,0.392,2.606,0.795,3.733,0.506c0.824-0.212,1.072-0.276,0.134-4.292c-0.532-2.276-1.194-5.109-1.259-8.58
			c-0.03-1.597-0.401-2.167-0.593-2.245c-0.891-0.36-3.72,1.467-5.559,3.284l-2.108-2.135c1.263-1.247,5.627-5.216,8.798-3.927
			c1.583,0.645,2.412,2.315,2.461,4.967c0.06,3.153,0.681,5.815,1.181,7.954c0.79,3.377,1.605,6.87-2.306,7.879
			c-1.943,0.498-3.838-0.078-5.359-0.542c-0.676-0.206-1.698-0.516-1.995-0.43C162.766,125.396,162.525,125.77,162.525,127.157z"/>
	</g>
	<g display="inline">
		<rect x="90.768" y="153.973" fill="#1D1E1C" width="28.623" height="3"/>
	</g>
	<g display="inline">
		<polygon fill="#FFD15C" points="115.793,68.472 114.59,73.262 129.776,71.558 140.27,75.544 140.415,65.424 		"/>
		<path fill="#1D1E1C" d="M141.739,77.707l-12.156-4.618l-16.975,1.905l1.98-7.884l27.351-3.386L141.739,77.707z M129.97,70.026
			l8.831,3.355l0.09-6.257l-21.893,2.71l-0.426,1.696L129.97,70.026z"/>
	</g>
	<g display="inline">
		<polygon fill="#FFD15C" points="98.438,73.896 99.643,78.686 84.456,76.981 73.962,80.968 73.816,70.848 		"/>
		<path fill="#1D1E1C" d="M72.494,83.13l-0.202-13.983l27.351,3.386l1.982,7.884l-16.976-1.905L72.494,83.13z M75.341,72.548
			l0.09,6.257l8.831-3.355l13.398,1.503l-0.426-1.695L75.341,72.548z"/>
	</g>
	<g display="inline">
		<path fill="#FFD15D" d="M108.512,58.579c0,0-5.481-24.087,13.366-14.051s18.99,17.756,18.392,29.989
			c-0.599,12.233,16.862,24.312,16.862,24.312s8.668,17.229,5.969,37.926c-2.7,20.697,0.296,44.44,3.207,45.495
			c2.911,1.055-2.371-21.105,5.282-32.185s14.513-14.074,14.513-34.209s20.05-62.346,0-68.15
			c-20.05-5.804-41.683-24.552-54.346-18.08s-42.161,8.261-32.703,18.608C108.512,58.579,108.512,58.579,108.512,58.579z"/>
		<path fill="#1D1E1C" d="M166.496,183.786c-0.233,0-0.469-0.042-0.7-0.126c-4.761-1.726-6.528-29.121-4.183-47.099
			c2.406-18.445-4.527-34.289-5.667-36.733c-2.538-1.822-17.768-13.284-17.175-25.384c0.552-11.28,0.917-18.732-17.599-28.591
			c-5.022-2.676-8.522-3.043-10.283-0.84c-2.5,3.129-1.508,10.615-0.915,13.235l1.25,5.522L97.946,49.245
			c-1.916-2.095-2.604-4.136-2.044-6.064c1.371-4.729,9.839-7.037,19.645-9.709c5.672-1.546,11.538-3.144,15.527-5.183
			c1.955-0.999,4.202-1.505,6.68-1.505c7.659,0,16.876,4.734,26.636,9.747c7.296,3.748,14.842,7.624,22.13,9.733
			c15,4.342,9.812,26.327,5.235,45.724c-2.135,9.048-4.152,17.594-4.152,23.867c0,16.306-4.434,21.835-10.047,28.835
			c-1.527,1.904-3.106,3.874-4.731,6.227c-4.494,6.506-4.248,17.299-4.085,24.441c0.115,5.048,0.105,6.845-0.872,7.845
			C167.498,183.578,167.012,183.786,166.496,183.786z M114.146,40.581c2.363,0,5.123,0.858,8.437,2.622
			c19.219,10.234,19.811,18.594,19.185,31.386c-0.551,11.253,16.05,22.889,16.218,23.005l0.314,0.218l0.172,0.341
			c0.362,0.72,8.844,17.881,6.116,38.794c-2.19,16.794-0.582,34.047,1.197,40.974c-0.007-0.806-0.027-1.669-0.046-2.496
			c-0.172-7.529-0.431-18.908,4.616-26.214c1.687-2.442,3.3-4.453,4.86-6.398c5.45-6.797,9.387-11.707,9.387-26.958
			c0-6.622,2.056-15.333,4.232-24.556c4.479-18.979,9.11-38.604-3.149-42.153c-7.567-2.19-15.243-6.133-22.667-9.946
			c-9.427-4.842-18.331-9.416-25.265-9.416c-2.027,0-3.765,0.385-5.314,1.176c-4.266,2.18-10.284,3.82-16.104,5.406
			c-7.804,2.126-16.649,4.537-17.552,7.649c-0.248,0.855,0.215,1.934,1.377,3.205l6.2,6.781c-0.25-3.508-0.038-8.076,2.184-10.859
			C109.88,41.466,111.818,40.581,114.146,40.581z"/>
	</g>
	<g display="inline">
		<polygon fill="#F5EDD8" points="102.252,59.903 114.59,59.903 112.186,71.431 101.619,69.403 		"/>
	</g>
	<g display="inline">
		<g>
			<path fill="#FFFFFF" d="M64.81,98.311c0,0,17.199,19.881,34.551,0"/>
		</g>
		<g>
			<g>
				<path fill="#FFFFFF" d="M64.811,98.541c0,0,17.199-19.881,34.551,0"/>
			</g>
			<g>
				<path fill="#1D1E1C" d="M98.231,99.527c-4.82-5.522-10.049-8.322-15.54-8.322c-0.005,0-0.01,0-0.016,0
					c-9.4,0.009-16.659,8.235-16.731,8.319l-2.268-1.964c0.33-0.381,8.195-9.331,18.973-9.354c0.014,0,0.029,0,0.043,0
					c6.396,0,12.384,3.145,17.799,9.35L98.231,99.527z"/>
			</g>
		</g>
		<g>
			<circle fill="#1D1E1C" cx="82.713" cy="98.541" r="4.935"/>
			<path fill="#59C1EB" d="M82.713,104.976c-3.548,0-6.436-2.887-6.436-6.435s2.887-6.435,6.436-6.435s6.435,2.887,6.435,6.435
				S86.261,104.976,82.713,104.976z M82.713,95.105c-1.895,0-3.436,1.541-3.436,3.435s1.541,3.435,3.436,3.435
				c1.894,0,3.435-1.541,3.435-3.435S84.607,95.105,82.713,95.105z"/>
		</g>
	</g>
	<g display="inline">
		<path fill="#FFFFFF" d="M112.186,98.311c0,0,17.199,19.881,34.551,0"/>
	</g>
	<g display="inline">
		<g>
			<path fill="#FFFFFF" d="M112.187,98.541c0,0,17.199-19.881,34.552,0"/>
		</g>
		<g>
			<path fill="#1D1E1C" d="M145.608,99.527c-4.82-5.522-10.049-8.322-15.541-8.322c-0.012,0-0.023,0-0.036,0
				c-9.425,0.021-16.64,8.234-16.711,8.317l-2.269-1.963c0.33-0.381,8.196-9.331,18.974-9.354c6.423-0.024,12.415,3.131,17.842,9.35
				L145.608,99.527z"/>
		</g>
	</g>
	<g display="inline">
		<circle fill="#1D1E1C" cx="130.089" cy="98.541" r="4.936"/>
		<path fill="#59C1EB" d="M130.089,104.976c-3.548,0-6.436-2.887-6.436-6.435s2.887-6.435,6.436-6.435s6.436,2.887,6.436,6.435
			S133.637,104.976,130.089,104.976z M130.089,95.105c-1.895,0-3.436,1.541-3.436,3.435s1.541,3.435,3.436,3.435
			s3.436-1.541,3.436-3.435S131.983,95.105,130.089,95.105z"/>
	</g>
	<g display="inline">
		<path fill="#FFD15C" d="M60.081,174.862c0,0-7.469-17.412-14.461-27.409c-6.993-9.998-8.836-18.494-8.836-34.613
			c0-16.119,7.915-25.036,11.628-33.323c3.714-8.288,8.421-18.094,27.319-41.837s19.875,6.848,19.875,6.848L60.081,174.862z"/>
		<path fill="#1D1E1C" d="M60.397,179.405l-1.695-3.951c-0.074-0.173-7.49-17.387-14.312-27.141
			c-6.895-9.857-9.107-18.477-9.107-35.473c0-12.586,4.733-21.021,8.536-27.797c1.207-2.151,2.347-4.183,3.224-6.139
			c3.284-7.328,7.781-17.365,27.514-42.158c5.139-6.457,9.454-9.595,13.192-9.595c2.624,0,6.164,1.571,8.136,9.057
			c1.076,4.086,1.215,8.104,1.22,8.272l0.007,0.225l-0.059,0.217L60.397,179.405z M87.749,30.15c-1.874,0-5.277,1.468-10.844,8.463
			C57.407,63.111,52.999,72.947,49.78,80.13c-0.932,2.08-2.104,4.169-3.345,6.381c-3.821,6.809-8.152,14.527-8.152,26.329
			c0,16.481,2.001,24.368,8.565,33.753c5.056,7.229,10.269,18.077,12.891,23.817L94.098,44.354
			C93.928,40.431,92.461,30.15,87.749,30.15z"/>
	</g>
	<g display="inline">
		<path fill="#F5EDD8" d="M63.34,128.181c0,3.06-13.302,0-13.302,0s-0.971-20.546,0-28.229c0.97-7.682,13.302-1.383,13.302-1.383"/>
		<path fill="#1D1E1C" d="M59.662,131.034c-3.407,0-7.712-0.874-9.96-1.391l-1.108-0.255l-0.054-1.136
			c-0.04-0.844-0.965-20.765,0.01-28.487c0.325-2.569,1.704-3.801,2.803-4.383c4.319-2.282,11.827,1.421,12.669,1.852l-1.364,2.672
			c-2.649-1.349-7.68-3.048-9.904-1.871c-0.442,0.234-1.051,0.708-1.228,2.106c-0.813,6.436-0.224,22.406-0.04,26.823
			c4.897,1.028,9.668,1.403,10.545,0.789c-0.067,0.047-0.192,0.221-0.192,0.429h3c0,0.755-0.335,1.437-0.944,1.922
			C63.039,130.786,61.478,131.034,59.662,131.034z"/>
	</g>
	<g display="inline">
		<path fill="#1D1E1C" d="M64.84,123.02h-3c0-1.477-0.274-1.805-0.277-1.808c-0.235-0.054-1.271,0.256-1.956,0.463
			c-1.525,0.465-3.422,1.044-5.369,0.542c-3.919-1.009-3.101-4.501-2.31-7.879c0.501-2.139,1.125-4.8,1.184-7.954
			c0.049-2.648,0.878-4.319,2.461-4.965c3.176-1.292,7.552,2.677,8.818,3.924l-2.104,2.138c-1.889-1.855-4.676-3.652-5.582-3.285
			c-0.207,0.085-0.564,0.652-0.595,2.244c-0.065,3.472-0.729,6.305-1.262,8.582c-0.94,4.013-0.69,4.077,0.137,4.29
			c1.131,0.292,2.461-0.115,3.747-0.506c1.61-0.49,3.273-0.997,4.633,0.011C64.688,119.795,64.84,121.684,64.84,123.02z"/>
	</g>
	<g display="inline">
		<path fill="#F5EDD8" d="M65.515,85.28c0,0-2.489,45.125-2.175,53.272"/>
		<path fill="#1D1E1C" d="M61.841,138.61c-0.313-8.124,2.074-51.567,2.176-53.413l2.995,0.165
			c-0.025,0.451-2.481,45.148-2.173,53.132L61.841,138.61z"/>
	</g>
	<g display="inline">
		<path fill="#1D1E1C" d="M63.493,119.889c-2.455-0.874-8.138-3.264-7.88-6.589c0.175-2.257,2.675-3.721,8.104-4.748l0.558,2.947
			c-5.175,0.979-5.674,2.057-5.678,2.068c0.134,0.722,3.054,2.482,5.902,3.496L63.493,119.889z"/>
	</g>
</g>
<g display="none">
	<g display="inline">
		<path fill="#F5EDD8" d="M63.983,99.288c0,0-16.479-6.298-17.775,1.383c-1.296,7.682,0,28.229,0,28.229s17.775,3.06,17.775,0"/>
		<path fill="#1D1E1C" d="M58.816,131.749c-2.807,0-6.898-0.345-12.863-1.372l-1.168-0.201l-0.075-1.183
			c-0.053-0.846-1.292-20.809,0.018-28.572c0.293-1.739,1.241-3.112,2.741-3.969c5.179-2.96,15.849,0.975,17.049,1.434l-1.071,2.803
			c-2.894-1.103-11.137-3.549-14.491-1.631c-0.722,0.413-1.125,1.005-1.271,1.863c-1.076,6.377-0.299,22.226-0.051,26.695
			c6.543,1.046,13.868,1.581,15.083,0.738c-0.074,0.051-0.235,0.26-0.235,0.546h3c0,0.675-0.299,1.299-0.843,1.757
			C64.134,131.083,62.716,131.749,58.816,131.749z"/>
	</g>
	<g display="inline">
		<g>
			<path fill="#F5EDD8" d="M148.413,179.899h-72.43c-6.6,0-12-5.4-12-12V71.44c0-6.6,5.4-12,12-12h72.43c6.6,0,12,5.4,12,12v96.459
				C160.413,174.499,155.012,179.899,148.413,179.899z"/>
		</g>
		<g>
			<path fill="#1D1E1C" d="M148.413,181.399h-72.43c-7.444,0-13.5-6.056-13.5-13.5V71.44c0-7.444,6.056-13.5,13.5-13.5h72.43
				c7.444,0,13.5,6.056,13.5,13.5v96.459C161.913,175.343,155.856,181.399,148.413,181.399z M75.983,60.94
				c-5.79,0-10.5,4.71-10.5,10.5v96.459c0,5.79,4.71,10.5,10.5,10.5h72.43c5.79,0,10.5-4.71,10.5-10.5V71.44
				c0-5.79-4.71-10.5-10.5-10.5H75.983z"/>
		</g>
	</g>
	<g display="inline">
		<path fill="#1D1E1C" d="M104.419,139.108c-2.259,0-4.489-0.468-5.218-0.636c-2.519-0.582-6.771-1.94-6.946-4.498
			c-0.093-1.358,0.859-2.427,2.829-3.176c6.583-2.505,5.994-12.117,5.987-12.213l2.993-0.208c0.034,0.486,0.727,11.938-7.913,15.225
			c-0.282,0.107-0.488,0.205-0.637,0.286c1.067,0.79,4.379,1.989,8.01,2.201c2.561,0.148,3.498-0.354,3.608-0.496
			c1.158-2.012,3.033-2.465,4.153-2.736c0.117-0.028,0.253-0.062,0.377-0.094c-0.097-0.285-0.309-0.776-0.766-1.575
			c-3.466-6.057-0.272-16.859-0.134-17.316l2.873,0.865c-0.03,0.1-2.96,10.024-0.135,14.961c1.009,1.764,1.574,3.19,1.046,4.414
			c-0.502,1.165-1.642,1.44-2.557,1.662c-1.084,0.262-1.777,0.482-2.263,1.324C108.821,138.67,106.606,139.108,104.419,139.108z"/>
	</g>
	<g display="inline">
		<polygon fill="#E85F54" points="89.535,156.334 99.56,148.314 103.497,152.324 109.138,148.314 120.945,156.334 103.497,166.771 
					"/>
		<path fill="#1D1E1C" d="M103.404,168.574l-16.32-12.2l12.597-10.077l3.99,4.063l5.448-3.873l14.614,9.926L103.404,168.574z
			 M91.987,156.294l11.603,8.674l14.568-8.714l-9-6.113l-5.835,4.147l-3.884-3.956L91.987,156.294z"/>
	</g>
	<g display="inline">
		<path fill="#1D1E1C" d="M65.483,123.882h-3c0-1.214-0.281-1.537-0.367-1.607c-0.515-0.418-2.422-0.022-3.956,0.296
			c-2.211,0.458-4.716,0.979-7.259,0.532c-1.747-0.306-2.892-0.957-3.501-1.99c-0.973-1.65-0.303-3.596,0.545-6.061
			c0.727-2.111,1.631-4.738,1.716-7.821c0.079-2.846,1.384-4.108,2.465-4.666c4.048-2.089,11.283,2.517,12.692,3.461l-1.67,2.492
			c-2.897-1.938-7.804-4.24-9.647-3.288c-0.197,0.102-0.795,0.411-0.841,2.083c-0.098,3.542-1.085,6.41-1.878,8.714
			c-0.476,1.382-1.068,3.103-0.798,3.561c0.034,0.057,0.262,0.353,1.435,0.559c1.979,0.348,4.185-0.111,6.133-0.515
			c2.488-0.515,4.838-1.003,6.458,0.315C65.001,120.755,65.483,122.042,65.483,123.882z"/>
	</g>
	<g display="inline">
		<polygon fill="#1D1E1C" points="58.877,118.718 53.267,110.961 63.983,110.961 63.983,113.961 59.139,113.961 61.308,116.96 		"/>
	</g>
	<g display="inline">
		
			<rect x="73.072" y="92.687" transform="matrix(0.4351 0.9004 -0.9004 0.4351 127.5131 -14.8685)" fill="#1D1E1C" width="5.068" height="3"/>
	</g>
	<g display="inline">
		
			<rect x="80.143" y="88.629" transform="matrix(0.5014 0.8652 -0.8652 0.5014 118.9162 -26.0932)" fill="#1D1E1C" width="3.908" height="3"/>
	</g>
	<g display="inline">
		
			<rect x="90.577" y="86.666" transform="matrix(0.9314 0.364 -0.364 0.9314 38.7608 -27.3988)" fill="#1D1E1C" width="3" height="4.953"/>
	</g>
	<g display="inline">
		<rect x="89.535" y="154.834" fill="#1D1E1C" width="31.41" height="3"/>
	</g>
	<g display="inline">
		<polygon fill="#FFD15C" points="112.198,59.44 63.983,99.288 64.237,63.649 66.189,60.76 71.206,59.44 		"/>
		<path fill="#1D1E1C" d="M62.46,102.492l0.28-39.308l2.521-3.731l5.944-1.513h45.162L62.46,102.492z M65.733,64.113l-0.228,31.97
			l42.522-35.143H71.399l-4.283,1.127L65.733,64.113z"/>
	</g>
	<g display="inline">
		<g>
			<polygon fill="#E85F54" points="140.52,74.758 141.723,79.547 126.537,77.843 116.043,81.829 115.897,71.709 			"/>
		</g>
		<g>
			<path fill="#1D1E1C" d="M114.575,83.992l-0.202-13.982l27.351,3.386l1.981,7.883l-16.975-1.905L114.575,83.992z M117.422,73.41
				l0.09,6.257l8.831-3.355l13.398,1.503l-0.426-1.695L117.422,73.41z"/>
		</g>
	</g>
	<g display="inline">
		<path fill="#FFFFFF" d="M64.821,100.279c0,0,17.199,19.882,34.552,0"/>
	</g>
	<g display="inline">
		<g>
			<path fill="#FFFFFF" d="M64.822,100.509c0,0,17.199-19.882,34.551,0"/>
		</g>
		<g>
			<path fill="#1D1E1C" d="M98.243,101.495c-4.82-5.522-10.049-8.323-15.54-8.323c-0.005,0-0.01,0-0.016,0
				c-9.4,0.009-16.659,8.236-16.731,8.319l-2.268-1.964c0.33-0.381,8.195-9.331,18.973-9.355c0.014,0,0.029,0,0.043,0
				c6.396,0,12.384,3.146,17.799,9.35L98.243,101.495z"/>
		</g>
	</g>
	<g display="inline">
		<circle fill="#1D1E1C" cx="82.724" cy="100.509" r="4.935"/>
		<path fill="#42B18A" d="M82.724,106.944c-3.548,0-6.435-2.887-6.435-6.435s2.887-6.436,6.435-6.436s6.436,2.887,6.436,6.436
			S86.272,106.944,82.724,106.944z M82.724,97.073c-1.894,0-3.435,1.541-3.435,3.436c0,1.894,1.541,3.435,3.435,3.435
			c1.895,0,3.436-1.541,3.436-3.435C86.16,98.614,84.619,97.073,82.724,97.073z"/>
	</g>
	<g display="inline">
		<path fill="#FFFFFF" d="M115.897,100.279c0,0,17.199,19.882,34.551,0"/>
	</g>
	<g display="inline">
		<g>
			<path fill="#FFFFFF" d="M115.898,100.509c0,0,17.199-19.882,34.552,0"/>
		</g>
		<g>
			<path fill="#1D1E1C" d="M149.32,101.495c-4.82-5.522-10.049-8.323-15.541-8.323c-0.012,0-0.023,0-0.036,0
				c-9.425,0.021-16.64,8.235-16.711,8.318l-2.269-1.963c0.33-0.381,8.196-9.331,18.974-9.355c0.014,0,0.029,0,0.043,0
				c6.396,0,12.384,3.146,17.799,9.35L149.32,101.495z"/>
		</g>
	</g>
	<g display="inline">
		<circle fill="#1D1E1C" cx="133.8" cy="100.509" r="4.936"/>
		<path fill="#42B18A" d="M133.8,106.944c-3.548,0-6.436-2.887-6.436-6.435s2.887-6.436,6.436-6.436s6.436,2.887,6.436,6.436
			S137.349,106.944,133.8,106.944z M133.8,97.073c-1.895,0-3.436,1.541-3.436,3.436c0,1.894,1.541,3.435,3.436,3.435
			s3.436-1.541,3.436-3.435C137.236,98.614,135.695,97.073,133.8,97.073z"/>
	</g>
	<g display="inline">
		<g>
			<path fill="#E85F54" d="M106.56,45.389c0,0-16.118,6.853-29.852,3.159c-13.734-3.694-35.527-8.496-36.266,4.802
				c-0.738,13.297,2.216,13.983,2.216,26.014s-1.108,16.654-5.171,30.78c-4.062,14.125,7.465,21.882,10.936,33.702
				s-0.962,15.916-7.242,28.089c-6.279,12.172-3.694,32.807-2.955,37.634s5.541,12.087,5.541,12.087s0.739-24.99,8.126-37.179
				c7.387-12.189,21.211-9.234,22.61-23.271c1.399-14.036,0.806-26.261,1.103-37.324c0.297-11.063,31.147-48.37,36.592-55.388
				c5.444-7.018,19.479-5.171,19.479-5.171s31.104,16.602,28.735,35.13v65.339c0,0,8.159,10.711-3.27,26.594
				c-11.429,15.883,3.894,15.145,3.894,15.145s14.097,9.35,7.144,16.125c-6.953,6.776,17.795-22.035,17.795-22.035
				s3.324-29.488,0-42.077c-3.324-12.589-2.955-20.013-2.955-33.661c0-13.649,9.234-25.214,2.216-36.792
				c-7.018-11.578,4.125-30.416-13.636-36.695C153.84,44.115,112.839,38.167,106.56,45.389z"/>
		</g>
		<g>
			<path fill="#1D1E1C" d="M45.126,226.43l-2.61-3.947c-0.204-0.308-4.993-7.594-5.772-12.688
				c-0.641-4.189-3.504-25.736,3.105-38.548c1.125-2.181,2.204-4.128,3.156-5.847c4.432-7.998,6.657-12.012,3.979-21.132
				c-1.163-3.961-3.344-7.561-5.454-11.041c-4.082-6.735-8.302-13.7-5.484-23.498c3.969-13.796,5.113-18.31,5.113-30.365
				c0-5.346-0.604-8.411-1.187-11.374c-0.708-3.594-1.439-7.309-1.027-14.724c0.258-4.648,3.028-10.189,14.757-10.189
				c7.481,0,16.433,2.149,23.396,4.022c2.57,0.691,5.431,1.042,8.502,1.042c9.527,0,18.41-3.348,20.089-4.017
				c2.377-2.384,7.644-3.543,16.072-3.543c16.417,0,38.913,4.36,50.339,8.4c11.907,4.209,11.914,13.98,11.92,22.602
				c0.004,5.461,0.007,10.621,2.499,14.73c4.711,7.772,2.671,15.332,0.511,23.334c-1.234,4.573-2.51,9.301-2.51,14.235l-0.006,3.707
				c-0.031,11.449-0.049,18.359,2.912,29.572c3.357,12.714,0.177,41.413,0.041,42.628l-0.052,0.459l-0.301,0.351
				c-0.104,0.122-10.407,12.118-15.764,18.707c-0.354,1.246-1.066,2.396-2.122,3.425c-0.84,0.819-1.302,1.234-1.78,1.387
				l-0.34,0.419l0.082-0.362c-0.07,0.009-0.142,0.013-0.216,0.013h-0.947l-0.429-0.866c-0.462-0.969-0.272-1.345,2.974-5.354
				c0.555-4.037-5.226-9.005-7.99-10.932c-1.7-0.02-6.625-0.403-8.489-4.039c-1.643-3.207-0.39-7.618,3.833-13.486
				c10.588-14.714,3.593-24.409,3.291-24.815l-0.298-0.399l-0.004-0.504l0.012-65.53c2.105-16.466-24.843-31.893-27.71-33.482
				c-0.546-0.058-1.886-0.177-3.616-0.177c-3.916,0-10.969,0.625-14.216,4.811c-0.637,0.821-1.619,2.054-2.859,3.61
				c-8.204,10.295-33.169,41.625-33.418,50.898c-0.091,3.406-0.098,6.895-0.104,10.589c-0.015,8.006-0.031,17.08-1.005,26.844
				c-0.862,8.653-6.274,11.58-11.508,14.411c-4.067,2.2-8.273,4.474-11.312,9.488c-7.101,11.716-7.902,36.2-7.91,36.446
				L45.126,226.43z M53.703,46.077c-11.354,0-11.661,5.536-11.762,7.355c-0.391,7.039,0.273,10.409,0.976,13.978
				c0.611,3.104,1.243,6.314,1.243,11.953c0,12.422-1.257,17.383-5.23,31.194c-2.455,8.536,1.248,14.646,5.167,21.113
				c2.209,3.646,4.493,7.415,5.767,11.751c3.031,10.323,0.296,15.257-4.234,23.431c-0.942,1.7-2.01,3.627-3.114,5.768
				c-6.184,11.988-3.422,32.691-2.805,36.719c0.336,2.197,1.623,5.008,2.846,7.299c0.62-8.022,2.507-23.788,8.055-32.941
				c3.461-5.71,8.237-8.293,12.45-10.572c5.166-2.794,9.246-5,9.95-12.07c0.959-9.618,0.975-18.227,0.99-26.551
				c0.007-3.713,0.013-7.221,0.105-10.664c0.245-9.109,18.336-32.942,34.071-52.688c1.229-1.543,2.204-2.766,2.835-3.58
				c3.828-4.936,11.133-5.972,16.586-5.972c2.48,0,4.202,0.223,4.274,0.232l0.27,0.036l0.24,0.128
				c1.305,0.696,31.888,17.255,29.529,36.546v64.78c1.487,2.288,7.224,12.961-3.553,27.937c-3.355,4.664-4.633,8.345-3.598,10.366
				c1.174,2.292,5.177,2.408,5.967,2.408c0.139,0,0.223-0.003,0.238-0.004l0.488-0.021l0.41,0.27
				c6.021,3.993,8.361,7.826,9.223,10.582l1.759-2.168l-0.027,0.12c4.731-5.665,10.358-12.236,11.714-13.817
				c0.397-3.762,2.984-29.737-0.009-41.071c-3.062-11.593-3.042-19.053-3.011-30.346l0.006-3.698c0-5.332,1.329-10.255,2.614-15.017
				c2.075-7.685,3.866-14.323-0.18-20.998c-2.925-4.825-2.929-10.65-2.933-16.283c-0.006-8.731-0.011-16.272-9.92-19.775
				c-11.24-3.974-33.748-8.228-49.339-8.228c-10.507,0-13.339,1.953-14.07,2.793l-0.227,0.261l-0.318,0.135
				c-0.42,0.179-10.411,4.371-21.546,4.372c-3.335,0-6.458-0.385-9.282-1.145C69.534,48.171,60.832,46.077,53.703,46.077z"/>
		</g>
	</g>
	<g display="inline">
		<path fill="#F5EDD8" d="M157.143,99.689c0,0,16.479-7.339,17.775,1.613c1.296,8.951,0,32.894,0,32.894s-17.775,3.565-17.775,0"/>
		<path fill="#1D1E1C" d="M162.312,137.256c-3.9,0-5.283-0.75-5.718-1.106c-0.613-0.502-0.951-1.197-0.951-1.954h3
			c0-0.173-0.096-0.324-0.147-0.366c1.055,0.864,7.896,0.444,14.984-0.883c0.236-4.897,1.053-23.845-0.045-31.43
			c-0.175-1.209-0.682-2.007-1.594-2.511c-3.463-1.913-11.344,0.834-14.087,2.054l-1.22-2.741c1.147-0.512,11.372-4.911,16.755-1.94
			c1.73,0.954,2.807,2.582,3.115,4.708c1.303,8.995,0.067,32.206,0.013,33.189l-0.062,1.161l-1.14,0.229
			C169.223,136.868,165.116,137.255,162.312,137.256z"/>
	</g>
	<g display="inline">
		<path fill="#1D1E1C" d="M162.537,128.019h-3c0-1.337,0.153-3.227,1.474-4.205c1.358-1.005,3.018-0.499,4.623-0.009
			c1.282,0.392,2.607,0.797,3.734,0.506c0.823-0.212,1.072-0.276,0.134-4.291c-0.532-2.277-1.194-5.11-1.259-8.582
			c-0.03-1.596-0.401-2.166-0.593-2.244c-0.892-0.363-3.72,1.467-5.56,3.283l-2.107-2.135c1.262-1.248,5.627-5.218,8.798-3.927
			c1.583,0.645,2.412,2.315,2.461,4.967c0.059,3.154,0.681,5.815,1.181,7.955c0.789,3.377,1.605,6.869-2.306,7.878
			c-1.942,0.499-3.837-0.077-5.359-0.542c-0.675-0.206-1.695-0.516-1.995-0.429C162.778,126.257,162.537,126.632,162.537,128.019z"
			/>
	</g>
	<g display="inline">
		<path fill="#1D1E1C" d="M160.988,123.725l-1.151-2.77c2.752-1.147,5.04-2.926,4.982-3.578c0-0.01-0.361-1.06-4.729-2.023
			l0.646-2.93c2.915,0.644,6.818,1.829,7.071,4.689C168.106,120.497,162.663,123.029,160.988,123.725z"/>
	</g>
</g>
<g display="none">
	<g display="inline">
		<g>
			<path fill="#F5EDD8" d="M65.792,103.614c0,0-16.479-6.298-17.775,1.383c-1.296,7.682,0,28.229,0,28.229s17.775,3.06,17.775,0"/>
			<path fill="#1D1E1C" d="M60.625,136.076c-2.807,0-6.898-0.345-12.863-1.372l-1.168-0.201l-0.075-1.183
				c-0.053-0.846-1.292-20.809,0.018-28.572c0.293-1.739,1.241-3.112,2.741-3.969c5.181-2.96,15.849,0.976,17.049,1.434
				l-1.071,2.803c-2.894-1.104-11.136-3.548-14.491-1.631c-0.722,0.413-1.125,1.005-1.271,1.863
				c-1.076,6.377-0.299,22.226-0.051,26.695c6.543,1.046,13.868,1.581,15.083,0.738c-0.074,0.051-0.235,0.26-0.235,0.546h3
				c0,0.675-0.299,1.299-0.843,1.757C65.943,135.41,64.525,136.076,60.625,136.076z"/>
		</g>
		<g>
			<path fill="#1D1E1C" d="M67.292,128.208h-3c0-1.214-0.281-1.537-0.367-1.606c-0.515-0.419-2.422-0.022-3.956,0.295
				c-2.21,0.458-4.718,0.978-7.259,0.533c-1.747-0.306-2.892-0.957-3.501-1.99c-0.973-1.65-0.303-3.596,0.545-6.061
				c0.727-2.111,1.631-4.738,1.716-7.821c0.078-2.846,1.384-4.108,2.465-4.666c4.052-2.09,11.283,2.517,12.692,3.461l-1.67,2.492
				c-2.896-1.938-7.805-4.238-9.647-3.288c-0.196,0.102-0.795,0.411-0.841,2.083c-0.098,3.542-1.085,6.411-1.878,8.715
				c-0.476,1.382-1.068,3.103-0.798,3.56c0.034,0.058,0.262,0.354,1.435,0.559c1.977,0.346,4.185-0.111,6.132-0.515
				c2.488-0.516,4.838-1.003,6.458,0.315C66.81,125.082,67.292,126.368,67.292,128.208z"/>
		</g>
		<g>
			<path fill="#1D1E1C" d="M65.342,124.699c-3.401-1.069-9.073-3.344-8.849-6.574c0.162-2.323,2.868-3.754,9.051-4.787l0.494,2.959
				c-5.107,0.853-6.28,1.789-6.52,2.055c0.445,0.857,3.611,2.508,6.722,3.485L65.342,124.699z"/>
		</g>
	</g>
	<g display="inline">
		<path fill="#1D1E1C" d="M58.881,98.894c0,0-13.005-1.891-11.902-14.909c1.104-13.018,1.104-13.018,1.104-13.018
			s-3.19-11.743,12.982-16.197c16.173-4.455,16.471,8.728,33.329,1.934c16.858-6.793,15.319-9.223,28.844-8.413
			c13.525,0.81,24.053-1.62,25.268-2.834s7.289,6.884,7.289,6.884l10.87,14.172l10.178,19.437l-5.134,19.359"/>
	</g>
	<g display="inline">
		<path fill="#F5EDD8" d="M159.131,102.958c0,0,16.479-7.339,17.775,1.612s0,32.894,0,32.894s-17.775,3.565-17.775,0"/>
		<path fill="#1D1E1C" d="M164.3,140.525c-3.9,0-5.283-0.75-5.718-1.106c-0.613-0.502-0.951-1.197-0.951-1.954h3
			c0-0.173-0.096-0.324-0.147-0.366c1.055,0.864,7.896,0.443,14.984-0.883c0.236-4.897,1.053-23.845-0.045-31.43
			c-0.175-1.209-0.682-2.007-1.594-2.51c-3.461-1.912-11.344,0.834-14.087,2.054l-1.22-2.741c1.148-0.512,11.372-4.909,16.755-1.941
			c1.73,0.954,2.807,2.582,3.115,4.708c1.303,8.996,0.067,32.207,0.013,33.19l-0.062,1.161l-1.14,0.229
			C171.211,140.137,167.104,140.525,164.3,140.525z"/>
	</g>
	<g display="inline">
		<path fill="#1D1E1C" d="M164.524,131.288h-3c0-1.337,0.153-3.227,1.474-4.205c1.358-1.006,3.018-0.499,4.624-0.009
			c1.282,0.391,2.607,0.798,3.734,0.506c0.823-0.212,1.072-0.276,0.134-4.291c-0.532-2.277-1.194-5.11-1.259-8.582
			c-0.03-1.596-0.401-2.166-0.593-2.244c-0.887-0.36-3.72,1.468-5.56,3.283l-2.107-2.135c1.262-1.247,5.631-5.217,8.798-3.927
			c1.584,0.645,2.412,2.315,2.461,4.966c0.059,3.154,0.681,5.816,1.181,7.955c0.789,3.377,1.605,6.869-2.306,7.878
			c-1.942,0.5-3.837-0.078-5.359-0.542c-0.676-0.207-1.698-0.517-1.995-0.43C164.766,129.527,164.524,129.901,164.524,131.288z"/>
	</g>
	<g display="inline">
		<path fill="#1D1E1C" d="M163.152,126.598l-1.151-2.77c2.752-1.147,5.04-2.926,4.982-3.578c0-0.01-0.361-1.06-4.729-2.023
			l0.646-2.93c2.915,0.644,6.818,1.83,7.071,4.689C170.27,123.37,164.827,125.902,163.152,126.598z"/>
	</g>
	<g display="inline">
		<g>
			<path fill="#F5EDD8" d="M149.76,179.841H77.33c-6.6,0-12-5.4-12-12V71.382c0-6.6,5.4-12,12-12h72.43c6.6,0,12,5.4,12,12v96.459
				C161.76,174.441,156.359,179.841,149.76,179.841z"/>
		</g>
		<g>
			<path fill="#1D1E1C" d="M149.76,181.341H77.33c-7.444,0-13.5-6.056-13.5-13.5V71.382c0-7.444,6.056-13.5,13.5-13.5h72.43
				c7.444,0,13.5,6.056,13.5,13.5v96.459C163.26,175.285,157.204,181.341,149.76,181.341z M77.33,60.882
				c-5.79,0-10.5,4.71-10.5,10.5v96.459c0,5.79,4.71,10.5,10.5,10.5h72.43c5.79,0,10.5-4.71,10.5-10.5V71.382
				c0-5.79-4.71-10.5-10.5-10.5H77.33z"/>
		</g>
	</g>
	<g display="inline">
		<g>
			<path fill="#1D1E1C" d="M103.467,82.134V91.5c0,0-20.654-4.563-25.938,0c-5.284,4.563-5.284,4.563-5.284,4.563V79.973
				C72.245,79.973,103.467,80.213,103.467,82.134z"/>
		</g>
		<g>
			<path fill="#1D1E1C" d="M72.245,79.973c0,0,31.222,0.24,31.222,2.161V91.5"/>
		</g>
	</g>
	<g display="inline">
		<g>
			<path fill="#1D1E1C" d="M119.197,82.134V91.5c0,0,20.654-4.563,25.938,0c5.283,4.563,5.283,4.563,5.283,4.563V79.973
				C150.418,79.973,119.197,80.213,119.197,82.134z"/>
		</g>
		<g>
			<path fill="#1D1E1C" d="M150.418,79.973c0,0-31.221,0.24-31.221,2.161V91.5"/>
		</g>
	</g>
	<g display="inline">
		<rect x="97.352" y="65.339" fill="#1D1E1C" width="25.293" height="3"/>
	</g>
	<g display="inline">
		<rect x="85.057" y="70.917" fill="#1D1E1C" width="49.037" height="3"/>
	</g>
	<g display="inline">
		<g>
			<polygon fill="#F5EDD8" points="91.998,156.276 102.022,148.257 105.96,152.267 111.602,148.257 123.408,156.276 105.96,166.713 
							"/>
		</g>
		<g>
			<path fill="#1D1E1C" d="M105.867,168.516l-16.321-12.2l12.597-10.077l3.99,4.063l5.448-3.873l14.614,9.926L105.867,168.516z
				 M94.45,156.236l11.603,8.673l14.567-8.713l-8.999-6.113l-5.835,4.147l-3.885-3.956L94.45,156.236z"/>
		</g>
	</g>
	<g display="inline">
		<path fill="#1D1E1C" d="M94.739,172.566c0,0-13.034,13.654,0,21.723c13.034,8.068,19.24,14.896,12.413,19.55s-7.7,7.758-7.7,7.758
			l20.777-7.758c0,0,1.905-3.724,0-15.206c-1.905-11.482,2.365-24.516,5.971-26.067C129.806,171.014,94.739,172.566,94.739,172.566z
			"/>
	</g>
	<g display="inline">
		<rect x="91.998" y="154.776" fill="#1D1E1C" width="31.41" height="3"/>
	</g>
	<g display="inline">
		<path fill="#1D1E1C" d="M112.585,139.056c-2.255,0-4.322-0.421-5.21-1.731c-0.464-0.685-1.2-0.879-2.27-1.099
			c-0.961-0.197-2.158-0.442-2.642-1.627c-0.509-1.248,0.246-2.643,1.138-3.966c2.258-3.348,0.643-10.051-0.17-12.351l2.828-1.003
			c0.14,0.395,3.398,9.743-0.17,15.032c-0.276,0.41-0.457,0.715-0.574,0.937c0.067,0.014,0.132,0.027,0.193,0.04
			c1.181,0.242,2.966,0.608,4.15,2.353c0.15,0.128,1.293,0.557,4.078,0.37c3.108-0.211,5.81-0.973,7.145-1.582
			c-0.037-0.013-0.076-0.025-0.116-0.039c-6.985-2.254-8.276-9.613-7.984-13.188l2.99,0.245l-1.495-0.123l1.495,0.119
			c-0.025,0.326-0.538,8.01,5.916,10.093c0.723,0.233,2.925,0.944,2.907,2.816c-0.014,1.501-1.434,2.627-4.468,3.543
			C119.056,138.279,115.647,139.056,112.585,139.056z"/>
	</g>
	<g display="inline">
		<path fill="#1D1E1C" d="M77.025,59.382c0,0-2.65-5.854,13.7-10.191c16.35-4.338,20.354-13.347,20.688-14.682
			c0.334-1.335,24.025,17.018,24.025,17.018"/>
	</g>
	<g display="inline">
		<polygon fill="#1D1E1C" points="82.668,59.382 89.583,54.758 97.113,54.758 95.577,59.829 		"/>
	</g>
	<g display="inline">
		<path fill="#1D1E1C" d="M86.398,124.9c-8.062,0-14.282-2.61-18.485-7.759c-8.965-10.982-5.319-29.46-5.16-30.242l0.327-1.6h46.635
			l0.327,1.6c0.16,0.781,3.806,19.259-5.16,30.242C100.68,122.29,94.461,124.9,86.398,124.9z M66.414,89.3
			c-0.632,4.516-1.767,17.526,4.606,25.321c3.406,4.167,8.581,6.28,15.378,6.28c6.803,0,11.979-2.116,15.386-6.289
			c6.381-7.816,5.237-20.802,4.6-25.312H66.414z"/>
	</g>
	<g display="inline">
		<path fill="#1D1E1C" d="M137.355,124.9c-8.062,0-14.281-2.61-18.484-7.759c-8.966-10.982-5.319-29.46-5.16-30.242l0.327-1.6
			h46.635l0.327,1.6c0.16,0.781,3.806,19.259-5.16,30.242C151.637,122.29,145.418,124.9,137.355,124.9z M117.372,89.3
			c-0.632,4.516-1.768,17.526,4.605,25.321c3.406,4.167,8.581,6.279,15.378,6.279s11.972-2.113,15.378-6.28
			c6.373-7.795,5.238-20.805,4.606-25.321H117.372z"/>
	</g>
	<g display="inline">
		<rect x="105.404" y="85.3" fill="#1D1E1C" width="25.407" height="4"/>
	</g>
	<g display="inline">
		<path fill="#FFFFFF" d="M69.122,101.637c0,0,17.199,19.882,34.551,0"/>
	</g>
	<g display="inline">
		<g>
			<path fill="#FFFFFF" d="M69.123,101.866c0,0,17.199-19.881,34.551,0"/>
		</g>
		<g>
			<path fill="#1D1E1C" d="M102.544,102.853c-4.82-5.522-10.049-8.322-15.54-8.322c-0.006,0-0.011,0-0.017,0
				c-9.4,0.009-16.659,8.235-16.731,8.319l-2.268-1.964c0.33-0.381,8.195-9.331,18.973-9.354c0.014,0,0.029,0,0.043,0
				c6.396,0,12.384,3.145,17.799,9.35L102.544,102.853z"/>
		</g>
	</g>
	<g display="inline">
		<circle fill="#1D1E1C" cx="87.025" cy="101.866" r="4.935"/>
		<path fill="#E86156" d="M87.025,108.302c-3.548,0-6.436-2.887-6.436-6.436s2.887-6.436,6.436-6.436s6.435,2.887,6.435,6.436
			S90.574,108.302,87.025,108.302z M87.025,98.431c-1.895,0-3.436,1.541-3.436,3.436s1.541,3.436,3.436,3.436
			c1.894,0,3.435-1.541,3.435-3.436S88.919,98.431,87.025,98.431z"/>
	</g>
	<g display="inline">
		<path fill="#FFFFFF" d="M120.08,101.637c0,0,17.199,19.882,34.551,0"/>
	</g>
	<g display="inline">
		<g>
			<path fill="#FFFFFF" d="M120.081,101.866c0,0,17.198-19.881,34.551,0"/>
		</g>
		<g>
			<path fill="#1D1E1C" d="M153.502,102.853c-4.82-5.522-10.049-8.322-15.54-8.322c-0.012,0-0.024,0-0.036,0
				c-9.424,0.021-16.639,8.234-16.71,8.317l-2.269-1.963c0.33-0.381,8.195-9.331,18.973-9.354c0.014,0,0.029,0,0.043,0
				c6.396,0,12.384,3.145,17.799,9.35L153.502,102.853z"/>
		</g>
	</g>
	<g display="inline">
		<circle fill="#1D1E1C" cx="137.983" cy="101.866" r="4.935"/>
		<path fill="#E86156" d="M137.983,108.302c-3.548,0-6.436-2.887-6.436-6.436s2.887-6.436,6.436-6.436s6.435,2.887,6.435,6.436
			S141.531,108.302,137.983,108.302z M137.983,98.431c-1.895,0-3.436,1.541-3.436,3.436s1.541,3.436,3.436,3.436
			c1.894,0,3.435-1.541,3.435-3.436S139.877,98.431,137.983,98.431z"/>
	</g>
	<g display="inline">
		<path fill="#1D1E1C" d="M61.451,102.608c0,0-17.629-5.374-12.48-16.872S63.123,87.3,63.123,87.3l0.786,10.148"/>
	</g>
</g>
<g>
	<g>
		<polygon fill="#E85F54" points="100.921,33.487 116.574,33.2 118.393,58.713 97.81,58.713 100.921,33.2 		"/>
	</g>
	<g>
		<path fill="#E85F54" d="M107.764,33.841c0,0-74.08-15.203-74.08,62.321c0,77.523-33.26,67.697-33.26,67.697l64.242,8.167"/>
		<path fill="#1D1E1C" d="M64.477,173.513L3.486,165.76c-2.048-0.053-3.356-0.424-3.487-0.463l0.614-2.926l3.167,0.402
			c2.645,0.046,6.764-0.587,11.067-3.832c7.909-5.964,17.337-21.697,17.337-62.78c0-23.667,6.832-41.239,20.307-52.229
			c22.24-18.141,54.223-11.838,55.574-11.561l-0.603,2.939c-0.318-0.065-31.97-6.284-53.09,10.958
			c-12.732,10.394-19.188,27.18-19.188,49.893c0,34.058-6.264,56.008-18.617,65.239c-1.4,1.046-2.788,1.854-4.13,2.473l52.417,6.664
			L64.477,173.513z"/>
	</g>
	<g>
		<path fill="#E85F54" d="M106.789,33.841c0,0,74.08-15.203,74.08,62.321c0,77.523,33.26,67.697,33.26,67.697l-64.242,8.167"/>
		<path fill="#1D1E1C" d="M150.076,173.513l-0.378-2.976l52.417-6.664c-1.342-0.619-2.73-1.426-4.13-2.473
			c-12.353-9.231-18.617-31.181-18.617-65.239c0-22.722-6.461-39.512-19.203-49.905c-21.148-17.25-52.76-11.012-53.075-10.947
			l-0.604-2.938c1.352-0.276,33.334-6.58,55.575,11.561c13.475,10.99,20.307,28.562,20.307,52.229c0,41.18,9.469,56.9,17.413,62.836
			c4.306,3.218,8.443,3.813,11.087,3.763l3.071-0.39l0.614,2.926c-0.131,0.039-1.439,0.41-3.487,0.463L150.076,173.513z"/>
	</g>
	<g>
		<path fill="#F5EDD8" d="M64.036,98.98c0,0-16.479-6.298-17.775,1.384c-1.297,7.682,0,28.229,0,28.229s17.775,3.06,17.775,0"/>
		<path fill="#1D1E1C" d="M58.869,131.442c-2.807,0-6.898-0.345-12.863-1.372l-1.168-0.201l-0.075-1.183
			c-0.053-0.846-1.292-20.81,0.018-28.573c0.293-1.739,1.241-3.112,2.741-3.969c5.179-2.959,15.85,0.975,17.049,1.434l-1.071,2.803
			c-2.894-1.104-11.14-3.55-14.491-1.631c-0.722,0.413-1.125,1.005-1.271,1.863c-1.077,6.377-0.3,22.226-0.051,26.695
			c6.544,1.046,13.868,1.581,15.083,0.738c-0.074,0.051-0.235,0.26-0.235,0.546h3c0,0.675-0.299,1.299-0.843,1.757
			C64.188,130.776,62.77,131.442,58.869,131.442z"/>
	</g>
	<g>
		<g>
			<path fill="#F5EDD8" d="M148.465,179.592H76.036c-6.601,0-12-5.4-12-12V71.133c0-6.6,5.399-12,12-12h72.429c6.6,0,12,5.4,12,12
				v96.459C160.465,174.192,155.065,179.592,148.465,179.592z"/>
		</g>
		<g>
			<path fill="#1D1E1C" d="M148.465,181.092H76.036c-7.444,0-13.5-6.056-13.5-13.5V71.133c0-7.444,6.056-13.5,13.5-13.5h72.429
				c7.444,0,13.5,6.056,13.5,13.5v96.459C161.965,175.036,155.909,181.092,148.465,181.092z M76.036,60.633
				c-5.79,0-10.5,4.71-10.5,10.5v96.459c0,5.79,4.71,10.5,10.5,10.5h72.429c5.79,0,10.5-4.71,10.5-10.5V71.133
				c0-5.79-4.71-10.5-10.5-10.5H76.036z"/>
		</g>
	</g>
	<g>
		<path fill="#1D1E1C" d="M104.472,138.802c-2.26,0-4.49-0.468-5.219-0.637c-2.519-0.582-6.77-1.939-6.945-4.498
			c-0.093-1.358,0.859-2.427,2.829-3.176c6.554-2.494,5.993-12.119,5.987-12.216l2.993-0.206c0.034,0.486,0.727,11.938-7.913,15.225
			c-0.282,0.107-0.489,0.205-0.638,0.287c1.068,0.79,4.38,1.989,8.01,2.2c2.562,0.149,3.498-0.353,3.608-0.496
			c1.158-2.012,3.033-2.465,4.153-2.736c0.117-0.028,0.253-0.061,0.377-0.094c-0.098-0.285-0.309-0.775-0.766-1.575
			c-3.466-6.057-0.272-16.859-0.134-17.316l2.873,0.865c-0.03,0.1-2.959,10.024-0.135,14.961c1.01,1.764,1.574,3.189,1.046,4.414
			c-0.502,1.165-1.641,1.44-2.557,1.662c-1.084,0.262-1.777,0.482-2.263,1.325C108.874,138.363,106.659,138.802,104.472,138.802z"/>
	</g>
	<g>
		<polygon fill="#E85F54" points="89.588,156.027 99.612,148.008 103.55,152.018 109.191,148.008 120.998,156.027 103.55,166.464 		
			"/>
		<path fill="#1D1E1C" d="M103.457,168.267l-16.321-12.2l12.597-10.077l3.99,4.063l5.448-3.873l14.614,9.926L103.457,168.267z
			 M92.04,155.987l11.603,8.673l14.567-8.713l-8.999-6.113l-5.835,4.147l-3.885-3.956L92.04,155.987z"/>
	</g>
	<g>
		<path fill="#1D1E1C" d="M65.536,123.575h-3c0-1.214-0.281-1.537-0.367-1.607c-0.513-0.416-2.421-0.022-3.956,0.296
			c-2.21,0.458-4.715,0.978-7.259,0.533c-1.747-0.306-2.892-0.957-3.501-1.99c-0.973-1.65-0.303-3.596,0.545-6.061
			c0.727-2.111,1.631-4.738,1.716-7.821c0.079-2.846,1.384-4.108,2.465-4.666c4.046-2.089,11.283,2.517,12.692,3.461l-1.67,2.492
			c-2.897-1.938-7.806-4.24-9.647-3.288c-0.197,0.102-0.795,0.411-0.841,2.083c-0.098,3.542-1.085,6.41-1.878,8.714
			c-0.476,1.382-1.068,3.103-0.798,3.56c0.034,0.058,0.262,0.354,1.435,0.559c1.978,0.347,4.185-0.112,6.132-0.515
			c2.489-0.516,4.84-1.002,6.459,0.315C65.054,120.448,65.536,121.735,65.536,123.575z"/>
	</g>
	<g>
		<rect x="89.588" y="154.527" fill="#1D1E1C" width="31.41" height="3"/>
	</g>
	<g>
		<path fill="#F5EDD8" d="M157.196,99.382c0,0,16.479-7.339,17.775,1.612c1.297,8.951,0,32.894,0,32.894s-17.775,3.566-17.775,0"/>
		<path fill="#1D1E1C" d="M162.365,136.949c-3.899,0-5.283-0.75-5.718-1.106c-0.613-0.502-0.951-1.196-0.951-1.954h3
			c0-0.173-0.096-0.324-0.147-0.366c1.055,0.865,7.895,0.444,14.983-0.883c0.236-4.897,1.053-23.845-0.045-31.43
			c-0.175-1.21-0.682-2.008-1.595-2.511c-3.471-1.912-11.345,0.833-14.085,2.054l-1.221-2.74c1.148-0.512,11.371-4.908,16.755-1.941
			c1.73,0.954,2.807,2.582,3.115,4.708c1.303,8.995,0.067,32.206,0.013,33.189l-0.062,1.161l-1.14,0.229
			C169.275,136.561,165.169,136.949,162.365,136.949z"/>
	</g>
	<g>
		<path fill="#1D1E1C" d="M162.589,127.712h-3c0-1.337,0.153-3.228,1.474-4.206c1.358-1.006,3.018-0.498,4.623-0.009
			c1.283,0.392,2.609,0.795,3.733,0.505c0.824-0.212,1.073-0.276,0.134-4.291c-0.532-2.277-1.194-5.11-1.259-8.581
			c-0.03-1.597-0.401-2.166-0.593-2.244c-0.894-0.361-3.72,1.467-5.56,3.283l-2.107-2.135c1.263-1.248,5.628-5.217,8.798-3.927
			c1.583,0.645,2.411,2.316,2.46,4.967c0.06,3.153,0.681,5.815,1.181,7.954c0.79,3.377,1.605,6.87-2.306,7.879
			c-1.944,0.501-3.838-0.078-5.358-0.542c-0.676-0.206-1.697-0.519-1.995-0.429C162.831,125.95,162.589,126.325,162.589,127.712z"/>
	</g>
	<g>
		<polyline fill="#E85F54" points="64.036,48.76 64.036,81.5 127.376,81.5 137.811,65.13 137.811,81.5 160.465,81.5 160.465,48.76 
					"/>
		<polygon fill="#1D1E1C" points="161.965,83 136.311,83 136.311,70.274 128.199,83 62.536,83 62.536,48.76 65.536,48.76 65.536,80 
			126.554,80 139.311,59.986 139.311,80 158.965,80 158.965,48.76 161.965,48.76 		"/>
	</g>
	<g>
		<rect x="60.206" y="47.576" fill="#E85F54" width="7.363" height="32.339"/>
	</g>
	<g>
		<rect x="156.784" y="50.138" fill="#E85F54" width="7.363" height="29.777"/>
	</g>
	<g>
		<polygon fill="#E85F54" points="158.302,47.957 160.852,47.957 162.199,48.503 162.964,50.138 157.573,51.854 		"/>
	</g>
	<g>
		<path fill="#FFFFFF" d="M67.568,100.812c0,0,17.199,19.882,34.551,0"/>
	</g>
	<g>
		<path fill="#FFFFFF" d="M118.393,100.812c0,0,17.199,19.882,34.551,0"/>
	</g>
	<g>
		<g>
			<path fill="#FFFFFF" d="M67.569,101.042c0,0,17.199-19.881,34.551,0"/>
		</g>
		<g>
			<path fill="#1D1E1C" d="M100.991,102.028c-4.82-5.522-10.048-8.322-15.54-8.322c-0.005,0-0.011,0-0.016,0
				c-9.4,0.009-16.66,8.235-16.732,8.319l-2.268-1.964c0.33-0.381,8.196-9.331,18.974-9.354c0.014,0,0.028,0,0.042,0
				c6.396,0,12.384,3.145,17.799,9.35L100.991,102.028z"/>
		</g>
	</g>
	<g>
		<circle fill="#1D1E1C" cx="85.471" cy="101.042" r="4.935"/>
		<path fill="#42B18A" d="M85.472,107.477c-3.548,0-6.436-2.887-6.436-6.436s2.887-6.435,6.436-6.435s6.435,2.887,6.435,6.435
			S89.02,107.477,85.472,107.477z M85.472,97.606c-1.895,0-3.436,1.541-3.436,3.435c0,1.895,1.541,3.436,3.436,3.436
			c1.894,0,3.435-1.541,3.435-3.436C88.907,99.147,87.366,97.606,85.472,97.606z"/>
	</g>
	<g>
		<g>
			<path fill="#FFFFFF" d="M118.395,101.042c0,0,17.199-19.881,34.551,0"/>
		</g>
		<g>
			<path fill="#1D1E1C" d="M151.815,102.028c-4.82-5.522-10.049-8.322-15.54-8.322c-0.005,0-0.01,0-0.016,0
				c-9.4,0.009-16.659,8.235-16.731,8.319l-2.268-1.964c0.33-0.381,8.195-9.331,18.973-9.354c0.014,0,0.029,0,0.043,0
				c6.396,0,12.384,3.145,17.799,9.35L151.815,102.028z"/>
		</g>
	</g>
	<g>
		<circle fill="#1D1E1C" cx="136.296" cy="101.042" r="4.935"/>
		<path fill="#42B18A" d="M136.296,107.477c-3.548,0-6.435-2.887-6.435-6.436s2.887-6.435,6.435-6.435s6.435,2.887,6.435,6.435
			S139.845,107.477,136.296,107.477z M136.296,97.606c-1.894,0-3.435,1.541-3.435,3.435c0,1.895,1.541,3.436,3.435,3.436
			s3.435-1.541,3.435-3.436C139.731,99.147,138.19,97.606,136.296,97.606z"/>
	</g>
	<g>
		<path fill="#1D1E1C" d="M63.586,120.065c-3.401-1.069-9.074-3.344-8.849-6.574c0.162-2.323,2.869-3.754,9.052-4.787l0.494,2.959
			c-5.107,0.853-6.28,1.789-6.52,2.055c0.445,0.854,3.61,2.505,6.723,3.486L63.586,120.065z"/>
	</g>
	<g>
		<path fill="#1D1E1C" d="M161.217,123.021l-1.151-2.77c2.752-1.147,5.04-2.926,4.982-3.578c0-0.01-0.361-1.06-4.729-2.023
			l0.646-2.93c2.915,0.644,6.818,1.829,7.071,4.689C168.335,119.793,162.892,122.326,161.217,123.021z"/>
	</g>
</g>
</svg>
