<?xml version="1.0" encoding="utf-8"?>
<!-- Generator: Adobe Illustrator 16.0.0, SVG Export Plug-In . SVG Version: 6.00 Build 0)  -->
<!DOCTYPE svg PUBLIC "-//W3C//DTD SVG 1.1//EN" "http://www.w3.org/Graphics/SVG/1.1/DTD/svg11.dtd">
<svg version="1.1" id="Layer_1" xmlns="http://www.w3.org/2000/svg" xmlns:xlink="http://www.w3.org/1999/xlink" x="0px" y="0px"
	 width="160.572px" height="366.838px" viewBox="0 0 160.572 366.838" enable-background="new 0 0 160.572 366.838"
	 xml:space="preserve">
<g>
	<polygon fill="#FFD15C" stroke="#1D1E1C" stroke-width="5" stroke-miterlimit="10" points="99.533,59.338 111.866,57.98 
		135.21,62.902 144.923,73.601 144.923,81.187 9.507,347.771 16.09,318.702 	"/>
	<polyline fill="none" stroke="#000000" stroke-width="4" stroke-miterlimit="10" points="100.083,57.98 1.904,362.739 
		105.167,103.843 	"/>
	<line fill="none" stroke="#000000" stroke-width="4" stroke-miterlimit="10" x1="144.923" y1="81.187" x2="1.904" y2="362.739"/>
	<path d="M156.668,1.013c0.963-0.337,1.927-0.675,2.89-1.013c0.338,0.963,0.677,1.926,1.014,2.89
		c-0.053,0.313-0.133,0.626-0.152,0.942c-2.06,32.026-4.113,64.055-6.166,96.082c-0.173,2.706-1.772,3.596-4.129,2.264
		c-7.136-4.039-14.268-8.086-21.402-12.127c-0.332-0.188-0.678-0.354-1.04-0.541c-0.168,0.324-0.29,0.546-0.398,0.774
		c-7.168,15.036-14.33,30.074-21.504,45.106c-0.434,0.91-0.957,1.777-1.438,2.665c-0.48,0.169-0.964,0.338-1.445,0.507
		c-0.822-0.35-1.662-0.667-2.468-1.055c-4.021-1.932-8.038-3.874-12.047-5.836c-0.607-0.299-1.154-0.725-1.729-1.091
		c-0.146-0.413-0.291-0.826-0.435-1.239c0.231-0.644,0.411-1.312,0.705-1.928c7.222-15.169,14.456-30.332,21.686-45.496
		c0.138-0.287,0.247-0.586,0.402-0.955c-0.731-0.309-1.396-0.591-2.062-0.869c-7.057-2.962-14.117-5.913-21.168-8.889
		c-2.126-0.896-2.432-2.738-0.741-4.291c21.357-19.615,42.72-39.225,64.074-58.843C151.652,5.74,154.152,3.367,156.668,1.013z"/>
</g>
</svg>
