<?xml version="1.0" encoding="utf-8"?>
<!-- Generator: Adobe Illustrator 16.0.0, SVG Export Plug-In . SVG Version: 6.00 Build 0)  -->
<!DOCTYPE svg PUBLIC "-//W3C//DTD SVG 1.1//EN" "http://www.w3.org/Graphics/SVG/1.1/DTD/svg11.dtd">
<svg version="1.1" id="Layer_1" xmlns="http://www.w3.org/2000/svg" xmlns:xlink="http://www.w3.org/1999/xlink" x="0px" y="0px"
	 width="310.072px" height="212.573px" viewBox="0 0 310.072 212.573" enable-background="new 0 0 310.072 212.573"
	 xml:space="preserve">
<path fill="#FFFFFF" stroke="#000000" stroke-width="10" stroke-miterlimit="10" d="M66.451,21.597h238.593l-0.952,170.235
	c0,0-0.92,15.706-28.986,15.706c-28.067,0-244.767,0-244.767,0S5,209.138,5,190.719s0-141.15,0-141.15s34.055,10.375,42.588-9.818
	C47.588,39.75,58.016,23.474,66.451,21.597z"/>
<g>
	<circle fill="#FFFFFF" cx="23.869" cy="21.597" r="16.597"/>
	<path d="M23.869,43.194c-11.909,0-21.598-9.688-21.598-21.597S11.96,0,23.869,0c11.908,0,21.597,9.688,21.597,21.597
		S35.777,43.194,23.869,43.194z M23.869,10c-6.395,0-11.598,5.203-11.598,11.597s5.203,11.597,11.598,11.597
		c6.395,0,11.597-5.203,11.597-11.597S30.264,10,23.869,10z"/>
</g>
<polygon points="90.704,21.597 64.195,70.781 102.563,70.781 126.282,21.597 "/>
<polygon points="156.977,21.597 130.468,70.781 168.835,70.781 192.554,21.597 "/>
<polygon points="226.696,21.597 200.188,70.781 238.556,70.781 262.273,21.597 "/>
</svg>
