<?xml version="1.0" encoding="utf-8"?>
<!-- Generator: Adobe Illustrator 16.0.0, SVG Export Plug-In . SVG Version: 6.00 Build 0)  -->
<!DOCTYPE svg PUBLIC "-//W3C//DTD SVG 1.1//EN" "http://www.w3.org/Graphics/SVG/1.1/DTD/svg11.dtd">
<svg version="1.1" id="Layer_1" xmlns="http://www.w3.org/2000/svg" xmlns:xlink="http://www.w3.org/1999/xlink" x="0px" y="0px"
	 width="309.156px" height="56.313px" viewBox="0 0 309.156 56.313" enable-background="new 0 0 309.156 56.313"
	 xml:space="preserve">
<g>
	<g>
		<path fill="#FFFFFF" d="M5.255,23.26c0,0,0.607-18.333,23.859-18.26c23.251,0.071,243.919,1.403,243.919,1.403
			s30.09-3.568,30.683,17.927c0.594,21.495,0.415,26.951,0.415,26.951L66.87,49.723c0,0-17.337,4.305-21.538-12.497
			C41.13,20.424,11.531,20.654,5.255,23.26z"/>
		<path d="M308.969,56.313L67.377,54.727c-0.985,0.191-2.906,0.49-5.292,0.49c-11.063,0-18.937-6.115-21.603-16.778
			c-2.121-8.479-14.84-11.489-25.087-11.489c-4.393,0-7.324,0.556-8.223,0.929L0,30.855l0.258-7.762C0.265,22.863,1.344,0,28.975,0
			h0.154c22.617,0.069,234.625,1.348,243.655,1.401c0.727-0.072,2.512-0.22,4.935-0.22c19.011,0,30.598,8.603,30.995,23.011
			c0.591,21.399,0.422,27.023,0.414,27.253L308.969,56.313z M66.903,44.723l232.245,1.525c-0.025-3.967-0.125-10.759-0.43-21.78
			c-0.303-10.981-11.587-13.286-20.999-13.286c-2.441,0-4.09,0.187-4.105,0.188l-0.3,0.035l-0.311-0.001
			C270.797,11.39,52.077,10.07,29.099,10h-0.124c-7.624,0-13.057,2.215-16.148,6.584c-0.102,0.145-0.2,0.289-0.294,0.434
			c0.923-0.045,1.88-0.068,2.862-0.068c4.198,0,12.368,0.459,19.917,3.532c8.003,3.257,13.146,8.628,14.872,15.531
			c0.569,2.276,2.301,9.204,11.902,9.204c2.082,0,3.594-0.351,3.609-0.354l0.582-0.137L66.903,44.723z"/>
	</g>
	<g>
		<polygon fill="#1D1E1C" points="73.698,9.502 80.462,46.562 114.892,47.211 105.709,5.413 		"/>
	</g>
	<g>
		<polygon fill="#1D1E1C" points="146.5,10.126 153.265,47.186 187.694,47.834 178.511,6.037 		"/>
	</g>
	<g>
		<polygon fill="#1D1E1C" points="214.149,10.232 220.914,47.294 255.344,47.943 246.162,6.144 		"/>
	</g>
</g>
</svg>
