<?xml version="1.0" encoding="utf-8"?>
<!-- Generator: Adobe Illustrator 16.0.0, SVG Export Plug-In . SVG Version: 6.00 Build 0)  -->
<!DOCTYPE svg PUBLIC "-//W3C//DTD SVG 1.1//EN" "http://www.w3.org/Graphics/SVG/1.1/DTD/svg11.dtd">
<svg version="1.1" id="Layer_1" xmlns="http://www.w3.org/2000/svg" xmlns:xlink="http://www.w3.org/1999/xlink" x="0px" y="0px"
	 width="252.805px" height="375.69px" viewBox="0 0 252.805 375.69" enable-background="new 0 0 252.805 375.69"
	 xml:space="preserve">
<g>
	<path fill="#FFD15C" stroke="#1D1E1C" stroke-width="5" stroke-miterlimit="10" d="M123.415,225.584
		c0,0-13.011,18.477,4.874,26.525l30.402,118.699c0,0,15.202,8.277,24.144-6.03l-40.239-119.823c0,0,11.165-6.724-6.063-23.952"/>
	<g>
		<path fill="#1E1E1C" d="M139.842,95.887l38.23-86.33C180.735,3.604,185.592,0,192.173,0h1.41c6.58,0,11.28,3.604,13.944,9.557
			l38.229,86.33c0.783,1.724,1.254,3.29,1.254,4.856c0,6.424-5.014,11.595-11.438,11.595c-5.641,0-9.4-3.291-11.594-8.305
			l-7.364-17.234h-48.257l-7.677,18.019c-2.037,4.7-6.11,7.521-11.124,7.521c-6.267,0-11.124-5.014-11.124-11.281
			C138.433,99.333,139.059,97.61,139.842,95.887z M207.684,65.491l-15.197-36.192l-15.198,36.192H207.684z"/>
	</g>
	<circle fill="#FFD15C" stroke="#1D1E1C" stroke-width="5" stroke-miterlimit="10" cx="98.421" cy="136.787" r="95.921"/>
	<circle fill="#E85F54" stroke="#1D1E1C" stroke-width="5" stroke-miterlimit="10" cx="98.421" cy="136.787" r="76.902"/>
	<path fill="#FFFFFF" stroke="#1D1E1C" stroke-width="5" stroke-miterlimit="10" d="M70.186,88.078c0,0-54.428,43.573-15.242,84.532
		c39.185,40.958,43.478,5.454,43.478,5.454s-25.509-15.715-19.373-37.854C85.183,118.074,114.496,81.262,70.186,88.078z"/>
	<path fill="#1D1E1C" d="M155.553,115.619l-15.82,37.695c0,0-4.655,14.658-27.458,10.703c0,0-18.382-7.68-12.798-28.155
		L155.553,115.619z"/>
	<polyline fill="#1D1E1C" points="99.239,136.787 132.916,68.042 155.553,83.657 162.456,94.194 164.005,96.613 152.462,122.191 
		122.528,162.103 	"/>
</g>
</svg>
