<?xml version="1.0" encoding="utf-8"?>
<!-- Generator: Adobe Illustrator 16.0.0, SVG Export Plug-In . SVG Version: 6.00 Build 0)  -->
<!DOCTYPE svg PUBLIC "-//W3C//DTD SVG 1.1//EN" "http://www.w3.org/Graphics/SVG/1.1/DTD/svg11.dtd">
<svg version="1.1" id="Layer_1" xmlns="http://www.w3.org/2000/svg" xmlns:xlink="http://www.w3.org/1999/xlink" x="0px" y="0px"
	 width="444.576px" height="305.583px" viewBox="0 0 444.576 305.583" enable-background="new 0 0 444.576 305.583"
	 xml:space="preserve">
<g>
	<g>
		<polygon fill-rule="evenodd" clip-rule="evenodd" fill="#FFFFFF" points="232.841,142.611 304.144,126.457 304.144,183.833 
			290.774,223.941 268.492,235.082 245.095,235.082 		"/>
	</g>
	<g>
		<g>
			<path fill-rule="evenodd" clip-rule="evenodd" fill="#1D1E1C" d="M222.559,0c3.243,1.206,6.475,2.446,9.731,3.611
				c35.506,12.701,71.021,25.376,106.522,38.085c31.759,11.369,63.503,22.772,95.256,34.153c2.438,0.874,4.911,1.649,7.346,2.533
				c0.981,0.357,1.905,0.885,3.162,1.481c-3.069,1.339-5.807,2.547-8.555,3.729c-35.749,15.377-71.499,30.747-107.245,46.132
				c-1.399,0.603-3.252,0.997-3.969,2.093c-0.704,1.073-0.259,2.92-0.261,4.428c-0.01,24.218-0.018,48.437,0.009,72.656
				c0,0.889-0.407,1.326-1.047,1.768c-9.732,6.703-19.795,12.84-30.444,18c-8.209,3.977-16.393,8.049-25.103,10.787
				c-4.787,1.504-9.778,2.453-14.738,3.292c-7.479,1.264-14.982,2.506-22.526,3.196c-5.788,0.53-11.657,0.26-17.491,0.23
				c-8.089-0.042-16.058-1.303-23.937-2.969c-20.231-4.275-39.042-12.02-56.232-23.579c-1.608-1.081-3.234-2.156-4.717-3.394
				c-0.472-0.393-0.692-1.299-0.716-1.98c-0.104-3.053-0.143-6.11-0.12-9.166c0.066-8.239,0.257-16.479,0.251-24.72
				c-0.011-14.353-0.132-28.705-0.204-43.058c-0.014-2.735,0.958-4.18,3.615-4.872c3.866-1.007,7.102-3.233,10.557-5.075
				c13.254-7.062,26.585-13.979,39.872-20.976c11.173-5.884,22.311-11.836,33.513-17.663c1.153-0.6,2.648-0.796,3.974-0.76
				c4.457,0.121,8.896,0.36,12.915-2.125c1.787-1.108,3.399-2.323,4.116-4.475c0.52-1.565,0.296-2.907-0.641-4.176
				c-1.72-2.329-4.128-3.763-6.82-4.497c-5.709-1.557-11.293-1.252-16.32,2.22c-1.106,0.765-2.015,2-2.66,3.208
				c-0.777,1.455-1.746,2.517-3.203,3.283c-17.413,9.155-34.813,18.334-52.21,27.522c-9.086,4.798-18.135,9.665-27.249,14.404
				c-1.757,0.914-3.797,1.271-5.62,2.081c-1.717,0.765-3.429,1.641-4.938,2.747c-1.11,0.812-1.978,0.805-3.132,0.303
				c-5.727-2.493-11.479-4.929-17.218-7.396C65.088,107.742,34.097,94.42,3.107,81.096C2.192,80.703,1.294,80.268,0,79.674
				c3.205-1.159,6.009-2.184,8.82-3.188c35.986-12.868,71.979-25.721,107.959-38.601c34.501-12.351,68.993-24.729,103.484-37.102
				c0.597-0.214,1.161-0.521,1.738-0.784C222.188,0,222.374,0,222.559,0z M286.94,148.084c-0.404,0.08-0.5,0.083-0.582,0.118
				c-10.458,4.477-20.911,8.967-31.382,13.411c-0.811,0.344-0.811,0.859-0.811,1.525c-0.014,9.624-0.05,19.249-0.05,28.873
				c0.001,13.098,0.029,26.195,0.045,39.292c0.002,0.544,0.002,1.087,0.002,1.743c0.592-0.096,1-0.135,1.394-0.23
				c10.658-2.568,20.804-6.549,30.757-11.08c0.867-0.396,1.08-0.947,1.075-1.834c-0.032-7.635-0.023-15.271-0.028-22.907
				c-0.009-14.484-0.005-28.968-0.044-43.452C287.312,151.759,287.077,149.976,286.94,148.084z"/>
		</g>
	</g>
	<g>
		<path fill-rule="evenodd" clip-rule="evenodd" fill="#41B189" d="M113.299,128.457v173.626h15.27l-1.037-164.775
			c0,0-0.611-2.332,5.729-5.556s82.748-43.407,82.748-43.407v-7.106l-8.556-0.471L113.299,128.457z"/>
		<path fill="#1D1E1C" d="M132.09,305.583h-22.292V126.306l96.91-49.084l12.8,0.705v12.532l-1.871,0.984
			c-3.121,1.641-76.5,40.23-82.791,43.429c-2.604,1.324-3.53,2.294-3.814,2.664L132.09,305.583z M116.799,298.583h8.248
			l-1.014-161.008c-0.194-1.819,0.57-5.347,7.642-8.943c5.693-2.895,69.062-36.21,80.834-42.4v-1.68l-4.311-0.237l-91.399,46.292
			V298.583z"/>
	</g>
	<g>
		<ellipse fill-rule="evenodd" clip-rule="evenodd" fill="#41B189" cx="222.719" cy="79.856" rx="14.388" ry="8.577"/>
	</g>
</g>
</svg>
