<?xml version="1.0" encoding="utf-8"?>
<!-- Generator: Adobe Illustrator 16.0.0, SVG Export Plug-In . SVG Version: 6.00 Build 0)  -->
<!DOCTYPE svg PUBLIC "-//W3C//DTD SVG 1.1//EN" "http://www.w3.org/Graphics/SVG/1.1/DTD/svg11.dtd">
<svg version="1.1" id="Layer_1" xmlns="http://www.w3.org/2000/svg" xmlns:xlink="http://www.w3.org/1999/xlink" x="0px" y="0px"
	 width="636.948px" height="428.311px" viewBox="0 0 636.948 428.311" enable-background="new 0 0 636.948 428.311"
	 xml:space="preserve">
<g>
	<path fill="#40B088" d="M636.948,408.31c0,11-9,20-20,20H79.879c-11,0-20-9-20-20V71.72c0-11,9-20,20-20h537.069c11,0,20,9,20,20
		V408.31z"/>
</g>
<g>
	<path fill="#E76155" d="M577.069,356.59c0,11-9,20-20,20H20c-11,0-20-9-20-20V20C0,9,9,0,20,0h537.069c11,0,20,9,20,20V356.59z"/>
</g>
<g>
	<path fill="#F5EDD8" d="M72.105,60.466c6.677,0,8.389,5.393,7.105,12.669l-2.825,16.093c-0.599,3.595,0.942,3.852,1.712,3.852
		c2.739,0,4.965-4.023,6.078-10.444c0.171-0.941,0.771-1.626,1.626-1.626s1.198,0.685,1.113,1.626
		c-1.027,5.479-3.938,13.439-10.358,13.439c-3.338,0-6.334-2.226-5.479-6.934l3.253-18.576c0.856-4.623-0.085-6.505-3.338-6.505
		c-5.136,0-11.813,7.79-13.269,16.179l-2.653,14.98c-0.086,0.343-0.257,0.428-0.6,0.428c-0.685,0-0.941-0.257-2.054-0.257
		c-1.027,0-1.626,0.257-2.226,0.257c-0.342,0-0.514-0.085-0.514-0.428l9.245-52.046c-4.109,0-4.623,0.171-5.479,0.171
		c-0.685,0-1.199-0.514-1.113-1.455c0.257-0.942,0.941-1.541,1.626-1.541c0.856,0,1.284,0.171,5.479,0.171
		c1.37,0,3.252-0.343,4.023-0.343c0.685,0,1.199,0.6,1.113,1.456l-5.05,28.505C61.833,65.603,67.054,60.466,72.105,60.466z"/>
	<path fill="#F5EDD8" d="M103.774,96.847c-7.79,0-12.926-7.362-11.042-18.233c1.883-10.872,9.673-18.148,17.462-18.148
		c7.79,0,12.926,7.276,11.043,18.148C119.354,89.485,111.563,96.847,103.774,96.847z M109.766,63.206
		c-5.735,0-8.988,4.109-11.043,15.409c-1.969,11.385-0.171,15.408,5.564,15.408c5.649,0,8.902-4.023,10.871-15.408
		C117.128,67.315,115.416,63.206,109.766,63.206z"/>
	<path fill="#F5EDD8" d="M159.926,96.077c-5.821,0-7.961-4.708-7.533-11.213c-1.969,5.479-6.42,11.213-11.728,11.213
		c-5.136,0-7.019-5.393-5.735-12.669l2.911-16.093c0.599-3.596-0.941-3.853-1.712-3.853c-2.739,0-4.965,4.023-6.078,10.444
		c-0.171,0.941-0.771,1.626-1.626,1.626c-0.856,0-1.284-0.685-1.113-1.626c1.027-5.479,3.938-13.44,10.357-13.44
		c3.253,0,6.249,2.226,5.393,6.934l-3.253,18.833c-0.856,4.622,0.086,6.677,2.312,6.677c4.708,0,10.786-11.042,13.696-27.393
		l0.77-4.194c0.086-0.343,0.257-0.428,0.514-0.428c0.771,0,1.113,0.257,2.14,0.257c1.113,0,1.626-0.257,2.14-0.257
		c0.428,0,0.599,0.085,0.514,0.428l-3.595,20.887c-1.626,9.159-0.257,10.7,2.653,10.7c7.704,0,13.696-17.035,13.696-25.852
		c0-0.428,0-0.771-0.171-1.113c-0.514,0.514-1.541,1.027-2.482,1.027c-1.798,0-2.825-1.027-2.825-2.653
		c0-1.883,1.626-3.853,3.938-3.853c3.424,0,4.194,4.28,4.194,6.592C177.303,76.816,170.711,96.077,159.926,96.077z"/>
	<path fill="#F5EDD8" d="M229,96.077c-5.821,0-7.961-4.708-7.533-11.213c-1.969,5.479-6.42,11.213-11.728,11.213
		c-5.136,0-7.019-5.393-5.735-12.669l2.911-16.093c0.599-3.596-0.941-3.853-1.712-3.853c-2.739,0-4.965,4.023-6.078,10.444
		c-0.171,0.941-0.771,1.626-1.626,1.626c-0.856,0-1.284-0.685-1.113-1.626c1.027-5.479,3.938-13.44,10.357-13.44
		c3.253,0,6.249,2.226,5.393,6.934l-3.253,18.833c-0.856,4.622,0.086,6.677,2.312,6.677c4.708,0,10.786-11.042,13.696-27.393
		l0.77-4.194c0.086-0.343,0.257-0.428,0.514-0.428c0.771,0,1.113,0.257,2.14,0.257c1.113,0,1.626-0.257,2.14-0.257
		c0.428,0,0.599,0.085,0.514,0.428l-3.595,20.887c-1.626,9.159-0.257,10.7,2.653,10.7c7.704,0,13.696-17.035,13.696-25.852
		c0-0.428,0-0.771-0.171-1.113c-0.514,0.514-1.541,1.027-2.482,1.027c-1.798,0-2.825-1.027-2.825-2.653
		c0-1.883,1.626-3.853,3.938-3.853c3.424,0,4.194,4.28,4.194,6.592C246.377,76.816,239.786,96.077,229,96.077z"/>
	<path fill="#F5EDD8" d="M263.578,93.851c4.023,0,7.619-2.14,10.016-7.105c0.342-0.685,0.941-1.455,1.712-1.455
		c0.685,0,1.113,0.514,1.113,1.284c0,0.342-0.257,1.113-0.428,1.455c-4.28,7.19-9.074,8.817-13.868,8.817
		c-7.533,0-12.412-7.447-10.529-18.233c1.969-11.299,10.614-18.148,17.634-18.148c5.393,0,8.731,3.339,7.961,7.705
		c-1.626,9.074-12.669,11.898-19.859,12.583C256.302,89.058,258.356,93.851,263.578,93.851z M272.053,68.342
		c0.514-2.996-0.77-5.136-3.253-5.136c-5.735,0-9.331,5.821-11.042,14.895C263.75,77.587,270.854,74.762,272.053,68.342z"/>
</g>
<g>
	<path fill="#FFD15D" d="M49.742,191.296c0-5.546,4.385-9.931,9.931-9.931h2.192c4.256,0,7.222,2.192,9.028,5.159l23.988,39.077
		l24.117-39.206c2.063-3.353,4.9-5.03,8.898-5.03h2.192c5.546,0,9.931,4.385,9.931,9.931v71.706c0,5.545-4.385,9.931-9.931,9.931
		c-5.417,0-9.801-4.514-9.801-9.931v-45.009l-17.411,26.825c-2.063,3.095-4.643,5.029-8.254,5.029s-6.19-1.935-8.254-5.029
		l-17.153-26.438v44.88c0,5.417-4.385,9.673-9.801,9.673s-9.673-4.256-9.673-9.673V191.296z"/>
	<path fill="#FFD15D" d="M157.688,227.277v-0.258c0-25.665,20.248-46.686,48.104-46.686s47.847,20.764,47.847,46.428v0.258
		c0,25.665-20.248,46.687-48.105,46.687S157.688,252.942,157.688,227.277z M232.876,227.277v-0.258
		c0-15.476-11.35-28.373-27.341-28.373s-27.083,12.639-27.083,28.115v0.258c0,15.476,11.349,28.373,27.341,28.373
		C221.785,255.393,232.876,242.754,232.876,227.277z"/>
	<path fill="#FFD15D" d="M267.311,227.277v-0.258c0-25.665,20.248-46.686,48.104-46.686s47.847,20.764,47.847,46.428v0.258
		c0,25.665-20.248,46.687-48.105,46.687S267.311,252.942,267.311,227.277z M342.499,227.277v-0.258
		c0-15.476-11.349-28.373-27.341-28.373s-27.083,12.639-27.083,28.115v0.258c0,15.476,11.349,28.373,27.341,28.373
		C331.408,255.393,342.499,242.754,342.499,227.277z"/>
	<path fill="#FFD15D" d="M376.933,227.277v-0.258c0-25.665,19.345-46.686,47.073-46.686c13.541,0,22.698,3.611,30.178,9.157
		c2.064,1.547,3.869,4.385,3.869,7.867c0,5.417-4.385,9.672-9.801,9.672c-2.709,0-4.514-1.032-5.933-1.935
		c-5.546-4.127-11.349-6.448-18.442-6.448c-15.219,0-26.18,12.639-26.18,28.115v0.258c0,15.476,10.703,28.373,26.18,28.373
		c8.383,0,13.929-2.58,19.604-7.093c1.547-1.29,3.611-2.192,5.932-2.192c5.03,0,9.286,4.127,9.286,9.157
		c0,3.095-1.548,5.545-3.353,7.093c-8.125,7.093-17.67,11.35-32.113,11.35C396.665,273.706,376.933,253.2,376.933,227.277z"/>
</g>
<g>
	<path fill="#F6EFD9" d="M153.818,113.422c7.082,0,9.587,5.121,8.934,12.638c3.051-6.102,9.479-12.638,15.471-12.638
		c8.171,0,10.023,6.864,8.389,16.125l-3.595,20.482c-0.872,4.576,1.198,4.903,2.179,4.903c3.377,0,6.21-5.121,7.735-13.292
		c0.109-1.198,0.98-2.07,2.07-2.07c1.089,0,1.525,0.872,1.307,2.07c-1.198,6.973-5.012,17.105-13.183,17.105
		c-4.14,0-7.953-2.833-6.864-8.825l4.14-23.969c1.089-5.992,0-8.28-3.813-8.28c-5.992,0-14.054,9.914-16.015,20.918l-3.377,19.066
		c0,0.436-0.327,0.544-0.763,0.544c-0.872,0-1.198-0.327-2.615-0.327c-1.307,0-2.07,0.327-2.833,0.327
		c-0.436,0-0.545-0.109-0.545-0.544l5.557-31.704c1.089-5.992,0-8.28-3.813-8.28c-5.992,0-13.945,9.914-15.906,20.918l-3.377,19.066
		c0,0.436-0.436,0.544-0.763,0.544c-0.872,0-1.307-0.327-2.615-0.327c-1.416,0-2.07,0.327-2.833,0.327
		c-0.436,0-0.654-0.109-0.654-0.544l6.973-39.112c-5.338,0-5.992,0.327-7.082,0.327c-0.763,0-1.525-0.763-1.198-1.961
		c0.109-1.198,1.089-1.852,1.852-1.852c1.089,0,1.743,0.109,6.973,0.109c1.743,0,4.358-0.436,5.338-0.436
		c0.763,0,1.417,0.763,1.198,1.961l-1.634,9.042C141.398,119.958,147.826,113.422,153.818,113.422z"/>
	<path fill="#F6EFD9" d="M237.812,154.931c3.486,0,6.21-5.121,7.735-13.292c0.109-1.198,0.98-2.07,2.07-2.07
		c1.089,0,1.525,0.872,1.307,2.07c-1.198,6.973-4.902,17.105-13.074,17.105c-3.813,0-7.19-2.288-7.19-7.19
		c-3.269,5.121-8.389,8.171-12.965,8.171c-9.37,0-14.381-9.37-11.984-23.206c2.397-13.836,12.856-23.097,20.7-23.097
		c4.358,0,7.844,2.724,9.479,7.626l1.089-5.774c0-0.327,0.327-0.436,0.763-0.436c0.872,0,1.198,0.327,2.615,0.327
		c1.307,0,2.07-0.327,2.833-0.327c0.436,0,0.654,0.109,0.654,0.436l-6.21,34.754C234.762,154.495,236.832,154.931,237.812,154.931z
		 M223.867,117.017c-4.14,0-9.914,5.121-12.529,19.502c-2.397,14.381-0.436,19.501,5.338,19.501c6.319,0,12.311-6.973,14.49-19.501
		C233.455,123.99,230.295,117.017,223.867,117.017z"/>
	<path fill="#F6EFD9" d="M291.739,91.415c-5.229,0-5.883,0.218-6.973,0.218c-0.763,0-1.525-0.654-1.308-1.852
		c0.218-1.199,1.199-1.961,1.961-1.961c1.089,0,1.743,0.218,6.973,0.218c1.743,0,4.249-0.436,5.229-0.436
		c0.762,0,1.525,0.763,1.307,1.853l-10.677,60.575c-0.872,4.576,1.198,4.903,2.179,4.903c3.486,0,6.21-5.121,7.735-13.292
		c0.109-1.198,0.98-2.07,2.07-2.07c1.089,0,1.525,0.872,1.307,2.07c-1.198,6.973-4.903,17.105-13.074,17.105
		c-3.813,0-7.299-2.288-7.19-7.19c-3.269,5.121-8.389,8.171-12.965,8.171c-9.37,0-14.381-9.37-11.984-23.206
		c2.397-13.836,10.786-23.097,20.155-23.097c4.467,0,8.389,2.724,10.023,7.626L291.739,91.415z M276.05,117.017
		c-5.666,0-9.479,5.121-12.093,19.502c-2.397,14.381-0.436,19.501,5.338,19.501c6.319,0,12.311-6.973,14.49-19.501
		C286.073,123.99,282.478,117.017,276.05,117.017z"/>
	<path fill="#F6EFD9" d="M324.202,155.912c5.121,0,9.696-2.724,12.747-9.043c0.436-0.872,1.199-1.852,2.179-1.852
		c0.872,0,1.416,0.654,1.416,1.634c0,0.436-0.327,1.417-0.544,1.852c-5.447,9.152-11.548,11.222-17.649,11.222
		c-9.587,0-15.797-9.479-13.401-23.206c2.506-14.381,13.51-23.097,22.443-23.097c6.864,0,11.113,4.249,10.132,9.805
		c-2.07,11.549-16.125,15.144-25.276,16.016C314.941,149.811,317.556,155.912,324.202,155.912z M334.987,123.445
		c0.654-3.813-0.98-6.537-4.14-6.537c-7.299,0-11.875,7.409-14.054,18.957C324.419,135.211,333.462,131.616,334.987,123.445z"/>
	<path fill="#F6EFD9" d="M402.095,154.931c3.486,0,6.21-5.121,7.735-13.292c0.109-1.198,0.98-2.07,2.07-2.07s1.525,0.872,1.307,2.07
		c-1.197,6.973-4.902,17.105-13.073,17.105c-3.813,0-7.19-2.288-7.19-7.19c-3.269,5.121-8.389,8.171-12.965,8.171
		c-9.37,0-14.381-9.37-11.984-23.206c2.397-13.836,12.856-23.097,20.7-23.097c4.358,0,7.844,2.724,9.479,7.626l1.089-5.774
		c0-0.327,0.328-0.436,0.764-0.436c0.871,0,1.197,0.327,2.614,0.327c1.308,0,2.069-0.327,2.833-0.327
		c0.436,0,0.653,0.109,0.653,0.436l-6.21,34.754C399.045,154.495,401.114,154.931,402.095,154.931z M388.149,117.017
		c-4.14,0-9.914,5.121-12.529,19.502c-2.397,14.381-0.436,19.501,5.338,19.501c6.319,0,12.311-6.973,14.49-19.501
		C397.736,123.99,394.578,117.017,388.149,117.017z"/>
</g>
<polygon fill="#57C2EB" points="486.784,213.735 486.784,241.322 509.614,227.528 "/>
</svg>
