<?xml version="1.0" encoding="utf-8"?>
<!-- Generator: Adobe Illustrator 16.0.0, SVG Export Plug-In . SVG Version: 6.00 Build 0)  -->
<!DOCTYPE svg PUBLIC "-//W3C//DTD SVG 1.1//EN" "http://www.w3.org/Graphics/SVG/1.1/DTD/svg11.dtd">
<svg version="1.1" id="Layer_1" xmlns="http://www.w3.org/2000/svg" xmlns:xlink="http://www.w3.org/1999/xlink" x="0px" y="0px"
	 width="221.5px" height="674px" viewBox="0 60.5 221.5 674" enable-background="new 0 60.5 221.5 674" xml:space="preserve">
<g>
	<defs>
		<rect id="SVGID_1_" x="-39.25" y="-2.5" width="300" height="800"/>
	</defs>
	<clipPath id="SVGID_2_">
		<use xlink:href="#SVGID_1_"  overflow="visible"/>
	</clipPath>
	<path clip-path="url(#SVGID_2_)" fill="#FFFFFF" d="M133.775,203.915c6.033-5.835,8.078-20.717,8.078-25.271v-24.761
		c0-3.017-2.672-5.461-5.975-5.461s-5.979,2.444-5.979,5.461v8.368v-16.562c0-3.019-2.676-5.463-5.973-5.463
		c-3.303,0-5.98,2.444-5.98,5.463v13.831v-19.294c0-3.021-2.678-5.465-5.977-5.465s-5.978,2.444-5.978,5.465v16.562V118.37
		c0-3.02-2.676-5.465-5.974-5.465s-5.978,2.445-5.978,5.465l-0.031,46.621c-0.464-3.188-2.389-5.641-6.001-5.641
		c-3.94,0-6.24,2.915-6.24,6.515v10.73c0,10.927,7.605,22.995,14.437,27.32L133.775,203.915L133.775,203.915z"/>
</g>
<g>
	<defs>
		<rect id="SVGID_3_" x="-39.25" y="-2.5" width="300" height="800"/>
	</defs>
	<clipPath id="SVGID_4_">
		<use xlink:href="#SVGID_3_"  overflow="visible"/>
	</clipPath>
	<path clip-path="url(#SVGID_4_)" fill="#1A1A18" d="M119.439,172.335c-0.82,0-1.485,0.663-1.485,1.485
		c0,0.82,0.665,1.485,1.485,1.485c0.819,0,1.483-0.665,1.483-1.485C120.924,172.998,120.26,172.335,119.439,172.335"/>
</g>
<g>
	<defs>
		<rect id="SVGID_5_" x="-39.25" y="-2.5" width="300" height="800"/>
	</defs>
	<clipPath id="SVGID_6_">
		<use xlink:href="#SVGID_5_"  overflow="visible"/>
	</clipPath>
	<path clip-path="url(#SVGID_6_)" fill="#1A1A18" d="M104.592,166.396c-0.82,0-1.485,0.663-1.485,1.484
		c0,0.82,0.665,1.484,1.485,1.484c0.82,0,1.485-0.664,1.485-1.484C106.077,167.059,105.412,166.396,104.592,166.396"/>
</g>
<g>
	<defs>
		<rect id="SVGID_7_" x="-39.25" y="-2.5" width="300" height="800"/>
	</defs>
	<clipPath id="SVGID_8_">
		<use xlink:href="#SVGID_7_"  overflow="visible"/>
	</clipPath>
	<path clip-path="url(#SVGID_8_)" fill="#1A1A18" d="M116.471,166.396c-0.82,0-1.486,0.663-1.486,1.484
		c0,0.82,0.666,1.484,1.486,1.484c0.819,0,1.484-0.664,1.484-1.484C117.955,167.059,117.29,166.396,116.471,166.396"/>
</g>
<g>
	<defs>
		<rect id="SVGID_9_" x="-39.25" y="-2.5" width="300" height="800"/>
	</defs>
	<clipPath id="SVGID_10_">
		<use xlink:href="#SVGID_9_"  overflow="visible"/>
	</clipPath>
	<path clip-path="url(#SVGID_10_)" fill="#1A1A18" d="M131.316,195.844c-0.819,0-1.484,0.662-1.484,1.484
		c0,0.82,0.665,1.485,1.484,1.485c0.82,0,1.486-0.665,1.486-1.485C132.803,196.507,132.139,195.844,131.316,195.844"/>
</g>
<g>
	<defs>
		<rect id="SVGID_11_" x="-39.25" y="-2.5" width="300" height="800"/>
	</defs>
	<clipPath id="SVGID_12_">
		<use xlink:href="#SVGID_11_"  overflow="visible"/>
	</clipPath>
	<path clip-path="url(#SVGID_12_)" fill="#1A1A18" d="M128.348,189.904c-0.82,0-1.484,0.663-1.484,1.485
		c0,0.819,0.664,1.484,1.484,1.484s1.485-0.665,1.485-1.484C129.833,190.567,129.168,189.904,128.348,189.904"/>
</g>
<g>
	<defs>
		<rect id="SVGID_13_" x="-39.25" y="-2.5" width="300" height="800"/>
	</defs>
	<clipPath id="SVGID_14_">
		<use xlink:href="#SVGID_13_"  overflow="visible"/>
	</clipPath>
	<path clip-path="url(#SVGID_14_)" fill="#1A1A18" d="M134.287,189.904c-0.82,0-1.484,0.663-1.484,1.485
		c0,0.819,0.664,1.484,1.484,1.484c0.818,0,1.484-0.665,1.484-1.484C135.771,190.567,135.105,189.904,134.287,189.904"/>
</g>
<g>
	<defs>
		<rect id="SVGID_15_" x="-39.25" y="-2.5" width="300" height="800"/>
	</defs>
	<clipPath id="SVGID_16_">
		<use xlink:href="#SVGID_15_"  overflow="visible"/>
	</clipPath>
	<path clip-path="url(#SVGID_16_)" fill="#1A1A18" d="M125.378,183.965c-0.819,0-1.483,0.663-1.483,1.485
		c0,0.82,0.664,1.485,1.483,1.485c0.82,0,1.485-0.665,1.485-1.485C126.863,184.628,126.197,183.965,125.378,183.965"/>
</g>
<g>
	<defs>
		<rect id="SVGID_17_" x="-39.25" y="-2.5" width="300" height="800"/>
	</defs>
	<clipPath id="SVGID_18_">
		<use xlink:href="#SVGID_17_"  overflow="visible"/>
	</clipPath>
	<path clip-path="url(#SVGID_18_)" fill="#1A1A18" d="M131.316,183.965c-0.819,0-1.484,0.663-1.484,1.485
		c0,0.82,0.665,1.485,1.484,1.485c0.82,0,1.486-0.665,1.486-1.485C132.803,184.628,132.139,183.965,131.316,183.965"/>
</g>
<g>
	<defs>
		<rect id="SVGID_19_" x="-39.25" y="-2.5" width="300" height="800"/>
	</defs>
	<clipPath id="SVGID_20_">
		<use xlink:href="#SVGID_19_"  overflow="visible"/>
	</clipPath>
	<path clip-path="url(#SVGID_20_)" fill="#1A1A18" d="M134.287,169.118c0.818,0,1.484-0.665,1.484-1.485s-0.666-1.484-1.484-1.484
		c-0.82,0-1.484,0.664-1.484,1.484S133.467,169.118,134.287,169.118"/>
</g>
<g>
	<defs>
		<rect id="SVGID_21_" x="-39.25" y="-2.5" width="300" height="800"/>
	</defs>
	<clipPath id="SVGID_22_">
		<use xlink:href="#SVGID_21_"  overflow="visible"/>
	</clipPath>
	<path clip-path="url(#SVGID_22_)" fill="#1A1A18" d="M134.596,157.24c0.82,0,1.485-0.665,1.485-1.485s-0.665-1.483-1.485-1.483
		c-0.818,0-1.484,0.663-1.484,1.483S133.775,157.24,134.596,157.24"/>
</g>
<g>
	<defs>
		<rect id="SVGID_23_" x="-39.25" y="-2.5" width="300" height="800"/>
	</defs>
	<clipPath id="SVGID_24_">
		<use xlink:href="#SVGID_23_"  overflow="visible"/>
	</clipPath>
	<path clip-path="url(#SVGID_24_)" fill="#1A1A18" d="M137.257,160.209c-0.819,0-1.485,0.663-1.485,1.485
		c0,0.82,0.666,1.485,1.485,1.485s1.484-0.665,1.484-1.485C138.741,160.872,138.076,160.209,137.257,160.209"/>
</g>
<g>
	<defs>
		<rect id="SVGID_25_" x="-39.25" y="-2.5" width="300" height="800"/>
	</defs>
	<clipPath id="SVGID_26_">
		<use xlink:href="#SVGID_25_"  overflow="visible"/>
	</clipPath>
	<path clip-path="url(#SVGID_26_)" fill="#1A1A18" d="M128.348,180.996c0.82,0,1.485-0.665,1.485-1.484
		c0-0.821-0.665-1.485-1.485-1.485s-1.484,0.664-1.484,1.485C126.863,180.331,127.527,180.996,128.348,180.996"/>
</g>
<g>
	<defs>
		<rect id="SVGID_27_" x="-39.25" y="-2.5" width="300" height="800"/>
	</defs>
	<clipPath id="SVGID_28_">
		<use xlink:href="#SVGID_27_"  overflow="visible"/>
	</clipPath>
	<path clip-path="url(#SVGID_28_)" fill="#1A1A18" d="M134.287,178.026c-0.82,0-1.484,0.663-1.484,1.485
		c0,0.819,0.664,1.484,1.484,1.484c0.818,0,1.484-0.665,1.484-1.484C135.771,178.689,135.105,178.026,134.287,178.026"/>
</g>
<g>
	<defs>
		<rect id="SVGID_29_" x="-39.25" y="-2.5" width="300" height="800"/>
	</defs>
	<clipPath id="SVGID_30_">
		<use xlink:href="#SVGID_29_"  overflow="visible"/>
	</clipPath>
	<path clip-path="url(#SVGID_30_)" fill="#1A1A18" d="M125.348,175.057c0.819,0,1.484-0.665,1.484-1.485
		c0-0.821-0.665-1.484-1.484-1.484c-0.82,0-1.484,0.663-1.484,1.484C123.861,174.392,124.527,175.057,125.348,175.057"/>
</g>
<g>
	<defs>
		<rect id="SVGID_31_" x="-39.25" y="-2.5" width="300" height="800"/>
	</defs>
	<clipPath id="SVGID_32_">
		<use xlink:href="#SVGID_31_"  overflow="visible"/>
	</clipPath>
	<path clip-path="url(#SVGID_32_)" fill="#1A1A18" d="M113.471,172.087c-0.82,0-1.486,0.663-1.486,1.485
		c0,0.82,0.666,1.484,1.486,1.484c0.818,0,1.483-0.664,1.483-1.484C114.954,172.75,114.289,172.087,113.471,172.087"/>
</g>
<g>
	<defs>
		<rect id="SVGID_33_" x="-39.25" y="-2.5" width="300" height="800"/>
	</defs>
	<clipPath id="SVGID_34_">
		<use xlink:href="#SVGID_33_"  overflow="visible"/>
	</clipPath>
	<path clip-path="url(#SVGID_34_)" fill="#1A1A18" d="M110.5,166.148c-0.82,0-1.485,0.663-1.485,1.484
		c0,0.82,0.665,1.485,1.485,1.485c0.818,0,1.484-0.665,1.484-1.485S111.318,166.148,110.5,166.148"/>
</g>
<g>
	<defs>
		<rect id="SVGID_35_" x="-39.25" y="-2.5" width="300" height="800"/>
	</defs>
	<clipPath id="SVGID_36_">
		<use xlink:href="#SVGID_35_"  overflow="visible"/>
	</clipPath>
	<path clip-path="url(#SVGID_36_)" fill="#1A1A18" d="M122.378,169.118c0.82,0,1.485-0.665,1.485-1.485s-0.665-1.484-1.485-1.484
		c-0.819,0-1.485,0.664-1.485,1.484S121.559,169.118,122.378,169.118"/>
</g>
<g>
	<defs>
		<rect id="SVGID_37_" x="-39.25" y="-2.5" width="300" height="800"/>
	</defs>
	<clipPath id="SVGID_38_">
		<use xlink:href="#SVGID_37_"  overflow="visible"/>
	</clipPath>
	<path clip-path="url(#SVGID_38_)" fill="#1A1A18" d="M122.378,178.026c-0.819,0-1.485,0.663-1.485,1.485
		c0,0.819,0.666,1.484,1.485,1.484c0.82,0,1.485-0.665,1.485-1.484C123.863,178.689,123.197,178.026,122.378,178.026"/>
</g>
<g>
	<defs>
		<rect id="SVGID_39_" x="-39.25" y="-2.5" width="300" height="800"/>
	</defs>
	<clipPath id="SVGID_40_">
		<use xlink:href="#SVGID_39_"  overflow="visible"/>
	</clipPath>
	<path clip-path="url(#SVGID_40_)" fill="#1A1A18" d="M128.348,169.118c0.82,0,1.485-0.665,1.485-1.485s-0.665-1.484-1.485-1.484
		s-1.484,0.664-1.484,1.484S127.527,169.118,128.348,169.118"/>
</g>
<g>
	<defs>
		<rect id="SVGID_41_" x="-39.25" y="-2.5" width="300" height="800"/>
	</defs>
	<clipPath id="SVGID_42_">
		<use xlink:href="#SVGID_41_"  overflow="visible"/>
	</clipPath>
	<path clip-path="url(#SVGID_42_)" fill="#1A1A18" d="M131.316,175.057c0.82,0,1.486-0.665,1.486-1.485
		c0-0.821-0.666-1.484-1.486-1.484c-0.819,0-1.484,0.663-1.484,1.484C129.832,174.392,130.497,175.057,131.316,175.057"/>
</g>
<g>
	<defs>
		<rect id="SVGID_43_" x="-39.25" y="-2.5" width="300" height="800"/>
	</defs>
	<clipPath id="SVGID_44_">
		<use xlink:href="#SVGID_43_"  overflow="visible"/>
	</clipPath>
	<path clip-path="url(#SVGID_44_)" fill="#1A1A18" d="M137.257,172.087c-0.819,0-1.485,0.663-1.485,1.485
		c0,0.82,0.666,1.484,1.485,1.484s1.484-0.664,1.484-1.484C138.741,172.75,138.076,172.087,137.257,172.087"/>
</g>
<g>
	<defs>
		<rect id="SVGID_45_" x="-39.25" y="-2.5" width="300" height="800"/>
	</defs>
	<clipPath id="SVGID_46_">
		<use xlink:href="#SVGID_45_"  overflow="visible"/>
	</clipPath>
	<path clip-path="url(#SVGID_46_)" fill="#1A1A18" d="M135.88,145.947c-1.249,0-2.437,0.256-3.503,0.714v-0.973
		c0-4.377-3.789-7.938-8.449-7.938c-1.32,0-2.578,0.288-3.691,0.799c-0.823-3.576-4.215-6.264-8.264-6.264
		c-1.249,0-2.436,0.255-3.501,0.715v-7.004h21.61c2.185,0,3.959-1.772,3.959-3.959s-1.774-3.96-3.959-3.96h-19.982l14.406-14.401
		c1.548-1.547,1.548-4.054,0-5.601c-1.546-1.546-4.052-1.544-5.598-0.002l-13.912,13.909c-0.325-0.226-0.669-0.412-1.029-0.592
		V89.778c0-2.188-1.771-3.96-3.959-3.96c-2.185,0-3.959,1.772-3.959,3.96v21.627c-0.352,0.178-0.697,0.368-1.017,0.592L81.15,98.114
		c-1.547-1.547-4.053-1.547-5.599,0c-1.547,1.545-1.547,4.054,0,5.599l14.364,14.364H70.81c-2.188,0-3.959,1.773-3.959,3.96
		s1.771,3.959,3.959,3.959h20.756l-0.023,31.58c-1.052-0.46-2.239-0.702-3.53-0.702c-5.05,0-8.716,3.78-8.716,8.99v10.73
		c0,11.689,8.059,24.645,15.587,29.41c0.398,0.251,0.858,0.386,1.326,0.386h37.567c0.642,0,1.257-0.25,1.721-0.696
		c6.738-6.519,8.831-22.11,8.831-27.051v-24.761C144.328,149.507,140.539,145.947,135.88,145.947 M139.379,178.643
		c0,4.468-1.99,17.334-6.67,22.797H96.955c-6.128-4.286-12.709-15.236-12.709-24.846v-10.73c0-1.954,0.989-4.04,3.766-4.04
		c0.75,0,3.039,0,3.549,3.521c0.186,1.285,1.35,2.212,2.63,2.114c1.291-0.093,2.296-1.17,2.296-2.467l0.031-46.623
		c0-1.648,1.57-2.991,3.503-2.991c1.93,0,3.5,1.343,3.5,2.991v38.418c0,1.367,1.109,2.476,2.474,2.476
		c1.369,0,2.475-1.108,2.475-2.476v-16.562c0-1.649,1.573-2.991,3.502-2.991c1.934,0,3.502,1.342,3.502,2.991v19.294
		c0,1.367,1.106,2.475,2.477,2.475c1.365,0,2.474-1.107,2.474-2.475v-13.831c0-1.649,1.57-2.989,3.503-2.989
		c1.932,0,3.5,1.34,3.5,2.989v16.562c0,1.367,1.109,2.475,2.475,2.475c1.369,0,2.476-1.107,2.476-2.475v-8.367
		c0-1.647,1.57-2.986,3.503-2.986c1.93,0,3.499,1.339,3.499,2.985L139.379,178.643L139.379,178.643z"/>
</g>
<g>
	<defs>
		<rect id="SVGID_47_" x="-39.25" y="-2.5" width="300" height="800"/>
	</defs>
	<clipPath id="SVGID_48_">
		<use xlink:href="#SVGID_47_"  overflow="visible"/>
	</clipPath>
	<path clip-path="url(#SVGID_48_)" fill="#FFFFFF" d="M141.05,227.285l8.083-5.1l-66.36-27.895l-25.585,60.702
		c-0.451,1.071-0.456,2.254-0.017,3.329c0.439,1.079,1.272,1.918,2.341,2.366l52.876,22.229c2.182,0.913,4.795-0.174,5.699-2.323
		l22.003-52.176C140.285,227.95,140.622,227.556,141.05,227.285"/>
</g>
<g>
	<defs>
		<rect id="SVGID_49_" x="-39.25" y="-2.5" width="300" height="800"/>
	</defs>
	<clipPath id="SVGID_50_">
		<use xlink:href="#SVGID_49_"  overflow="visible"/>
	</clipPath>
	<path clip-path="url(#SVGID_50_)" fill="#1A1A18" d="M65.603,258.901c-0.75-0.317-1.624,0.039-1.941,0.793s0.039,1.627,0.793,1.944
		c0.756,0.316,1.626-0.038,1.945-0.797C66.717,260.089,66.359,259.219,65.603,258.901"/>
</g>
<g>
	<defs>
		<rect id="SVGID_51_" x="-39.25" y="-2.5" width="300" height="800"/>
	</defs>
	<clipPath id="SVGID_52_">
		<use xlink:href="#SVGID_51_"  overflow="visible"/>
	</clipPath>
	<path clip-path="url(#SVGID_52_)" fill="#1A1A18" d="M71.082,261.202c-0.756-0.316-1.628,0.039-1.945,0.793
		c-0.319,0.754,0.039,1.627,0.793,1.944c0.754,0.316,1.624-0.034,1.943-0.792S71.834,261.523,71.082,261.202"/>
</g>
<g>
	<defs>
		<rect id="SVGID_53_" x="-39.25" y="-2.5" width="300" height="800"/>
	</defs>
	<clipPath id="SVGID_54_">
		<use xlink:href="#SVGID_53_"  overflow="visible"/>
	</clipPath>
	<path clip-path="url(#SVGID_54_)" fill="#1A1A18" d="M109.106,265.78c0.317-0.754-0.039-1.624-0.795-1.941
		c-0.755-0.32-1.63,0.039-1.946,0.793c-0.316,0.755,0.038,1.624,0.796,1.944C107.915,266.89,108.789,266.538,109.106,265.78"/>
</g>
<g>
	<defs>
		<rect id="SVGID_55_" x="-39.25" y="-2.5" width="300" height="800"/>
	</defs>
	<clipPath id="SVGID_56_">
		<use xlink:href="#SVGID_55_"  overflow="visible"/>
	</clipPath>
	<path clip-path="url(#SVGID_56_)" fill="#1A1A18" d="M113.784,266.14c-0.755-0.317-1.624,0.039-1.94,0.793
		c-0.32,0.754,0.034,1.628,0.793,1.944c0.754,0.317,1.627-0.039,1.944-0.793C114.898,267.327,114.542,266.457,113.784,266.14"/>
</g>
<g>
	<defs>
		<rect id="SVGID_57_" x="-39.25" y="-2.5" width="300" height="800"/>
	</defs>
	<clipPath id="SVGID_58_">
		<use xlink:href="#SVGID_57_"  overflow="visible"/>
	</clipPath>
	<path clip-path="url(#SVGID_58_)" fill="#1A1A18" d="M117.318,269.233c-0.321,0.758,0.039,1.628,0.791,1.945
		c0.756,0.32,1.627-0.039,1.947-0.793c0.313-0.759-0.039-1.629-0.795-1.945C118.505,268.123,117.637,268.479,117.318,269.233"/>
</g>
<g>
	<defs>
		<rect id="SVGID_59_" x="-39.25" y="-2.5" width="300" height="800"/>
	</defs>
	<clipPath id="SVGID_60_">
		<use xlink:href="#SVGID_59_"  overflow="visible"/>
	</clipPath>
	<path clip-path="url(#SVGID_60_)" fill="#1A1A18" d="M70.566,243.269c0.317-0.754-0.037-1.624-0.795-1.941
		c-0.754-0.321-1.624,0.039-1.943,0.793c-0.319,0.754,0.041,1.624,0.791,1.941C69.377,244.379,70.249,244.027,70.566,243.269"/>
</g>
<g>
	<defs>
		<rect id="SVGID_61_" x="-39.25" y="-2.5" width="300" height="800"/>
	</defs>
	<clipPath id="SVGID_62_">
		<use xlink:href="#SVGID_61_"  overflow="visible"/>
	</clipPath>
	<path clip-path="url(#SVGID_62_)" fill="#1A1A18" d="M76.039,245.573c0.319-0.758-0.035-1.628-0.793-1.949
		c-0.754-0.316-1.624,0.039-1.943,0.797c-0.318,0.754,0.041,1.628,0.791,1.945C74.852,246.684,75.722,246.328,76.039,245.573"/>
</g>
<g>
	<defs>
		<rect id="SVGID_63_" x="-39.25" y="-2.5" width="300" height="800"/>
	</defs>
	<clipPath id="SVGID_64_">
		<use xlink:href="#SVGID_63_"  overflow="visible"/>
	</clipPath>
	<path clip-path="url(#SVGID_64_)" fill="#1A1A18" d="M116.443,255.982c-0.315,0.754,0.039,1.628,0.795,1.945
		c0.756,0.316,1.628-0.039,1.947-0.794c0.314-0.758-0.039-1.628-0.797-1.944C117.634,254.873,116.762,255.225,116.443,255.982"/>
</g>
<g>
	<defs>
		<rect id="SVGID_65_" x="-39.25" y="-2.5" width="300" height="800"/>
	</defs>
	<clipPath id="SVGID_66_">
		<use xlink:href="#SVGID_65_"  overflow="visible"/>
	</clipPath>
	<path clip-path="url(#SVGID_66_)" fill="#1A1A18" d="M121.92,258.283c-0.316,0.758,0.039,1.628,0.795,1.945
		c0.756,0.32,1.626-0.035,1.943-0.793c0.316-0.754-0.035-1.628-0.795-1.945C123.109,257.173,122.236,257.529,121.92,258.283"/>
</g>
<g>
	<defs>
		<rect id="SVGID_67_" x="-39.25" y="-2.5" width="300" height="800"/>
	</defs>
	<clipPath id="SVGID_68_">
		<use xlink:href="#SVGID_67_"  overflow="visible"/>
	</clipPath>
	<path clip-path="url(#SVGID_68_)" fill="#1A1A18" d="M75.169,232.319c0.319-0.758-0.035-1.624-0.793-1.945
		c-0.754-0.316-1.628,0.039-1.945,0.793c-0.317,0.758,0.039,1.628,0.793,1.949C73.982,233.433,74.852,233.077,75.169,232.319"/>
</g>
<g>
	<defs>
		<rect id="SVGID_69_" x="-39.25" y="-2.5" width="300" height="800"/>
	</defs>
	<clipPath id="SVGID_70_">
		<use xlink:href="#SVGID_69_"  overflow="visible"/>
	</clipPath>
	<path clip-path="url(#SVGID_70_)" fill="#1A1A18" d="M80.644,234.624c0.319-0.758-0.037-1.632-0.793-1.944
		c-0.756-0.321-1.628,0.034-1.945,0.793c-0.317,0.758,0.039,1.624,0.793,1.944C79.457,235.733,80.327,235.377,80.644,234.624"/>
</g>
<g>
	<defs>
		<rect id="SVGID_71_" x="-39.25" y="-2.5" width="300" height="800"/>
	</defs>
	<clipPath id="SVGID_72_">
		<use xlink:href="#SVGID_71_"  overflow="visible"/>
	</clipPath>
	<path clip-path="url(#SVGID_72_)" fill="#1A1A18" d="M114.145,261.458c0.316-0.754-0.039-1.624-0.793-1.94
		c-0.758-0.317-1.629,0.035-1.944,0.789c-0.317,0.758,0.038,1.628,0.795,1.947C112.953,262.571,113.827,262.211,114.145,261.458"/>
</g>
<g>
	<defs>
		<rect id="SVGID_73_" x="-39.25" y="-2.5" width="300" height="800"/>
	</defs>
	<clipPath id="SVGID_74_">
		<use xlink:href="#SVGID_73_"  overflow="visible"/>
	</clipPath>
	<path clip-path="url(#SVGID_74_)" fill="#1A1A18" d="M116.882,262.609c-0.317,0.754,0.039,1.628,0.796,1.945
		c0.752,0.316,1.625-0.039,1.941-0.798c0.316-0.754-0.039-1.624-0.793-1.943C118.068,261.5,117.197,261.852,116.882,262.609"/>
</g>
<g>
	<defs>
		<rect id="SVGID_75_" x="-39.25" y="-2.5" width="300" height="800"/>
	</defs>
	<clipPath id="SVGID_76_">
		<use xlink:href="#SVGID_75_"  overflow="visible"/>
	</clipPath>
	<path clip-path="url(#SVGID_76_)" fill="#1A1A18" d="M70.129,236.642c0.319-0.754-0.037-1.624-0.793-1.941
		s-1.626,0.039-1.943,0.793s0.039,1.627,0.795,1.945C68.94,237.756,69.812,237.4,70.129,236.642"/>
</g>
<g>
	<defs>
		<rect id="SVGID_77_" x="-39.25" y="-2.5" width="300" height="800"/>
	</defs>
	<clipPath id="SVGID_78_">
		<use xlink:href="#SVGID_77_"  overflow="visible"/>
	</clipPath>
	<path clip-path="url(#SVGID_78_)" fill="#1A1A18" d="M75.602,238.946c0.321-0.754-0.035-1.624-0.791-1.945
		c-0.754-0.316-1.626,0.035-1.943,0.793c-0.317,0.759,0.039,1.628,0.793,1.945C74.419,240.056,75.285,239.7,75.602,238.946"/>
</g>
<g>
	<defs>
		<rect id="SVGID_79_" x="-39.25" y="-2.5" width="300" height="800"/>
	</defs>
	<clipPath id="SVGID_80_">
		<use xlink:href="#SVGID_79_"  overflow="visible"/>
	</clipPath>
	<path clip-path="url(#SVGID_80_)" fill="#1A1A18" d="M80.288,239.302c-0.758-0.317-1.628,0.038-1.945,0.796
		c-0.317,0.755,0.039,1.628,0.793,1.941c0.758,0.32,1.628-0.035,1.947-0.793C81.4,240.493,81.042,239.619,80.288,239.302"/>
</g>
<g>
	<defs>
		<rect id="SVGID_81_" x="-39.25" y="-2.5" width="300" height="800"/>
	</defs>
	<clipPath id="SVGID_82_">
		<use xlink:href="#SVGID_81_"  overflow="visible"/>
	</clipPath>
	<path clip-path="url(#SVGID_82_)" fill="#1A1A18" d="M65.963,254.219c0.319-0.755-0.035-1.624-0.793-1.941
		c-0.754-0.321-1.628,0.039-1.945,0.793c-0.317,0.75,0.039,1.624,0.795,1.941C64.776,255.329,65.644,254.973,65.963,254.219"/>
</g>
<g>
	<defs>
		<rect id="SVGID_83_" x="-39.25" y="-2.5" width="300" height="800"/>
	</defs>
	<clipPath id="SVGID_84_">
		<use xlink:href="#SVGID_83_"  overflow="visible"/>
	</clipPath>
	<path clip-path="url(#SVGID_84_)" fill="#1A1A18" d="M71.438,256.52c0.319-0.754-0.035-1.624-0.793-1.941
		c-0.756-0.316-1.627,0.035-1.945,0.789c-0.317,0.758,0.039,1.631,0.793,1.949C70.25,257.634,71.117,257.278,71.438,256.52"/>
</g>
<g>
	<defs>
		<rect id="SVGID_85_" x="-39.25" y="-2.5" width="300" height="800"/>
	</defs>
	<clipPath id="SVGID_86_">
		<use xlink:href="#SVGID_85_"  overflow="visible"/>
	</clipPath>
	<path clip-path="url(#SVGID_86_)" fill="#1A1A18" d="M108.748,270.462c-0.756-0.316-1.628,0.039-1.947,0.793
		c-0.317,0.758,0.039,1.628,0.797,1.944c0.754,0.318,1.628-0.038,1.945-0.792C109.86,271.654,109.504,270.784,108.748,270.462"/>
</g>
<g>
	<defs>
		<rect id="SVGID_87_" x="-39.25" y="-2.5" width="300" height="800"/>
	</defs>
	<clipPath id="SVGID_88_">
		<use xlink:href="#SVGID_87_"  overflow="visible"/>
	</clipPath>
	<path clip-path="url(#SVGID_88_)" fill="#1A1A18" d="M65.528,247.592c0.319-0.75-0.037-1.623-0.795-1.94
		c-0.754-0.317-1.628,0.039-1.944,0.793c-0.318,0.757,0.038,1.627,0.794,1.941C64.339,248.706,65.213,248.35,65.528,247.592"/>
</g>
<g>
	<defs>
		<rect id="SVGID_89_" x="-39.25" y="-2.5" width="300" height="800"/>
	</defs>
	<clipPath id="SVGID_90_">
		<use xlink:href="#SVGID_89_"  overflow="visible"/>
	</clipPath>
	<path clip-path="url(#SVGID_90_)" fill="#1A1A18" d="M71.003,249.893c0.317-0.754-0.037-1.62-0.795-1.941
		c-0.755-0.316-1.627,0.039-1.944,0.793c-0.318,0.757,0.038,1.627,0.794,1.944C69.814,251.006,70.686,250.65,71.003,249.893"/>
</g>
<g>
	<defs>
		<rect id="SVGID_91_" x="-39.25" y="-2.5" width="300" height="800"/>
	</defs>
	<clipPath id="SVGID_92_">
		<use xlink:href="#SVGID_91_"  overflow="visible"/>
	</clipPath>
	<path clip-path="url(#SVGID_92_)" fill="#1A1A18" d="M76.476,252.197c0.317-0.758-0.037-1.628-0.793-1.945
		c-0.756-0.316-1.627,0.035-1.945,0.797c-0.316,0.755,0.037,1.624,0.795,1.941C75.289,253.307,76.159,252.955,76.476,252.197"/>
</g>
<g>
	<defs>
		<rect id="SVGID_93_" x="-39.25" y="-2.5" width="300" height="800"/>
	</defs>
	<clipPath id="SVGID_94_">
		<use xlink:href="#SVGID_93_"  overflow="visible"/>
	</clipPath>
	<path clip-path="url(#SVGID_94_)" fill="#1A1A18" d="M121.05,245.032c-0.317,0.758,0.037,1.628,0.793,1.945
		c0.755,0.316,1.625-0.035,1.94-0.793c0.32-0.758-0.034-1.628-0.788-1.945C122.236,243.922,121.366,244.278,121.05,245.032"/>
</g>
<g>
	<defs>
		<rect id="SVGID_95_" x="-39.25" y="-2.5" width="300" height="800"/>
	</defs>
	<clipPath id="SVGID_96_">
		<use xlink:href="#SVGID_95_"  overflow="visible"/>
	</clipPath>
	<path clip-path="url(#SVGID_96_)" fill="#1A1A18" d="M126.523,247.337c-0.317,0.754,0.037,1.624,0.795,1.941
		c0.75,0.321,1.623-0.039,1.939-0.789c0.317-0.758-0.039-1.628-0.789-1.949C127.714,246.223,126.842,246.579,126.523,247.337"/>
</g>
<g>
	<defs>
		<rect id="SVGID_97_" x="-39.25" y="-2.5" width="300" height="800"/>
	</defs>
	<clipPath id="SVGID_98_">
		<use xlink:href="#SVGID_97_"  overflow="visible"/>
	</clipPath>
	<path clip-path="url(#SVGID_98_)" fill="#1A1A18" d="M79.77,221.369c0.319-0.754-0.035-1.624-0.791-1.945
		c-0.754-0.316-1.626,0.039-1.943,0.798c-0.317,0.754,0.039,1.627,0.793,1.943C78.585,222.483,79.453,222.127,79.77,221.369"/>
</g>
<g>
	<defs>
		<rect id="SVGID_99_" x="-39.25" y="-2.5" width="300" height="800"/>
	</defs>
	<clipPath id="SVGID_100_">
		<use xlink:href="#SVGID_99_"  overflow="visible"/>
	</clipPath>
	<path clip-path="url(#SVGID_100_)" fill="#1A1A18" d="M85.245,223.673c0.317-0.758-0.035-1.628-0.791-1.944
		c-0.756-0.317-1.626,0.039-1.943,0.793c-0.317,0.758,0.039,1.628,0.791,1.944C84.058,224.787,84.928,224.431,85.245,223.673"/>
</g>
<g>
	<defs>
		<rect id="SVGID_101_" x="-39.25" y="-2.5" width="300" height="800"/>
	</defs>
	<clipPath id="SVGID_102_">
		<use xlink:href="#SVGID_101_"  overflow="visible"/>
	</clipPath>
	<path clip-path="url(#SVGID_102_)" fill="#1A1A18" d="M116.805,251.3c0.754,0.321,1.627-0.034,1.944-0.793
		c0.317-0.754-0.039-1.624-0.797-1.943c-0.754-0.318-1.627,0.038-1.944,0.796C115.689,250.113,116.046,250.987,116.805,251.3"/>
</g>
<g>
	<defs>
		<rect id="SVGID_103_" x="-39.25" y="-2.5" width="300" height="800"/>
	</defs>
	<clipPath id="SVGID_104_">
		<use xlink:href="#SVGID_103_"  overflow="visible"/>
	</clipPath>
	<path clip-path="url(#SVGID_104_)" fill="#1A1A18" d="M121.484,251.66c-0.318,0.758,0.037,1.624,0.791,1.945
		c0.758,0.316,1.629-0.035,1.947-0.797c0.317-0.754-0.037-1.624-0.795-1.941C122.674,250.549,121.805,250.905,121.484,251.66"/>
</g>
<g>
	<defs>
		<rect id="SVGID_105_" x="-39.25" y="-2.5" width="300" height="800"/>
	</defs>
	<clipPath id="SVGID_106_">
		<use xlink:href="#SVGID_105_"  overflow="visible"/>
	</clipPath>
	<path clip-path="url(#SVGID_106_)" fill="#1A1A18" d="M74.734,225.695c0.317-0.758-0.037-1.628-0.795-1.949
		c-0.756-0.312-1.624,0.043-1.943,0.797s0.037,1.628,0.791,1.945C73.545,226.806,74.417,226.449,74.734,225.695"/>
</g>
<g>
	<defs>
		<rect id="SVGID_107_" x="-39.25" y="-2.5" width="300" height="800"/>
	</defs>
	<clipPath id="SVGID_108_">
		<use xlink:href="#SVGID_107_"  overflow="visible"/>
	</clipPath>
	<path clip-path="url(#SVGID_108_)" fill="#1A1A18" d="M80.209,227.996c0.317-0.754-0.039-1.628-0.795-1.945
		c-0.757-0.316-1.624,0.039-1.943,0.794c-0.319,0.758,0.037,1.628,0.791,1.944C79.02,229.11,79.89,228.754,80.209,227.996"/>
</g>
<g>
	<defs>
		<rect id="SVGID_109_" x="-39.25" y="-2.5" width="300" height="800"/>
	</defs>
	<clipPath id="SVGID_110_">
		<use xlink:href="#SVGID_109_"  overflow="visible"/>
	</clipPath>
	<path clip-path="url(#SVGID_110_)" fill="#1A1A18" d="M84.889,228.352c-0.758-0.317-1.624,0.039-1.945,0.797
		c-0.317,0.757,0.039,1.624,0.795,1.939c0.754,0.321,1.626-0.037,1.943-0.792C86,229.543,85.646,228.673,84.889,228.352"/>
</g>
<g>
	<defs>
		<rect id="SVGID_111_" x="-39.25" y="-2.5" width="300" height="800"/>
	</defs>
	<clipPath id="SVGID_112_">
		<use xlink:href="#SVGID_111_"  overflow="visible"/>
	</clipPath>
	<path clip-path="url(#SVGID_112_)" fill="#1A1A18" d="M125.65,234.082c-0.316,0.758,0.037,1.628,0.793,1.945
		c0.758,0.317,1.627-0.035,1.945-0.793c0.315-0.754-0.037-1.628-0.793-1.945C126.838,232.972,125.973,233.328,125.65,234.082"/>
</g>
<g>
	<defs>
		<rect id="SVGID_113_" x="-39.25" y="-2.5" width="300" height="800"/>
	</defs>
	<clipPath id="SVGID_114_">
		<use xlink:href="#SVGID_113_"  overflow="visible"/>
	</clipPath>
	<path clip-path="url(#SVGID_114_)" fill="#1A1A18" d="M131.126,236.387c-0.317,0.754,0.035,1.624,0.793,1.94
		c0.757,0.317,1.628-0.035,1.944-0.793c0.316-0.754-0.038-1.624-0.793-1.94C132.312,235.276,131.447,235.628,131.126,236.387"/>
</g>
<g>
	<defs>
		<rect id="SVGID_115_" x="-39.25" y="-2.5" width="300" height="800"/>
	</defs>
	<clipPath id="SVGID_116_">
		<use xlink:href="#SVGID_115_"  overflow="visible"/>
	</clipPath>
	<path clip-path="url(#SVGID_116_)" fill="#1A1A18" d="M84.377,210.422c0.315-0.758-0.039-1.628-0.794-1.944
		c-0.758-0.317-1.628,0.035-1.945,0.793c-0.317,0.758,0.038,1.624,0.792,1.944C83.188,211.533,84.058,211.181,84.377,210.422"/>
</g>
<g>
	<defs>
		<rect id="SVGID_117_" x="-39.25" y="-2.5" width="300" height="800"/>
	</defs>
	<clipPath id="SVGID_118_">
		<use xlink:href="#SVGID_117_"  overflow="visible"/>
	</clipPath>
	<path clip-path="url(#SVGID_118_)" fill="#1A1A18" d="M89.85,212.723c0.317-0.759-0.037-1.628-0.793-1.945
		c-0.757-0.317-1.628,0.039-1.945,0.797c-0.317,0.754,0.037,1.62,0.793,1.941C88.661,213.833,89.533,213.481,89.85,212.723"/>
</g>
<g>
	<defs>
		<rect id="SVGID_119_" x="-39.25" y="-2.5" width="300" height="800"/>
	</defs>
	<clipPath id="SVGID_120_">
		<use xlink:href="#SVGID_119_"  overflow="visible"/>
	</clipPath>
	<path clip-path="url(#SVGID_120_)" fill="#1A1A18" d="M76.12,256.879c-0.758-0.316-1.628,0.035-1.945,0.793
		c-0.317,0.758,0.037,1.627,0.793,1.944c0.758,0.317,1.628-0.038,1.945-0.792C77.23,258.066,76.876,257.2,76.12,256.879"/>
</g>
<g>
	<defs>
		<rect id="SVGID_121_" x="-39.25" y="-2.5" width="300" height="800"/>
	</defs>
	<clipPath id="SVGID_122_">
		<use xlink:href="#SVGID_121_"  overflow="visible"/>
	</clipPath>
	<path clip-path="url(#SVGID_122_)" fill="#1A1A18" d="M121.407,240.354c0.756,0.316,1.624-0.039,1.942-0.793
		c0.32-0.757-0.039-1.631-0.791-1.948c-0.758-0.317-1.629,0.038-1.945,0.792C120.295,239.163,120.65,240.033,121.407,240.354"/>
</g>
<g>
	<defs>
		<rect id="SVGID_123_" x="-39.25" y="-2.5" width="300" height="800"/>
	</defs>
	<clipPath id="SVGID_124_">
		<use xlink:href="#SVGID_123_"  overflow="visible"/>
	</clipPath>
	<path clip-path="url(#SVGID_124_)" fill="#1A1A18" d="M126.088,240.709c-0.316,0.758,0.037,1.624,0.793,1.941
		c0.758,0.321,1.624-0.035,1.945-0.789c0.316-0.758-0.039-1.628-0.793-1.945C127.275,239.6,126.404,239.956,126.088,240.709"/>
</g>
<g>
	<defs>
		<rect id="SVGID_125_" x="-39.25" y="-2.5" width="300" height="800"/>
	</defs>
	<clipPath id="SVGID_126_">
		<use xlink:href="#SVGID_125_"  overflow="visible"/>
	</clipPath>
	<path clip-path="url(#SVGID_126_)" fill="#1A1A18" d="M77.392,215.538c0.758,0.317,1.624-0.035,1.945-0.793
		c0.317-0.757-0.039-1.628-0.793-1.944c-0.756-0.317-1.628,0.038-1.945,0.793C76.282,214.347,76.638,215.221,77.392,215.538"/>
</g>
<g>
	<defs>
		<rect id="SVGID_127_" x="-39.25" y="-2.5" width="300" height="800"/>
	</defs>
	<clipPath id="SVGID_128_">
		<use xlink:href="#SVGID_127_"  overflow="visible"/>
	</clipPath>
	<path clip-path="url(#SVGID_128_)" fill="#1A1A18" d="M84.812,217.046c0.317-0.754-0.039-1.628-0.793-1.944
		c-0.757-0.317-1.628,0.039-1.945,0.793c-0.317,0.758,0.039,1.628,0.793,1.944C83.625,218.16,84.491,217.804,84.812,217.046"/>
</g>
<g>
	<defs>
		<rect id="SVGID_129_" x="-39.25" y="-2.5" width="300" height="800"/>
	</defs>
	<clipPath id="SVGID_130_">
		<use xlink:href="#SVGID_129_"  overflow="visible"/>
	</clipPath>
	<path clip-path="url(#SVGID_130_)" fill="#1A1A18" d="M89.495,217.405c-0.758-0.317-1.628,0.035-1.945,0.793
		c-0.319,0.757,0.037,1.624,0.793,1.941c0.756,0.316,1.628-0.035,1.945-0.793C90.604,218.594,90.249,217.723,89.495,217.405"/>
</g>
<g>
	<defs>
		<rect id="SVGID_131_" x="-39.25" y="-2.5" width="300" height="800"/>
	</defs>
	<clipPath id="SVGID_132_">
		<use xlink:href="#SVGID_131_"  overflow="visible"/>
	</clipPath>
	<path clip-path="url(#SVGID_132_)" fill="#1A1A18" d="M126.012,229.404c0.754,0.317,1.623-0.039,1.939-0.793
		c0.318-0.757-0.037-1.628-0.793-1.948c-0.758-0.313-1.624,0.042-1.943,0.796C124.896,228.213,125.254,229.083,126.012,229.404"/>
</g>
<g>
	<defs>
		<rect id="SVGID_133_" x="-39.25" y="-2.5" width="300" height="800"/>
	</defs>
	<clipPath id="SVGID_134_">
		<use xlink:href="#SVGID_133_"  overflow="visible"/>
	</clipPath>
	<path clip-path="url(#SVGID_134_)" fill="#1A1A18" d="M130.693,229.759c-0.317,0.755,0.039,1.624,0.791,1.945
		c0.752,0.317,1.625-0.039,1.941-0.793c0.317-0.754-0.039-1.628-0.793-1.945C131.876,228.649,131.01,229.005,130.693,229.759"/>
</g>
<g>
	<defs>
		<rect id="SVGID_135_" x="-39.25" y="-2.5" width="300" height="800"/>
	</defs>
	<clipPath id="SVGID_136_">
		<use xlink:href="#SVGID_135_"  overflow="visible"/>
	</clipPath>
	<path clip-path="url(#SVGID_136_)" fill="#1A1A18" d="M130.256,223.132c-0.316,0.759,0.039,1.629,0.792,1.945
		c0.759,0.321,1.625-0.039,1.946-0.793c0.314-0.754-0.043-1.628-0.793-1.945C131.443,222.026,130.572,222.378,130.256,223.132"/>
</g>
<g>
	<defs>
		<rect id="SVGID_137_" x="-39.25" y="-2.5" width="300" height="800"/>
	</defs>
	<clipPath id="SVGID_138_">
		<use xlink:href="#SVGID_137_"  overflow="visible"/>
	</clipPath>
	<path clip-path="url(#SVGID_138_)" fill="#1A1A18" d="M135.73,225.433c-0.32,0.758,0.039,1.628,0.793,1.944
		c0.754,0.321,1.625-0.039,1.944-0.793c0.316-0.754-0.038-1.624-0.793-1.944C136.918,224.322,136.048,224.683,135.73,225.433"/>
</g>
<g>
	<defs>
		<rect id="SVGID_139_" x="-39.25" y="-2.5" width="300" height="800"/>
	</defs>
	<clipPath id="SVGID_140_">
		<use xlink:href="#SVGID_139_"  overflow="visible"/>
	</clipPath>
	<path clip-path="url(#SVGID_140_)" fill="#1A1A18" d="M130.492,218.736c0.758,0.321,1.628-0.035,1.943-0.793
		c0.317-0.754-0.039-1.624-0.793-1.945c-0.758-0.312-1.627,0.039-1.943,0.797C129.382,217.553,129.738,218.419,130.492,218.736"/>
</g>
<g>
	<defs>
		<rect id="SVGID_141_" x="-39.25" y="-2.5" width="300" height="800"/>
	</defs>
	<clipPath id="SVGID_142_">
		<use xlink:href="#SVGID_141_"  overflow="visible"/>
	</clipPath>
	<path clip-path="url(#SVGID_142_)" fill="#1A1A18" d="M135.971,221.028c0.758,0.317,1.629-0.039,1.949-0.796
		c0.312-0.751-0.039-1.625-0.797-1.941c-0.758-0.317-1.628,0.038-1.945,0.792C134.861,219.837,135.217,220.711,135.971,221.028"/>
</g>
<g>
	<defs>
		<rect id="SVGID_143_" x="-39.25" y="-2.5" width="300" height="800"/>
	</defs>
	<clipPath id="SVGID_144_">
		<use xlink:href="#SVGID_143_"  overflow="visible"/>
	</clipPath>
	<path clip-path="url(#SVGID_144_)" fill="#1A1A18" d="M141.848,223.488c0.758,0.317,1.629-0.039,1.949-0.793
		c0.316-0.757-0.039-1.624-0.797-1.944c-0.754-0.317-1.628,0.038-1.945,0.792C140.738,222.301,141.094,223.171,141.848,223.488"/>
</g>
<g>
	<defs>
		<rect id="SVGID_145_" x="-39.25" y="-2.5" width="300" height="800"/>
	</defs>
	<clipPath id="SVGID_146_">
		<use xlink:href="#SVGID_145_"  overflow="visible"/>
	</clipPath>
	<path clip-path="url(#SVGID_146_)" fill="#1A1A18" d="M83.998,199.291c0.756,0.317,1.63-0.035,1.947-0.793
		c0.317-0.754-0.039-1.627-0.797-1.94c-0.754-0.32-1.627,0.034-1.944,0.793C82.886,198.104,83.242,198.974,83.998,199.291"/>
</g>
<g>
	<defs>
		<rect id="SVGID_147_" x="-39.25" y="-2.5" width="300" height="800"/>
	</defs>
	<clipPath id="SVGID_148_">
		<use xlink:href="#SVGID_147_"  overflow="visible"/>
	</clipPath>
	<path clip-path="url(#SVGID_148_)" fill="#1A1A18" d="M89.477,201.583c0.758,0.313,1.63-0.039,1.947-0.796
		c0.317-0.755-0.039-1.624-0.797-1.941c-0.754-0.317-1.628,0.038-1.944,0.793C88.365,200.393,88.721,201.263,89.477,201.583"/>
</g>
<g>
	<defs>
		<rect id="SVGID_149_" x="-39.25" y="-2.5" width="300" height="800"/>
	</defs>
	<clipPath id="SVGID_150_">
		<use xlink:href="#SVGID_149_"  overflow="visible"/>
	</clipPath>
	<path clip-path="url(#SVGID_150_)" fill="#1A1A18" d="M94.956,203.876c0.756,0.317,1.628-0.039,1.947-0.796
		c0.317-0.754-0.039-1.624-0.797-1.94c-0.756-0.321-1.628,0.038-1.945,0.792C93.844,202.686,94.2,203.56,94.956,203.876"/>
</g>
<g>
	<defs>
		<rect id="SVGID_151_" x="-39.25" y="-2.5" width="300" height="800"/>
	</defs>
	<clipPath id="SVGID_152_">
		<use xlink:href="#SVGID_151_"  overflow="visible"/>
	</clipPath>
	<path clip-path="url(#SVGID_152_)" fill="#1A1A18" d="M165.08,223.631c-4.784-9.461-15.321-20.334-36.588-19.178
		c-13.844,0.75-46.081-15.683-46.081-15.683c-1.257-0.53-2.709,0.062-3.239,1.318l-3.594,8.525l-3.263-1.372
		c-4.708-1.821-14.759-2.514-19.116,7.857c-4.362,10.374,3.172,17.066,7.829,19.185l3.169,1.335l-11.572,27.452
		c-0.963,2.293-0.977,4.822-0.037,7.122c0.939,2.301,2.718,4.099,5.007,5.058l52.875,22.229c1.15,0.482,2.363,0.729,3.602,0.729
		c3.756,0,7.123-2.237,8.578-5.694l21.396-50.671c0.444-1.045,1.656-1.539,2.707-1.096c1.051,0.445,1.543,1.655,1.1,2.703
		c0,0-3.172,7.518-3.174,11.271c-0.006,7.063,5.744,12.817,12.818,12.829h0.007c7.069-0.012,12.829-5.766,12.837-12.829
		C170.346,239.658,168.409,230.216,165.08,223.631 M63.013,219.753c-0.363-0.166-8.858-4.152-5.251-12.736
		c3.515-8.359,11.843-5.506,12.704-5.186l3.192,1.342l-7.538,17.886L63.013,219.753z M141.05,227.285
		c-0.428,0.271-0.765,0.665-0.959,1.133l-22.003,52.175c-0.904,2.15-3.52,3.237-5.699,2.324l-52.876-22.229
		c-1.069-0.448-1.902-1.287-2.341-2.366c-0.439-1.075-0.434-2.258,0.017-3.329l12.447-29.529c0.034-0.067,0.086-0.122,0.118-0.192
		c0.023-0.057,0.015-0.113,0.032-0.169l8.435-20.01l34.239,14.394c1.26,0.526,2.71-0.062,3.238-1.322
		c0.531-1.261-0.061-2.711-1.32-3.241l-34.235-14.391l2.631-6.241l66.36,27.895L141.05,227.285z"/>
</g>
<g>
	<defs>
		<rect id="SVGID_153_" x="-39.25" y="-2.5" width="300" height="800"/>
	</defs>
	<clipPath id="SVGID_154_">
		<use xlink:href="#SVGID_153_"  overflow="visible"/>
	</clipPath>
	<path clip-path="url(#SVGID_154_)" fill="#FFFFFF" d="M69.389,305.822c-0.201,0-0.41-0.022-0.619-0.07
		c-1.473-0.342-2.393-1.812-2.049-3.286c3.979-17.206,20.23-34.623,43.588-34.623c3.777,0,7.537,0.474,11.169,1.409
		c1.467,0.377,2.348,1.87,1.973,3.335s-1.866,2.355-3.338,1.971c-3.188-0.82-6.487-1.235-9.804-1.235
		c-20.501,0-34.761,15.282-38.252,30.377C71.763,304.967,70.638,305.822,69.389,305.822"/>
</g>
<g>
	<defs>
		<rect id="SVGID_155_" x="-39.25" y="-2.5" width="300" height="800"/>
	</defs>
	<clipPath id="SVGID_156_">
		<use xlink:href="#SVGID_155_"  overflow="visible"/>
	</clipPath>
	<path clip-path="url(#SVGID_156_)" fill="#1A1A18" d="M148.887,338.375l-14.347-15.914c-0.545-0.6-1.373-1.056-2.312-0.951
		c-0.881,0.045-1.682,0.479-2.201,1.192c-5.266,7.257-10.223,11.453-19.954,11.453c-12.068,0-20.825-9.583-20.825-22.788
		c0-12.916,8.839-22.658,20.566-22.658c9.129,0,12.958,3.633,17.759,9.172c0.534,0.613,1.303,0.979,2.149,1.001
		c0.844-0.006,1.578-0.309,2.131-0.878l14.998-15.39c1.057-1.085,1.109-2.771,0.127-3.917
		c-9.971-11.656-22.511-17.322-38.335-17.322c-28.354,0-49.736,21.492-49.736,49.992c0,16.194,6.368,30.228,17.933,39.516
		c0.193,0.155,0.437,0.24,0.688,0.24h62.298c0.248,0,0.486-0.083,0.682-0.236c3.204-2.555,6.082-5.524,8.549-8.824
		C149.883,340.954,149.812,339.404,148.887,338.375 M72.057,303.7c-0.294,1.267-1.419,2.123-2.668,2.123
		c-0.201,0-0.41-0.023-0.618-0.071c-1.474-0.341-2.394-1.812-2.05-3.286c3.979-17.205,20.23-34.622,43.588-34.622
		c3.777,0,7.537,0.474,11.171,1.409c1.465,0.377,2.346,1.869,1.972,3.335c-0.376,1.466-1.868,2.354-3.337,1.971
		c-3.189-0.82-6.488-1.236-9.806-1.236C89.808,273.322,75.548,288.604,72.057,303.7"/>
</g>
<g>
	<defs>
		<rect id="SVGID_157_" x="-39.25" y="-2.5" width="300" height="800"/>
	</defs>
	<clipPath id="SVGID_158_">
		<use xlink:href="#SVGID_157_"  overflow="visible"/>
	</clipPath>
	<path clip-path="url(#SVGID_158_)" fill="#FFFFFF" d="M154.35,590.725c0,1.208-1.002,2.187-2.236,2.187H66.164
		c-1.237,0-2.239-0.979-2.239-2.187v-64.539c0-1.206,1.002-2.187,2.239-2.187h85.949c1.234,0,2.236,0.979,2.236,2.187V590.725z"/>
</g>
<g>
	<defs>
		<rect id="SVGID_159_" x="-39.25" y="-2.5" width="300" height="800"/>
	</defs>
	<clipPath id="SVGID_160_">
		<use xlink:href="#SVGID_159_"  overflow="visible"/>
	</clipPath>
	<path clip-path="url(#SVGID_160_)" fill="#1A1A18" d="M152.113,521.525H66.164c-2.599,0-4.714,2.089-4.714,4.66v64.539
		c0,2.568,2.115,4.661,4.714,4.661h85.949c2.599,0,4.709-2.092,4.709-4.661v-64.539
		C156.822,523.614,154.712,521.525,152.113,521.525 M151.874,590.436H66.4v-63.963h85.474V590.436z"/>
</g>
<g>
	<defs>
		<rect id="SVGID_161_" x="-39.25" y="-2.5" width="300" height="800"/>
	</defs>
	<clipPath id="SVGID_162_">
		<use xlink:href="#SVGID_161_"  overflow="visible"/>
	</clipPath>
	<path clip-path="url(#SVGID_162_)" fill="#1A1A18" d="M80.926,589.636c0.82,0,1.485-0.665,1.485-1.484s-0.665-1.484-1.485-1.484
		c-0.82,0-1.485,0.666-1.485,1.484C79.441,588.971,80.106,589.636,80.926,589.636"/>
</g>
<g>
	<defs>
		<rect id="SVGID_163_" x="-39.25" y="-2.5" width="300" height="800"/>
	</defs>
	<clipPath id="SVGID_164_">
		<use xlink:href="#SVGID_163_"  overflow="visible"/>
	</clipPath>
	<path clip-path="url(#SVGID_164_)" fill="#1A1A18" d="M86.865,586.666c-0.82,0-1.485,0.665-1.485,1.485s0.665,1.485,1.485,1.485
		c0.82,0,1.485-0.665,1.485-1.485S87.686,586.666,86.865,586.666"/>
</g>
<g>
	<defs>
		<rect id="SVGID_165_" x="-39.25" y="-2.5" width="300" height="800"/>
	</defs>
	<clipPath id="SVGID_166_">
		<use xlink:href="#SVGID_165_"  overflow="visible"/>
	</clipPath>
	<path clip-path="url(#SVGID_166_)" fill="#1A1A18" d="M92.804,589.636c0.82,0,1.485-0.665,1.485-1.484s-0.665-1.484-1.485-1.484
		c-0.82,0-1.485,0.666-1.485,1.484C91.319,588.971,91.984,589.636,92.804,589.636"/>
</g>
<g>
	<defs>
		<rect id="SVGID_167_" x="-39.25" y="-2.5" width="300" height="800"/>
	</defs>
	<clipPath id="SVGID_168_">
		<use xlink:href="#SVGID_167_"  overflow="visible"/>
	</clipPath>
	<path clip-path="url(#SVGID_168_)" fill="#1A1A18" d="M98.744,586.666c-0.82,0-1.485,0.665-1.485,1.485s0.665,1.485,1.485,1.485
		c0.82,0,1.485-0.665,1.485-1.485S99.563,586.666,98.744,586.666"/>
</g>
<g>
	<defs>
		<rect id="SVGID_169_" x="-39.25" y="-2.5" width="300" height="800"/>
	</defs>
	<clipPath id="SVGID_170_">
		<use xlink:href="#SVGID_169_"  overflow="visible"/>
	</clipPath>
	<path clip-path="url(#SVGID_170_)" fill="#1A1A18" d="M104.683,586.666c-0.82,0-1.485,0.665-1.485,1.485s0.665,1.485,1.485,1.485
		c0.82,0,1.485-0.665,1.485-1.485S105.502,586.666,104.683,586.666"/>
</g>
<g>
	<defs>
		<rect id="SVGID_171_" x="-39.25" y="-2.5" width="300" height="800"/>
	</defs>
	<clipPath id="SVGID_172_">
		<use xlink:href="#SVGID_171_"  overflow="visible"/>
	</clipPath>
	<path clip-path="url(#SVGID_172_)" fill="#1A1A18" d="M110.622,586.666c-0.82,0-1.485,0.665-1.485,1.485s0.665,1.485,1.485,1.485
		c0.819,0,1.485-0.665,1.485-1.485S111.441,586.666,110.622,586.666"/>
</g>
<g>
	<defs>
		<rect id="SVGID_173_" x="-39.25" y="-2.5" width="300" height="800"/>
	</defs>
	<clipPath id="SVGID_174_">
		<use xlink:href="#SVGID_173_"  overflow="visible"/>
	</clipPath>
	<path clip-path="url(#SVGID_174_)" fill="#1A1A18" d="M89.835,583.697c0.82,0,1.485-0.665,1.485-1.484s-0.665-1.485-1.485-1.485
		s-1.485,0.666-1.485,1.485S89.015,583.697,89.835,583.697"/>
</g>
<g>
	<defs>
		<rect id="SVGID_175_" x="-39.25" y="-2.5" width="300" height="800"/>
	</defs>
	<clipPath id="SVGID_176_">
		<use xlink:href="#SVGID_175_"  overflow="visible"/>
	</clipPath>
	<path clip-path="url(#SVGID_176_)" fill="#1A1A18" d="M83.896,583.697c0.82,0,1.485-0.665,1.485-1.484s-0.665-1.485-1.485-1.485
		s-1.485,0.666-1.485,1.485S83.076,583.697,83.896,583.697"/>
</g>
<g>
	<defs>
		<rect id="SVGID_177_" x="-39.25" y="-2.5" width="300" height="800"/>
	</defs>
	<clipPath id="SVGID_178_">
		<use xlink:href="#SVGID_177_"  overflow="visible"/>
	</clipPath>
	<path clip-path="url(#SVGID_178_)" fill="#1A1A18" d="M77.957,583.697c0.82,0,1.485-0.665,1.485-1.484s-0.665-1.485-1.485-1.485
		s-1.485,0.666-1.485,1.485S77.137,583.697,77.957,583.697"/>
</g>
<g>
	<defs>
		<rect id="SVGID_179_" x="-39.25" y="-2.5" width="300" height="800"/>
	</defs>
	<clipPath id="SVGID_180_">
		<use xlink:href="#SVGID_179_"  overflow="visible"/>
	</clipPath>
	<path clip-path="url(#SVGID_180_)" fill="#1A1A18" d="M74.987,589.636c0.82,0,1.485-0.665,1.485-1.484s-0.665-1.484-1.485-1.484
		c-0.82,0-1.485,0.666-1.485,1.484C73.502,588.971,74.167,589.636,74.987,589.636"/>
</g>
<g>
	<defs>
		<rect id="SVGID_181_" x="-39.25" y="-2.5" width="300" height="800"/>
	</defs>
	<clipPath id="SVGID_182_">
		<use xlink:href="#SVGID_181_"  overflow="visible"/>
	</clipPath>
	<path clip-path="url(#SVGID_182_)" fill="#1A1A18" d="M69.048,589.636c0.82,0,1.485-0.665,1.485-1.484s-0.665-1.484-1.485-1.484
		c-0.82,0-1.485,0.666-1.485,1.484C67.563,588.971,68.228,589.636,69.048,589.636"/>
</g>
<g>
	<defs>
		<rect id="SVGID_183_" x="-39.25" y="-2.5" width="300" height="800"/>
	</defs>
	<clipPath id="SVGID_184_">
		<use xlink:href="#SVGID_183_"  overflow="visible"/>
	</clipPath>
	<path clip-path="url(#SVGID_184_)" fill="#1A1A18" d="M86.865,577.759c0.82,0,1.485-0.665,1.485-1.484s-0.665-1.485-1.485-1.485
		c-0.82,0-1.485,0.666-1.485,1.485S86.045,577.759,86.865,577.759"/>
</g>
<g>
	<defs>
		<rect id="SVGID_185_" x="-39.25" y="-2.5" width="300" height="800"/>
	</defs>
	<clipPath id="SVGID_186_">
		<use xlink:href="#SVGID_185_"  overflow="visible"/>
	</clipPath>
	<path clip-path="url(#SVGID_186_)" fill="#1A1A18" d="M95.774,583.697c0.82,0,1.485-0.665,1.485-1.484s-0.665-1.485-1.485-1.485
		c-0.82,0-1.485,0.666-1.485,1.485S94.954,583.697,95.774,583.697"/>
</g>
<g>
	<defs>
		<rect id="SVGID_187_" x="-39.25" y="-2.5" width="300" height="800"/>
	</defs>
	<clipPath id="SVGID_188_">
		<use xlink:href="#SVGID_187_"  overflow="visible"/>
	</clipPath>
	<path clip-path="url(#SVGID_188_)" fill="#1A1A18" d="M101.713,580.728c-0.82,0-1.485,0.665-1.485,1.485
		c0,0.818,0.665,1.483,1.485,1.483c0.82,0,1.485-0.665,1.485-1.483C103.198,581.393,102.533,580.728,101.713,580.728"/>
</g>
<g>
	<defs>
		<rect id="SVGID_189_" x="-39.25" y="-2.5" width="300" height="800"/>
	</defs>
	<clipPath id="SVGID_190_">
		<use xlink:href="#SVGID_189_"  overflow="visible"/>
	</clipPath>
	<path clip-path="url(#SVGID_190_)" fill="#1A1A18" d="M107.652,580.728c-0.82,0-1.485,0.665-1.485,1.485
		c0,0.818,0.665,1.483,1.485,1.483c0.82,0,1.485-0.665,1.485-1.483C109.137,581.393,108.472,580.728,107.652,580.728"/>
</g>
<g>
	<defs>
		<rect id="SVGID_191_" x="-39.25" y="-2.5" width="300" height="800"/>
	</defs>
	<clipPath id="SVGID_192_">
		<use xlink:href="#SVGID_191_"  overflow="visible"/>
	</clipPath>
	<path clip-path="url(#SVGID_192_)" fill="#1A1A18" d="M110.622,577.759c0.819,0,1.485-0.665,1.485-1.484s-0.666-1.485-1.485-1.485
		c-0.82,0-1.485,0.666-1.485,1.485S109.802,577.759,110.622,577.759"/>
</g>
<g>
	<defs>
		<rect id="SVGID_193_" x="-39.25" y="-2.5" width="300" height="800"/>
	</defs>
	<clipPath id="SVGID_194_">
		<use xlink:href="#SVGID_193_"  overflow="visible"/>
	</clipPath>
	<path clip-path="url(#SVGID_194_)" fill="#1A1A18" d="M113.591,580.728c-0.819,0-1.483,0.665-1.483,1.485
		c0,0.818,0.664,1.483,1.483,1.483c0.82,0,1.485-0.665,1.485-1.483C115.076,581.393,114.411,580.728,113.591,580.728"/>
</g>
<g>
	<defs>
		<rect id="SVGID_195_" x="-39.25" y="-2.5" width="300" height="800"/>
	</defs>
	<clipPath id="SVGID_196_">
		<use xlink:href="#SVGID_195_"  overflow="visible"/>
	</clipPath>
	<path clip-path="url(#SVGID_196_)" fill="#1A1A18" d="M116.561,586.666c-0.819,0-1.484,0.665-1.484,1.485s0.665,1.485,1.484,1.485
		c0.82,0,1.485-0.665,1.485-1.485S117.381,586.666,116.561,586.666"/>
</g>
<g>
	<defs>
		<rect id="SVGID_197_" x="-39.25" y="-2.5" width="300" height="800"/>
	</defs>
	<clipPath id="SVGID_198_">
		<use xlink:href="#SVGID_197_"  overflow="visible"/>
	</clipPath>
	<path clip-path="url(#SVGID_198_)" fill="#1A1A18" d="M122.5,586.666c-0.82,0-1.484,0.665-1.484,1.485s0.664,1.485,1.484,1.485
		c0.818,0,1.484-0.665,1.484-1.485S123.318,586.666,122.5,586.666"/>
</g>
<g>
	<defs>
		<rect id="SVGID_199_" x="-39.25" y="-2.5" width="300" height="800"/>
	</defs>
	<clipPath id="SVGID_200_">
		<use xlink:href="#SVGID_199_"  overflow="visible"/>
	</clipPath>
	<path clip-path="url(#SVGID_200_)" fill="#1A1A18" d="M128.438,586.666c-0.818,0-1.483,0.665-1.483,1.485s0.665,1.485,1.483,1.485
		c0.82,0,1.485-0.665,1.485-1.485S129.259,586.666,128.438,586.666"/>
</g>
<g>
	<defs>
		<rect id="SVGID_201_" x="-39.25" y="-2.5" width="300" height="800"/>
	</defs>
	<clipPath id="SVGID_202_">
		<use xlink:href="#SVGID_201_"  overflow="visible"/>
	</clipPath>
	<path clip-path="url(#SVGID_202_)" fill="#1A1A18" d="M134.378,586.666c-0.819,0-1.485,0.665-1.485,1.485s0.666,1.485,1.485,1.485
		s1.483-0.665,1.483-1.485S135.197,586.666,134.378,586.666"/>
</g>
<g>
	<defs>
		<rect id="SVGID_203_" x="-39.25" y="-2.5" width="300" height="800"/>
	</defs>
	<clipPath id="SVGID_204_">
		<use xlink:href="#SVGID_203_"  overflow="visible"/>
	</clipPath>
	<path clip-path="url(#SVGID_204_)" fill="#1A1A18" d="M119.529,568.85c-0.819,0-1.484,0.665-1.484,1.483
		c0,0.82,0.665,1.485,1.484,1.485c0.82,0,1.484-0.665,1.484-1.485C121.016,569.515,120.35,568.85,119.529,568.85"/>
</g>
<g>
	<defs>
		<rect id="SVGID_205_" x="-39.25" y="-2.5" width="300" height="800"/>
	</defs>
	<clipPath id="SVGID_206_">
		<use xlink:href="#SVGID_205_"  overflow="visible"/>
	</clipPath>
	<path clip-path="url(#SVGID_206_)" fill="#1A1A18" d="M125.469,568.85c-0.818,0-1.484,0.665-1.484,1.483
		c0,0.82,0.666,1.485,1.484,1.485c0.82,0,1.485-0.665,1.485-1.485C126.954,569.515,126.289,568.85,125.469,568.85"/>
</g>
<g>
	<defs>
		<rect id="SVGID_207_" x="-39.25" y="-2.5" width="300" height="800"/>
	</defs>
	<clipPath id="SVGID_208_">
		<use xlink:href="#SVGID_207_"  overflow="visible"/>
	</clipPath>
	<path clip-path="url(#SVGID_208_)" fill="#1A1A18" d="M131.408,571.819c0.82,0,1.484-0.665,1.484-1.485
		c0-0.818-0.664-1.484-1.484-1.484s-1.485,0.666-1.485,1.484C129.923,571.154,130.588,571.819,131.408,571.819"/>
</g>
<g>
	<defs>
		<rect id="SVGID_209_" x="-39.25" y="-2.5" width="300" height="800"/>
	</defs>
	<clipPath id="SVGID_210_">
		<use xlink:href="#SVGID_209_"  overflow="visible"/>
	</clipPath>
	<path clip-path="url(#SVGID_210_)" fill="#1A1A18" d="M137.348,571.819c0.819,0,1.484-0.665,1.484-1.485
		c0-0.818-0.665-1.484-1.484-1.484c-0.82,0-1.484,0.666-1.484,1.484C135.861,571.154,136.527,571.819,137.348,571.819"/>
</g>
<g>
	<defs>
		<rect id="SVGID_211_" x="-39.25" y="-2.5" width="300" height="800"/>
	</defs>
	<clipPath id="SVGID_212_">
		<use xlink:href="#SVGID_211_"  overflow="visible"/>
	</clipPath>
	<path clip-path="url(#SVGID_212_)" fill="#1A1A18" d="M140.316,542.125c0.82,0,1.484-0.665,1.484-1.485
		c0-0.819-0.664-1.485-1.484-1.485c-0.819,0-1.484,0.666-1.484,1.485S139.497,542.125,140.316,542.125"/>
</g>
<g>
	<defs>
		<rect id="SVGID_213_" x="-39.25" y="-2.5" width="300" height="800"/>
	</defs>
	<clipPath id="SVGID_214_">
		<use xlink:href="#SVGID_213_"  overflow="visible"/>
	</clipPath>
	<path clip-path="url(#SVGID_214_)" fill="#1A1A18" d="M146.256,542.125c0.82,0,1.485-0.665,1.485-1.485
		c0-0.819-0.665-1.485-1.485-1.485s-1.484,0.666-1.484,1.485S145.436,542.125,146.256,542.125"/>
</g>
<g>
	<defs>
		<rect id="SVGID_215_" x="-39.25" y="-2.5" width="300" height="800"/>
	</defs>
	<clipPath id="SVGID_216_">
		<use xlink:href="#SVGID_215_"  overflow="visible"/>
	</clipPath>
	<path clip-path="url(#SVGID_216_)" fill="#1A1A18" d="M143.286,548.062c0.819,0,1.485-0.665,1.485-1.484
		c0-0.818-0.666-1.484-1.485-1.484c-0.82,0-1.483,0.666-1.483,1.484C141.803,547.397,142.466,548.062,143.286,548.062"/>
</g>
<g>
	<defs>
		<rect id="SVGID_217_" x="-39.25" y="-2.5" width="300" height="800"/>
	</defs>
	<clipPath id="SVGID_218_">
		<use xlink:href="#SVGID_217_"  overflow="visible"/>
	</clipPath>
	<path clip-path="url(#SVGID_218_)" fill="#1A1A18" d="M146.256,554.003c0.82,0,1.485-0.665,1.485-1.485
		c0-0.818-0.665-1.484-1.485-1.484s-1.484,0.666-1.484,1.484C144.771,553.338,145.436,554.003,146.256,554.003"/>
</g>
<g>
	<defs>
		<rect id="SVGID_219_" x="-39.25" y="-2.5" width="300" height="800"/>
	</defs>
	<clipPath id="SVGID_220_">
		<use xlink:href="#SVGID_219_"  overflow="visible"/>
	</clipPath>
	<path clip-path="url(#SVGID_220_)" fill="#1A1A18" d="M140.316,551.032c-0.819,0-1.484,0.665-1.484,1.485
		c0,0.818,0.665,1.484,1.484,1.484c0.82,0,1.484-0.665,1.484-1.484C141.803,551.697,141.137,551.032,140.316,551.032"/>
</g>
<g>
	<defs>
		<rect id="SVGID_221_" x="-39.25" y="-2.5" width="300" height="800"/>
	</defs>
	<clipPath id="SVGID_222_">
		<use xlink:href="#SVGID_221_"  overflow="visible"/>
	</clipPath>
	<path clip-path="url(#SVGID_222_)" fill="#1A1A18" d="M143.286,556.972c-0.82,0-1.483,0.665-1.483,1.483
		c0,0.82,0.663,1.485,1.483,1.485c0.819,0,1.485-0.665,1.485-1.485C144.771,557.637,144.105,556.972,143.286,556.972"/>
</g>
<g>
	<defs>
		<rect id="SVGID_223_" x="-39.25" y="-2.5" width="300" height="800"/>
	</defs>
	<clipPath id="SVGID_224_">
		<use xlink:href="#SVGID_223_"  overflow="visible"/>
	</clipPath>
	<path clip-path="url(#SVGID_224_)" fill="#1A1A18" d="M140.316,565.881c0.82,0,1.484-0.665,1.484-1.485
		c0-0.818-0.664-1.484-1.484-1.484c-0.819,0-1.484,0.666-1.484,1.484C138.832,565.216,139.497,565.881,140.316,565.881"/>
</g>
<g>
	<defs>
		<rect id="SVGID_225_" x="-39.25" y="-2.5" width="300" height="800"/>
	</defs>
	<clipPath id="SVGID_226_">
		<use xlink:href="#SVGID_225_"  overflow="visible"/>
	</clipPath>
	<path clip-path="url(#SVGID_226_)" fill="#1A1A18" d="M146.256,565.881c0.82,0,1.485-0.665,1.485-1.485
		c0-0.818-0.665-1.484-1.485-1.484s-1.484,0.666-1.484,1.484C144.771,565.216,145.436,565.881,146.256,565.881"/>
</g>
<g>
	<defs>
		<rect id="SVGID_227_" x="-39.25" y="-2.5" width="300" height="800"/>
	</defs>
	<clipPath id="SVGID_228_">
		<use xlink:href="#SVGID_227_"  overflow="visible"/>
	</clipPath>
	<path clip-path="url(#SVGID_228_)" fill="#1A1A18" d="M143.286,568.85c-0.82,0-1.483,0.665-1.483,1.483
		c0,0.82,0.663,1.485,1.483,1.485c0.819,0,1.485-0.665,1.485-1.485C144.771,569.515,144.105,568.85,143.286,568.85"/>
</g>
<g>
	<defs>
		<rect id="SVGID_229_" x="-39.25" y="-2.5" width="300" height="800"/>
	</defs>
	<clipPath id="SVGID_230_">
		<use xlink:href="#SVGID_229_"  overflow="visible"/>
	</clipPath>
	<path clip-path="url(#SVGID_230_)" fill="#1A1A18" d="M140.316,574.788c-0.819,0-1.484,0.665-1.484,1.485s0.665,1.485,1.484,1.485
		c0.82,0,1.484-0.665,1.484-1.485S141.137,574.788,140.316,574.788"/>
</g>
<g>
	<defs>
		<rect id="SVGID_231_" x="-39.25" y="-2.5" width="300" height="800"/>
	</defs>
	<clipPath id="SVGID_232_">
		<use xlink:href="#SVGID_231_"  overflow="visible"/>
	</clipPath>
	<path clip-path="url(#SVGID_232_)" fill="#1A1A18" d="M146.256,577.759c0.82,0,1.485-0.665,1.485-1.484s-0.665-1.485-1.485-1.485
		s-1.484,0.666-1.484,1.485S145.436,577.759,146.256,577.759"/>
</g>
<g>
	<defs>
		<rect id="SVGID_233_" x="-39.25" y="-2.5" width="300" height="800"/>
	</defs>
	<clipPath id="SVGID_234_">
		<use xlink:href="#SVGID_233_"  overflow="visible"/>
	</clipPath>
	<path clip-path="url(#SVGID_234_)" fill="#1A1A18" d="M143.286,580.728c-0.82,0-1.483,0.665-1.483,1.485
		c0,0.818,0.663,1.483,1.483,1.483c0.819,0,1.485-0.665,1.485-1.483C144.771,581.393,144.105,580.728,143.286,580.728"/>
</g>
<g>
	<defs>
		<rect id="SVGID_235_" x="-39.25" y="-2.5" width="300" height="800"/>
	</defs>
	<clipPath id="SVGID_236_">
		<use xlink:href="#SVGID_235_"  overflow="visible"/>
	</clipPath>
	<path clip-path="url(#SVGID_236_)" fill="#1A1A18" d="M140.316,586.666c-0.819,0-1.484,0.665-1.484,1.485s0.665,1.485,1.484,1.485
		c0.82,0,1.484-0.665,1.484-1.485S141.137,586.666,140.316,586.666"/>
</g>
<g>
	<defs>
		<rect id="SVGID_237_" x="-39.25" y="-2.5" width="300" height="800"/>
	</defs>
	<clipPath id="SVGID_238_">
		<use xlink:href="#SVGID_237_"  overflow="visible"/>
	</clipPath>
	<path clip-path="url(#SVGID_238_)" fill="#1A1A18" d="M146.256,586.666c-0.82,0-1.484,0.665-1.484,1.485s0.664,1.485,1.484,1.485
		s1.485-0.665,1.485-1.485S147.076,586.666,146.256,586.666"/>
</g>
<g>
	<defs>
		<rect id="SVGID_239_" x="-39.25" y="-2.5" width="300" height="800"/>
	</defs>
	<clipPath id="SVGID_240_">
		<use xlink:href="#SVGID_239_"  overflow="visible"/>
	</clipPath>
	<path clip-path="url(#SVGID_240_)" fill="#1A1A18" d="M149.227,536.185c0.818,0,1.483-0.665,1.483-1.485
		c0-0.817-0.665-1.483-1.483-1.483c-0.82,0-1.485,0.666-1.485,1.483C147.74,535.52,148.404,536.185,149.227,536.185"/>
</g>
<g>
	<defs>
		<rect id="SVGID_241_" x="-39.25" y="-2.5" width="300" height="800"/>
	</defs>
	<clipPath id="SVGID_242_">
		<use xlink:href="#SVGID_241_"  overflow="visible"/>
	</clipPath>
	<path clip-path="url(#SVGID_242_)" fill="#1A1A18" d="M149.227,545.094c-0.82,0-1.485,0.665-1.485,1.484
		c0,0.82,0.665,1.485,1.485,1.485c0.818,0,1.483-0.665,1.483-1.485C150.71,545.759,150.045,545.094,149.227,545.094"/>
</g>
<g>
	<defs>
		<rect id="SVGID_243_" x="-39.25" y="-2.5" width="300" height="800"/>
	</defs>
	<clipPath id="SVGID_244_">
		<use xlink:href="#SVGID_243_"  overflow="visible"/>
	</clipPath>
	<path clip-path="url(#SVGID_244_)" fill="#1A1A18" d="M149.227,556.972c-0.82,0-1.485,0.665-1.485,1.483
		c0,0.82,0.665,1.485,1.485,1.485c0.818,0,1.483-0.665,1.483-1.485C150.71,557.637,150.045,556.972,149.227,556.972"/>
</g>
<g>
	<defs>
		<rect id="SVGID_245_" x="-39.25" y="-2.5" width="300" height="800"/>
	</defs>
	<clipPath id="SVGID_246_">
		<use xlink:href="#SVGID_245_"  overflow="visible"/>
	</clipPath>
	<path clip-path="url(#SVGID_246_)" fill="#1A1A18" d="M149.227,568.85c-0.82,0-1.485,0.665-1.485,1.483
		c0,0.82,0.665,1.485,1.485,1.485c0.818,0,1.483-0.665,1.483-1.485C150.71,569.515,150.045,568.85,149.227,568.85"/>
</g>
<g>
	<defs>
		<rect id="SVGID_247_" x="-39.25" y="-2.5" width="300" height="800"/>
	</defs>
	<clipPath id="SVGID_248_">
		<use xlink:href="#SVGID_247_"  overflow="visible"/>
	</clipPath>
	<path clip-path="url(#SVGID_248_)" fill="#1A1A18" d="M149.227,580.728c-0.82,0-1.485,0.665-1.485,1.485
		c0,0.818,0.665,1.483,1.485,1.483c0.818,0,1.483-0.665,1.483-1.483C150.71,581.393,150.045,580.728,149.227,580.728"/>
</g>
<g>
	<defs>
		<rect id="SVGID_249_" x="-39.25" y="-2.5" width="300" height="800"/>
	</defs>
	<clipPath id="SVGID_250_">
		<use xlink:href="#SVGID_249_"  overflow="visible"/>
	</clipPath>
	<path clip-path="url(#SVGID_250_)" fill="#1A1A18" d="M131.408,548.062c0.82,0,1.484-0.665,1.484-1.484
		c0-0.818-0.664-1.484-1.484-1.484s-1.485,0.666-1.485,1.484C129.923,547.397,130.588,548.062,131.408,548.062"/>
</g>
<g>
	<defs>
		<rect id="SVGID_251_" x="-39.25" y="-2.5" width="300" height="800"/>
	</defs>
	<clipPath id="SVGID_252_">
		<use xlink:href="#SVGID_251_"  overflow="visible"/>
	</clipPath>
	<path clip-path="url(#SVGID_252_)" fill="#1A1A18" d="M131.408,556.972c-0.82,0-1.485,0.665-1.485,1.483
		c0,0.82,0.665,1.485,1.485,1.485s1.484-0.665,1.484-1.485C132.895,557.637,132.229,556.972,131.408,556.972"/>
</g>
<g>
	<defs>
		<rect id="SVGID_253_" x="-39.25" y="-2.5" width="300" height="800"/>
	</defs>
	<clipPath id="SVGID_254_">
		<use xlink:href="#SVGID_253_"  overflow="visible"/>
	</clipPath>
	<path clip-path="url(#SVGID_254_)" fill="#1A1A18" d="M137.348,556.972c-0.82,0-1.484,0.665-1.484,1.483
		c0,0.82,0.664,1.485,1.484,1.485c0.819,0,1.484-0.665,1.484-1.485C138.832,557.637,138.167,556.972,137.348,556.972"/>
</g>
<g>
	<defs>
		<rect id="SVGID_255_" x="-39.25" y="-2.5" width="300" height="800"/>
	</defs>
	<clipPath id="SVGID_256_">
		<use xlink:href="#SVGID_255_"  overflow="visible"/>
	</clipPath>
	<path clip-path="url(#SVGID_256_)" fill="#1A1A18" d="M128.438,562.91c-0.818,0-1.483,0.665-1.483,1.485s0.665,1.485,1.483,1.485
		c0.82,0,1.485-0.665,1.485-1.485S129.259,562.91,128.438,562.91"/>
</g>
<g>
	<defs>
		<rect id="SVGID_257_" x="-39.25" y="-2.5" width="300" height="800"/>
	</defs>
	<clipPath id="SVGID_258_">
		<use xlink:href="#SVGID_257_"  overflow="visible"/>
	</clipPath>
	<path clip-path="url(#SVGID_258_)" fill="#1A1A18" d="M134.378,562.91c-0.819,0-1.485,0.665-1.485,1.485s0.666,1.485,1.485,1.485
		s1.483-0.665,1.483-1.485S135.197,562.91,134.378,562.91"/>
</g>
<g>
	<defs>
		<rect id="SVGID_259_" x="-39.25" y="-2.5" width="300" height="800"/>
	</defs>
	<clipPath id="SVGID_260_">
		<use xlink:href="#SVGID_259_"  overflow="visible"/>
	</clipPath>
	<path clip-path="url(#SVGID_260_)" fill="#1A1A18" d="M119.529,580.728c-0.819,0-1.484,0.665-1.484,1.485
		c0,0.818,0.665,1.483,1.484,1.483c0.82,0,1.484-0.665,1.484-1.483C121.016,581.393,120.35,580.728,119.529,580.728"/>
</g>
<g>
	<defs>
		<rect id="SVGID_261_" x="-39.25" y="-2.5" width="300" height="800"/>
	</defs>
	<clipPath id="SVGID_262_">
		<use xlink:href="#SVGID_261_"  overflow="visible"/>
	</clipPath>
	<path clip-path="url(#SVGID_262_)" fill="#1A1A18" d="M125.469,580.728c-0.818,0-1.484,0.665-1.484,1.485
		c0,0.818,0.666,1.483,1.484,1.483c0.82,0,1.485-0.665,1.485-1.483C126.954,581.393,126.289,580.728,125.469,580.728"/>
</g>
<g>
	<defs>
		<rect id="SVGID_263_" x="-39.25" y="-2.5" width="300" height="800"/>
	</defs>
	<clipPath id="SVGID_264_">
		<use xlink:href="#SVGID_263_"  overflow="visible"/>
	</clipPath>
	<path clip-path="url(#SVGID_264_)" fill="#1A1A18" d="M131.408,580.728c-0.82,0-1.485,0.665-1.485,1.485
		c0,0.818,0.665,1.483,1.485,1.483s1.484-0.665,1.484-1.483C132.895,581.393,132.229,580.728,131.408,580.728"/>
</g>
<g>
	<defs>
		<rect id="SVGID_265_" x="-39.25" y="-2.5" width="300" height="800"/>
	</defs>
	<clipPath id="SVGID_266_">
		<use xlink:href="#SVGID_265_"  overflow="visible"/>
	</clipPath>
	<path clip-path="url(#SVGID_266_)" fill="#1A1A18" d="M137.348,580.728c-0.82,0-1.484,0.665-1.484,1.485
		c0,0.818,0.664,1.483,1.484,1.483c0.819,0,1.484-0.665,1.484-1.483C138.832,581.393,138.167,580.728,137.348,580.728"/>
</g>
<g>
	<defs>
		<rect id="SVGID_267_" x="-39.25" y="-2.5" width="300" height="800"/>
	</defs>
	<clipPath id="SVGID_268_">
		<use xlink:href="#SVGID_267_"  overflow="visible"/>
	</clipPath>
	<path clip-path="url(#SVGID_268_)" fill="#1A1A18" d="M116.561,577.759c0.82,0,1.485-0.665,1.485-1.484s-0.665-1.485-1.485-1.485
		c-0.819,0-1.484,0.666-1.484,1.485S115.74,577.759,116.561,577.759"/>
</g>
<g>
	<defs>
		<rect id="SVGID_269_" x="-39.25" y="-2.5" width="300" height="800"/>
	</defs>
	<clipPath id="SVGID_270_">
		<use xlink:href="#SVGID_269_"  overflow="visible"/>
	</clipPath>
	<path clip-path="url(#SVGID_270_)" fill="#1A1A18" d="M122.5,577.759c0.818,0,1.484-0.665,1.484-1.484s-0.666-1.485-1.484-1.485
		c-0.82,0-1.484,0.666-1.484,1.485S121.68,577.759,122.5,577.759"/>
</g>
<g>
	<defs>
		<rect id="SVGID_271_" x="-39.25" y="-2.5" width="300" height="800"/>
	</defs>
	<clipPath id="SVGID_272_">
		<use xlink:href="#SVGID_271_"  overflow="visible"/>
	</clipPath>
	<path clip-path="url(#SVGID_272_)" fill="#1A1A18" d="M128.438,577.759c0.82,0,1.485-0.665,1.485-1.484s-0.665-1.485-1.485-1.485
		c-0.818,0-1.483,0.666-1.483,1.485S127.619,577.759,128.438,577.759"/>
</g>
<g>
	<defs>
		<rect id="SVGID_273_" x="-39.25" y="-2.5" width="300" height="800"/>
	</defs>
	<clipPath id="SVGID_274_">
		<use xlink:href="#SVGID_273_"  overflow="visible"/>
	</clipPath>
	<path clip-path="url(#SVGID_274_)" fill="#1A1A18" d="M134.378,574.788c-0.819,0-1.485,0.665-1.485,1.485s0.666,1.485,1.485,1.485
		s1.483-0.665,1.483-1.485S135.197,574.788,134.378,574.788"/>
</g>
<g>
	<defs>
		<rect id="SVGID_275_" x="-39.25" y="-2.5" width="300" height="800"/>
	</defs>
	<clipPath id="SVGID_276_">
		<use xlink:href="#SVGID_275_"  overflow="visible"/>
	</clipPath>
	<path clip-path="url(#SVGID_276_)" fill="#1A1A18" d="M137.348,548.062c0.819,0,1.484-0.665,1.484-1.484
		c0-0.818-0.665-1.484-1.484-1.484c-0.82,0-1.484,0.666-1.484,1.484C135.863,547.397,136.527,548.062,137.348,548.062"/>
</g>
<g>
	<defs>
		<rect id="SVGID_277_" x="-39.25" y="-2.5" width="300" height="800"/>
	</defs>
	<clipPath id="SVGID_278_">
		<use xlink:href="#SVGID_277_"  overflow="visible"/>
	</clipPath>
	<path clip-path="url(#SVGID_278_)" fill="#1A1A18" d="M128.438,554.003c0.82,0,1.485-0.665,1.485-1.485
		c0-0.818-0.665-1.484-1.485-1.484c-0.818,0-1.483,0.666-1.483,1.484C126.954,553.338,127.619,554.003,128.438,554.003"/>
</g>
<g>
	<defs>
		<rect id="SVGID_279_" x="-39.25" y="-2.5" width="300" height="800"/>
	</defs>
	<clipPath id="SVGID_280_">
		<use xlink:href="#SVGID_279_"  overflow="visible"/>
	</clipPath>
	<path clip-path="url(#SVGID_280_)" fill="#1A1A18" d="M134.378,554.003c0.819,0,1.483-0.665,1.483-1.485
		c0-0.818-0.664-1.484-1.483-1.484s-1.485,0.666-1.485,1.484C132.893,553.338,133.559,554.003,134.378,554.003"/>
</g>
<g>
	<defs>
		<rect id="SVGID_281_" x="-39.25" y="-2.5" width="300" height="800"/>
	</defs>
	<clipPath id="SVGID_282_">
		<use xlink:href="#SVGID_281_"  overflow="visible"/>
	</clipPath>
	<path clip-path="url(#SVGID_282_)" fill="#1A1A18" d="M96.052,579.054c0.147,0.076,0.305,0.115,0.464,0.115
		c0.197,0,0.39-0.059,0.561-0.173l29.688-20.259c0.267-0.182,0.428-0.484,0.433-0.81c0-0.327-0.154-0.631-0.421-0.818l-29.61-20.767
		c-0.306-0.214-0.7-0.238-1.025-0.068c-0.329,0.17-0.534,0.509-0.534,0.876l-0.081,41.026
		C95.526,578.546,95.731,578.884,96.052,579.054"/>
</g>
<g>
	<defs>
		<rect id="SVGID_283_" x="-39.25" y="-2.5" width="300" height="800"/>
	</defs>
	<clipPath id="SVGID_284_">
		<use xlink:href="#SVGID_283_"  overflow="visible"/>
	</clipPath>
	<path clip-path="url(#SVGID_284_)" fill="#FFFFFF" d="M63.882,393.033c-1.367,0-2.475-1.107-2.475-2.475v-32.5
		c0-1.367,1.108-2.476,2.475-2.476h9.071c1.367,0,2.475,1.108,2.475,2.476s-1.108,2.475-2.475,2.475h-6.596v30.025
		C66.357,391.926,65.25,393.033,63.882,393.033"/>
</g>
<g>
	<defs>
		<rect id="SVGID_285_" x="-39.25" y="-2.5" width="300" height="800"/>
	</defs>
	<clipPath id="SVGID_286_">
		<use xlink:href="#SVGID_285_"  overflow="visible"/>
	</clipPath>
	<path clip-path="url(#SVGID_286_)" fill="#1A1A18" d="M145.945,349.964h-25.291c-0.664,0-1.264,0.397-1.52,1.017l-17.419,36.357
		L84.414,350.98c-0.256-0.619-0.859-1.017-1.528-1.017H57.479c-0.909,0-1.647,0.733-1.647,1.645v83.154
		c0,0.911,0.738,1.646,1.647,1.646H79.07c0.909,0,1.647-0.734,1.647-1.646v-38.688l12.331,23.811
		c0.266,0.601,0.854,0.986,1.511,0.986h14.427c0.657,0,1.249-0.391,1.511-0.99l12.211-23.731v38.613
		c0,0.911,0.739,1.646,1.647,1.646h21.59c0.91,0,1.647-0.734,1.647-1.646v-83.154C147.594,350.697,146.855,349.964,145.945,349.964
		 M72.953,360.532h-6.596v30.026c0,1.367-1.108,2.474-2.475,2.474c-1.367,0-2.475-1.106-2.475-2.474v-32.501
		c0-1.367,1.108-2.474,2.475-2.474h9.071c1.367,0,2.475,1.106,2.475,2.474S74.32,360.532,72.953,360.532"/>
</g>
<g>
	<defs>
		<rect id="SVGID_287_" x="-39.25" y="-2.5" width="300" height="800"/>
	</defs>
	<clipPath id="SVGID_288_">
		<use xlink:href="#SVGID_287_"  overflow="visible"/>
	</clipPath>
	<path clip-path="url(#SVGID_288_)" fill="#FFFFFF" d="M151.486,459.773c-0.745,0-1.48-0.335-1.967-0.971
		c-0.465-0.609-4.775-6.039-12.896-9.635c-6.589-2.915-14.691-2.91-21.204-2.884l-1.303,0.002c-1.365,0-2.476-1.106-2.476-2.475
		s1.109-2.475,2.476-2.475l1.291-0.003c6.624-0.024,15.667-0.036,23.219,3.309c9.056,4.008,13.937,9.993,14.824,11.151
		c0.827,1.087,0.623,2.639-0.464,3.47C152.539,459.607,152.01,459.773,151.486,459.773"/>
</g>
<g>
	<defs>
		<rect id="SVGID_289_" x="-39.25" y="-2.5" width="300" height="800"/>
	</defs>
	<clipPath id="SVGID_290_">
		<use xlink:href="#SVGID_289_"  overflow="visible"/>
	</clipPath>
	<path clip-path="url(#SVGID_290_)" fill="#1A1A18" d="M122.883,435.022h-8.584H94.502H73.406c-0.908,0-1.647,0.733-1.647,1.646
		v83.153c0,0.911,0.739,1.646,1.647,1.646H93.35h19.63h9.902c29.254,0,43.43-20.064,43.43-43.759
		C166.312,455.966,152.572,435.022,122.883,435.022 M118.626,499.195h-3.006H96.643v-41.899h18.645h3.218
		c16.68,0,24.447,6.487,24.447,20.415C142.953,492.367,135.225,499.195,118.626,499.195 M152.986,459.265
		c-0.448,0.343-0.978,0.51-1.5,0.51c-0.746,0-1.479-0.335-1.967-0.972c-0.465-0.608-4.776-6.04-12.896-9.636
		c-6.589-2.915-14.691-2.909-21.204-2.883l-1.304,0.002c-1.363,0-2.475-1.107-2.475-2.475s1.11-2.475,2.475-2.475l1.292-0.002
		c6.622-0.024,15.667-0.037,23.22,3.309c9.055,4.007,13.936,9.992,14.823,11.15C154.277,456.882,154.072,458.435,152.986,459.265"/>
</g>
<g>
	<defs>
		<rect id="SVGID_291_" x="-39.25" y="-2.5" width="300" height="800"/>
	</defs>
	<clipPath id="SVGID_292_">
		<use xlink:href="#SVGID_291_"  overflow="visible"/>
	</clipPath>
	<path clip-path="url(#SVGID_292_)" fill="#FFFFFF" d="M124.201,646.865l32.904-32.903c0,0,8.238-22.535,7.846-22.93
		c-0.393-0.392-22.902,7.872-22.902,7.872l-32.904,32.905l-32.92-32.921c0,0-22.535-8.239-22.929-7.847
		c-0.391,0.393,7.872,22.902,7.872,22.902l32.92,32.92l-40.792,40.792c1.156,3.952,3.259,7.092,5.684,9.346
		c2.258,2.429,5.421,4.552,9.372,5.707l40.793-40.789l40.776,40.777c3.952-1.156,7.093-3.255,9.347-5.685
		c2.428-2.259,4.551-5.42,5.707-9.371L124.201,646.865z"/>
</g>
<g>
	<defs>
		<rect id="SVGID_293_" x="-39.25" y="-2.5" width="300" height="800"/>
	</defs>
	<clipPath id="SVGID_294_">
		<use xlink:href="#SVGID_293_"  overflow="visible"/>
	</clipPath>
	<path clip-path="url(#SVGID_294_)" fill="#1A1A18" d="M78.05,683.069c-0.58,0.578-0.58,1.52,0,2.101c0.58,0.58,1.519,0.58,2.099,0
		c0.581-0.579,0.581-1.521,0-2.101C79.568,682.488,78.629,682.49,78.05,683.069"/>
</g>
<g>
	<defs>
		<rect id="SVGID_295_" x="-39.25" y="-2.5" width="300" height="800"/>
	</defs>
	<clipPath id="SVGID_296_">
		<use xlink:href="#SVGID_295_"  overflow="visible"/>
	</clipPath>
	<path clip-path="url(#SVGID_296_)" fill="#1A1A18" d="M82.249,678.869c-0.58,0.579-0.58,1.521,0,2.103
		c0.58,0.577,1.523,0.577,2.099,0c0.58-0.58,0.58-1.522,0-2.103S82.829,678.291,82.249,678.869"/>
</g>
<g>
	<defs>
		<rect id="SVGID_297_" x="-39.25" y="-2.5" width="300" height="800"/>
	</defs>
	<clipPath id="SVGID_298_">
		<use xlink:href="#SVGID_297_"  overflow="visible"/>
	</clipPath>
	<path clip-path="url(#SVGID_298_)" fill="#1A1A18" d="M86.448,674.671c-0.576,0.579-0.58,1.52,0,2.1c0.58,0.58,1.524,0.58,2.103,0
		c0.577-0.58,0.577-1.521-0.003-2.1C87.968,674.091,87.028,674.091,86.448,674.671"/>
</g>
<g>
	<defs>
		<rect id="SVGID_299_" x="-39.25" y="-2.5" width="300" height="800"/>
	</defs>
	<clipPath id="SVGID_300_">
		<use xlink:href="#SVGID_299_"  overflow="visible"/>
	</clipPath>
	<path clip-path="url(#SVGID_300_)" fill="#1A1A18" d="M90.651,670.471c-0.58,0.58-0.584,1.518,0,2.1c0.576,0.58,1.52,0.58,2.099,0
		c0.581-0.58,0.581-1.52,0-2.1C92.167,669.889,91.227,669.891,90.651,670.471"/>
</g>
<g>
	<defs>
		<rect id="SVGID_301_" x="-39.25" y="-2.5" width="300" height="800"/>
	</defs>
	<clipPath id="SVGID_302_">
		<use xlink:href="#SVGID_301_"  overflow="visible"/>
	</clipPath>
	<path clip-path="url(#SVGID_302_)" fill="#1A1A18" d="M94.85,668.371c0.58,0.578,1.52,0.578,2.099,0
		c0.581-0.58,0.581-1.521,0-2.099c-0.583-0.582-1.519-0.581-2.099-0.003C94.27,666.849,94.266,667.789,94.85,668.371"/>
</g>
<g>
	<defs>
		<rect id="SVGID_303_" x="-39.25" y="-2.5" width="300" height="800"/>
	</defs>
	<clipPath id="SVGID_304_">
		<use xlink:href="#SVGID_303_"  overflow="visible"/>
	</clipPath>
	<path clip-path="url(#SVGID_304_)" fill="#1A1A18" d="M99.049,664.171c0.58,0.579,1.52,0.579,2.099,0
		c0.581-0.578,0.581-1.521,0-2.1c-0.579-0.581-1.519-0.581-2.099,0C98.469,662.65,98.469,663.591,99.049,664.171"/>
</g>
<g>
	<defs>
		<rect id="SVGID_305_" x="-39.25" y="-2.5" width="300" height="800"/>
	</defs>
	<clipPath id="SVGID_306_">
		<use xlink:href="#SVGID_305_"  overflow="visible"/>
	</clipPath>
	<path clip-path="url(#SVGID_306_)" fill="#1A1A18" d="M71.751,680.971c-0.58,0.577-0.58,1.518,0,2.099c0.58,0.579,1.52,0.579,2.1,0
		c0.58-0.58,0.58-1.521,0-2.099C73.271,680.389,72.331,680.391,71.751,680.971"/>
</g>
<g>
	<defs>
		<rect id="SVGID_307_" x="-39.25" y="-2.5" width="300" height="800"/>
	</defs>
	<clipPath id="SVGID_308_">
		<use xlink:href="#SVGID_307_"  overflow="visible"/>
	</clipPath>
	<path clip-path="url(#SVGID_308_)" fill="#1A1A18" d="M78.05,676.77c-0.58-0.58-1.52-0.58-2.1,0c-0.58,0.58-0.58,1.521,0,2.099
		c0.58,0.581,1.52,0.581,2.1,0C78.629,678.29,78.629,677.35,78.05,676.77"/>
</g>
<g>
	<defs>
		<rect id="SVGID_309_" x="-39.25" y="-2.5" width="300" height="800"/>
	</defs>
	<clipPath id="SVGID_310_">
		<use xlink:href="#SVGID_309_"  overflow="visible"/>
	</clipPath>
	<path clip-path="url(#SVGID_310_)" fill="#1A1A18" d="M82.249,672.57c-0.58-0.582-1.52-0.58-2.1,0s-0.58,1.519,0,2.1
		c0.58,0.58,1.52,0.58,2.1,0C82.829,674.091,82.829,673.15,82.249,672.57"/>
</g>
<g>
	<defs>
		<rect id="SVGID_311_" x="-39.25" y="-2.5" width="300" height="800"/>
	</defs>
	<clipPath id="SVGID_312_">
		<use xlink:href="#SVGID_311_"  overflow="visible"/>
	</clipPath>
	<path clip-path="url(#SVGID_312_)" fill="#1A1A18" d="M86.448,668.371c-0.58-0.582-1.519-0.58-2.099,0
		c-0.581,0.58-0.581,1.519,0,2.1c0.58,0.581,1.523,0.581,2.099,0C87.028,669.891,87.028,668.949,86.448,668.371"/>
</g>
<g>
	<defs>
		<rect id="SVGID_313_" x="-39.25" y="-2.5" width="300" height="800"/>
	</defs>
	<clipPath id="SVGID_314_">
		<use xlink:href="#SVGID_313_"  overflow="visible"/>
	</clipPath>
	<path clip-path="url(#SVGID_314_)" fill="#1A1A18" d="M90.651,664.171c-0.584-0.58-1.523-0.578-2.1,0
		c-0.58,0.579-0.583,1.52-0.003,2.102c0.58,0.578,1.523,0.578,2.103-0.002C91.227,665.692,91.227,664.75,90.651,664.171"/>
</g>
<g>
	<defs>
		<rect id="SVGID_315_" x="-39.25" y="-2.5" width="300" height="800"/>
	</defs>
	<clipPath id="SVGID_316_">
		<use xlink:href="#SVGID_315_"  overflow="visible"/>
	</clipPath>
	<path clip-path="url(#SVGID_316_)" fill="#1A1A18" d="M92.75,659.971c-0.58,0.58-0.584,1.521,0,2.1c0.58,0.58,1.52,0.58,2.1,0
		c0.58-0.579,0.58-1.52,0-2.1C94.266,659.391,93.33,659.391,92.75,659.971"/>
</g>
<g>
	<defs>
		<rect id="SVGID_317_" x="-39.25" y="-2.5" width="300" height="800"/>
	</defs>
	<clipPath id="SVGID_318_">
		<use xlink:href="#SVGID_317_"  overflow="visible"/>
	</clipPath>
	<path clip-path="url(#SVGID_318_)" fill="#1A1A18" d="M99.049,657.871c0.58-0.58,0.58-1.52,0-2.1c-0.58-0.58-1.52-0.58-2.1,0
		c-0.58,0.58-0.583,1.52,0,2.1C97.529,658.451,98.469,658.451,99.049,657.871"/>
</g>
<g>
	<defs>
		<rect id="SVGID_319_" x="-39.25" y="-2.5" width="300" height="800"/>
	</defs>
	<clipPath id="SVGID_320_">
		<use xlink:href="#SVGID_319_"  overflow="visible"/>
	</clipPath>
	<path clip-path="url(#SVGID_320_)" fill="#1A1A18" d="M126.348,638.974c0.575-0.58,0.575-1.521,0-2.102
		c-0.584-0.58-1.522-0.578-2.1,0c-0.58,0.58-0.584,1.521-0.004,2.102S125.768,639.554,126.348,638.974"/>
</g>
<g>
	<defs>
		<rect id="SVGID_321_" x="-39.25" y="-2.5" width="300" height="800"/>
	</defs>
	<clipPath id="SVGID_322_">
		<use xlink:href="#SVGID_321_"  overflow="visible"/>
	</clipPath>
	<path clip-path="url(#SVGID_322_)" fill="#1A1A18" d="M128.445,634.774c0.58,0.58,1.521,0.58,2.1,0c0.581-0.58,0.581-1.521,0-2.1
		c-0.583-0.581-1.52-0.579-2.1,0C127.866,633.253,127.861,634.192,128.445,634.774"/>
</g>
<g>
	<defs>
		<rect id="SVGID_323_" x="-39.25" y="-2.5" width="300" height="800"/>
	</defs>
	<clipPath id="SVGID_324_">
		<use xlink:href="#SVGID_323_"  overflow="visible"/>
	</clipPath>
	<path clip-path="url(#SVGID_324_)" fill="#1A1A18" d="M132.646,630.575c0.58,0.578,1.52,0.578,2.099,0
		c0.58-0.58,0.58-1.521,0-2.101c-0.579-0.58-1.519-0.579-2.099,0S132.062,629.993,132.646,630.575"/>
</g>
<g>
	<defs>
		<rect id="SVGID_325_" x="-39.25" y="-2.5" width="300" height="800"/>
	</defs>
	<clipPath id="SVGID_326_">
		<use xlink:href="#SVGID_325_"  overflow="visible"/>
	</clipPath>
	<path clip-path="url(#SVGID_326_)" fill="#1A1A18" d="M136.846,626.375c0.579,0.579,1.52,0.579,2.098,0
		c0.582-0.58,0.582-1.52,0-2.1c-0.578-0.581-1.519-0.581-2.098,0C136.266,624.855,136.266,625.795,136.846,626.375"/>
</g>
<g>
	<defs>
		<rect id="SVGID_327_" x="-39.25" y="-2.5" width="300" height="800"/>
	</defs>
	<clipPath id="SVGID_328_">
		<use xlink:href="#SVGID_327_"  overflow="visible"/>
	</clipPath>
	<path clip-path="url(#SVGID_328_)" fill="#1A1A18" d="M117.943,634.774c-0.578,0.58-0.578,1.519,0,2.099
		c0.58,0.581,1.521,0.581,2.101,0c0.58-0.578,0.58-1.519,0-2.099C119.465,634.192,118.523,634.194,117.943,634.774"/>
</g>
<g>
	<defs>
		<rect id="SVGID_329_" x="-39.25" y="-2.5" width="300" height="800"/>
	</defs>
	<clipPath id="SVGID_330_">
		<use xlink:href="#SVGID_329_"  overflow="visible"/>
	</clipPath>
	<path clip-path="url(#SVGID_330_)" fill="#1A1A18" d="M124.243,630.575c-0.58-0.582-1.519-0.58-2.099,0
		c-0.578,0.578-0.582,1.52,0,2.1c0.58,0.579,1.521,0.579,2.103,0C124.822,632.096,124.822,631.153,124.243,630.575"/>
</g>
<g>
	<defs>
		<rect id="SVGID_331_" x="-39.25" y="-2.5" width="300" height="800"/>
	</defs>
	<clipPath id="SVGID_332_">
		<use xlink:href="#SVGID_331_"  overflow="visible"/>
	</clipPath>
	<path clip-path="url(#SVGID_332_)" fill="#1A1A18" d="M128.445,628.474c0.58-0.578,0.58-1.521,0-2.1
		c-0.584-0.579-1.521-0.578-2.1,0c-0.58,0.579-0.582,1.52,0,2.1C126.924,629.054,127.866,629.054,128.445,628.474"/>
</g>
<g>
	<defs>
		<rect id="SVGID_333_" x="-39.25" y="-2.5" width="300" height="800"/>
	</defs>
	<clipPath id="SVGID_334_">
		<use xlink:href="#SVGID_333_"  overflow="visible"/>
	</clipPath>
	<path clip-path="url(#SVGID_334_)" fill="#1A1A18" d="M132.646,624.274c0.58-0.58,0.58-1.52,0-2.1c-0.584-0.58-1.521-0.58-2.101,0
		c-0.58,0.58-0.583,1.52,0,2.1C131.125,624.854,132.064,624.854,132.646,624.274"/>
</g>
<g>
	<defs>
		<rect id="SVGID_335_" x="-39.25" y="-2.5" width="300" height="800"/>
	</defs>
	<clipPath id="SVGID_336_">
		<use xlink:href="#SVGID_335_"  overflow="visible"/>
	</clipPath>
	<path clip-path="url(#SVGID_336_)" fill="#1A1A18" d="M136.846,620.076c0.579-0.58,0.579-1.521,0-2.101
		c-0.58-0.579-1.521-0.579-2.102,0c-0.579,0.58-0.579,1.521,0,2.101C135.324,620.655,136.266,620.655,136.846,620.076"/>
</g>
<g>
	<defs>
		<rect id="SVGID_337_" x="-39.25" y="-2.5" width="300" height="800"/>
	</defs>
	<clipPath id="SVGID_338_">
		<use xlink:href="#SVGID_337_"  overflow="visible"/>
	</clipPath>
	<path clip-path="url(#SVGID_338_)" fill="#1A1A18" d="M141.044,622.176c0.58,0.58,1.519,0.58,2.099,0s0.58-1.52,0-2.1
		c-0.58-0.581-1.519-0.581-2.099,0C140.464,620.656,140.464,621.595,141.044,622.176"/>
</g>
<g>
	<defs>
		<rect id="SVGID_339_" x="-39.25" y="-2.5" width="300" height="800"/>
	</defs>
	<clipPath id="SVGID_340_">
		<use xlink:href="#SVGID_339_"  overflow="visible"/>
	</clipPath>
	<path clip-path="url(#SVGID_340_)" fill="#1A1A18" d="M147.343,617.976c0.579-0.579,0.579-1.52,0-2.099
		c-0.579-0.582-1.521-0.581-2.1,0c-0.581,0.579-0.581,1.517,0,2.099C145.822,618.556,146.764,618.556,147.343,617.976"/>
</g>
<g>
	<defs>
		<rect id="SVGID_341_" x="-39.25" y="-2.5" width="300" height="800"/>
	</defs>
	<clipPath id="SVGID_342_">
		<use xlink:href="#SVGID_341_"  overflow="visible"/>
	</clipPath>
	<path clip-path="url(#SVGID_342_)" fill="#1A1A18" d="M141.044,615.878c0.58-0.58,0.58-1.521,0-2.102
		c-0.58-0.581-1.521-0.58-2.101,0s-0.58,1.52,0,2.102C139.523,616.457,140.464,616.457,141.044,615.878"/>
</g>
<g>
	<defs>
		<rect id="SVGID_343_" x="-39.25" y="-2.5" width="300" height="800"/>
	</defs>
	<clipPath id="SVGID_344_">
		<use xlink:href="#SVGID_343_"  overflow="visible"/>
	</clipPath>
	<path clip-path="url(#SVGID_344_)" fill="#1A1A18" d="M160.953,698.828c2.992-2.781,5.204-6.41,6.398-10.491
		c0.25-0.868,0.012-1.807-0.627-2.446l-39.057-39.057l31.184-31.125c0.035-0.034,0.047-0.086,0.082-0.121
		c0.166-0.188,0.297-0.396,0.402-0.634c0.021-0.054,0.073-0.09,0.092-0.146c8.781-24.015,8.696-24.1,7.271-25.524
		c-0.465-0.464-1.156-0.737-1.811-0.737c-0.492,0-1.799,0-23.695,8.033c-0.101,0.039-0.174,0.125-0.271,0.175
		c-0.188,0.102-0.375,0.197-0.53,0.337c-0.025,0.026-0.067,0.035-0.096,0.062l-31.134,31.179l-31.188-31.19
		c-0.027-0.026-0.069-0.037-0.096-0.062c-0.155-0.144-0.344-0.238-0.534-0.34c-0.097-0.05-0.17-0.136-0.271-0.174
		c-21.904-8.009-23.218-8.009-23.713-8.009c-0.658,0-1.35,0.275-1.814,0.739c-1.423,1.423-1.508,1.508,7.297,25.504
		c0.023,0.061,0.077,0.101,0.104,0.158c0.104,0.228,0.228,0.431,0.391,0.61c0.03,0.039,0.046,0.091,0.081,0.128l31.187,31.188
		l-39.06,39.021c-0.642,0.641-0.881,1.577-0.626,2.445c1.191,4.079,3.395,7.696,6.244,10.338c2.78,2.992,6.411,5.203,10.494,6.396
		c0.228,0.067,0.46,0.099,0.692,0.099c0.65,0,1.28-0.254,1.752-0.723l39.06-39.021l39.006,39.01
		c0.472,0.471,1.103,0.724,1.751,0.724c0.23,0,0.464-0.031,0.693-0.1C154.697,703.883,158.314,701.678,160.953,698.828
		 M156.27,596.416c0.039,0.057,0.07,0.118,0.113,0.171c0.17,0.198,0.278,0.346,0.375,0.474c0.229,0.31,0.487,0.657,0.908,1.04
		c0.491,0.526,1.027,0.855,1.462,1.121c0.162,0.102,0.332,0.189,0.476,0.316c0.013,0.009,0.023,0.013,0.035,0.021
		c-1.238,3.53-2.69,7.596-4.01,11.225c-2.181-0.968-4.191-2.404-5.97-4.269l-0.313-0.313c-1.787-1.701-3.171-3.647-4.125-5.82
		C148.789,599.078,152.783,597.644,156.27,596.416 M141.156,603.298c1.214,2.467,2.824,4.689,4.845,6.562
		c1.937,2.086,4.229,3.747,6.72,4.983l-28.551,28.493l-11.507-11.506L141.156,603.298z M77.11,603.272l75.279,75.279
		c-0.439,1.141-0.959,2.25-1.627,3.288l-75.496-75.495C75.95,605.361,76.577,604.342,77.11,603.272 M148.92,684.201
		c-0.348,0.387-0.695,0.772-1.083,1.145l-0.354,0.355c-0.438,0.46-0.896,0.888-1.369,1.291l-75.514-75.515
		c0.53-0.467,1.04-0.959,1.523-1.481c0.453-0.42,0.87-0.86,1.28-1.312L148.92,684.201z M58.678,599.713
		c0.054-0.04,0.12-0.059,0.174-0.101c0.197-0.168,0.344-0.274,0.472-0.371c0.309-0.229,0.657-0.491,1.04-0.911
		c0.526-0.492,0.859-1.029,1.121-1.463c0.101-0.163,0.194-0.335,0.321-0.479c0.008-0.01,0.012-0.021,0.02-0.028
		c3.534,1.236,7.59,2.688,11.22,4.006c-0.97,2.184-2.404,4.194-4.268,5.975l-0.313,0.31c-1.698,1.785-3.647,3.171-5.82,4.126
		C61.342,607.198,59.908,603.211,58.678,599.713 M67.683,699.883c-3.317-1.243-5.567-3.139-7.017-4.69
		c-1.992-1.851-3.542-4.201-4.54-6.865l5.997-5.997c1.214,2.468,2.827,4.694,4.845,6.562c1.937,2.086,4.23,3.747,6.72,4.986
		L67.683,699.883z M77.435,690.129c-2.498-0.961-4.81-2.481-6.813-4.586l-0.313-0.31c-2.007-1.91-3.476-4.153-4.431-6.66
		l28.23-28.188l11.553,11.558L77.435,690.129z M140.839,690.117l-75.278-75.278c0.924-0.456,1.798-0.984,2.648-1.551l75.473,75.472
		C142.784,689.303,141.825,689.738,140.839,690.117 M151.154,689.03c2.089-1.94,3.746-4.233,4.988-6.725l6.004,6.005
		c-1.244,3.317-3.14,5.568-4.692,7.021c-1.851,1.987-4.2,3.541-6.864,4.537l-5.996-5.999
		C147.061,692.657,149.287,691.047,151.154,689.03"/>
</g>
</svg>
