<?xml version="1.0" encoding="utf-8"?>
<!-- Generator: Adobe Illustrator 16.0.0, SVG Export Plug-In . SVG Version: 6.00 Build 0)  -->
<!DOCTYPE svg PUBLIC "-//W3C//DTD SVG 1.1//EN" "http://www.w3.org/Graphics/SVG/1.1/DTD/svg11.dtd">
<svg version="1.1" id="Layer_1" xmlns="http://www.w3.org/2000/svg" xmlns:xlink="http://www.w3.org/1999/xlink" x="0px" y="0px"
	 width="2000px" height="500px" viewBox="0 0 2000 500" enable-background="new 0 0 2000 500" xml:space="preserve">
<path fill="#231F20" d="M395.998,269.478h3.007c5.254,0,5.375-2.955,5.375-17.02v-37.764c0-14.056-0.121-17.018-5.492-17.018h-2.89
	v-3.181h33.868v3.181h-2.853c-5.364,0-5.485,2.962-5.485,17.018v15.697h27.644v-15.697c0-14.056-0.113-17.018-5.485-17.018h-2.853
	v-3.181h33.868v3.181h-2.865c-5.38,0-5.496,2.962-5.496,17.018v37.764c0,14.064,0.116,17.02,5.382,17.02h2.979v3.209h-33.868v-3.209
	h2.853c5.372,0,5.485-2.955,5.485-17.02v-18.263h-27.644v18.263c0,14.064,0.121,17.02,5.485,17.02h2.853v3.209h-33.868V269.478z"/>
<path fill="#231F20" d="M499.003,245.103c0-21.86,4.842-25.482,10.662-25.482c5.836,0,10.685,3.622,10.685,25.482
	c0,19.107-2.864,25.644-10.685,25.644C501.861,270.746,499.003,264.21,499.003,245.103 M482.522,245.103
	c0,17.221,9.68,29.374,27.143,29.374c17.479,0,27.155-12.153,27.155-29.374c0-17.075-9.676-29.296-27.155-29.296
	C492.202,215.807,482.522,228.027,482.522,245.103"/>
<path fill="#231F20" d="M563.87,235.205c0-6.187,0.323-15.584,8.778-15.584c8.075,0,8.075,10.722,8.075,16.251
	c0,5.424-0.898,13.616-8.136,13.616C564.193,249.487,563.87,241.511,563.87,235.205 M568.101,261.128
	c-5.606,0-8.019-0.81-8.019-3.424c0-2.353,1.524-4.418,5.154-4.418c14.266,0,31.358,0,31.358-19.144
	c0-5.626-2.546-9.619-7.736-14.024c1.887-0.676,3.209-1.104,4.87-1.104c2.728,0,0.869,5.824,7.473,5.824
	c3.73,0,5.597-2.954,5.597-6.264c0-3.601-1.976-6.895-5.937-6.895c-5.274-0.04-9.679,5.456-15.62,5.456
	c-2.53-0.016-7.266-1.329-13.22-1.329c-12.019,0-24.022,5.471-24.022,19.185c0,8.071,5.072,14.266,12.463,16.44v0.218v-0.117
	c-5.31,1.646-8.596,6.131-8.596,11.737c0,4.102,1.989,7.763,6.6,9.417v0.241c-5.622,0.579-12.836,4.491-12.836,11.2
	c0,12.019,15.572,14.182,24.706,14.182c13.187,0,30.635-5,30.635-20.972c0-13.847-11.608-16.21-19.845-16.21H568.101z
	 M573.731,274.222c6.494,0,17.168,0.226,17.168,9.097c0,8.447-10.674,11.203-17.706,11.203c-6.818,0-17.499-1.535-17.499-10.265
	C555.694,274.447,566.375,274.222,573.731,274.222"/>
<path fill="#231F20" d="M627.996,242.144c0-10.831,0.429-22.523,9.542-22.523c8.123,0,8.123,10.593,8.123,22.523H627.996z
	 M662.818,245.329c0-17.088-6.479-29.523-24.839-29.523c-17.48,0-27.159,12.221-27.159,29.317c0,17.2,9.679,29.354,27.159,29.354
	c13.781,0,22.361-7.045,23.788-20.612l-4.874-0.052c-0.23,8.74-5.84,16.934-15.394,16.934c-12.529,0-13.503-11.615-13.503-22.669
	v-2.748H662.818z"/>
<path fill="#231F20" d="M671.939,254.705h3.529c2.202,9.376,7.371,16.041,17.717,16.041c5.602,0,10.973-3.335,10.973-9.001
	c0-7.04-5.493-8.596-16.041-11.025c-8.135-1.875-16.178-4.627-16.178-15.98c0-13.139,9.586-18.934,21.695-18.878
	c4.947,0,8.463,1.758,12.092,1.758c2.962,0,4.619-0.889,5.933-1.814h0.663v17.657h-3.525c-1.099-7.242-7.04-13.858-14.743-13.858
	c-5.383,0-10.88,1.996-10.88,8.745c0,5.598,2.87,6.39,15.613,9.376c9.76,2.187,17.233,5.295,17.233,18.078
	c0,13.268-10.872,18.659-22.406,18.64c-5.157,0-10.775-1.779-15.504-1.779c-2.202,0-4.421,1.052-5.512,1.799h-0.659V254.705z"/>
<path fill="#231F20" d="M773.502,254.338c-1.544,13.583-9.125,20.126-22.725,20.126c-17.823,0-25.963-13.357-25.963-29.894
	c0-20.766,14.848-28.764,28.036-28.764c15.184,0,19.71,8.22,19.71,12.1c0,5.274-2.764,8.915-8.507,8.915
	c-4.494,0-7.356-3.204-7.356-7.601c0-3.209,1.556-3.755,1.556-5.089c0-2.424-3.774-4.526-6.28-4.526
	c-9.457,0-10.003,13.365-10.003,26.27c0,8.717-0.113,24.871,12.084,24.871c9.999,0,13.843-7.474,14.606-16.478L773.502,254.338z"/>
<path fill="#231F20" d="M779.536,269.478h3.739c3.293,0,4.385-1.419,4.385-7.448v-60.575c0-6.018-1.092-7.436-4.385-7.436h-3.739
	v-3.213h23.983v34.203h0.221c3.185-5.367,8.997-9.202,17.136-9.202c10.783,0,16.069,6.446,16.069,15.588v30.635
	c0,6.029,1.1,7.448,4.402,7.448h2.425v3.209h-29.491v-3.209h2.424c3.282,0,4.377-1.419,4.377-7.448v-27.774
	c0-5.4,0-11.679-7.032-11.679c-10.531,0-10.531,12.124-10.531,18.954v20.499c0,6.029,1.111,7.448,4.405,7.448h2.408v3.209h-30.796
	V269.478z"/>
<path fill="#231F20" d="M867.579,245.103c0-21.86,4.83-25.482,10.649-25.482c5.841,0,10.67,3.622,10.67,25.482
	c0,19.107-2.849,25.644-10.67,25.644C870.425,270.746,867.579,264.21,867.579,245.103 M851.099,245.103
	c0,17.221,9.659,29.374,27.13,29.374c17.48,0,27.155-12.153,27.155-29.374c0-17.075-9.675-29.296-27.155-29.296
	C860.757,215.807,851.099,228.027,851.099,245.103"/>
<path fill="#231F20" d="M930.676,245.103c0-21.86,4.837-25.482,10.669-25.482c5.828,0,10.658,3.622,10.658,25.482
	c0,19.107-2.866,25.644-10.658,25.644C933.533,270.746,930.676,264.21,930.676,245.103 M914.195,245.103
	c0,17.221,9.658,29.374,27.15,29.374c17.46,0,27.127-12.153,27.127-29.374c0-17.075-9.667-29.296-27.127-29.296
	C923.853,215.807,914.195,228.027,914.195,245.103"/>
<path fill="#231F20" d="M974.255,269.478h3.739c3.293,0,4.401-1.419,4.401-7.42v-60.583c0-6.038-1.108-7.456-4.401-7.456h-3.739
	v-3.213h24.002v71.252c0,6.001,1.112,7.42,4.39,7.42h3.754v3.209h-32.146V269.478z"/>
<path fill="#231F20" d="M1093.354,220.793c-4.062,0-5.291,3.407-7.049,7.611l-13.397,32.493c-1.656,4.033-3.192,8.258-4.506,12.537
	h-7.359c-0.99-2.85-1.976-5.921-3.088-8.737l-14.603-36.616c-1.871-4.757-2.21-7.287-5.383-7.287h-1.863v-3.192h30.09v3.192h-3.735
	c-1.863,0-3.742,0.449-3.742,2.429c0,0.546,0.349,1.867,1.011,3.738l10.754,28.077h0.223l10.888-27.523
	c0.546-1.544,0.873-2.76,0.873-3.746c0-1.863-1.863-2.975-3.839-2.975h-2.651v-3.192h17.378V220.793z"/>
<path fill="#231F20" d="M1131.174,257.704c0,9.485-5.711,11.368-8.56,11.368c-5.614,0-7.574-5.092-7.574-10.034
	c0-9.793,3.941-15.721,12.849-15.721c0.974,0,1.858,0.113,3.285,0.444V257.704z M1153.313,257.489c0,5.036,0,10.816-3.521,10.816
	c-1.773,0-2.769-1.172-2.769-4.127v-32.817c0-12.832-12.011-15.556-22.531-15.556c-7.755,0-22.135,2.291-22.135,12.686
	c0,4.976,3.281,8.196,8.231,8.196c4.285,0,8.25-2.78,8.25-7.427c0-3.108-2.418-5.101-2.418-6.326c0-2.869,5.024-3.314,7.438-3.314
	c5.787,0,7.314,4.094,7.314,8.992v11.624c-1.645-0.113-3.181-0.113-4.81-0.113c-11.974,0-27.793,4.837-27.793,18.996
	c0,10.111,7.788,15.328,17.217,15.328c6.042,0,12.868-1.87,16.04-7.313c1.859,5.079,7.604,7.313,12.004,7.313
	c13.523,0,13.64-9.662,13.64-16.958H1153.313z"/>
<path fill="#231F20" d="M1161.437,269.478h3.726c3.303,0,4.398-1.419,4.398-7.441v-33.754c0-6.062-1.096-7.489-4.398-7.489h-3.726
	V217.6h11.539c4.078,0,8.043-0.768,11.797-1.794v9.736h0.206c4.393-6.224,9.659-9.736,17.782-9.736
	c10.808,0,16.086,6.446,16.086,15.588v30.635c0,6.029,1.106,7.448,4.392,7.448h2.417v3.209h-29.462v-3.209h2.421
	c3.277,0,4.377-1.419,4.377-7.448v-27.774c0-5.4,0-11.679-7.024-11.679c-10.548,0-10.548,12.124-10.548,19.003v20.457
	c0,6.022,1.111,7.441,4.397,7.441h2.413v3.209h-30.793V269.478z"/>
<path fill="#231F20" d="M1301.531,243.567h-25.175l13.075-31.399L1301.531,243.567z M1301.313,272.665h35.181v-3.191h-2.304
	c-4.283,0-6.041-4.385-7.367-7.902l-20.337-52.576c-1.985-5.035-3.639-10.095-5.052-15.563h-9.784
	c-1.334,4.692-2.979,8.875-4.729,13.038l-21.457,51.468c-3.629,8.697-5.702,11.535-11.307,11.535v3.191h23.751v-3.191h-2.979
	c-3.746-0.102-5.948-1.639-5.948-4.616c0-2.716,1.341-6.709,2.878-10.439l2.958-7.068h28.148l2.854,7.404
	c1.98,5.06,3.739,9.384,3.739,11.43c0,3.188-3.295,3.188-8.245,3.29V272.665z"/>
<path fill="#231F20" d="M1337.585,269.478h3.738c3.294,0,4.402-1.419,4.402-7.441v-33.754c0-6.062-1.108-7.489-4.402-7.489h-3.738
	V217.6h11.546c4.074,0,8.043-0.768,11.793-1.794v9.736h0.22c4.389-6.224,9.65-9.736,17.782-9.736c7.48,0,12.997,2.735,15.078,9.736
	c4.726-6.79,9.243-9.736,18.35-9.736c10.77,0,16.072,6.446,16.072,15.588v30.635c0,6.029,1.1,7.448,4.397,7.448h2.425v3.209h-29.486
	v-3.209h2.407c3.295,0,4.402-1.419,4.402-7.448v-27.774c0-5.4,0-11.679-7.033-11.679c-10.544,0-10.544,12.124-10.544,18.954v20.499
	c0,6.029,1.1,7.448,4.402,7.448h2.424v3.209h-29.491v-3.209h2.417c3.311,0,4.406-1.419,4.406-7.448v-27.774
	c0-5.4,0-11.679-7.032-11.679c-10.541,0-10.541,12.124-10.541,19.003v20.457c0,6.022,1.099,7.441,4.395,7.441h2.407v3.209h-30.796
	V269.478z"/>
<path fill="#231F20" d="M1441.694,254.705h3.532c2.202,9.376,7.38,16.041,17.714,16.041c5.605,0,10.992-3.335,10.992-9.001
	c0-7.04-5.495-8.596-16.053-11.025c-8.146-1.875-16.186-4.627-16.186-15.98c0-13.139,9.595-18.934,21.698-18.878
	c4.95,0,8.451,1.758,12.089,1.758c2.979,0,4.606-0.889,5.956-1.814h0.647v17.657h-3.533c-1.073-7.242-7.032-13.858-14.751-13.858
	c-5.375,0-10.851,1.996-10.851,8.745c0,5.598,2.845,6.39,15.596,9.376c9.78,2.187,17.237,5.295,17.237,18.078
	c0,13.268-10.868,18.659-22.407,18.64c-5.156,0-10.77-1.779-15.511-1.779c-2.211,0-4.396,1.052-5.504,1.799h-0.667V254.705z"/>
<path fill="#231F20" d="M1527.733,220.793h-11.493v35.484c0,6.608,0,11.441,5.047,11.441c4.147,0,4.814-4.074,4.93-7.913v-3.528
	h4.136v2.405c0,10.992-4.353,15.794-14.319,15.794c-11.352,0-15.656-6.939-15.656-14.377v-39.307h-7.699v-3.192
	c10.892-0.663,17.84-11.196,20.264-21.113h3.299v21.113h11.493V220.793z"/>
<path fill="#231F20" d="M1554.508,242.144c0-10.831,0.43-22.523,9.543-22.523c8.123,0,8.123,10.593,8.123,22.523H1554.508z
	 M1589.347,245.329c0-17.088-6.503-29.523-24.872-29.523c-17.463,0-27.159,12.221-27.159,29.317c0,17.2,9.696,29.354,27.159,29.354
	c13.798,0,22.365-7.045,23.801-20.612l-4.866-0.052c-0.243,8.74-5.852,16.934-15.399,16.934c-12.531,0-13.502-11.615-13.502-22.669
	v-2.748H1589.347z"/>
<path fill="#231F20" d="M1620.114,262.036c0,6.022,1.091,7.441,4.405,7.441h5.06v3.188h-33.46v-3.188h3.735
	c3.297,0,4.389-1.419,4.389-7.441v-33.754c0-6.054-1.092-7.489-4.389-7.489h-3.735v-3.189h11.555c4.062,0,8.034-0.772,11.785-1.798
	v12.504h0.441c2.408-5.614,7.367-11.66,14.723-11.66c5.16,0,10.984,2.203,10.984,9.259c0,5.161-3.399,7.91-9.218,7.91
	c-2.648,0-7.264-1.306-7.264-7.061c0-2.074,0-2.639-1.305-2.639c-3.092,0-7.707,7.153-7.707,18.902V262.036z"/>
<path fill="#231F20" d="M1668.482,243.567c0-5.315,0-22.305,8.321-22.305c10.399,0,11.28,15.232,11.28,22.749
	c0,7.275-0.105,25.049-11.175,25.049C1668.482,269.061,1668.482,248.966,1668.482,243.567 M1689.074,272.665h23.113v-3.191h-3.512
	c-2.854,0-4.39-0.946-4.39-7.566v-71.082h-23.64v3.193h3.392c4.163,0,4.369,1.96,4.369,7.335v23.453h-0.206
	c-3.396-6.151-8.544-9-15.557-9c-16.048,0-21.321,15.377-21.321,29.478c0,13.401,5.722,29.181,21.096,29.181
	c7.679,0,13.923-2.688,16.449-9.741h0.206V272.665z"/>
<path fill="#231F20" d="M1751.069,257.704c0,9.485-5.696,11.368-8.551,11.368c-5.597,0-7.586-5.092-7.586-10.034
	c0-9.793,3.961-15.721,12.853-15.721c0.981,0,1.858,0.113,3.284,0.444V257.704z M1773.218,257.489c0,5.036,0,10.816-3.521,10.816
	c-1.773,0-2.756-1.172-2.756-4.127v-32.817c0-12.832-12.011-15.556-22.54-15.556c-7.759,0-22.146,2.291-22.146,12.686
	c0,4.976,3.302,8.196,8.245,8.196c4.283,0,8.24-2.78,8.24-7.427c0-3.108-2.426-5.101-2.426-6.326c0-2.869,5.036-3.314,7.438-3.314
	c5.799,0,7.317,4.094,7.317,8.992v11.624c-1.628-0.113-3.163-0.113-4.809-0.113c-11.975,0-27.805,4.837-27.805,18.996
	c0,10.111,7.815,15.328,17.245,15.328c6.054,0,12.859-1.87,16.045-7.313c1.858,5.079,7.59,7.313,11.994,7.313
	c13.52,0,13.629-9.662,13.629-16.958H1773.218z"/>
<path fill="#231F20" d="M1781.342,269.478h3.718c3.33,0,4.405-1.419,4.405-7.441v-33.754c0-6.062-1.075-7.489-4.405-7.489h-3.718
	V217.6h11.538c4.078,0,8.051-0.768,11.797-1.794v9.736h0.223c4.397-6.224,9.659-9.736,17.766-9.736
	c7.497,0,13.01,2.735,15.096,9.736c4.729-6.79,9.215-9.736,18.336-9.736c10.782,0,16.086,6.446,16.086,15.588v30.635
	c0,6.029,1.119,7.448,4.396,7.448H1879v3.209h-29.499v-3.209h2.425c3.31,0,4.4-1.419,4.4-7.448v-27.774c0-5.4,0-11.679-7.02-11.679
	c-10.556,0-10.556,12.124-10.556,18.954v20.499c0,6.029,1.099,7.448,4.4,7.448h2.405v3.209h-29.463v-3.209h2.405
	c3.294,0,4.405-1.419,4.405-7.448v-27.774c0-5.4,0-11.679-7.033-11.679c-10.535,0-10.535,12.124-10.535,19.003v20.457
	c0,6.022,1.084,7.441,4.393,7.441h2.409v3.209h-30.796V269.478z"/>
<path fill="#231F20" d="M225.609,178.62c33.945,0,65.67,9.125,92.97,25.09l29.152-49.852
	c-35.84-21.024-77.565-33.011-122.122-33.011c-44.517,0-86.189,11.987-122.033,33.011l29.147,49.852
	C160.031,187.745,191.798,178.62,225.609,178.62"/>
<path fill="#231F20" d="M252.561,206.033c-11.837-0.121-47.737-0.816-93.904,20.51c-5.888,2.737-10.051,5.012-11.049,3.565
	c-1.985-3.16,12.686-15.62,28.432-24.741c5.694-3.383,8.948-6.334,7.675-8.852c-1.896-3.669-13.176-4.425-44.655,11.68
	c-16.126,9.001-30.707,20.503-43.187,33.897l5.132,4.849c5.056-5.362,10.512-10.314,16.078-15.172
	c3.718-3.217,20.926-16.089,22.429-12.197c0.579,1.556-0.517,3.819-6.615,12.153c-5.315,7.36-8.81,14.246-6.289,16.348
	c2.51,2.126,5.537,0.921,12.711-3.04c5.318-2.941,22.208-11.881,48.825-19.896c26.621-7.941,33.088-4.918,33.734-2.978
	c0.809,2.619-11.449,6.951-18.672,10.54c-6.049,3.1-27.401,15.637-38.992,24.977c0,0,11.235,19.273,11.28,19.273
	c11.95-7.032,57.49-18.558,62.356-10.225c5.335,9.126-43.123,43.195-43.123,43.195l30.882,53.073c0,0,70.261-80.709,59.062-98.411
	c-11.296-17.608-53.59-14.354-70.282-12.771c-4.587,0.404-9.962,1.407-11.102-0.849c-1.26-2.514,0.194-12.589,56.581-25.946
	c12.541-2.946,17.427-4.482,16.74-10.023C276.035,210.245,264.407,206.123,252.561,206.033"/>
<rect fill="none" width="2000" height="500"/>
</svg>
