<?xml version="1.0" encoding="utf-8"?>
<!-- Generator: Adobe Illustrator 16.0.0, SVG Export Plug-In . SVG Version: 6.00 Build 0)  -->
<!DOCTYPE svg PUBLIC "-//W3C//DTD SVG 1.1//EN" "http://www.w3.org/Graphics/SVG/1.1/DTD/svg11.dtd">
<svg version="1.1" id="Layer_1" xmlns="http://www.w3.org/2000/svg" xmlns:xlink="http://www.w3.org/1999/xlink" x="0px" y="0px"
	 width="366.547px" height="259.691px" viewBox="0 0 366.547 259.691" enable-background="new 0 0 366.547 259.691"
	 xml:space="preserve">
<g>
	<g>
		<path fill="#FFFFFF" stroke="#1D1E1C" stroke-width="4" stroke-miterlimit="10" d="M324.303,95.493v73.084
			c0,0-45.708,39.831-88.292,0V95.493C236.011,95.493,274.687,49.085,324.303,95.493z"/>
		<path fill="#FFFFFF" stroke="#1D1E1C" stroke-width="4" stroke-miterlimit="10" d="M324.303,95.493c0,0-36.724,48.235-88.292,0"/>
		<path fill="#805024" stroke="#1D1E1C" stroke-width="4" stroke-miterlimit="10" d="M312.866,106.212c0,0-40.531-21.395-63.404,0
			C249.462,106.212,282.165,129.537,312.866,106.212z"/>
		<polygon fill="#FFFFFF" stroke="#1D1E1C" stroke-width="4" stroke-miterlimit="10" points="248.183,122.68 215.294,119.808 
			215.294,157.564 246.224,157.564 246.224,147.208 223.52,147.208 223.52,130.574 248.183,130.574 		"/>
	</g>
	<path fill="#FFFFFF" stroke="#1D1E1C" stroke-width="5" stroke-miterlimit="10" d="M236.55,61.344c0,0-4.132-14.342,10.453-10.453
		c0,0,0.243-16.772,17.26-10.938c0,0,12.969,4.358,5.146,10.08l7.982-0.843c2.428,1.216,6.316,10.938-2.92,12.154
		c0,0-0.243,11.425-13.613,3.16c0,0-13.506,11.911-18.178-2.188L236.55,61.344z"/>
	<path fill="#FFFFFF" stroke="#1D1E1C" stroke-width="5" stroke-miterlimit="10" d="M320.284,25.124c0,0-4.133-14.342,10.453-10.453
		c0,0,0.243-16.772,17.258-10.938c0,0,12.971,4.358,5.148,10.08l7.982-0.843c2.428,1.216,6.316,10.938-2.922,12.154
		c0,0-0.242,11.425-13.611,3.16c0,0-13.505,11.911-18.178-2.188L320.284,25.124z"/>
	<g>
		<path fill="#FFFFFF" stroke="#1D1E1C" stroke-width="5" stroke-miterlimit="10" d="M189.204,100.432l0.634,125.916
			c0,0-66.608,68.961-129.329,0.651l-0.635-125.915C59.874,101.084,116.124,20.842,189.204,100.432z"/>
		<path fill="#FFFFFF" stroke="#1D1E1C" stroke-width="5" stroke-miterlimit="10" d="M189.204,100.432
			c0,0-53.373,83.376-129.33,0.652"/>
		<path fill="#805024" stroke="#1D1E1C" stroke-width="5" stroke-miterlimit="10" d="M172.546,118.984
			c0,0-59.555-36.562-92.873,0.468C79.673,119.452,127.776,159.396,172.546,118.984z"/>
		<polygon fill="#FFFFFF" stroke="#1D1E1C" stroke-width="5" stroke-miterlimit="10" points="77.942,147.833 29.741,143.127 
			30.068,208.178 75.372,207.949 75.282,190.106 42.028,190.273 41.884,161.615 78.011,161.434 		"/>
		<path fill="#FFFFFF" stroke="#1D1E1C" stroke-width="5" stroke-miterlimit="10" d="M189.204,100.432l0.634,125.916
			c0,0-66.608,68.961-129.329,0.651l-0.635-125.915C59.874,101.084,116.124,20.842,189.204,100.432z"/>
		<path fill="#FFFFFF" stroke="#1D1E1C" stroke-width="5" stroke-miterlimit="10" d="M189.204,100.432
			c0,0-53.373,83.376-129.33,0.652"/>
		<path fill="#805024" stroke="#1D1E1C" stroke-width="5" stroke-miterlimit="10" d="M172.546,118.984
			c0,0-59.555-36.562-92.873,0.468C79.673,119.452,127.776,159.396,172.546,118.984z"/>
		<polygon fill="#FFFFFF" stroke="#1D1E1C" stroke-width="5" stroke-miterlimit="10" points="77.942,147.833 29.741,143.127 
			30.068,208.178 75.372,207.949 75.282,190.106 42.028,190.273 41.884,161.615 78.011,161.434 		"/>
	</g>
	<path fill="#FFFFFF" stroke="#1D1E1C" stroke-width="5" stroke-miterlimit="10" d="M3.165,45.563c0,0-5.082-17.637,12.854-12.854
		c0,0,0.299-20.626,21.225-13.452c0,0,15.949,5.36,6.33,12.396l9.816-1.036c2.984,1.494,7.768,13.451-3.592,14.946
		c0,0-0.299,14.05-16.74,3.886c0,0-16.607,14.647-22.353-2.69L3.165,45.563z"/>
	<path fill="#FFFFFF" stroke="#1D1E1C" stroke-width="5" stroke-miterlimit="10" d="M120.83,74.304c0,0-5.081-17.637,12.854-12.854
		c0,0,0.299-20.626,21.223-13.451c0,0,15.949,5.359,6.331,12.395l9.815-1.036c2.985,1.495,7.769,13.452-3.59,14.946
		c0,0-0.301,14.05-16.741,3.887c0,0-16.608,14.647-22.354-2.69L120.83,74.304z"/>
</g>
</svg>
