<?xml version="1.0" encoding="utf-8"?>
<!-- Generator: Adobe Illustrator 16.0.0, SVG Export Plug-In . SVG Version: 6.00 Build 0)  -->
<!DOCTYPE svg PUBLIC "-//W3C//DTD SVG 1.1//EN" "http://www.w3.org/Graphics/SVG/1.1/DTD/svg11.dtd">
<svg version="1.1" id="Layer_1" xmlns="http://www.w3.org/2000/svg" xmlns:xlink="http://www.w3.org/1999/xlink" x="0px" y="0px"
	 width="245.562px" height="346.467px" viewBox="0 0 245.562 346.467" enable-background="new 0 0 245.562 346.467"
	 xml:space="preserve">
<path id="XMLID_65_" fill="#F6EFD9" stroke="#1D1E1C" stroke-width="10" stroke-miterlimit="10" d="M228.562,341.467H17
	c-6.6,0-12-5.4-12-12V17c0-6.601,5.4-12,12-12h211.562c6.601,0,12,5.399,12,12v312.467
	C240.562,336.066,235.163,341.467,228.562,341.467z"/>
<path id="XMLID_61_" fill="#1D1E1C" d="M78.581,94.797H46.023c-6.533,0-11.881-5.346-11.881-11.88V67.588
	c0-6.535,5.348-11.881,11.881-11.881h32.558c6.535,0,11.881,5.346,11.881,11.881v15.329C90.462,89.451,85.116,94.797,78.581,94.797z
	"/>
<path id="XMLID_60_" fill="#1D1E1C" d="M78.581,146.848H46.023c-6.533,0-11.881-5.348-11.881-11.881v-15.33
	c0-6.534,5.348-11.881,11.881-11.881h32.558c6.535,0,11.881,5.347,11.881,11.881v15.33C90.462,141.5,85.116,146.848,78.581,146.848z
	"/>
</svg>
