<?xml version="1.0" encoding="utf-8"?>
<!-- Generator: Adobe Illustrator 16.0.0, SVG Export Plug-In . SVG Version: 6.00 Build 0)  -->
<!DOCTYPE svg PUBLIC "-//W3C//DTD SVG 1.1//EN" "http://www.w3.org/Graphics/SVG/1.1/DTD/svg11.dtd">
<svg version="1.1" id="Layer_1" xmlns="http://www.w3.org/2000/svg" xmlns:xlink="http://www.w3.org/1999/xlink" x="0px" y="0px"
	 width="245.562px" height="346.467px" viewBox="0 0 245.562 346.467" enable-background="new 0 0 245.562 346.467"
	 xml:space="preserve">
<path id="XMLID_73_" fill="#F6EFD9" stroke="#1D1E1C" stroke-width="10" stroke-miterlimit="10" d="M228.908,341.521H17.346
	c-6.6,0-12-5.4-12-12V17.055c0-6.601,5.4-12,12-12h211.562c6.6,0,12,5.399,12,12v312.467
	C240.908,336.121,235.508,341.521,228.908,341.521z"/>
<path id="XMLID_72_" fill="#1D1E1C" d="M78.927,94.853H46.369c-6.534,0-11.881-5.347-11.881-11.881V67.643
	c0-6.535,5.347-11.881,11.881-11.881h32.558c6.534,0,11.881,5.346,11.881,11.881v15.329C90.808,89.506,85.461,94.853,78.927,94.853z
	"/>
<path id="XMLID_71_" fill="#1D1E1C" d="M78.927,146.901H46.369c-6.534,0-11.881-5.346-11.881-11.88v-15.33
	c0-6.534,5.347-11.88,11.881-11.88h32.558c6.534,0,11.881,5.346,11.881,11.88v15.33C90.808,141.556,85.461,146.901,78.927,146.901z"
	/>
<path id="XMLID_70_" fill="none" stroke="#1D1E1C" stroke-width="7" stroke-miterlimit="10" d="M78.927,198.314H46.369
	c-6.534,0-11.881-5.346-11.881-11.88v-15.329c0-6.535,5.347-11.881,11.881-11.881h32.558c6.534,0,11.881,5.346,11.881,11.881v15.329
	C90.808,192.969,85.461,198.314,78.927,198.314z"/>
</svg>
