<?xml version="1.0" encoding="utf-8"?>
<!-- Generator: Adobe Illustrator 16.0.0, SVG Export Plug-In . SVG Version: 6.00 Build 0)  -->
<!DOCTYPE svg PUBLIC "-//W3C//DTD SVG 1.1//EN" "http://www.w3.org/Graphics/SVG/1.1/DTD/svg11.dtd">
<svg version="1.1" id="Layer_1" xmlns="http://www.w3.org/2000/svg" xmlns:xlink="http://www.w3.org/1999/xlink" x="0px" y="0px"
	 width="521.367px" height="165.53px" viewBox="0 0 521.367 165.53" enable-background="new 0 0 521.367 165.53"
	 xml:space="preserve">
<g>
	<polygon fill="#41B189" points="7.69,71.407 216.538,162.878 512.808,77.882 280.485,2.6 	"/>
	<path fill="#1D1E1C" d="M216.36,165.53l-0.826-0.361L0,70.768L280.571,0l240.796,78.028L216.36,165.53z M15.38,72.045
		l201.335,88.182l287.535-82.49L280.399,5.2L15.38,72.045z"/>
</g>
<line fill="#41B189" stroke="#1D1E1C" stroke-width="5" stroke-miterlimit="10" x1="242.256" y1="28.056" x2="395.667" y2="83.36"/>
<line fill="#41B189" stroke="#1D1E1C" stroke-width="5" stroke-miterlimit="10" x1="206.903" y1="37.011" x2="360.315" y2="92.315"/>
<line fill="#41B189" stroke="#1D1E1C" stroke-width="5" stroke-miterlimit="10" x1="175.594" y1="48.016" x2="321.961" y2="106.399"/>
<line fill="#41B189" stroke="#1D1E1C" stroke-width="5" stroke-miterlimit="10" x1="139.59" y1="53.708" x2="291.434" y2="118.282"/>
<line fill="#41B189" stroke="#1D1E1C" stroke-width="5" stroke-miterlimit="10" x1="99.672" y1="64.663" x2="175.594" y2="96.95"/>
<polyline fill="#1D1E1C" points="338.547,32.349 375.885,44.795 402.336,32.349 363.442,17.568 333.102,26.26 "/>
</svg>
