<?xml version="1.0" encoding="utf-8"?>
<!-- Generator: Adobe Illustrator 16.0.0, SVG Export Plug-In . SVG Version: 6.00 Build 0)  -->
<!DOCTYPE svg PUBLIC "-//W3C//DTD SVG 1.1//EN" "http://www.w3.org/Graphics/SVG/1.1/DTD/svg11.dtd">
<svg version="1.1" id="Layer_1" xmlns="http://www.w3.org/2000/svg" xmlns:xlink="http://www.w3.org/1999/xlink" x="0px" y="0px"
	 width="208.986px" height="281.552px" viewBox="0 0 208.986 281.552" enable-background="new 0 0 208.986 281.552"
	 xml:space="preserve">
<g>
	<path fill="#41B189" d="M8.511,241.728c-1.958,4.766,1.37,6.08,6.505,7.672c4.495,1.394,8.857,4.604,12.14,8.087
		c2.616,2.777,4.179,3.222,7.405,1.567c12.883-6.603,25.921-12.902,38.812-19.489c1.792-0.916,3.413-2.593,4.553-4.293
		c13.065-19.484,25.873-39.143,39.042-58.556c20.551-30.293,41.272-60.47,62.078-90.589c2.61-3.775,1.688-5.601-1.769-7.906
		c-11.218-7.48-22.163-15.369-33.406-22.811c-3.353-2.219-3.601-4.129-1.445-7.196c5.359-7.623,10.709-15.259,15.82-23.049
		c7.316-11.153,7.224-11.214-5.234-16.712c-6.801-3.001-12.696-1.395-16.997,4.772c-9.683,13.885-19.438,27.723-28.944,41.728
		c-31.039,45.726-61.993,91.509-92.914,137.313c-1.17,1.732-2.243,3.861-2.414,5.886C10.556,212.237,9.62,226.344,8.511,241.728z"/>
	<path fill="#41B189" stroke="#1D1E1C" stroke-width="6" stroke-miterlimit="10" d="M8.511,241.728
		c1.109-15.384,2.045-29.49,3.231-43.575c0.171-2.024,1.244-4.153,2.414-5.886c30.921-45.805,61.875-91.588,92.914-137.313
		c9.506-14.005,19.262-27.842,28.944-41.728c4.301-6.167,10.196-7.773,16.997-4.772c12.458,5.498,12.551,5.559,5.234,16.712
		c-5.111,7.79-10.461,15.426-15.82,23.049c-2.155,3.067-1.907,4.977,1.445,7.196c11.243,7.441,22.188,15.33,33.406,22.811
		c3.457,2.306,4.379,4.131,1.769,7.906c-20.806,30.119-41.527,60.296-62.078,90.589c-13.169,19.413-25.977,39.071-39.042,58.556
		c-1.14,1.7-2.761,3.377-4.553,4.293c-12.892,6.587-25.93,12.887-38.812,19.489c-3.227,1.654-4.789,1.21-7.405-1.567
		c-3.282-3.482-7.645-6.693-12.14-8.087C9.881,247.808,6.553,246.493,8.511,241.728z"/>
	<path fill="#1D1E1C" d="M172.705,83.69l-52.867-36.828c-5.416-3.772-6.761-11.29-2.988-16.705l17.435-25.028
		c3.772-5.415,11.29-6.76,16.706-2.987l52.867,36.827c5.415,3.772,6.76,11.29,2.987,16.706L189.41,80.702
		C185.638,86.118,178.121,87.462,172.705,83.69z"/>
	<polygon fill="#FFFFFF" points="15.46,196.384 74.857,234.378 73.534,236.033 71.713,237.108 31.57,257.222 10.841,243.966 
		11.539,242.571 14.684,197.959 	"/>
	<polygon fill="#1D1E1C" points="7.942,245.062 0,281.552 30.921,259.979 21.579,239.906 	"/>
	<line fill="none" stroke="#1D1E1C" stroke-width="5" stroke-miterlimit="10" x1="42.849" y1="213.903" x2="153.65" y2="53.104"/>
</g>
</svg>
