<?xml version="1.0" encoding="utf-8"?>
<!-- Generator: Adobe Illustrator 16.0.0, SVG Export Plug-In . SVG Version: 6.00 Build 0)  -->
<!DOCTYPE svg PUBLIC "-//W3C//DTD SVG 1.1//EN" "http://www.w3.org/Graphics/SVG/1.1/DTD/svg11.dtd">
<svg version="1.1" id="Layer_1" xmlns="http://www.w3.org/2000/svg" xmlns:xlink="http://www.w3.org/1999/xlink" x="0px" y="0px"
	 width="41.424px" height="55.506px" viewBox="0 0 41.424 55.506" enable-background="new 0 0 41.424 55.506" xml:space="preserve">
<g>
	<g>
		<rect x="15.712" y="3.75" fill="#F6EFD9" width="10" height="42.904"/>
	</g>
	<g>
		<path fill="#F6EFD9" d="M35.299,32.33l-9.317,19.624c-1.048,2.213-2.679,3.552-4.949,3.552H20.45
			c-2.271,0-3.902-1.339-4.949-3.552L6.183,32.33c-0.35-0.699-0.582-1.34-0.582-2.154c-0.058-1.864,1.572-3.553,3.669-3.553
			c1.688,0,2.853,0.932,3.552,2.446l7.861,17.585l7.861-17.585c0.699-1.514,2.037-2.446,3.669-2.446
			c2.154,0,3.668,1.689,3.609,3.844C35.822,31.107,35.59,31.748,35.299,32.33z"/>
	</g>
	<g>
		<path fill="#F6EFD9" d="M3.627,7.5c11.39,0,22.78,0,34.169,0c4.837,0,4.837-7.5,0-7.5c-11.39,0-22.78,0-34.169,0
			C-1.209,0-1.209,7.5,3.627,7.5L3.627,7.5z"/>
	</g>
</g>
</svg>
