<?xml version="1.0" encoding="utf-8"?>
<!-- Generator: Adobe Illustrator 16.0.0, SVG Export Plug-In . SVG Version: 6.00 Build 0)  -->
<!DOCTYPE svg PUBLIC "-//W3C//DTD SVG 1.1//EN" "http://www.w3.org/Graphics/SVG/1.1/DTD/svg11.dtd">
<svg version="1.1" id="Layer_1" xmlns="http://www.w3.org/2000/svg" xmlns:xlink="http://www.w3.org/1999/xlink" x="0px" y="0px"
	 width="380.697px" height="137.252px" viewBox="0 0 380.697 137.252" enable-background="new 0 0 380.697 137.252"
	 xml:space="preserve">
<g>
	<g>
		<path fill="#F6EED8" d="M380.698,90.497H1V0.977h379.697V90.497z M11,80.497h359.697v-69.52H11V80.497z"/>
	</g>
	
		<line fill="none" stroke="#F6EED8" stroke-width="10" stroke-miterlimit="10" x1="190.849" y1="85.497" x2="190.849" y2="128.401"/>
	<g>
		<path fill="#F6EED8" d="M205.436,114.077l-9.316,19.624c-1.049,2.213-2.68,3.552-4.949,3.552h-0.583
			c-2.271,0-3.902-1.339-4.949-3.552l-9.318-19.624c-0.349-0.699-0.582-1.34-0.582-2.154c-0.058-1.863,1.572-3.553,3.67-3.553
			c1.688,0,2.853,0.932,3.552,2.445l7.86,17.586l7.861-17.586c0.699-1.515,2.038-2.445,3.669-2.445c2.154,0,3.668,1.689,3.609,3.844
			C205.959,112.854,205.727,113.495,205.436,114.077z"/>
	</g>
	<g enable-background="new    ">
		<path fill="#FFD15C" d="M58.115,32.871c0-2.017,1.632-3.648,3.648-3.648s3.648,1.632,3.648,3.648v28.322
			c0,2.017-1.632,3.648-3.648,3.648s-3.648-1.632-3.648-3.648V32.871z"/>
		<path fill="#FFD15C" d="M84.468,65.13c-7.729,0-13.441-5.425-13.441-13.297v-0.097c0-7.345,5.232-13.393,12.721-13.393
			c8.593,0,12.385,7.057,12.385,12.385c0,2.112-1.488,3.504-3.409,3.504H78.275c0.72,3.312,3.024,5.041,6.289,5.041
			c2.016,0,3.696-0.624,5.185-1.729c0.528-0.384,1.008-0.576,1.776-0.576c1.632,0,2.832,1.248,2.832,2.881
			c0,0.96-0.432,1.68-0.96,2.16C91.14,63.93,88.212,65.13,84.468,65.13z M89.172,49.673C88.74,46.408,86.82,44.2,83.747,44.2
			c-3.024,0-4.993,2.16-5.568,5.473H89.172z"/>
		<path fill="#FFD15C" d="M102.898,57.257V45.064h-0.24c-1.729,0-3.121-1.393-3.121-3.121c0-1.728,1.392-3.12,3.121-3.12h0.24
			v-3.216c0-2.017,1.632-3.648,3.648-3.648s3.648,1.632,3.648,3.648v3.216h3.216c1.728,0,3.12,1.393,3.12,3.12
			c0,1.729-1.392,3.121-3.12,3.121h-3.216v10.992c0,1.681,0.72,2.496,2.352,2.496c0.24,0,0.72-0.048,0.864-0.048
			c1.632,0,3.024,1.345,3.024,3.024c0,1.296-0.864,2.353-1.872,2.736c-1.344,0.528-2.592,0.72-4.176,0.72
			C105.923,64.985,102.898,63.21,102.898,57.257z"/>
		<path fill="#FFD15C" d="M121.426,43.191c2.448-0.575,3.792-2.256,3.696-4.56c-1.68-0.433-3.36-1.872-3.36-3.937v-0.097
			c0-2.256,1.584-3.936,3.984-3.936c2.688,0,4.272,2.063,4.272,5.376v0.192c0,3.504-1.056,6.097-2.833,7.872
			c-1.44,1.44-3.6,2.305-5.376,2.305c-1.296,0-1.824-0.769-1.824-1.632C119.986,43.912,120.61,43.384,121.426,43.191z"/>
		<path fill="#FFD15C" d="M134.433,62.105c-0.768-0.48-1.392-1.344-1.392-2.496c0-1.632,1.248-2.88,2.88-2.88
			c0.528,0,1.056,0.144,1.44,0.384c2.448,1.536,4.896,2.304,6.96,2.304c2.112,0,3.072-0.768,3.072-1.92v-0.096
			c0-1.584-2.496-2.112-5.328-2.977c-3.601-1.056-7.681-2.736-7.681-7.729v-0.096c0-5.232,4.224-8.161,9.409-8.161
			c2.688,0,5.472,0.72,7.969,1.968c1.056,0.528,1.728,1.488,1.728,2.736c0,1.633-1.296,2.881-2.928,2.881
			c-0.528,0-0.864-0.097-1.344-0.336c-2.064-1.009-4.032-1.633-5.568-1.633c-1.776,0-2.688,0.769-2.688,1.776v0.096
			c0,1.44,2.448,2.112,5.232,3.072c3.601,1.2,7.777,2.929,7.777,7.633v0.097c0,5.712-4.272,8.305-9.841,8.305
			C140.962,65.034,137.553,64.122,134.433,62.105z"/>
		<path fill="#FFD15C" d="M172.928,62.105c-0.768-0.48-1.392-1.344-1.392-2.496c0-1.632,1.248-2.88,2.88-2.88
			c0.528,0,1.056,0.144,1.44,0.384c2.448,1.536,4.896,2.304,6.96,2.304c2.112,0,3.072-0.768,3.072-1.92v-0.096
			c0-1.584-2.496-2.112-5.328-2.977c-3.601-1.056-7.681-2.736-7.681-7.729v-0.096c0-5.232,4.224-8.161,9.409-8.161
			c2.688,0,5.472,0.72,7.969,1.968c1.056,0.528,1.728,1.488,1.728,2.736c0,1.633-1.296,2.881-2.928,2.881
			c-0.528,0-0.864-0.097-1.344-0.336c-2.064-1.009-4.032-1.633-5.568-1.633c-1.776,0-2.688,0.769-2.688,1.776v0.096
			c0,1.44,2.448,2.112,5.232,3.072c3.601,1.2,7.777,2.929,7.777,7.633v0.097c0,5.712-4.272,8.305-9.841,8.305
			C179.457,65.034,176.049,64.122,172.928,62.105z"/>
		<path fill="#FFD15C" d="M196.448,51.833v-0.097c0-7.345,5.617-13.393,13.489-13.393c3.888,0,6.624,1.056,8.784,2.88
			c0.48,0.384,1.152,1.248,1.152,2.496c0,1.824-1.488,3.265-3.312,3.265c-0.959,0-1.68-0.384-2.111-0.721
			c-1.297-1.008-2.641-1.632-4.561-1.632c-3.648,0-6.24,3.217-6.24,7.009v0.096c0,3.937,2.544,7.104,6.528,7.104
			c1.92,0,3.408-0.672,4.8-1.775c0.385-0.288,1.104-0.673,1.969-0.673c1.729,0,3.072,1.393,3.072,3.121
			c0,0.96-0.432,1.728-1.057,2.304c-2.16,1.969-4.896,3.312-9.121,3.312C202.113,65.13,196.448,59.177,196.448,51.833z"/>
		<path fill="#FFD15C" d="M225.105,42.184c0-2.016,1.632-3.648,3.648-3.648c2.016,0,3.648,1.633,3.648,3.648v1.152
			c1.056-2.496,2.783-4.801,4.943-4.801c2.257,0,3.553,1.488,3.553,3.553c0,1.92-1.248,3.072-2.736,3.408
			c-3.696,0.864-5.76,3.696-5.76,8.881v6.816c0,2.017-1.633,3.648-3.648,3.648c-2.017,0-3.648-1.632-3.648-3.648V42.184z"/>
		<path fill="#FFD15C" d="M243.2,51.833v-0.097c0-7.393,5.953-13.393,13.969-13.393c7.969,0,13.873,5.904,13.873,13.297v0.096
			c0,7.393-5.951,13.394-13.969,13.394C249.105,65.13,243.2,59.226,243.2,51.833z M263.842,51.833v-0.097
			c0-3.792-2.735-7.104-6.769-7.104c-4.176,0-6.672,3.217-6.672,7.009v0.096c0,3.793,2.736,7.104,6.768,7.104
			C261.346,58.841,263.842,55.625,263.842,51.833z"/>
		<path fill="#FFD15C" d="M276.656,32.871c0-2.017,1.633-3.648,3.648-3.648c2.017,0,3.648,1.632,3.648,3.648v28.322
			c0,2.017-1.632,3.648-3.648,3.648c-2.016,0-3.648-1.632-3.648-3.648V32.871z"/>
		<path fill="#FFD15C" d="M291.152,32.871c0-2.017,1.632-3.648,3.648-3.648c2.016,0,3.648,1.632,3.648,3.648v28.322
			c0,2.017-1.633,3.648-3.648,3.648c-2.017,0-3.648-1.632-3.648-3.648V32.871z"/>
		<path fill="#FFD15C" d="M305.55,33.255c-0.144-1.392,0.625-2.448,1.92-2.448h4.705c1.296,0,2.064,1.057,1.92,2.448l-2.064,18.05
			c-0.144,1.296-1.008,2.112-2.207,2.112c-1.201,0-2.064-0.816-2.209-2.112L305.55,33.255z M309.823,56.585
			c2.399,0,4.176,1.776,4.176,4.08v0.097c0,2.304-1.776,4.08-4.176,4.08c-2.4,0-4.178-1.776-4.178-4.08v-0.097
			C305.646,58.361,307.423,56.585,309.823,56.585z"/>
	</g>
</g>
</svg>
