<?xml version="1.0" encoding="utf-8"?>
<!-- Generator: Adobe Illustrator 16.0.0, SVG Export Plug-In . SVG Version: 6.00 Build 0)  -->
<!DOCTYPE svg PUBLIC "-//W3C//DTD SVG 1.1//EN" "http://www.w3.org/Graphics/SVG/1.1/DTD/svg11.dtd">
<svg version="1.1" id="Layer_1" xmlns="http://www.w3.org/2000/svg" xmlns:xlink="http://www.w3.org/1999/xlink" x="0px" y="0px"
	 width="380.698px" height="137.252px" viewBox="0 0 380.698 137.252" enable-background="new 0 0 380.698 137.252"
	 xml:space="preserve">
<g>
	<g>
		<path fill="#F6EED8" d="M380.698,90.497H1V0.977h379.698V90.497z M11,80.497h359.698v-69.52H11V80.497z"/>
	</g>
	
		<line fill="none" stroke="#F6EED8" stroke-width="10" stroke-miterlimit="10" x1="190.849" y1="85.497" x2="190.849" y2="128.401"/>
	<g>
		<path fill="#F6EED8" d="M205.436,114.077l-9.317,19.624c-1.048,2.213-2.679,3.552-4.949,3.552h-0.583
			c-2.271,0-3.902-1.339-4.949-3.552l-9.318-19.624c-0.349-0.699-0.582-1.34-0.582-2.154c-0.058-1.863,1.572-3.553,3.669-3.553
			c1.688,0,2.853,0.932,3.552,2.446l7.861,17.585l7.861-17.585c0.699-1.515,2.038-2.446,3.669-2.446
			c2.154,0,3.668,1.689,3.609,3.844C205.959,112.854,205.727,113.495,205.436,114.077z"/>
	</g>
	<text transform="matrix(1 0 0 1 54.5151 64.5537)" fill="#FFD15C" font-family="'GothamRounded-Bold'" font-size="48">let’s scroll!</text>
</g>
</svg>
