<?xml version="1.0" encoding="utf-8"?>
<!-- Generator: Adobe Illustrator 16.0.0, SVG Export Plug-In . SVG Version: 6.00 Build 0)  -->
<!DOCTYPE svg PUBLIC "-//W3C//DTD SVG 1.1//EN" "http://www.w3.org/Graphics/SVG/1.1/DTD/svg11.dtd">
<svg version="1.1" id="Layer_1" xmlns="http://www.w3.org/2000/svg" xmlns:xlink="http://www.w3.org/1999/xlink" x="0px" y="0px"
	 width="383.504px" height="155.887px" viewBox="0 0 383.504 155.887" enable-background="new 0 0 383.504 155.887"
	 xml:space="preserve">
<g>
	<path fill="#F5EDD8" d="M128.41,49.984c-3.884,0-5.312-3.142-5.026-7.482c-1.313,3.655-4.283,7.482-7.824,7.482
		c-3.427,0-4.684-3.599-3.826-8.453l1.941-10.737c0.399-2.398-0.628-2.57-1.143-2.57c-1.827,0-3.312,2.685-4.055,6.968
		c-0.114,0.629-0.514,1.086-1.085,1.086s-0.857-0.457-0.743-1.086c0.686-3.655,2.628-8.967,6.911-8.967
		c2.17,0,4.169,1.485,3.599,4.627l-2.171,12.564c-0.571,3.084,0.058,4.455,1.542,4.455c3.142,0,7.196-7.368,9.139-18.276
		l0.514-2.799c0.058-0.229,0.172-0.285,0.343-0.285c0.514,0,0.742,0.171,1.428,0.171c0.742,0,1.085-0.171,1.428-0.171
		c0.286,0,0.4,0.057,0.343,0.285l-2.398,13.936c-1.085,6.111-0.172,7.14,1.771,7.14c5.14,0,9.138-11.365,9.138-17.248
		c0-0.286,0-0.515-0.114-0.743c-0.343,0.343-1.027,0.686-1.656,0.686c-1.199,0-1.885-0.686-1.885-1.771
		c0-1.256,1.085-2.57,2.628-2.57c2.284,0,2.798,2.856,2.798,4.398C140.004,37.134,135.606,49.984,128.41,49.984z"/>
	<path fill="#F5EDD8" d="M157.591,26.225c4.455,0,5.598,3.599,4.741,8.453l-1.885,10.737c-0.4,2.398,0.628,2.57,1.142,2.57
		c1.828,0,3.312-2.685,4.056-6.968c0.114-0.628,0.514-1.085,1.085-1.085s0.8,0.457,0.742,1.085c-0.686,3.655-2.627,8.967-6.91,8.967
		c-2.228,0-4.227-1.485-3.655-4.626l2.17-12.394c0.571-3.085-0.058-4.341-2.228-4.341c-3.427,0-7.882,5.197-8.853,10.794
		l-1.771,9.995c-0.058,0.229-0.171,0.285-0.399,0.285c-0.457,0-0.629-0.171-1.371-0.171c-0.686,0-1.085,0.171-1.485,0.171
		c-0.229,0-0.343-0.057-0.343-0.285l6.169-34.725c-2.741,0-3.084,0.113-3.655,0.113c-0.457,0-0.8-0.342-0.743-0.971
		c0.172-0.628,0.629-1.027,1.086-1.027c0.571,0,0.856,0.114,3.655,0.114c0.913,0,2.17-0.229,2.684-0.229
		c0.457,0,0.8,0.399,0.743,0.971l-3.37,19.019C150.737,29.651,154.222,26.225,157.591,26.225z"/>
	<path fill="#F5EDD8" d="M179.35,48.499c2.684,0,5.083-1.428,6.682-4.74c0.229-0.457,0.629-0.971,1.143-0.971
		c0.457,0,0.742,0.343,0.742,0.856c0,0.229-0.171,0.742-0.285,0.971c-2.855,4.798-6.055,5.883-9.253,5.883
		c-5.025,0-8.281-4.969-7.024-12.165c1.313-7.539,7.082-12.108,11.765-12.108c3.599,0,5.826,2.228,5.312,5.141
		c-1.086,6.054-8.453,7.938-13.251,8.396C174.494,45.301,175.865,48.499,179.35,48.499z M185.003,31.479
		c0.343-1.999-0.514-3.427-2.17-3.427c-3.826,0-6.226,3.884-7.367,9.938C179.464,37.647,184.204,35.763,185.003,31.479z"/>
	<path fill="#F5EDD8" d="M195.967,49.413c-0.058,0.229-0.229,0.285-0.4,0.285c-0.457,0-0.685-0.171-1.37-0.171
		c-0.743,0-1.086,0.171-1.485,0.171c-0.229,0-0.343-0.057-0.343-0.285l3.655-20.504c-2.799,0-3.141,0.172-3.712,0.172
		c-0.4,0-0.8-0.4-0.629-1.028c0.058-0.628,0.571-0.971,0.972-0.971c0.57,0,0.913,0.057,3.655,0.057c0.913,0,2.284-0.229,2.798-0.229
		c0.4,0,0.743,0.4,0.629,1.028l-0.457,2.627c1.941-3.312,4.283-4.341,6.454-4.341c2.284,0,3.427,1.656,3.141,3.198
		c-0.229,1.485-1.313,2.628-2.627,2.628s-2.17-0.971-1.942-2.285c0.172-0.685,0.571-1.199,1.028-1.542
		c-0.229,0-0.457-0.114-0.971-0.114c-2.398,0-5.369,4.227-6.282,9.253L195.967,49.413z"/>
	<path fill="#F5EDD8" d="M217.439,48.499c2.684,0,5.083-1.428,6.682-4.74c0.229-0.457,0.629-0.971,1.143-0.971
		c0.457,0,0.742,0.343,0.742,0.856c0,0.229-0.171,0.742-0.285,0.971c-2.855,4.798-6.055,5.883-9.253,5.883
		c-5.025,0-8.281-4.969-7.024-12.165c1.313-7.539,7.082-12.108,11.765-12.108c3.599,0,5.826,2.228,5.312,5.141
		c-1.086,6.054-8.453,7.938-13.251,8.396C212.584,45.301,213.955,48.499,217.439,48.499z M223.093,31.479
		c0.343-1.999-0.514-3.427-2.17-3.427c-3.826,0-6.226,3.884-7.367,9.938C217.554,37.647,222.294,35.763,223.093,31.479z"/>
	<path fill="#F5EDD8" d="M261.413,49.984c-3.884,0-5.312-3.142-5.026-7.482c-1.313,3.655-4.283,7.482-7.824,7.482
		c-3.427,0-4.684-3.599-3.826-8.453l1.941-10.737c0.399-2.398-0.628-2.57-1.143-2.57c-1.827,0-3.312,2.685-4.055,6.968
		c-0.114,0.629-0.514,1.086-1.085,1.086s-0.857-0.457-0.743-1.086c0.686-3.655,2.628-8.967,6.911-8.967
		c2.17,0,4.169,1.485,3.599,4.627l-2.171,12.564c-0.571,3.084,0.058,4.455,1.542,4.455c3.142,0,7.196-7.368,9.139-18.276
		l0.514-2.799c0.058-0.229,0.172-0.285,0.343-0.285c0.514,0,0.742,0.171,1.428,0.171c0.742,0,1.085-0.171,1.428-0.171
		c0.286,0,0.4,0.057,0.343,0.285l-2.398,13.936c-1.085,6.111-0.172,7.14,1.771,7.14c5.14,0,9.138-11.365,9.138-17.248
		c0-0.286,0-0.515-0.114-0.743c-0.343,0.343-1.027,0.686-1.656,0.686c-1.199,0-1.885-0.686-1.885-1.771
		c0-1.256,1.085-2.57,2.628-2.57c2.284,0,2.798,2.856,2.798,4.398C273.007,37.134,268.609,49.984,261.413,49.984z"/>
	<path fill="#F5EDD8" d="M284.483,48.499c2.684,0,5.083-1.428,6.682-4.74c0.229-0.457,0.629-0.971,1.143-0.971
		c0.457,0,0.742,0.343,0.742,0.856c0,0.229-0.171,0.742-0.285,0.971c-2.855,4.798-6.055,5.883-9.253,5.883
		c-5.025,0-8.281-4.969-7.024-12.165c1.313-7.539,7.082-12.108,11.766-12.108c3.598,0,5.825,2.228,5.312,5.141
		c-1.086,6.054-8.453,7.938-13.251,8.396C279.628,45.301,280.999,48.499,284.483,48.499z M290.137,31.479
		c0.343-1.999-0.514-3.427-2.17-3.427c-3.826,0-6.226,3.884-7.367,9.938C284.597,37.647,289.338,35.763,290.137,31.479z"/>
	<path fill="#F5EDD8" d="M326.001,14.688c-2.741,0-3.084,0.113-3.655,0.113c-0.399,0-0.8-0.342-0.686-0.971
		c0.114-0.628,0.629-1.027,1.028-1.027c0.571,0,0.914,0.114,3.655,0.114c0.914,0,2.228-0.229,2.741-0.229
		c0.4,0,0.8,0.399,0.686,0.971l-5.597,31.755c-0.457,2.398,0.628,2.57,1.142,2.57c1.828,0,3.256-2.685,4.056-6.968
		c0.057-0.628,0.514-1.085,1.085-1.085s0.8,0.457,0.686,1.085c-0.629,3.655-2.57,8.967-6.854,8.967c-1.999,0-3.827-1.199-3.77-3.77
		c-1.714,2.685-4.398,4.283-6.797,4.283c-4.912,0-7.539-4.911-6.282-12.165c1.256-7.253,5.654-12.108,10.565-12.108
		c2.342,0,4.398,1.428,5.255,3.998L326.001,14.688z M317.776,28.109c-2.97,0-4.969,2.685-6.339,10.224
		c-1.257,7.539-0.229,10.224,2.798,10.224c3.312,0,6.454-3.655,7.597-10.224C323.031,31.765,321.146,28.109,317.776,28.109z"/>
	<path fill="#F5EDD8" d="M340.505,47.985c1.828,0,3.312-2.685,4.056-6.968c0.114-0.628,0.514-1.085,1.085-1.085
		s0.8,0.457,0.742,1.085c-0.686,3.655-2.627,8.967-6.91,8.967c-2.171,0-4.17-1.485-3.599-4.626l2.855-16.449
		c-2.799,0-3.141,0.172-3.712,0.172c-0.4,0-0.8-0.4-0.629-1.028c0.058-0.628,0.571-0.971,0.972-0.971
		c0.57,0,0.913,0.057,3.655,0.057c0.913,0,2.284-0.229,2.798-0.229c0.4,0,0.743,0.4,0.629,1.028l-3.084,17.477
		C338.963,47.813,339.991,47.985,340.505,47.985z M342.847,15.659c1.257,0,2.057,0.914,1.828,2.17
		c-0.229,1.257-1.371,2.171-2.628,2.171c-1.256,0-1.999-0.914-1.827-2.171C340.448,16.573,341.59,15.659,342.847,15.659z"/>
	<path fill="#F5EDD8" d="M368.832,14.688c-2.741,0-3.084,0.113-3.655,0.113c-0.399,0-0.8-0.342-0.686-0.971
		c0.114-0.628,0.629-1.027,1.028-1.027c0.571,0,0.914,0.114,3.655,0.114c0.914,0,2.228-0.229,2.741-0.229
		c0.4,0,0.8,0.399,0.686,0.971l-5.597,31.755c-0.457,2.398,0.628,2.57,1.142,2.57c1.828,0,3.256-2.685,4.056-6.968
		c0.057-0.628,0.514-1.085,1.085-1.085s0.8,0.457,0.686,1.085c-0.629,3.655-2.57,8.967-6.854,8.967c-1.999,0-3.827-1.199-3.77-3.77
		c-1.714,2.685-4.398,4.283-6.797,4.283c-4.912,0-7.539-4.911-6.282-12.165c1.256-7.253,5.654-12.108,10.565-12.108
		c2.342,0,4.398,1.428,5.255,3.998L368.832,14.688z M360.607,28.109c-2.97,0-4.969,2.685-6.339,10.224
		c-1.257,7.539-0.229,10.224,2.798,10.224c3.312,0,6.454-3.655,7.597-10.224C365.862,31.765,363.978,28.109,360.607,28.109z"/>
	<path fill="#F5EDD8" d="M113.675,86.662c2.513,0,4.854-1.599,4.854-4.398c0-1.541-1.313-2.969-4.512-4.512
		c-3.142-1.599-4.912-3.655-4.912-6.853c0-5.026,4.569-6.797,7.368-6.797c3.77,0,5.883,2.228,5.883,4.341
		c0,1.599-1.086,2.569-2.228,2.569c-1.085,0-1.885-0.856-1.656-1.771c0.057-0.742,0.628-1.37,1.484-1.771
		c-0.285-0.799-1.656-1.656-3.712-1.656c-2.514,0-4.341,1.6-4.341,3.998c0,1.656,1.143,2.913,3.884,4.17
		c3.027,1.428,5.597,3.597,5.597,7.253c0,4.625-3.77,7.253-7.824,7.253c-4.74,0-7.367-3.312-7.367-5.769
		c0-2.17,1.37-2.969,2.627-2.969c1.085,0,1.713,0.912,1.713,1.713c0,1.199-1.142,2.113-2.056,2.227
		C109.334,85.577,111.391,86.662,113.675,86.662z"/>
	<path fill="#F5EDD8" d="M130.979,83.35c-0.4,2.398,0.628,2.57,1.142,2.57c1.828,0,3.312-2.685,4.056-6.968
		c0.114-0.629,0.514-1.084,1.085-1.084s0.8,0.455,0.742,1.084c-0.686,3.656-2.627,8.966-6.91,8.966
		c-2.228,0-4.227-1.484-3.655-4.625l2.855-16.45c-2.057,0-3.142,0.114-3.655,0.114c-0.4,0-0.8-0.343-0.629-0.971
		c0.058-0.628,0.571-0.971,0.972-0.971c0.457,0,1.484,0,3.655,0.057l1.085-5.997c0-0.171,0.171-0.285,0.343-0.285
		c0.514,0,0.686,0.229,1.37,0.229c0.743,0,1.143-0.229,1.485-0.229c0.229,0,0.399,0.114,0.343,0.285l-1.028,5.997h0.457
		c2.456-0.057,3.998-0.057,4.455-0.057c0.399,0,0.8,0.343,0.686,0.971s-0.629,0.971-1.028,0.971c-0.514,0-2.056-0.114-4.455-0.114
		h-0.457L130.979,83.35z"/>
	<path fill="#F5EDD8" d="M160.446,85.92c1.828,0,3.256-2.685,4.056-6.968c0.057-0.629,0.514-1.084,1.085-1.084
		s0.8,0.455,0.686,1.084c-0.629,3.656-2.57,8.966-6.854,8.966c-1.999,0-3.77-1.199-3.77-3.769c-1.714,2.685-4.398,4.283-6.797,4.283
		c-4.912,0-7.539-4.91-6.282-12.164c1.256-7.253,6.739-12.108,10.852-12.108c2.284,0,4.112,1.428,4.969,3.998l0.571-3.026
		c0-0.172,0.171-0.229,0.399-0.229c0.457,0,0.628,0.171,1.371,0.171c0.686,0,1.085-0.171,1.484-0.171
		c0.229,0,0.343,0.057,0.343,0.229l-3.255,18.219C158.848,85.692,159.933,85.92,160.446,85.92z M153.136,66.044
		c-2.17,0-5.197,2.685-6.567,10.224c-1.257,7.54-0.229,10.223,2.798,10.223c3.312,0,6.454-3.654,7.597-10.223
		C158.162,69.699,156.506,66.044,153.136,66.044z"/>
	<path fill="#F5EDD8" d="M173.809,87.348c-0.058,0.229-0.229,0.285-0.4,0.285c-0.457,0-0.685-0.172-1.37-0.172
		c-0.743,0-1.086,0.172-1.485,0.172c-0.229,0-0.343-0.057-0.343-0.285l3.655-20.504c-2.799,0-3.141,0.172-3.712,0.172
		c-0.4,0-0.8-0.4-0.629-1.028c0.058-0.628,0.571-0.971,0.972-0.971c0.57,0,0.913,0.057,3.655,0.057c0.913,0,2.284-0.229,2.798-0.229
		c0.4,0,0.743,0.4,0.629,1.028l-0.457,2.627c1.941-3.312,4.283-4.341,6.454-4.341c2.284,0,3.427,1.656,3.141,3.199
		c-0.229,1.484-1.313,2.627-2.627,2.627s-2.17-0.971-1.942-2.285c0.172-0.685,0.571-1.199,1.028-1.542
		c-0.229,0-0.457-0.114-0.971-0.114c-2.398,0-5.369,4.227-6.282,9.253L173.809,87.348z"/>
	<path fill="#F5EDD8" d="M191.397,83.35c-0.4,2.398,0.628,2.57,1.142,2.57c1.828,0,3.312-2.685,4.056-6.968
		c0.114-0.629,0.514-1.084,1.085-1.084s0.8,0.455,0.742,1.084c-0.686,3.656-2.627,8.966-6.91,8.966
		c-2.228,0-4.227-1.484-3.655-4.625l2.855-16.45c-2.057,0-3.142,0.114-3.655,0.114c-0.4,0-0.8-0.343-0.629-0.971
		c0.058-0.628,0.571-0.971,0.972-0.971c0.457,0,1.484,0,3.655,0.057l1.085-5.997c0-0.171,0.171-0.285,0.343-0.285
		c0.514,0,0.686,0.229,1.37,0.229c0.743,0,1.143-0.229,1.485-0.229c0.229,0,0.399,0.114,0.343,0.285l-1.028,5.997h0.457
		c2.456-0.057,3.998-0.057,4.455-0.057c0.399,0,0.8,0.343,0.686,0.971s-0.629,0.971-1.028,0.971c-0.514,0-2.056-0.114-4.455-0.114
		h-0.457L191.397,83.35z"/>
	<path fill="#F5EDD8" d="M234.001,87.918c-3.884,0-5.312-3.14-5.026-7.482c-1.313,3.656-4.283,7.482-7.824,7.482
		c-3.427,0-4.684-3.597-3.826-8.453l1.941-10.737c0.399-2.398-0.628-2.57-1.143-2.57c-1.827,0-3.312,2.685-4.055,6.968
		c-0.114,0.629-0.514,1.086-1.085,1.086s-0.857-0.457-0.743-1.086c0.686-3.655,2.628-8.967,6.911-8.967
		c2.17,0,4.169,1.485,3.599,4.627l-2.171,12.564c-0.571,3.084,0.058,4.455,1.542,4.455c3.142,0,7.196-7.367,9.139-18.276
		l0.514-2.799c0.058-0.229,0.172-0.285,0.343-0.285c0.514,0,0.742,0.171,1.428,0.171c0.742,0,1.085-0.171,1.428-0.171
		c0.286,0,0.4,0.057,0.343,0.285l-2.398,13.936c-1.085,6.111-0.172,7.139,1.771,7.139c5.14,0,9.138-11.365,9.138-17.248
		c0-0.286,0-0.515-0.114-0.743c-0.343,0.343-1.027,0.686-1.656,0.686c-1.199,0-1.885-0.686-1.885-1.771
		c0-1.256,1.085-2.57,2.628-2.57c2.284,0,2.798,2.856,2.798,4.398C245.595,75.068,241.197,87.918,234.001,87.918z"/>
	<path fill="#F5EDD8" d="M254.559,85.92c1.828,0,3.312-2.685,4.056-6.968c0.114-0.629,0.514-1.084,1.085-1.084
		s0.8,0.455,0.742,1.084c-0.686,3.656-2.627,8.966-6.911,8.966c-2.17,0-4.169-1.484-3.598-4.625l2.855-16.45
		c-2.799,0-3.141,0.172-3.712,0.172c-0.4,0-0.8-0.4-0.629-1.028c0.058-0.628,0.571-0.971,0.972-0.971
		c0.57,0,0.913,0.057,3.655,0.057c0.913,0,2.284-0.229,2.798-0.229c0.4,0,0.743,0.4,0.629,1.028l-3.084,17.477
		C253.017,85.749,254.045,85.92,254.559,85.92z M256.9,53.594c1.257,0,2.057,0.914,1.828,2.17c-0.229,1.257-1.371,2.171-2.628,2.171
		c-1.256,0-1.999-0.914-1.827-2.171C254.502,54.508,255.644,53.594,256.9,53.594z"/>
	<path fill="#F5EDD8" d="M268.436,83.35c-0.4,2.398,0.628,2.57,1.142,2.57c1.828,0,3.312-2.685,4.056-6.968
		c0.114-0.629,0.514-1.084,1.085-1.084s0.8,0.455,0.742,1.084c-0.686,3.656-2.627,8.966-6.91,8.966
		c-2.228,0-4.227-1.484-3.655-4.625l2.855-16.45c-2.057,0-3.142,0.114-3.655,0.114c-0.4,0-0.8-0.343-0.629-0.971
		c0.058-0.628,0.571-0.971,0.972-0.971c0.457,0,1.484,0,3.655,0.057l1.085-5.997c0-0.171,0.171-0.285,0.343-0.285
		c0.514,0,0.686,0.229,1.37,0.229c0.743,0,1.143-0.229,1.485-0.229c0.229,0,0.399,0.114,0.343,0.285l-1.028,5.997h0.457
		c2.456-0.057,3.998-0.057,4.455-0.057c0.399,0,0.8,0.343,0.686,0.971s-0.629,0.971-1.028,0.971c-0.514,0-2.056-0.114-4.455-0.114
		h-0.457L268.436,83.35z"/>
	<path fill="#F5EDD8" d="M294.135,64.159c4.455,0,5.598,3.599,4.741,8.453l-1.885,10.738c-0.4,2.398,0.628,2.57,1.142,2.57
		c1.828,0,3.312-2.685,4.056-6.968c0.114-0.629,0.514-1.084,1.085-1.084s0.8,0.455,0.742,1.084c-0.686,3.656-2.627,8.966-6.91,8.966
		c-2.228,0-4.227-1.484-3.655-4.625l2.17-12.394c0.571-3.085-0.058-4.341-2.228-4.341c-3.427,0-7.882,5.197-8.853,10.794
		l-1.771,9.995c-0.058,0.229-0.171,0.285-0.399,0.285c-0.457,0-0.629-0.172-1.371-0.172c-0.686,0-1.085,0.172-1.485,0.172
		c-0.229,0-0.343-0.057-0.343-0.285l6.169-34.725c-2.741,0-3.084,0.114-3.655,0.114c-0.457,0-0.8-0.343-0.743-0.972
		c0.172-0.628,0.629-1.027,1.086-1.027c0.571,0,0.856,0.114,3.655,0.114c0.913,0,2.17-0.229,2.684-0.229
		c0.457,0,0.8,0.399,0.743,0.971l-3.37,19.019C287.281,67.586,290.766,64.159,294.135,64.159z"/>
	<path fill="#F5EDD8" d="M113.675,124.596c2.513,0,4.854-1.598,4.854-4.396c0-1.543-1.313-2.971-4.512-4.512
		c-3.142-1.6-4.912-3.656-4.912-6.854c0-5.027,4.569-6.797,7.368-6.797c3.77,0,5.883,2.227,5.883,4.34c0,1.6-1.086,2.57-2.228,2.57
		c-1.085,0-1.885-0.857-1.656-1.771c0.057-0.742,0.628-1.369,1.484-1.77c-0.285-0.799-1.656-1.656-3.712-1.656
		c-2.514,0-4.341,1.6-4.341,3.998c0,1.656,1.143,2.912,3.884,4.17c3.027,1.428,5.597,3.598,5.597,7.252
		c0,4.627-3.77,7.254-7.824,7.254c-4.74,0-7.367-3.312-7.367-5.768c0-2.172,1.37-2.971,2.627-2.971c1.085,0,1.713,0.914,1.713,1.713
		c0,1.199-1.142,2.113-2.056,2.229C109.334,123.512,111.391,124.596,113.675,124.596z"/>
	<path fill="#F5EDD8" d="M134.233,126.367c-5.197,0-8.624-4.912-7.367-12.166c1.256-7.252,6.453-12.107,11.651-12.107
		c5.197,0,8.624,4.855,7.367,12.107C144.628,121.455,139.431,126.367,134.233,126.367z M138.231,103.922
		c-3.826,0-5.997,2.74-7.367,10.279c-1.314,7.596-0.114,10.281,3.712,10.281c3.77,0,5.939-2.686,7.254-10.281
		C143.144,106.662,142.001,103.922,138.231,103.922z"/>
	<path fill="#F5EDD8" d="M154.734,114.201c-1.257,7.539,0.514,10.166,3.941,10.166c2.341,0,4.283-1.541,5.996-4.74
		c0.229-0.457,0.571-0.971,1.086-0.971c0.57,0,0.742,0.457,0.742,0.801c0,0.285-0.229,0.912-0.457,1.256
		c-2.855,4.568-5.426,5.654-8.396,5.654c-5.426,0-8.167-4.912-6.968-12.166c1.313-7.252,5.825-12.107,11.251-12.107
		c3.541,0,6.739,2.57,6.111,6.225c-0.285,1.6-1.428,2.686-2.741,2.686c-1.257,0-2.171-1.029-1.885-2.342
		c0.171-1.143,1.37-2.285,2.513-2.285c-0.285-1.713-1.999-2.455-3.712-2.455C158.504,103.922,156.105,106.662,154.734,114.201z"/>
	<path fill="#F5EDD8" d="M176.664,123.854c1.828,0,3.312-2.684,4.056-6.967c0.114-0.629,0.514-1.086,1.085-1.086
		s0.8,0.457,0.742,1.086c-0.686,3.654-2.627,8.967-6.911,8.967c-2.17,0-4.169-1.486-3.598-4.627l2.855-16.449
		c-2.799,0-3.141,0.172-3.712,0.172c-0.4,0-0.8-0.4-0.629-1.027c0.058-0.629,0.571-0.971,0.972-0.971
		c0.57,0,0.913,0.057,3.655,0.057c0.913,0,2.284-0.229,2.798-0.229c0.4,0,0.743,0.4,0.629,1.027l-3.084,17.477
		C175.122,123.682,176.15,123.854,176.664,123.854z M179.006,91.527c1.257,0,2.057,0.914,1.828,2.17
		c-0.229,1.258-1.371,2.172-2.628,2.172c-1.256,0-1.999-0.914-1.827-2.172C176.607,92.441,177.749,91.527,179.006,91.527z"/>
	<path fill="#F5EDD8" d="M204.306,123.854c1.828,0,3.256-2.684,4.056-6.967c0.057-0.629,0.514-1.086,1.085-1.086
		s0.8,0.457,0.686,1.086c-0.629,3.654-2.57,8.967-6.854,8.967c-1.999,0-3.77-1.199-3.77-3.77c-1.714,2.684-4.398,4.283-6.797,4.283
		c-4.912,0-7.539-4.912-6.282-12.166c1.256-7.252,6.739-12.107,10.852-12.107c2.284,0,4.112,1.428,4.969,3.998l0.571-3.027
		c0-0.172,0.171-0.229,0.399-0.229c0.457,0,0.628,0.172,1.371,0.172c0.686,0,1.085-0.172,1.484-0.172
		c0.229,0,0.343,0.057,0.343,0.229l-3.255,18.219C202.707,123.625,203.792,123.854,204.306,123.854z M196.995,103.979
		c-2.17,0-5.197,2.684-6.567,10.223c-1.257,7.539-0.229,10.225,2.798,10.225c3.312,0,6.454-3.656,7.597-10.225
		C202.021,107.633,200.365,103.979,196.995,103.979z"/>
	<path fill="#F5EDD8" d="M218.581,123.854c1.828,0,3.313-2.684,4.056-6.967c0.114-0.629,0.514-1.086,1.085-1.086
		s0.856,0.457,0.742,1.086c-0.685,3.654-2.627,8.967-6.91,8.967c-2.171,0-4.17-1.486-3.599-4.627l5.369-30.67
		c-2.741,0-3.084,0.113-3.655,0.113c-0.457,0-0.8-0.342-0.686-0.971c0.114-0.627,0.571-1.027,1.028-1.027
		c0.571,0,0.856,0.115,3.655,0.115c0.913,0,2.228-0.229,2.741-0.229c0.457,0,0.742,0.398,0.686,0.971l-5.654,31.754
		C217.039,123.682,218.067,123.854,218.581,123.854z"/>
	<path fill="#F5EDD8" d="M252.961,102.094c3.712,0,5.025,2.684,4.683,6.625c1.6-3.199,4.97-6.625,8.11-6.625
		c4.284,0,5.255,3.598,4.398,8.453l-1.885,10.736c-0.457,2.398,0.628,2.57,1.142,2.57c1.771,0,3.256-2.684,4.056-6.967
		c0.057-0.629,0.514-1.086,1.085-1.086s0.8,0.457,0.686,1.086c-0.629,3.654-2.628,8.967-6.911,8.967
		c-2.17,0-4.169-1.486-3.599-4.627l2.171-12.564c0.571-3.143,0-4.342-1.999-4.342c-3.142,0-7.368,5.197-8.396,10.967l-1.771,9.994
		c0,0.229-0.172,0.285-0.4,0.285c-0.457,0-0.628-0.17-1.37-0.17c-0.686,0-1.085,0.17-1.485,0.17c-0.229,0-0.285-0.057-0.285-0.285
		l2.912-16.619c0.571-3.143,0-4.342-1.999-4.342c-3.141,0-7.311,5.197-8.338,10.967l-1.771,9.994c0,0.229-0.229,0.285-0.4,0.285
		c-0.457,0-0.685-0.17-1.37-0.17c-0.743,0-1.085,0.17-1.485,0.17c-0.229,0-0.343-0.057-0.343-0.285l3.655-20.504
		c-2.799,0-3.141,0.172-3.712,0.172c-0.4,0-0.8-0.4-0.629-1.027c0.058-0.629,0.571-0.971,0.972-0.971
		c0.57,0,0.913,0.057,3.655,0.057c0.913,0,2.284-0.229,2.798-0.229c0.4,0,0.743,0.4,0.629,1.027l-0.857,4.74
		C246.45,105.52,249.819,102.094,252.961,102.094z"/>
	<path fill="#F5EDD8" d="M287.111,124.367c2.684,0,5.083-1.428,6.682-4.74c0.229-0.457,0.629-0.971,1.143-0.971
		c0.457,0,0.742,0.344,0.742,0.857c0,0.229-0.171,0.742-0.285,0.971c-2.855,4.797-6.055,5.883-9.253,5.883
		c-5.025,0-8.281-4.969-7.024-12.166c1.313-7.539,7.082-12.107,11.765-12.107c3.599,0,5.826,2.227,5.312,5.141
		c-1.086,6.053-8.453,7.938-13.251,8.395C282.256,121.17,283.627,124.367,287.111,124.367z M292.765,107.348
		c0.343-1.998-0.514-3.426-2.17-3.426c-3.826,0-6.226,3.883-7.367,9.938C287.226,113.516,291.966,111.631,292.765,107.348z"/>
	<path fill="#F5EDD8" d="M318.635,90.557c-2.741,0-3.084,0.113-3.655,0.113c-0.399,0-0.8-0.342-0.686-0.971
		c0.114-0.627,0.629-1.027,1.028-1.027c0.571,0,0.914,0.115,3.655,0.115c0.914,0,2.228-0.229,2.741-0.229
		c0.4,0,0.8,0.398,0.686,0.971l-5.597,31.754c-0.457,2.398,0.628,2.57,1.142,2.57c1.828,0,3.256-2.684,4.056-6.967
		c0.057-0.629,0.514-1.086,1.085-1.086s0.8,0.457,0.686,1.086c-0.629,3.654-2.57,8.967-6.854,8.967c-1.999,0-3.827-1.199-3.77-3.77
		c-1.714,2.684-4.398,4.283-6.797,4.283c-4.912,0-7.539-4.912-6.282-12.166c1.256-7.252,5.654-12.107,10.565-12.107
		c2.342,0,4.398,1.428,5.255,3.998L318.635,90.557z M310.41,103.979c-2.97,0-4.969,2.684-6.339,10.223
		c-1.257,7.539-0.229,10.225,2.798,10.225c3.312,0,6.454-3.656,7.597-10.225C315.665,107.633,313.78,103.979,310.41,103.979z"/>
	<path fill="#F5EDD8" d="M333.139,123.854c1.828,0,3.312-2.684,4.056-6.967c0.114-0.629,0.514-1.086,1.085-1.086
		s0.8,0.457,0.742,1.086c-0.686,3.654-2.627,8.967-6.911,8.967c-2.17,0-4.169-1.486-3.598-4.627l2.855-16.449
		c-2.799,0-3.141,0.172-3.712,0.172c-0.4,0-0.8-0.4-0.629-1.027c0.058-0.629,0.571-0.971,0.972-0.971
		c0.57,0,0.913,0.057,3.655,0.057c0.913,0,2.284-0.229,2.798-0.229c0.4,0,0.743,0.4,0.629,1.027l-3.084,17.477
		C331.597,123.682,332.625,123.854,333.139,123.854z M335.48,91.527c1.257,0,2.057,0.914,1.828,2.17
		c-0.229,1.258-1.371,2.172-2.628,2.172c-1.256,0-1.999-0.914-1.827-2.172C333.082,92.441,334.224,91.527,335.48,91.527z"/>
	<path fill="#F5EDD8" d="M360.78,123.854c1.828,0,3.256-2.684,4.056-6.967c0.057-0.629,0.514-1.086,1.085-1.086
		s0.8,0.457,0.686,1.086c-0.629,3.654-2.57,8.967-6.854,8.967c-1.999,0-3.77-1.199-3.77-3.77c-1.714,2.684-4.398,4.283-6.797,4.283
		c-4.912,0-7.539-4.912-6.282-12.166c1.256-7.252,6.739-12.107,10.852-12.107c2.284,0,4.112,1.428,4.969,3.998l0.571-3.027
		c0-0.172,0.171-0.229,0.399-0.229c0.457,0,0.628,0.172,1.371,0.172c0.686,0,1.085-0.172,1.484-0.172
		c0.229,0,0.343,0.057,0.343,0.229l-3.255,18.219C359.182,123.625,360.267,123.854,360.78,123.854z M353.47,103.979
		c-2.17,0-5.197,2.684-6.567,10.223c-1.257,7.539-0.229,10.225,2.798,10.225c3.312,0,6.454-3.656,7.597-10.225
		C358.496,107.633,356.84,103.979,353.47,103.979z"/>
</g>
<g>
	<g>
		<path fill="#FFD15C" d="M80.99,153.387H14.5c-6.601,0-12-5.4-12-12V14.5c0-6.6,5.399-12,12-12h66.49c6.6,0,12,5.4,12,12v126.887
			C92.99,147.986,87.59,153.387,80.99,153.387z"/>
		<path fill="#1D1E1C" d="M80.99,155.887H14.5c-7.995,0-14.5-6.505-14.5-14.5V14.5C0,6.505,6.505,0,14.5,0h66.49
			c7.995,0,14.5,6.505,14.5,14.5v126.887C95.49,149.382,88.985,155.887,80.99,155.887z M14.5,5C9.262,5,5,9.262,5,14.5v126.887
			c0,5.238,4.262,9.5,9.5,9.5h66.49c5.238,0,9.5-4.262,9.5-9.5V14.5c0-5.238-4.262-9.5-9.5-9.5H14.5z"/>
	</g>
	<g>
		<path fill="#1D1E1C" d="M70.73,123.517H24.632c-6.6,0-12-5.399-12-12V25.062c0-6.6,5.4-12,12-12H70.73c6.601,0,12,5.4,12,12
			v86.454C82.73,118.117,77.331,123.517,70.73,123.517z"/>
	</g>
	<g>
		<path fill="#1D1E1C" d="M48.316,148.213c-5.662,0-10.268-4.606-10.268-10.268s4.606-10.268,10.268-10.268
			c5.663,0,10.27,4.606,10.27,10.268S53.979,148.213,48.316,148.213z M48.316,132.678c-2.905,0-5.268,2.363-5.268,5.268
			s2.363,5.268,5.268,5.268c2.906,0,5.27-2.363,5.27-5.268S51.222,132.678,48.316,132.678z"/>
	</g>
	<g>
		<path fill="none" stroke="#1D1E1C" stroke-width="5" stroke-miterlimit="10" d="M-11.266,169.416"/>
	</g>
	<g>
		<polyline fill="#FFFFFF" points="12.632,28.451 12.632,61.229 82.73,110.663 82.73,96.692 		"/>
	</g>
</g>
<g>
	<g>
		<path fill="#FFD15C" d="M80.99,153.387H14.5c-6.601,0-12-5.4-12-12V14.5c0-6.6,5.399-12,12-12h66.49c6.6,0,12,5.4,12,12v126.887
			C92.99,147.986,87.59,153.387,80.99,153.387z"/>
		<path fill="#1D1E1C" d="M80.99,155.887H14.5c-7.995,0-14.5-6.505-14.5-14.5V14.5C0,6.505,6.505,0,14.5,0h66.49
			c7.995,0,14.5,6.505,14.5,14.5v126.887C95.49,149.382,88.985,155.887,80.99,155.887z M14.5,5C9.262,5,5,9.262,5,14.5v126.887
			c0,5.238,4.262,9.5,9.5,9.5h66.49c5.238,0,9.5-4.262,9.5-9.5V14.5c0-5.238-4.262-9.5-9.5-9.5H14.5z"/>
	</g>
	<g>
		<path fill="#1D1E1C" d="M70.73,123.517H24.632c-6.6,0-12-5.399-12-12V25.062c0-6.6,5.4-12,12-12H70.73c6.601,0,12,5.4,12,12
			v86.454C82.73,118.117,77.331,123.517,70.73,123.517z"/>
	</g>
	<g>
		<path fill="#1D1E1C" d="M48.316,148.213c-5.662,0-10.268-4.606-10.268-10.268s4.606-10.268,10.268-10.268
			c5.663,0,10.27,4.606,10.27,10.268S53.979,148.213,48.316,148.213z M48.316,132.678c-2.905,0-5.268,2.363-5.268,5.268
			s2.363,5.268,5.268,5.268c2.906,0,5.27-2.363,5.27-5.268S51.222,132.678,48.316,132.678z"/>
	</g>
	<g>
		<path fill="none" stroke="#1D1E1C" stroke-width="5" stroke-miterlimit="10" d="M-11.266,169.416"/>
	</g>
	<g>
		<polyline fill="#FFFFFF" points="12.632,28.451 12.632,61.229 82.73,110.663 82.73,96.692 		"/>
	</g>
</g>
</svg>
