<?xml version="1.0" encoding="utf-8"?>
<!-- Generator: Adobe Illustrator 16.0.0, SVG Export Plug-In . SVG Version: 6.00 Build 0)  -->
<!DOCTYPE svg PUBLIC "-//W3C//DTD SVG 1.1//EN" "http://www.w3.org/Graphics/SVG/1.1/DTD/svg11.dtd">
<svg version="1.1" id="Layer_1" xmlns="http://www.w3.org/2000/svg" xmlns:xlink="http://www.w3.org/1999/xlink" x="0px" y="0px"
	 width="400.652px" height="349.445px" viewBox="0 0 400.652 349.445" enable-background="new 0 0 400.652 349.445"
	 xml:space="preserve">
<g>
	<g>
		<path fill="#1D1E1C" d="M6.357,266.531c1.215-0.541,1.936-0.874,2.665-1.186c66.551-28.381,133.104-56.756,199.64-85.169
			c1.467-0.626,2.689-0.611,4.158-0.054c61.158,23.226,122.33,46.415,183.5,69.609c0.545,0.207,1.287,0.28,1.574,0.678
			c0.293,0.406,0.354,1.26,0.111,1.688c-0.238,0.419-0.984,0.551-1.51,0.803c-64.896,31.156-129.795,62.309-194.676,93.499
			c-1.447,0.696-2.606,0.722-4.09,0.103c-62.988-26.318-125.994-52.594-188.996-78.877C8.074,267.349,7.434,267.028,6.357,266.531z"
			/>
	</g>
	<g>
		<path fill="#1D1E1C" d="M6.357,179.696c1.215-0.542,1.936-0.875,2.665-1.187c66.551-28.38,133.104-56.756,199.64-85.168
			c1.467-0.625,2.689-0.612,4.158-0.054c61.158,23.225,122.33,46.415,183.5,69.61c0.545,0.207,1.287,0.279,1.574,0.677
			c0.293,0.406,0.354,1.26,0.111,1.688c-0.238,0.418-0.984,0.55-1.51,0.803c-64.896,31.156-129.795,62.308-194.676,93.498
			c-1.447,0.696-2.606,0.723-4.09,0.103c-62.988-26.318-125.994-52.594-188.996-78.877C8.074,180.513,7.434,180.192,6.357,179.696z"
			/>
	</g>
	<g>
		<path fill="#41B189" d="M6.307,179.726c1.634-0.677,2.694-1.125,3.762-1.558c23.727-9.604,47.461-19.19,71.169-28.842
			c1.682-0.685,3.062-0.716,4.761-0.005c37.401,15.658,74.832,31.247,112.234,46.902c1.695,0.71,3.02,0.688,4.694-0.118
			c39.354-18.965,78.742-37.859,118.1-56.815c1.572-0.757,2.9-0.842,4.549-0.278c23.525,8.056,47.074,16.048,70.615,24.056
			c0.553,0.188,1.33,0.222,1.596,0.608c0.289,0.418,0.352,1.497,0.074,1.706c-0.857,0.646-1.924,1.017-2.908,1.49
			c-64.232,30.84-128.469,61.674-192.682,92.553c-1.713,0.823-3.1,0.93-4.903,0.176c-62.771-26.258-125.566-52.454-188.356-78.662
			C8.288,180.637,7.58,180.298,6.307,179.726z"/>
		<path fill="#1D1E1C" d="M199.642,262.609c-1.05,0-2.11-0.229-3.239-0.701c-52.474-21.951-105.844-44.225-157.457-65.766
			L8.048,183.246c-0.486-0.202-0.965-0.421-1.598-0.709L0,179.632l6.896-2.858c0.846-0.353,1.538-0.641,2.233-0.923l14.853-6.01
			c18.776-7.596,37.553-15.193,56.312-22.831c2.357-0.96,4.379-0.954,6.669,0.004c19.087,7.991,38.183,15.964,57.277,23.937
			c18.321,7.649,36.643,15.3,54.957,22.966c0.517,0.216,0.925,0.316,1.285,0.316c0.244,0,0.649-0.039,1.358-0.381
			c21.017-10.128,42.043-20.236,63.069-30.344c18.346-8.819,36.691-17.639,55.03-26.471c2.187-1.051,4.154-1.174,6.443-0.391
			c18.742,6.417,37.499,12.795,56.255,19.172l14.355,4.882c0.091,0.03,0.194,0.049,0.296,0.072c0.68,0.155,1.816,0.413,2.555,1.486
			c0.88,1.272,1.133,3.904-0.481,5.12c-0.853,0.643-1.771,1.048-2.58,1.406c-0.251,0.111-0.503,0.222-0.749,0.34l-24.56,11.791
			c-56.046,26.909-112.093,53.818-168.122,80.762C202.032,262.314,200.852,262.609,199.642,262.609z M12.737,179.786l28.134,11.742
			c51.614,21.541,104.985,43.815,157.46,65.767c1.106,0.463,1.683,0.441,2.855-0.122c56.029-26.944,112.077-53.854,168.124-80.763
			l24.191-11.615l-12.473-4.241c-18.76-6.378-37.52-12.757-56.265-19.176c-1.04-0.355-1.642-0.323-2.654,0.165
			c-18.34,8.833-36.687,17.653-55.033,26.473c-21.025,10.107-42.051,20.215-63.066,30.342c-2.32,1.118-4.348,1.177-6.745,0.172
			c-18.312-7.665-36.632-15.313-54.952-22.963c-19.097-7.974-38.193-15.947-57.282-23.938c-1.077-0.451-1.72-0.446-2.852,0.014
			c-18.764,7.639-37.544,15.237-56.323,22.835L12.737,179.786z"/>
	</g>
	<g>
		<path fill="#41B189" d="M6.361,266.497c1.654-0.704,2.833-1.227,4.027-1.71c22.302-9.037,44.61-18.057,66.896-27.135
			c1.418-0.578,2.57-0.49,3.937,0.081c38.748,16.208,77.518,32.364,116.249,48.61c2.204,0.925,3.927,0.939,6.107-0.112
			c40.586-19.587,81.219-39.079,121.818-58.639c1.637-0.788,3.008-0.87,4.738-0.276c22.07,7.573,44.168,15.064,66.258,22.576
			c0.482,0.164,1.209,0.207,1.387,0.539c0.254,0.481,0.326,1.294,0.076,1.743c-0.232,0.416-0.988,0.542-1.514,0.794
			c-64.818,31.119-129.637,62.234-194.443,93.38c-1.408,0.677-2.565,0.828-4.087,0.191c-63.034-26.36-126.091-52.671-189.143-78.991
			C8.066,267.298,7.482,267.009,6.361,266.497z"/>
		<path fill="#1D1E1C" d="M199.642,349.445c-0.919,0-1.834-0.196-2.797-0.599C144.33,326.884,91.8,304.958,39.27,283.032
			L7.704,269.855c-0.409-0.17-0.814-0.357-1.365-0.614l-6.168-2.826l6.722-2.866c0.944-0.405,1.747-0.751,2.558-1.079l15.413-6.243
			c17.164-6.951,34.328-13.903,51.478-20.89c1.962-0.801,3.757-0.784,5.844,0.09c14.131,5.911,28.264,11.814,42.397,17.718
			c24.624,10.286,49.247,20.572,73.854,30.894c1.634,0.686,2.535,0.676,4.054-0.059c23.727-11.45,47.471-22.869,71.214-34.288
			c16.87-8.113,33.74-16.226,50.605-24.351c2.248-1.084,4.259-1.206,6.635-0.389c17.616,6.044,35.546,12.138,52.886,18.03
			l13.365,4.543c0.068,0.021,0.151,0.038,0.233,0.057c0.661,0.152,1.892,0.436,2.553,1.67c0.557,1.056,0.807,2.791,0.057,4.139
			c-0.621,1.11-1.691,1.495-2.332,1.725c-0.099,0.035-0.198,0.066-0.285,0.107l-18.897,9.072
			c-58.519,28.095-117.036,56.188-175.544,84.307C201.783,349.176,200.722,349.445,199.642,349.445z M12.73,266.536l28.465,11.882
			c52.531,21.927,105.062,43.854,157.578,65.815c0.341,0.143,0.625,0.212,0.868,0.212c0.207,0,0.526-0.04,1.172-0.35
			c58.509-28.119,117.027-56.213,175.547-84.308l17.15-8.234l-11.289-3.837c-17.344-5.894-35.277-11.988-52.9-18.036
			c-1.12-0.382-1.763-0.355-2.842,0.165c-16.865,8.125-33.737,16.238-50.608,24.353c-23.741,11.417-47.483,22.835-71.208,34.285
			c-2.81,1.356-5.184,1.415-8.161,0.166c-24.605-10.321-49.227-20.606-73.848-30.891c-14.134-5.904-28.268-11.809-42.399-17.719
			c-0.854-0.358-1.281-0.38-2.028-0.072c-17.154,6.987-34.321,13.94-51.488,20.893L12.73,266.536z"/>
	</g>
	<g>
		<path fill="#41B189" d="M6.357,89.332c1.215-0.542,1.936-0.875,2.665-1.186c66.551-28.381,133.104-56.757,199.64-85.169
			c1.467-0.625,2.689-0.612,4.158-0.054c61.158,23.225,122.33,46.415,183.5,69.61c0.545,0.207,1.287,0.279,1.574,0.677
			c0.293,0.406,0.354,1.26,0.111,1.688c-0.238,0.418-0.984,0.55-1.51,0.803c-64.896,31.156-129.795,62.308-194.676,93.498
			c-1.447,0.696-2.606,0.723-4.09,0.103C134.742,142.983,71.736,116.708,8.734,90.424C8.074,90.149,7.434,89.828,6.357,89.332z"/>
		<path fill="#1D1E1C" d="M199.693,172.245c-0.943,0-1.9-0.208-2.926-0.637c-53.074-22.176-106.16-44.321-159.246-66.466
			L7.772,92.731c-0.457-0.19-0.906-0.401-1.477-0.669l-5.991-2.768l6.1-2.724c0.644-0.29,1.139-0.512,1.639-0.725l26.333-11.229
			C92.148,49.979,149.921,25.342,207.681,0.677c2.041-0.871,3.892-0.903,6.027-0.091c52.599,19.974,105.207,39.922,157.815,59.871
			l25.684,9.739c0.092,0.035,0.194,0.059,0.297,0.087c0.637,0.177,1.702,0.472,2.418,1.464c0.86,1.192,0.976,3.117,0.26,4.382
			c-0.624,1.095-1.683,1.483-2.315,1.715c-0.1,0.036-0.199,0.068-0.287,0.11l-21.511,10.327
			c-57.727,27.713-115.452,55.427-173.165,83.171C201.795,171.985,200.745,172.245,199.693,172.245z M12.612,89.333l26.833,11.194
			c53.087,22.146,106.174,44.292,159.249,66.468c0.409,0.171,0.726,0.25,0.999,0.25c0.182,0,0.487-0.031,1.044-0.299
			c57.714-27.745,115.44-55.458,173.168-83.172l19.862-9.536l-24.016-9.106C317.142,45.183,264.533,25.235,211.933,5.26
			c-0.921-0.349-1.431-0.35-2.29,0.017C151.884,29.941,94.111,54.578,36.337,79.215L12.612,89.333z"/>
	</g>
</g>
</svg>
