<?xml version="1.0" encoding="utf-8"?>
<!-- Generator: Adobe Illustrator 16.0.0, SVG Export Plug-In . SVG Version: 6.00 Build 0)  -->
<!DOCTYPE svg PUBLIC "-//W3C//DTD SVG 1.1//EN" "http://www.w3.org/Graphics/SVG/1.1/DTD/svg11.dtd">
<svg version="1.1" id="Layer_1" xmlns="http://www.w3.org/2000/svg" xmlns:xlink="http://www.w3.org/1999/xlink" x="0px" y="0px"
	 width="187.525px" height="214.466px" viewBox="0 0 187.525 214.466" enable-background="new 0 0 187.525 214.466"
	 xml:space="preserve">
<path fill="#1D1E1C" d="M0,214.466V95.568h21.708v7.895c0,0,30.588-25.655,39.961-58.216c0,0,3.454-20.228,0-38.975
	c0,0,60.188-37.988,44.896,73.016l66.602-0.493c0,0,13.814,3.946,14.307,17.761c0.494,13.813-2.467,21.214-10.359,27.134
	c0,0,11.84,8.881-3.453,27.135c0,0,7.399,17.268-10.854,25.16c0,0,19.734,17.268-16.774,31.082l-99.163,1.479
	c0,0-14.801-7.399-16.281-8.387s-1.48,14.308-1.48,14.308H0z"/>
</svg>
