<?xml version="1.0" encoding="utf-8"?>
<!-- Generator: Adobe Illustrator 16.0.0, SVG Export Plug-In . SVG Version: 6.00 Build 0)  -->
<!DOCTYPE svg PUBLIC "-//W3C//DTD SVG 1.1//EN" "http://www.w3.org/Graphics/SVG/1.1/DTD/svg11.dtd">
<svg version="1.1" id="Layer_1" xmlns="http://www.w3.org/2000/svg" xmlns:xlink="http://www.w3.org/1999/xlink" x="0px" y="0px"
	 width="155.804px" height="108.283px" viewBox="0 0 155.804 108.283" enable-background="new 0 0 155.804 108.283"
	 xml:space="preserve">
<g>
	<g>
		<path fill="#42B18A" d="M155.804,98.283c0,5.5-4.5,10-10,10H23.294c-5.5,0-10-4.5-10-10V23.294c0-5.5,4.5-10,10-10h122.51
			c5.5,0,10,4.5,10,10V98.283z"/>
	</g>
	<g>
		<path fill="#E86156" d="M142.51,84.989c0,5.5-4.5,10-10,10H10c-5.5,0-10-4.5-10-10V10C0,4.5,4.5,0,10,0h122.51c5.5,0,10,4.5,10,10
			V84.989z"/>
	</g>
	<path fill="#FFD15D" d="M111.942,72.553H17.309c-2.443,0-4.443-1.999-4.443-4.443l0,0c0-2.443,2-4.442,4.443-4.442h94.633
		c2.443,0,4.442,1.999,4.442,4.442l0,0C116.384,70.554,114.385,72.553,111.942,72.553z"/>
	<path fill="#FFD15D" d="M107.499,68.109V29.552c0-2.444,2-4.443,4.443-4.443l0,0c2.443,0,4.442,1.999,4.442,4.443v38.557
		c0,2.444-1.999,4.443-4.442,4.443l0,0C109.499,72.553,107.499,70.554,107.499,68.109z"/>
	<g>
		<path fill="#FFD15D" d="M91.28,35.704l17.133-17.91c1.688-1.766,4.516-1.829,6.281-0.14l0,0c1.766,1.689,1.828,4.516,0.139,6.281
			L97.7,41.846c-1.688,1.766-4.516,1.829-6.28,0.14l0,0C89.653,40.296,89.59,37.47,91.28,35.704z"/>
		<path fill="#FFD15D" d="M132.28,35.704l-17.133-17.91c-1.689-1.766-4.516-1.829-6.281-0.14l0,0
			c-1.766,1.689-1.828,4.516-0.14,6.281l17.132,17.91c1.689,1.766,4.516,1.829,6.281,0.14l0,0
			C133.905,40.296,133.968,37.47,132.28,35.704z"/>
	</g>
</g>
</svg>
