<?xml version="1.0" encoding="utf-8"?>
<!-- Generator: Adobe Illustrator 16.0.0, SVG Export Plug-In . SVG Version: 6.00 Build 0)  -->
<!DOCTYPE svg PUBLIC "-//W3C//DTD SVG 1.1//EN" "http://www.w3.org/Graphics/SVG/1.1/DTD/svg11.dtd">
<svg version="1.1" id="Layer_1" xmlns="http://www.w3.org/2000/svg" xmlns:xlink="http://www.w3.org/1999/xlink" x="0px" y="0px"
	 width="321.5px" height="321.5px" viewBox="0 0 321.5 321.5" enable-background="new 0 0 321.5 321.5" xml:space="preserve">
<g display="none">
	<g display="inline">
		<path fill="#F5EDD8" d="M329.565,178.991c0,0-16.479-6.298-17.775,1.383c-1.296,7.682,0,28.229,0,28.229s17.775,3.06,17.775,0"/>
		<path fill="#1D1E1C" d="M324.398,211.452c-2.807,0-6.898-0.345-12.863-1.372l-1.168-0.201l-0.075-1.183
			c-0.053-0.846-1.292-20.809,0.018-28.572c0.293-1.739,1.241-3.112,2.741-3.969c5.179-2.96,15.849,0.975,17.049,1.434l-1.071,2.803
			c-2.894-1.103-11.137-3.549-14.491-1.631c-0.722,0.413-1.125,1.005-1.271,1.863c-1.076,6.377-0.299,22.226-0.051,26.695
			c6.543,1.046,13.868,1.581,15.083,0.738c-0.074,0.051-0.235,0.26-0.235,0.546h3c0,0.675-0.299,1.299-0.843,1.757
			C329.716,210.786,328.298,211.452,324.398,211.452z"/>
	</g>
	<g display="inline">
		<g>
			<path fill="#F5EDD8" d="M413.995,259.603h-72.43c-6.6,0-12-5.4-12-12v-96.459c0-6.6,5.4-12,12-12h72.43c6.6,0,12,5.4,12,12
				v96.459C425.995,254.202,420.594,259.603,413.995,259.603z"/>
		</g>
		<g>
			<path fill="#1D1E1C" d="M413.995,261.103h-72.43c-7.444,0-13.5-6.056-13.5-13.5v-96.459c0-7.444,6.056-13.5,13.5-13.5h72.43
				c7.444,0,13.5,6.056,13.5,13.5v96.459C427.495,255.046,421.438,261.103,413.995,261.103z M341.565,140.644
				c-5.79,0-10.5,4.71-10.5,10.5v96.459c0,5.79,4.71,10.5,10.5,10.5h72.43c5.79,0,10.5-4.71,10.5-10.5v-96.459
				c0-5.79-4.71-10.5-10.5-10.5H341.565z"/>
		</g>
	</g>
	<g display="inline">
		<path fill="#1D1E1C" d="M370.001,218.812c-2.259,0-4.489-0.468-5.218-0.636c-2.519-0.582-6.771-1.94-6.946-4.498
			c-0.093-1.358,0.859-2.427,2.829-3.176c6.583-2.505,5.994-12.117,5.987-12.213l2.993-0.208c0.034,0.486,0.727,11.938-7.913,15.225
			c-0.282,0.107-0.488,0.205-0.637,0.286c1.067,0.79,4.379,1.989,8.01,2.201c2.561,0.148,3.498-0.354,3.608-0.496
			c1.158-2.012,3.033-2.465,4.153-2.736c0.117-0.028,0.253-0.062,0.377-0.094c-0.097-0.285-0.309-0.776-0.766-1.575
			c-3.466-6.057-0.272-16.859-0.134-17.316l2.873,0.865c-0.03,0.1-2.96,10.024-0.135,14.961c1.009,1.764,1.574,3.19,1.046,4.414
			c-0.502,1.165-1.642,1.44-2.557,1.662c-1.084,0.262-1.777,0.482-2.263,1.324C374.403,218.373,372.188,218.812,370.001,218.812z"/>
	</g>
	<g display="inline">
		<polygon fill="#E85F54" points="355.117,236.037 365.142,228.018 369.079,232.027 374.72,228.018 386.527,236.037 
			369.079,246.474 		"/>
		<path fill="#1D1E1C" d="M368.986,248.277l-16.32-12.2L365.263,226l3.99,4.063l5.448-3.873l14.614,9.926L368.986,248.277z
			 M357.569,235.997l11.603,8.674l14.568-8.714l-9-6.113l-5.835,4.147l-3.884-3.956L357.569,235.997z"/>
	</g>
	<g display="inline">
		<path fill="#1D1E1C" d="M331.065,203.585h-3c0-1.214-0.281-1.537-0.367-1.607c-0.515-0.418-2.422-0.022-3.956,0.296
			c-2.211,0.458-4.716,0.979-7.259,0.532c-1.747-0.306-2.892-0.957-3.501-1.99c-0.973-1.65-0.303-3.596,0.545-6.061
			c0.727-2.111,1.631-4.738,1.716-7.821c0.079-2.846,1.384-4.108,2.465-4.666c4.048-2.089,11.283,2.517,12.692,3.461l-1.67,2.492
			c-2.897-1.938-7.804-4.24-9.647-3.288c-0.197,0.102-0.795,0.411-0.841,2.083c-0.098,3.542-1.085,6.41-1.878,8.714
			c-0.476,1.382-1.068,3.103-0.798,3.561c0.034,0.057,0.262,0.353,1.435,0.559c1.979,0.348,4.185-0.111,6.133-0.515
			c2.488-0.515,4.838-1.003,6.458,0.315C330.583,200.458,331.065,201.745,331.065,203.585z"/>
	</g>
	<g display="inline">
		<polygon fill="#1D1E1C" points="324.459,198.421 318.849,190.664 329.565,190.664 329.565,193.664 324.721,193.664 
			326.89,196.663 		"/>
	</g>
	<g display="inline">
		
			<rect x="338.654" y="172.39" transform="matrix(0.4351 0.9004 -0.9004 0.4351 349.3006 -208.969)" fill="#1D1E1C" width="5.068" height="3"/>
	</g>
	<g display="inline">
		
			<rect x="345.725" y="168.332" transform="matrix(0.5014 0.8652 -0.8652 0.5014 320.2986 -216.1396)" fill="#1D1E1C" width="3.908" height="3"/>
	</g>
	<g display="inline">
		
			<rect x="356.159" y="166.37" transform="matrix(0.9314 0.364 -0.364 0.9314 85.9864 -118.5958)" fill="#1D1E1C" width="3" height="4.953"/>
	</g>
	<g display="inline">
		<rect x="355.117" y="234.537" fill="#1D1E1C" width="31.41" height="3"/>
	</g>
	<g display="inline">
		<polygon fill="#FFD15C" points="377.78,139.144 329.565,178.991 329.819,143.352 331.771,140.463 336.788,139.144 		"/>
		<path fill="#1D1E1C" d="M328.042,182.195l0.28-39.308l2.521-3.731l5.944-1.513h45.162L328.042,182.195z M331.315,143.816
			l-0.228,31.97l42.522-35.143h-36.629l-4.283,1.127L331.315,143.816z"/>
	</g>
	<g display="inline">
		<g>
			<polygon fill="#E85F54" points="406.102,154.461 407.305,159.25 392.119,157.546 381.625,161.532 381.479,151.413 			"/>
		</g>
		<g>
			<path fill="#1D1E1C" d="M380.157,163.695l-0.202-13.982l27.351,3.386l1.981,7.883l-16.975-1.905L380.157,163.695z
				 M383.004,153.113l0.09,6.257l8.831-3.355l13.398,1.503l-0.426-1.695L383.004,153.113z"/>
		</g>
	</g>
	<g display="inline">
		<path fill="#FFFFFF" d="M330.403,179.982c0,0,17.199,19.882,34.552,0"/>
	</g>
	<g display="inline">
		<g>
			<path fill="#FFFFFF" d="M330.404,180.212c0,0,17.199-19.882,34.551,0"/>
		</g>
		<g>
			<path fill="#1D1E1C" d="M363.825,181.198c-4.82-5.522-10.049-8.323-15.54-8.323c-0.005,0-0.01,0-0.016,0
				c-9.4,0.009-16.659,8.236-16.731,8.319l-2.268-1.964c0.33-0.381,8.195-9.331,18.973-9.355c0.014,0,0.029,0,0.043,0
				c6.396,0,12.384,3.146,17.799,9.35L363.825,181.198z"/>
		</g>
	</g>
	<g display="inline">
		<circle fill="#1D1E1C" cx="348.306" cy="180.212" r="4.935"/>
		<path fill="#42B18A" d="M348.306,186.647c-3.548,0-6.435-2.887-6.435-6.435s2.887-6.436,6.435-6.436s6.436,2.887,6.436,6.436
			S351.854,186.647,348.306,186.647z M348.306,176.776c-1.894,0-3.435,1.541-3.435,3.436c0,1.894,1.541,3.435,3.435,3.435
			c1.895,0,3.436-1.541,3.436-3.435C351.742,178.317,350.201,176.776,348.306,176.776z"/>
	</g>
	<g display="inline">
		<path fill="#FFFFFF" d="M381.479,179.982c0,0,17.199,19.882,34.551,0"/>
	</g>
	<g display="inline">
		<g>
			<path fill="#FFFFFF" d="M381.48,180.212c0,0,17.199-19.882,34.552,0"/>
		</g>
		<g>
			<path fill="#1D1E1C" d="M414.902,181.198c-4.82-5.522-10.049-8.323-15.541-8.323c-0.012,0-0.023,0-0.036,0
				c-9.425,0.021-16.64,8.235-16.711,8.318l-2.269-1.963c0.33-0.381,8.196-9.331,18.974-9.355c0.014,0,0.029,0,0.043,0
				c6.396,0,12.384,3.146,17.799,9.35L414.902,181.198z"/>
		</g>
	</g>
	<g display="inline">
		<circle fill="#1D1E1C" cx="399.382" cy="180.212" r="4.936"/>
		<path fill="#42B18A" d="M399.382,186.647c-3.548,0-6.436-2.887-6.436-6.435s2.887-6.436,6.436-6.436s6.436,2.887,6.436,6.436
			S402.931,186.647,399.382,186.647z M399.382,176.776c-1.895,0-3.436,1.541-3.436,3.436c0,1.894,1.541,3.435,3.436,3.435
			s3.436-1.541,3.436-3.435C402.818,178.317,401.277,176.776,399.382,176.776z"/>
	</g>
	<g display="inline">
		<g>
			<path fill="#E85F54" d="M372.142,125.092c0,0-16.118,6.853-29.852,3.159c-13.734-3.694-35.527-8.496-36.266,4.802
				c-0.738,13.297,2.216,13.983,2.216,26.014s-1.108,16.654-5.171,30.78c-4.062,14.125,7.465,21.882,10.936,33.702
				s-0.962,15.916-7.242,28.089c-6.279,12.172-3.694,32.807-2.955,37.634s5.541,12.087,5.541,12.087s0.739-24.99,8.126-37.179
				c7.387-12.189,21.211-9.234,22.61-23.271c1.399-14.036,0.806-26.261,1.103-37.324c0.297-11.063,31.147-48.37,36.592-55.388
				c5.444-7.018,19.479-5.171,19.479-5.171s31.104,16.602,28.735,35.13v65.339c0,0,8.159,10.711-3.27,26.594
				c-11.429,15.883,3.894,15.145,3.894,15.145s14.097,9.35,7.144,16.125c-6.953,6.776,17.795-22.035,17.795-22.035
				s3.324-29.488,0-42.077c-3.324-12.589-2.955-20.013-2.955-33.661c0-13.649,9.234-25.214,2.216-36.792
				c-7.018-11.578,4.125-30.416-13.636-36.695C419.422,123.818,378.421,117.871,372.142,125.092z"/>
		</g>
		<g>
			<path fill="#1D1E1C" d="M310.708,306.133l-2.61-3.947c-0.204-0.308-4.993-7.594-5.772-12.688
				c-0.641-4.189-3.504-25.736,3.105-38.548c1.125-2.181,2.204-4.128,3.156-5.847c4.432-7.998,6.657-12.012,3.979-21.132
				c-1.163-3.961-3.344-7.561-5.454-11.041c-4.082-6.735-8.302-13.7-5.484-23.498c3.969-13.796,5.113-18.31,5.113-30.365
				c0-5.346-0.604-8.411-1.187-11.374c-0.708-3.594-1.439-7.309-1.027-14.724c0.258-4.648,3.028-10.189,14.757-10.189
				c7.481,0,16.433,2.149,23.396,4.022c2.57,0.691,5.431,1.042,8.502,1.042c9.527,0,18.41-3.348,20.089-4.017
				c2.377-2.384,7.644-3.543,16.072-3.543c16.417,0,38.913,4.36,50.339,8.4c11.907,4.209,11.914,13.98,11.92,22.602
				c0.004,5.461,0.007,10.621,2.499,14.73c4.711,7.772,2.671,15.332,0.511,23.334c-1.234,4.573-2.51,9.301-2.51,14.235l-0.006,3.707
				c-0.031,11.449-0.049,18.359,2.912,29.572c3.357,12.714,0.177,41.413,0.041,42.628l-0.052,0.459l-0.301,0.351
				c-0.104,0.122-10.407,12.118-15.764,18.707c-0.354,1.246-1.066,2.396-2.122,3.425c-0.84,0.819-1.302,1.234-1.78,1.387
				l-0.34,0.419l0.082-0.362c-0.07,0.009-0.142,0.013-0.216,0.013h-0.947l-0.429-0.866c-0.462-0.969-0.272-1.345,2.974-5.354
				c0.555-4.037-5.226-9.005-7.99-10.932c-1.7-0.02-6.625-0.403-8.489-4.039c-1.643-3.207-0.39-7.618,3.833-13.486
				c10.588-14.714,3.593-24.409,3.291-24.815l-0.298-0.399l-0.004-0.504l0.012-65.53c2.105-16.466-24.843-31.893-27.71-33.482
				c-0.546-0.058-1.886-0.177-3.616-0.177c-3.916,0-10.969,0.625-14.216,4.811c-0.637,0.821-1.619,2.054-2.859,3.61
				c-8.204,10.295-33.169,41.625-33.418,50.898c-0.091,3.406-0.098,6.895-0.104,10.589c-0.015,8.006-0.031,17.08-1.005,26.844
				c-0.862,8.653-6.274,11.58-11.508,14.411c-4.067,2.2-8.273,4.474-11.312,9.488c-7.101,11.716-7.902,36.2-7.91,36.446
				L310.708,306.133z M319.285,125.78c-11.354,0-11.661,5.536-11.762,7.355c-0.391,7.039,0.273,10.409,0.976,13.978
				c0.611,3.104,1.243,6.314,1.243,11.953c0,12.422-1.257,17.383-5.23,31.194c-2.455,8.536,1.248,14.646,5.167,21.113
				c2.209,3.646,4.493,7.415,5.767,11.751c3.031,10.323,0.296,15.257-4.234,23.431c-0.942,1.7-2.01,3.627-3.114,5.768
				c-6.184,11.988-3.422,32.691-2.805,36.719c0.336,2.197,1.623,5.008,2.846,7.299c0.62-8.022,2.507-23.788,8.055-32.941
				c3.461-5.71,8.237-8.293,12.45-10.572c5.166-2.794,9.246-5,9.95-12.07c0.959-9.618,0.975-18.227,0.99-26.551
				c0.007-3.713,0.013-7.221,0.105-10.664c0.245-9.109,18.336-32.942,34.071-52.688c1.229-1.543,2.204-2.766,2.835-3.58
				c3.828-4.936,11.133-5.972,16.586-5.972c2.48,0,4.202,0.223,4.274,0.232l0.27,0.036l0.24,0.128
				c1.305,0.696,31.888,17.255,29.529,36.546v64.78c1.487,2.288,7.224,12.961-3.553,27.937c-3.355,4.664-4.633,8.345-3.598,10.366
				c1.174,2.292,5.177,2.408,5.967,2.408c0.139,0,0.223-0.003,0.238-0.004l0.488-0.021l0.41,0.27
				c6.021,3.993,8.361,7.826,9.223,10.582l1.759-2.168l-0.027,0.12c4.731-5.665,10.358-12.236,11.714-13.817
				c0.397-3.762,2.984-29.737-0.009-41.071c-3.062-11.593-3.042-19.053-3.011-30.346l0.006-3.698c0-5.332,1.329-10.255,2.614-15.017
				c2.075-7.685,3.866-14.323-0.18-20.998c-2.925-4.825-2.929-10.65-2.933-16.283c-0.006-8.731-0.011-16.272-9.92-19.775
				c-11.24-3.974-33.748-8.228-49.339-8.228c-10.507,0-13.339,1.953-14.07,2.793l-0.227,0.261l-0.318,0.135
				c-0.42,0.179-10.411,4.371-21.546,4.372c-3.335,0-6.458-0.385-9.282-1.145C335.116,127.875,326.414,125.78,319.285,125.78z"/>
		</g>
	</g>
	<g display="inline">
		<path fill="#F5EDD8" d="M422.725,179.392c0,0,16.479-7.339,17.775,1.613c1.296,8.951,0,32.894,0,32.894s-17.775,3.565-17.775,0"/>
		<path fill="#1D1E1C" d="M427.894,216.959c-3.9,0-5.283-0.75-5.718-1.106c-0.613-0.502-0.951-1.197-0.951-1.954h3
			c0-0.173-0.096-0.324-0.147-0.366c1.055,0.864,7.896,0.444,14.984-0.883c0.236-4.897,1.053-23.845-0.045-31.43
			c-0.175-1.209-0.682-2.007-1.594-2.511c-3.463-1.913-11.344,0.834-14.087,2.054l-1.22-2.741c1.147-0.512,11.372-4.911,16.755-1.94
			c1.73,0.954,2.807,2.582,3.115,4.708c1.303,8.995,0.067,32.206,0.013,33.189l-0.062,1.161l-1.14,0.229
			C434.805,216.571,430.698,216.958,427.894,216.959z"/>
	</g>
	<g display="inline">
		<path fill="#1D1E1C" d="M428.119,207.722h-3c0-1.337,0.153-3.227,1.474-4.205c1.358-1.005,3.018-0.499,4.623-0.009
			c1.282,0.392,2.607,0.797,3.734,0.506c0.823-0.212,1.072-0.276,0.134-4.291c-0.532-2.277-1.194-5.11-1.259-8.582
			c-0.03-1.596-0.401-2.166-0.593-2.244c-0.892-0.363-3.72,1.467-5.56,3.283l-2.107-2.135c1.262-1.248,5.627-5.218,8.798-3.927
			c1.583,0.645,2.412,2.315,2.461,4.967c0.059,3.154,0.681,5.815,1.181,7.955c0.789,3.377,1.605,6.869-2.306,7.878
			c-1.942,0.499-3.837-0.077-5.359-0.542c-0.675-0.206-1.695-0.516-1.995-0.429C428.36,205.96,428.119,206.335,428.119,207.722z"/>
	</g>
	<g display="inline">
		<path fill="#1D1E1C" d="M426.57,203.428l-1.151-2.77c2.752-1.147,5.04-2.926,4.982-3.578c0-0.01-0.361-1.06-4.729-2.023
			l0.646-2.93c2.915,0.644,6.818,1.829,7.071,4.689C433.688,200.2,428.245,202.732,426.57,203.428z"/>
	</g>
</g>
<g display="none">
	<g display="inline">
		<g>
			<path fill="#F5EDD8" d="M331.374,183.317c0,0-16.479-6.298-17.775,1.383c-1.296,7.682,0,28.229,0,28.229s17.775,3.06,17.775,0"/>
			<path fill="#1D1E1C" d="M326.207,215.779c-2.807,0-6.898-0.345-12.863-1.372l-1.168-0.201l-0.075-1.183
				c-0.053-0.846-1.292-20.809,0.018-28.572c0.293-1.739,1.241-3.112,2.741-3.969c5.181-2.96,15.849,0.976,17.049,1.434
				l-1.071,2.803c-2.894-1.104-11.136-3.548-14.491-1.631c-0.722,0.413-1.125,1.005-1.271,1.863
				c-1.076,6.377-0.299,22.226-0.051,26.695c6.543,1.046,13.868,1.581,15.083,0.738c-0.074,0.051-0.235,0.26-0.235,0.546h3
				c0,0.675-0.299,1.299-0.843,1.757C331.525,215.113,330.107,215.779,326.207,215.779z"/>
		</g>
		<g>
			<path fill="#1D1E1C" d="M332.874,207.911h-3c0-1.214-0.281-1.537-0.367-1.606c-0.515-0.419-2.422-0.022-3.956,0.295
				c-2.21,0.458-4.718,0.978-7.259,0.533c-1.747-0.306-2.892-0.957-3.501-1.99c-0.973-1.65-0.303-3.596,0.545-6.061
				c0.727-2.111,1.631-4.738,1.716-7.821c0.078-2.846,1.384-4.108,2.465-4.666c4.052-2.09,11.283,2.517,12.692,3.461l-1.67,2.492
				c-2.896-1.938-7.805-4.238-9.647-3.288c-0.196,0.102-0.795,0.411-0.841,2.083c-0.098,3.542-1.085,6.411-1.878,8.715
				c-0.476,1.382-1.068,3.103-0.798,3.56c0.034,0.058,0.262,0.354,1.435,0.559c1.977,0.346,4.185-0.111,6.132-0.515
				c2.488-0.516,4.838-1.003,6.458,0.315C332.392,204.785,332.874,206.071,332.874,207.911z"/>
		</g>
		<g>
			<path fill="#1D1E1C" d="M330.924,204.402c-3.401-1.069-9.073-3.344-8.849-6.574c0.162-2.323,2.868-3.754,9.051-4.787l0.494,2.959
				c-5.107,0.853-6.28,1.789-6.52,2.055c0.445,0.857,3.611,2.508,6.722,3.485L330.924,204.402z"/>
		</g>
	</g>
	<g display="inline">
		<path fill="#1D1E1C" d="M324.463,178.597c0,0-13.005-1.891-11.902-14.909c1.104-13.018,1.104-13.018,1.104-13.018
			s-3.19-11.743,12.982-16.197c16.173-4.455,16.471,8.728,33.329,1.934c16.858-6.793,15.319-9.223,28.844-8.413
			c13.525,0.81,24.053-1.62,25.268-2.834s7.289,6.884,7.289,6.884l10.87,14.172l10.178,19.437l-5.134,19.359"/>
	</g>
	<g display="inline">
		<path fill="#F5EDD8" d="M424.713,182.662c0,0,16.479-7.339,17.775,1.612s0,32.894,0,32.894s-17.775,3.565-17.775,0"/>
		<path fill="#1D1E1C" d="M429.882,220.229c-3.9,0-5.283-0.75-5.718-1.106c-0.613-0.502-0.951-1.197-0.951-1.954h3
			c0-0.173-0.096-0.324-0.147-0.366c1.055,0.864,7.896,0.443,14.984-0.883c0.236-4.897,1.053-23.845-0.045-31.43
			c-0.175-1.209-0.682-2.007-1.594-2.51c-3.461-1.912-11.344,0.834-14.087,2.054l-1.22-2.741c1.148-0.512,11.372-4.909,16.755-1.941
			c1.73,0.954,2.807,2.582,3.115,4.708c1.303,8.996,0.067,32.207,0.013,33.19l-0.062,1.161l-1.14,0.229
			C436.793,219.84,432.687,220.228,429.882,220.229z"/>
	</g>
	<g display="inline">
		<path fill="#1D1E1C" d="M430.106,210.991h-3c0-1.337,0.153-3.227,1.474-4.205c1.358-1.006,3.018-0.499,4.624-0.009
			c1.282,0.391,2.607,0.798,3.734,0.506c0.823-0.212,1.072-0.276,0.134-4.291c-0.532-2.277-1.194-5.11-1.259-8.582
			c-0.03-1.596-0.401-2.166-0.593-2.244c-0.887-0.36-3.72,1.468-5.56,3.283l-2.107-2.135c1.262-1.247,5.631-5.217,8.798-3.927
			c1.584,0.645,2.412,2.315,2.461,4.966c0.059,3.154,0.681,5.816,1.181,7.955c0.789,3.377,1.605,6.869-2.306,7.878
			c-1.942,0.5-3.837-0.078-5.359-0.542c-0.676-0.207-1.698-0.517-1.995-0.43C430.348,209.23,430.106,209.604,430.106,210.991z"/>
	</g>
	<g display="inline">
		<path fill="#1D1E1C" d="M428.734,206.301l-1.151-2.77c2.752-1.147,5.04-2.926,4.982-3.578c0-0.01-0.361-1.06-4.729-2.023
			l0.646-2.93c2.915,0.644,6.818,1.83,7.071,4.689C435.852,203.073,430.409,205.605,428.734,206.301z"/>
	</g>
	<g display="inline">
		<g>
			<path fill="#F5EDD8" d="M415.342,259.544h-72.43c-6.6,0-12-5.4-12-12v-96.459c0-6.6,5.4-12,12-12h72.43c6.6,0,12,5.4,12,12
				v96.459C427.342,254.145,421.941,259.544,415.342,259.544z"/>
		</g>
		<g>
			<path fill="#1D1E1C" d="M415.342,261.044h-72.43c-7.444,0-13.5-6.056-13.5-13.5v-96.459c0-7.444,6.056-13.5,13.5-13.5h72.43
				c7.444,0,13.5,6.056,13.5,13.5v96.459C428.842,254.988,422.786,261.044,415.342,261.044z M342.912,140.585
				c-5.79,0-10.5,4.71-10.5,10.5v96.459c0,5.79,4.71,10.5,10.5,10.5h72.43c5.79,0,10.5-4.71,10.5-10.5v-96.459
				c0-5.79-4.71-10.5-10.5-10.5H342.912z"/>
		</g>
	</g>
	<g display="inline">
		<g>
			<path fill="#1D1E1C" d="M369.049,161.837v9.366c0,0-20.654-4.563-25.938,0c-5.284,4.563-5.284,4.563-5.284,4.563v-16.091
				C337.827,159.676,369.049,159.916,369.049,161.837z"/>
		</g>
		<g>
			<path fill="#1D1E1C" d="M337.827,159.676c0,0,31.222,0.24,31.222,2.161v9.366"/>
		</g>
	</g>
	<g display="inline">
		<g>
			<path fill="#1D1E1C" d="M384.779,161.837v9.366c0,0,20.654-4.563,25.938,0c5.283,4.563,5.283,4.563,5.283,4.563v-16.091
				C416,159.676,384.779,159.916,384.779,161.837z"/>
		</g>
		<g>
			<path fill="#1D1E1C" d="M416,159.676c0,0-31.221,0.24-31.221,2.161v9.366"/>
		</g>
	</g>
	<g display="inline">
		<rect x="362.934" y="145.042" fill="#1D1E1C" width="25.293" height="3"/>
	</g>
	<g display="inline">
		<rect x="350.639" y="150.62" fill="#1D1E1C" width="49.037" height="3"/>
	</g>
	<g display="inline">
		<g>
			<polygon fill="#F5EDD8" points="357.58,235.979 367.604,227.96 371.542,231.97 377.184,227.96 388.99,235.979 371.542,246.416 
							"/>
		</g>
		<g>
			<path fill="#1D1E1C" d="M371.449,248.219l-16.321-12.2l12.597-10.077l3.99,4.063l5.448-3.873l14.614,9.926L371.449,248.219z
				 M360.032,235.939l11.603,8.673l14.567-8.713l-8.999-6.113l-5.835,4.147l-3.885-3.956L360.032,235.939z"/>
		</g>
	</g>
	<g display="inline">
		<path fill="#1D1E1C" d="M360.321,252.269c0,0-13.034,13.654,0,21.723c13.034,8.068,19.24,14.896,12.413,19.55
			s-7.7,7.758-7.7,7.758l20.777-7.758c0,0,1.905-3.724,0-15.206c-1.905-11.482,2.365-24.516,5.971-26.067
			C395.388,250.717,360.321,252.269,360.321,252.269z"/>
	</g>
	<g display="inline">
		<rect x="357.58" y="234.479" fill="#1D1E1C" width="31.41" height="3"/>
	</g>
	<g display="inline">
		<path fill="#1D1E1C" d="M378.167,218.759c-2.255,0-4.322-0.421-5.21-1.731c-0.464-0.685-1.2-0.879-2.27-1.099
			c-0.961-0.197-2.158-0.442-2.642-1.627c-0.509-1.248,0.246-2.643,1.138-3.966c2.258-3.348,0.643-10.051-0.17-12.351l2.828-1.003
			c0.14,0.395,3.398,9.743-0.17,15.032c-0.276,0.41-0.457,0.715-0.574,0.937c0.067,0.014,0.132,0.027,0.193,0.04
			c1.181,0.242,2.966,0.608,4.15,2.353c0.15,0.128,1.293,0.557,4.078,0.37c3.108-0.211,5.81-0.973,7.145-1.582
			c-0.037-0.013-0.076-0.025-0.116-0.039c-6.985-2.254-8.276-9.613-7.984-13.188l2.99,0.245l-1.495-0.123l1.495,0.119
			c-0.025,0.326-0.538,8.01,5.916,10.093c0.723,0.233,2.925,0.944,2.907,2.816c-0.014,1.501-1.434,2.627-4.468,3.543
			C384.638,217.982,381.229,218.759,378.167,218.759z"/>
	</g>
	<g display="inline">
		<path fill="#1D1E1C" d="M342.607,139.085c0,0-2.65-5.854,13.7-10.191c16.35-4.338,20.354-13.347,20.688-14.682
			c0.334-1.335,24.025,17.018,24.025,17.018"/>
	</g>
	<g display="inline">
		<polygon fill="#1D1E1C" points="348.25,139.085 355.166,134.461 362.695,134.461 361.159,139.532 		"/>
	</g>
	<g display="inline">
		<path fill="#1D1E1C" d="M351.98,204.604c-8.062,0-14.282-2.61-18.485-7.759c-8.965-10.982-5.319-29.46-5.16-30.242l0.327-1.6
			h46.635l0.327,1.6c0.16,0.781,3.806,19.259-5.16,30.242C366.262,201.993,360.043,204.604,351.98,204.604z M331.996,169.003
			c-0.632,4.516-1.767,17.526,4.606,25.321c3.406,4.167,8.581,6.28,15.378,6.28c6.803,0,11.979-2.116,15.386-6.289
			c6.381-7.816,5.237-20.802,4.6-25.312H331.996z"/>
	</g>
	<g display="inline">
		<path fill="#1D1E1C" d="M402.938,204.604c-8.062,0-14.281-2.61-18.484-7.759c-8.966-10.982-5.319-29.46-5.16-30.242l0.327-1.6
			h46.635l0.327,1.6c0.16,0.781,3.806,19.259-5.16,30.242C417.219,201.993,411,204.604,402.938,204.604z M382.954,169.003
			c-0.632,4.516-1.768,17.526,4.605,25.321c3.406,4.167,8.581,6.279,15.378,6.279s11.972-2.113,15.378-6.28
			c6.373-7.795,5.238-20.805,4.606-25.321H382.954z"/>
	</g>
	<g display="inline">
		<rect x="370.986" y="165.003" fill="#1D1E1C" width="25.407" height="4"/>
	</g>
	<g display="inline">
		<path fill="#FFFFFF" d="M334.704,181.34c0,0,17.199,19.882,34.551,0"/>
	</g>
	<g display="inline">
		<g>
			<path fill="#FFFFFF" d="M334.705,181.569c0,0,17.199-19.881,34.551,0"/>
		</g>
		<g>
			<path fill="#1D1E1C" d="M368.126,182.556c-4.82-5.522-10.049-8.322-15.54-8.322c-0.006,0-0.011,0-0.017,0
				c-9.4,0.009-16.659,8.235-16.731,8.319l-2.268-1.964c0.33-0.381,8.195-9.331,18.973-9.354c0.014,0,0.029,0,0.043,0
				c6.396,0,12.384,3.145,17.799,9.35L368.126,182.556z"/>
		</g>
	</g>
	<g display="inline">
		<circle fill="#1D1E1C" cx="352.607" cy="181.569" r="4.935"/>
		<path fill="#E86156" d="M352.607,188.005c-3.548,0-6.436-2.887-6.436-6.436s2.887-6.436,6.436-6.436s6.435,2.887,6.435,6.436
			S356.156,188.005,352.607,188.005z M352.607,178.134c-1.895,0-3.436,1.541-3.436,3.436s1.541,3.436,3.436,3.436
			c1.894,0,3.435-1.541,3.435-3.436S354.501,178.134,352.607,178.134z"/>
	</g>
	<g display="inline">
		<path fill="#FFFFFF" d="M385.662,181.34c0,0,17.199,19.882,34.551,0"/>
	</g>
	<g display="inline">
		<g>
			<path fill="#FFFFFF" d="M385.663,181.569c0,0,17.198-19.881,34.551,0"/>
		</g>
		<g>
			<path fill="#1D1E1C" d="M419.084,182.556c-4.82-5.522-10.049-8.322-15.54-8.322c-0.012,0-0.024,0-0.036,0
				c-9.424,0.021-16.639,8.234-16.71,8.317l-2.269-1.963c0.33-0.381,8.195-9.331,18.973-9.354c0.014,0,0.029,0,0.043,0
				c6.396,0,12.384,3.145,17.799,9.35L419.084,182.556z"/>
		</g>
	</g>
	<g display="inline">
		<circle fill="#1D1E1C" cx="403.565" cy="181.569" r="4.935"/>
		<path fill="#E86156" d="M403.565,188.005c-3.548,0-6.436-2.887-6.436-6.436s2.887-6.436,6.436-6.436s6.435,2.887,6.435,6.436
			S407.113,188.005,403.565,188.005z M403.565,178.134c-1.895,0-3.436,1.541-3.436,3.436s1.541,3.436,3.436,3.436
			c1.894,0,3.435-1.541,3.435-3.436S405.459,178.134,403.565,178.134z"/>
	</g>
	<g display="inline">
		<path fill="#1D1E1C" d="M327.033,182.311c0,0-17.629-5.374-12.48-16.872s14.152,1.563,14.152,1.563l0.786,10.148"/>
	</g>
</g>
<g display="none">
	<g display="inline">
		<polygon fill="#E85F54" points="366.503,113.19 382.156,112.903 383.975,138.417 363.392,138.417 366.503,112.903 		"/>
	</g>
	<g display="inline">
		<path fill="#E85F54" d="M373.346,113.544c0,0-74.08-15.203-74.08,62.321c0,77.523-33.26,67.697-33.26,67.697l64.242,8.167"/>
		<path fill="#1D1E1C" d="M330.059,253.216l-60.991-7.753c-2.048-0.053-3.356-0.424-3.487-0.463l0.614-2.926l3.167,0.402
			c2.645,0.046,6.764-0.587,11.067-3.832c7.909-5.964,17.337-21.697,17.337-62.78c0-23.667,6.832-41.239,20.307-52.229
			c22.24-18.141,54.223-11.838,55.574-11.561l-0.603,2.939c-0.318-0.065-31.97-6.284-53.09,10.958
			c-12.732,10.394-19.188,27.18-19.188,49.893c0,34.058-6.264,56.008-18.617,65.239c-1.4,1.046-2.788,1.854-4.13,2.473l52.417,6.664
			L330.059,253.216z"/>
	</g>
	<g display="inline">
		<path fill="#E85F54" d="M372.371,113.544c0,0,74.08-15.203,74.08,62.321c0,77.523,33.26,67.697,33.26,67.697l-64.242,8.167"/>
		<path fill="#1D1E1C" d="M415.658,253.216l-0.378-2.976l52.417-6.664c-1.342-0.619-2.73-1.426-4.13-2.473
			c-12.353-9.231-18.617-31.181-18.617-65.239c0-22.722-6.461-39.512-19.203-49.905c-21.148-17.25-52.76-11.012-53.075-10.947
			l-0.604-2.938c1.352-0.276,33.334-6.58,55.575,11.561c13.475,10.99,20.307,28.562,20.307,52.229c0,41.18,9.469,56.9,17.413,62.836
			c4.306,3.218,8.443,3.813,11.087,3.763l3.071-0.39l0.614,2.926c-0.131,0.039-1.439,0.41-3.487,0.463L415.658,253.216z"/>
	</g>
	<g display="inline">
		<path fill="#F5EDD8" d="M329.618,178.684c0,0-16.479-6.298-17.775,1.384c-1.297,7.682,0,28.229,0,28.229s17.775,3.06,17.775,0"/>
		<path fill="#1D1E1C" d="M324.451,211.146c-2.807,0-6.898-0.345-12.863-1.372l-1.168-0.201l-0.075-1.183
			c-0.053-0.846-1.292-20.81,0.018-28.573c0.293-1.739,1.241-3.112,2.741-3.969c5.179-2.959,15.85,0.975,17.049,1.434l-1.071,2.803
			c-2.894-1.104-11.14-3.55-14.491-1.631c-0.722,0.413-1.125,1.005-1.271,1.863c-1.077,6.377-0.3,22.226-0.051,26.695
			c6.544,1.046,13.868,1.581,15.083,0.738c-0.074,0.051-0.235,0.26-0.235,0.546h3c0,0.675-0.299,1.299-0.843,1.757
			C329.77,210.479,328.352,211.146,324.451,211.146z"/>
	</g>
	<g display="inline">
		<g>
			<path fill="#F5EDD8" d="M414.047,259.295h-72.429c-6.601,0-12-5.4-12-12v-96.459c0-6.6,5.399-12,12-12h72.429c6.6,0,12,5.4,12,12
				v96.459C426.047,253.896,420.647,259.295,414.047,259.295z"/>
		</g>
		<g>
			<path fill="#1D1E1C" d="M414.047,260.795h-72.429c-7.444,0-13.5-6.056-13.5-13.5v-96.459c0-7.444,6.056-13.5,13.5-13.5h72.429
				c7.444,0,13.5,6.056,13.5,13.5v96.459C427.547,254.739,421.491,260.795,414.047,260.795z M341.618,140.336
				c-5.79,0-10.5,4.71-10.5,10.5v96.459c0,5.79,4.71,10.5,10.5,10.5h72.429c5.79,0,10.5-4.71,10.5-10.5v-96.459
				c0-5.79-4.71-10.5-10.5-10.5H341.618z"/>
		</g>
	</g>
	<g display="inline">
		<path fill="#1D1E1C" d="M370.054,218.505c-2.26,0-4.49-0.468-5.219-0.637c-2.519-0.582-6.77-1.939-6.945-4.498
			c-0.093-1.358,0.859-2.427,2.829-3.176c6.554-2.494,5.993-12.119,5.987-12.216l2.993-0.206c0.034,0.486,0.727,11.938-7.913,15.225
			c-0.282,0.107-0.489,0.205-0.638,0.287c1.068,0.79,4.38,1.989,8.01,2.2c2.562,0.149,3.498-0.353,3.608-0.496
			c1.158-2.012,3.033-2.465,4.153-2.736c0.117-0.028,0.253-0.061,0.377-0.094c-0.098-0.285-0.309-0.775-0.766-1.575
			c-3.466-6.057-0.272-16.859-0.134-17.316l2.873,0.865c-0.03,0.1-2.959,10.024-0.135,14.961c1.01,1.764,1.574,3.189,1.046,4.414
			c-0.502,1.165-1.641,1.44-2.557,1.662c-1.084,0.262-1.777,0.482-2.263,1.325C374.456,218.066,372.241,218.505,370.054,218.505z"/>
	</g>
	<g display="inline">
		<polygon fill="#E85F54" points="355.17,235.73 365.194,227.711 369.132,231.721 374.773,227.711 386.58,235.73 369.132,246.167 		
			"/>
		<path fill="#1D1E1C" d="M369.039,247.97l-16.321-12.2l12.597-10.077l3.99,4.063l5.448-3.873l14.614,9.926L369.039,247.97z
			 M357.622,235.69l11.603,8.673l14.567-8.713l-8.999-6.113l-5.835,4.147l-3.885-3.956L357.622,235.69z"/>
	</g>
	<g display="inline">
		<path fill="#1D1E1C" d="M331.118,203.278h-3c0-1.214-0.281-1.537-0.367-1.607c-0.513-0.416-2.421-0.022-3.956,0.296
			c-2.21,0.458-4.715,0.978-7.259,0.533c-1.747-0.306-2.892-0.957-3.501-1.99c-0.973-1.65-0.303-3.596,0.545-6.061
			c0.727-2.111,1.631-4.738,1.716-7.821c0.079-2.846,1.384-4.108,2.465-4.666c4.046-2.089,11.283,2.517,12.692,3.461l-1.67,2.492
			c-2.897-1.938-7.806-4.24-9.647-3.288c-0.197,0.102-0.795,0.411-0.841,2.083c-0.098,3.542-1.085,6.41-1.878,8.714
			c-0.476,1.382-1.068,3.103-0.798,3.56c0.034,0.058,0.262,0.354,1.435,0.559c1.978,0.347,4.185-0.112,6.132-0.515
			c2.489-0.516,4.84-1.002,6.459,0.315C330.636,200.151,331.118,201.438,331.118,203.278z"/>
	</g>
	<g display="inline">
		<rect x="355.17" y="234.23" fill="#1D1E1C" width="31.41" height="3"/>
	</g>
	<g display="inline">
		<path fill="#F5EDD8" d="M422.778,179.085c0,0,16.479-7.339,17.775,1.612c1.297,8.951,0,32.894,0,32.894s-17.775,3.566-17.775,0"/>
		<path fill="#1D1E1C" d="M427.947,216.652c-3.899,0-5.283-0.75-5.718-1.106c-0.613-0.502-0.951-1.196-0.951-1.954h3
			c0-0.173-0.096-0.324-0.147-0.366c1.055,0.865,7.895,0.444,14.983-0.883c0.236-4.897,1.053-23.845-0.045-31.43
			c-0.175-1.21-0.682-2.008-1.595-2.511c-3.471-1.912-11.345,0.833-14.085,2.054l-1.221-2.74c1.148-0.512,11.371-4.908,16.755-1.941
			c1.73,0.954,2.807,2.582,3.115,4.708c1.303,8.995,0.067,32.206,0.013,33.189l-0.062,1.161l-1.14,0.229
			C434.857,216.264,430.751,216.652,427.947,216.652z"/>
	</g>
	<g display="inline">
		<path fill="#1D1E1C" d="M428.171,207.415h-3c0-1.337,0.153-3.228,1.474-4.206c1.358-1.006,3.018-0.498,4.623-0.009
			c1.283,0.392,2.609,0.795,3.733,0.505c0.824-0.212,1.073-0.276,0.134-4.291c-0.532-2.277-1.194-5.11-1.259-8.581
			c-0.03-1.597-0.401-2.166-0.593-2.244c-0.894-0.361-3.72,1.467-5.56,3.283l-2.107-2.135c1.263-1.248,5.628-5.217,8.798-3.927
			c1.583,0.645,2.411,2.316,2.46,4.967c0.06,3.153,0.681,5.815,1.181,7.954c0.79,3.377,1.605,6.87-2.306,7.879
			c-1.944,0.501-3.838-0.078-5.358-0.542c-0.676-0.206-1.697-0.519-1.995-0.429C428.413,205.653,428.171,206.028,428.171,207.415z"
			/>
	</g>
	<g display="inline">
		<polyline fill="#E85F54" points="329.618,128.463 329.618,161.204 392.958,161.204 403.393,144.833 403.393,161.204 
			426.047,161.204 426.047,128.463 		"/>
		<polygon fill="#1D1E1C" points="427.547,162.704 401.893,162.704 401.893,149.978 393.781,162.704 328.118,162.704 
			328.118,128.463 331.118,128.463 331.118,159.704 392.136,159.704 404.893,139.689 404.893,159.704 424.547,159.704 
			424.547,128.463 427.547,128.463 		"/>
	</g>
	<g display="inline">
		<rect x="325.788" y="127.279" fill="#E85F54" width="7.363" height="32.339"/>
	</g>
	<g display="inline">
		<rect x="422.366" y="129.841" fill="#E85F54" width="7.363" height="29.777"/>
	</g>
	<g display="inline">
		<polygon fill="#E85F54" points="423.884,127.66 426.434,127.66 427.781,128.207 428.546,129.841 423.155,131.557 		"/>
	</g>
	<g display="inline">
		<path fill="#FFFFFF" d="M333.15,180.515c0,0,17.199,19.882,34.551,0"/>
	</g>
	<g display="inline">
		<path fill="#FFFFFF" d="M383.975,180.515c0,0,17.199,19.882,34.551,0"/>
	</g>
	<g display="inline">
		<g>
			<path fill="#FFFFFF" d="M333.151,180.745c0,0,17.199-19.881,34.551,0"/>
		</g>
		<g>
			<path fill="#1D1E1C" d="M366.573,181.731c-4.82-5.522-10.048-8.322-15.54-8.322c-0.005,0-0.011,0-0.016,0
				c-9.4,0.009-16.66,8.235-16.732,8.319l-2.268-1.964c0.33-0.381,8.196-9.331,18.974-9.354c0.014,0,0.028,0,0.042,0
				c6.396,0,12.384,3.145,17.799,9.35L366.573,181.731z"/>
		</g>
	</g>
	<g display="inline">
		<circle fill="#1D1E1C" cx="351.053" cy="180.745" r="4.935"/>
		<path fill="#42B18A" d="M351.054,187.18c-3.548,0-6.436-2.887-6.436-6.436s2.887-6.435,6.436-6.435s6.435,2.887,6.435,6.435
			S354.602,187.18,351.054,187.18z M351.054,177.31c-1.895,0-3.436,1.541-3.436,3.435c0,1.895,1.541,3.436,3.436,3.436
			c1.894,0,3.435-1.541,3.435-3.436C354.489,178.851,352.948,177.31,351.054,177.31z"/>
	</g>
	<g display="inline">
		<g>
			<path fill="#FFFFFF" d="M383.977,180.745c0,0,17.199-19.881,34.551,0"/>
		</g>
		<g>
			<path fill="#1D1E1C" d="M417.397,181.731c-4.82-5.522-10.049-8.322-15.54-8.322c-0.005,0-0.01,0-0.016,0
				c-9.4,0.009-16.659,8.235-16.731,8.319l-2.268-1.964c0.33-0.381,8.195-9.331,18.973-9.354c0.014,0,0.029,0,0.043,0
				c6.396,0,12.384,3.145,17.799,9.35L417.397,181.731z"/>
		</g>
	</g>
	<g display="inline">
		<circle fill="#1D1E1C" cx="401.878" cy="180.745" r="4.935"/>
		<path fill="#42B18A" d="M401.878,187.18c-3.548,0-6.435-2.887-6.435-6.436s2.887-6.435,6.435-6.435s6.435,2.887,6.435,6.435
			S405.427,187.18,401.878,187.18z M401.878,177.31c-1.894,0-3.435,1.541-3.435,3.435c0,1.895,1.541,3.436,3.435,3.436
			s3.435-1.541,3.435-3.436C405.313,178.851,403.772,177.31,401.878,177.31z"/>
	</g>
	<g display="inline">
		<path fill="#1D1E1C" d="M329.168,199.769c-3.401-1.069-9.074-3.344-8.849-6.574c0.162-2.323,2.869-3.754,9.052-4.787l0.494,2.959
			c-5.107,0.853-6.28,1.789-6.52,2.055c0.445,0.854,3.61,2.505,6.723,3.486L329.168,199.769z"/>
	</g>
	<g display="inline">
		<path fill="#1D1E1C" d="M426.799,202.725l-1.151-2.77c2.752-1.147,5.04-2.926,4.982-3.578c0-0.01-0.361-1.06-4.729-2.023
			l0.646-2.93c2.915,0.644,6.818,1.829,7.071,4.689C433.917,199.497,428.474,202.029,426.799,202.725z"/>
	</g>
</g>
<g>
	<g>
		<circle fill="#41B189" cx="160.75" cy="160.75" r="158.25"/>
		<path fill="#1D1E1C" d="M160.75,321.5C72.112,321.5,0,249.388,0,160.75S72.112,0,160.75,0C249.388,0,321.5,72.112,321.5,160.75
			S249.388,321.5,160.75,321.5z M160.75,5C74.869,5,5,74.869,5,160.75S74.869,316.5,160.75,316.5
			c85.881,0,155.75-69.869,155.75-155.75S246.631,5,160.75,5z"/>
	</g>
	<g>
		<circle fill="#57C1EB" cx="160.75" cy="160.75" r="110.367"/>
		<path fill="#1D1E1C" d="M160.75,273.617c-62.235,0-112.867-50.632-112.867-112.867S98.515,47.883,160.75,47.883
			c62.235,0,112.867,50.632,112.867,112.867S222.985,273.617,160.75,273.617z M160.75,52.883
			c-59.478,0-107.867,48.389-107.867,107.867s48.389,107.867,107.867,107.867s107.867-48.389,107.867-107.867
			S220.229,52.883,160.75,52.883z"/>
	</g>
	<g>
		<circle fill="#41B189" cx="159.75" cy="161.658" r="84.809"/>
		<path fill="#1D1E1C" d="M159.75,248.967c-48.143,0-87.309-39.167-87.309-87.309S111.608,74.35,159.75,74.35
			c48.142,0,87.309,39.167,87.309,87.309S207.893,248.967,159.75,248.967z M159.75,79.35c-45.385,0-82.309,36.923-82.309,82.309
			s36.924,82.309,82.309,82.309s82.309-36.923,82.309-82.309S205.136,79.35,159.75,79.35z"/>
	</g>
	<g>
		<circle fill="#57C1EB" cx="159.75" cy="161.658" r="59.147"/>
		<path fill="#1D1E1C" d="M159.75,223.306c-33.993,0-61.647-27.655-61.647-61.647s27.655-61.647,61.647-61.647
			s61.647,27.655,61.647,61.647S193.743,223.306,159.75,223.306z M159.75,105.011c-31.235,0-56.647,25.412-56.647,56.647
			s25.412,56.647,56.647,56.647s56.647-25.412,56.647-56.647S190.986,105.011,159.75,105.011z"/>
	</g>
	<g>
		<circle fill="#41B189" cx="159.827" cy="162.672" r="32.859"/>
		<path fill="#1D1E1C" d="M159.827,198.031c-19.497,0-35.359-15.862-35.359-35.359s15.862-35.359,35.359-35.359
			s35.359,15.862,35.359,35.359S179.324,198.031,159.827,198.031z M159.827,132.313c-16.74,0-30.359,13.619-30.359,30.359
			c0,16.74,13.619,30.359,30.359,30.359s30.359-13.619,30.359-30.359C190.187,145.932,176.567,132.313,159.827,132.313z"/>
	</g>
</g>
</svg>
