<?xml version="1.0" encoding="utf-8"?>
<!-- Generator: Adobe Illustrator 16.0.0, SVG Export Plug-In . SVG Version: 6.00 Build 0)  -->
<!DOCTYPE svg PUBLIC "-//W3C//DTD SVG 1.1//EN" "http://www.w3.org/Graphics/SVG/1.1/DTD/svg11.dtd">
<svg version="1.1" id="Layer_1" xmlns="http://www.w3.org/2000/svg" xmlns:xlink="http://www.w3.org/1999/xlink" x="0px" y="0px"
	 width="224px" height="305.05px" viewBox="0 0 224 305.05" enable-background="new 0 0 224 305.05" xml:space="preserve">
<g>
	<g>
		<polygon fill="#57C1EB" points="32.349,22.761 32.349,60.882 63.897,41.822 		"/>
	</g>
	<g>
		<path fill="#F6EFD9" d="M175.097,260.708H16.717c-6.6,0-12-5.4-12-12V17c0-6.6,5.4-12,12-12h158.379c6.6,0,12,5.4,12,12v231.708
			C187.097,255.308,181.697,260.708,175.097,260.708z"/>
		<path d="M175.097,265.708H16.717c-9.374,0-17-7.626-17-17V17c0-9.374,7.626-17,17-17h158.379c9.374,0,17,7.626,17,17v231.708
			C192.097,258.082,184.471,265.708,175.097,265.708z M16.717,10c-3.86,0-7,3.14-7,7v231.708c0,3.86,3.14,7,7,7h158.379
			c3.86,0,7-3.14,7-7V17c0-3.86-3.14-7-7-7H16.717z"/>
	</g>
	<g>
		<g>
			<path fill="#F6EFD9" d="M208.55,299.944H50.171c-6.6,0-12-5.4-12-12V56.237c0-6.6,5.4-12,12-12H208.55c6.6,0,12,5.4,12,12
				v231.708C220.55,294.544,215.15,299.944,208.55,299.944z"/>
			<path d="M208.55,304.944H50.171c-9.374,0-17-7.626-17-17V56.237c0-9.374,7.626-17,17-17H208.55c9.374,0,17,7.626,17,17v231.708
				C225.55,297.318,217.924,304.944,208.55,304.944z M50.171,49.237c-3.86,0-7,3.14-7,7v231.708c0,3.86,3.14,7,7,7H208.55
				c3.86,0,7-3.14,7-7V56.237c0-3.86-3.14-7-7-7H50.171z"/>
		</g>
		<g>
			<line fill="#F6EFD9" x1="71.074" y1="95.25" x2="187.646" y2="95.25"/>
			<rect x="71.074" y="90.25" width="116.572" height="10"/>
		</g>
		<g>
			<line fill="#F6EFD9" x1="71.074" y1="132.854" x2="187.646" y2="132.854"/>
			<rect x="71.074" y="127.854" width="116.572" height="10"/>
		</g>
		<g>
			<line fill="#F6EFD9" x1="71.074" y1="172.091" x2="187.646" y2="172.091"/>
			<rect x="71.074" y="167.091" width="116.572" height="10"/>
		</g>
		<g>
			<line fill="#F6EFD9" x1="71.074" y1="209.695" x2="187.646" y2="209.695"/>
			<rect x="71.074" y="204.695" width="116.572" height="10"/>
		</g>
		<g>
			<line fill="#F6EFD9" x1="71.074" y1="247.585" x2="187.646" y2="247.585"/>
			<rect x="71.074" y="242.585" width="116.572" height="10"/>
		</g>
	</g>
</g>
</svg>
